<svg width="233" height="45" viewBox="0 0 233 45" fill="none" xmlns="http://www.w3.org/2000/svg">
<g clip-path="url(#clip0_1416_12747)">
<path d="M54.5357 21.8147C54.5357 16.0291 52.2373 10.4804 48.1463 6.38938C44.0552 2.29833 38.5065 7.58693e-07 32.721 0C26.9354 -7.58691e-07 21.3867 2.29833 17.2957 6.38938C13.2046 10.4804 10.9062 16.0291 10.9062 21.8147H17.7234C19.9824 21.8147 21.7442 19.9216 22.5716 17.8196C23.1149 16.4395 23.9392 15.1712 25.0082 14.102C27.0538 12.0565 29.8282 10.9074 32.721 10.9074C35.6138 10.9074 38.3881 12.0565 40.4337 14.102C42.4792 16.1475 43.6283 18.9219 43.6283 21.8147H54.5357Z" fill="url(#paint0_linear_1416_12747)"/>
<path d="M41.9689 30.163C43.0653 27.5163 43.6296 24.6796 43.6296 21.8149H54.5358C54.5358 33.8628 44.7689 43.6295 32.721 43.6295C30.8343 43.6295 29.0033 43.39 27.2573 42.9398C28.2452 42.6852 29.2162 42.3611 30.1629 41.969C32.8096 40.8727 35.2144 39.2659 37.2402 37.2402C39.2659 35.2145 40.8728 32.8097 41.9689 30.163Z" fill="#0065F2"/>
<path d="M0 21.8145C-4.09827e-07 24.6793 0.564254 27.516 1.66054 30.1627C2.75684 32.8094 4.36369 35.2142 6.38938 37.2399C8.41506 39.2655 10.8199 40.8724 13.4666 41.9687C16.1132 43.065 18.9499 43.6292 21.8147 43.6292C24.6794 43.6292 27.5161 43.065 30.1628 41.9687C32.8095 40.8724 35.2143 39.2655 37.24 37.2399C39.2657 35.2142 40.8725 32.8094 41.9688 30.1627C43.0651 27.516 43.6295 24.6793 43.6295 21.8145H36.8123C34.5532 21.8145 32.7915 23.7075 31.9641 25.8095C31.9406 25.8694 31.9164 25.929 31.8918 25.9886C31.3436 27.3119 30.5402 28.5144 29.5273 29.5272C28.5145 30.54 27.312 31.3435 25.9888 31.8916C24.6655 32.4398 23.2471 32.7219 21.8147 32.7219C20.3823 32.7219 18.964 32.4398 17.6407 31.8916C16.3173 31.3435 15.1149 30.54 14.102 29.5272C13.0892 28.5144 12.2858 27.3119 11.7376 25.9886C11.1895 24.6652 10.9074 23.2469 10.9074 21.8145H0Z" fill="url(#paint1_linear_1416_12747)"/>
<path d="M0.00244141 21.8147C0.00244141 9.76674 9.76919 0 21.8171 0C23.7034 0 25.5338 0.239408 27.2796 0.689517C23.5335 1.65455 20.0778 3.60752 17.2958 6.3894C13.2048 10.4804 10.9065 16.0291 10.9065 21.8147H0.00244141Z" fill="#FF735C"/>
<path d="M82.4397 23.972L86.6877 26.924C85.5837 28.604 84.1197 29.936 82.2957 30.92C80.4717 31.88 78.4557 32.36 76.2477 32.36C72.7197 32.36 69.7557 31.124 67.3557 28.652C64.9797 26.18 63.7917 23.18 63.7917 19.652C63.7917 16.1 64.9797 13.088 67.3557 10.616C69.7557 8.144 72.7197 6.908 76.2477 6.908C78.4077 6.908 80.3877 7.388 82.1877 8.348C84.0117 9.284 85.4757 10.556 86.5797 12.164L82.2957 15.116C80.8077 12.956 78.7917 11.876 76.2477 11.876C74.2077 11.876 72.5037 12.632 71.1357 14.144C69.7677 15.632 69.0837 17.468 69.0837 19.652C69.0837 21.812 69.7677 23.648 71.1357 25.16C72.5037 26.648 74.2077 27.392 76.2477 27.392C77.5197 27.392 78.6957 27.08 79.7757 26.456C80.8557 25.832 81.7437 25.004 82.4397 23.972ZM92.6356 26.132V32H87.6316V15.188H92.6356V19.256C93.0436 17.792 93.6916 16.688 94.5796 15.944C95.4916 15.2 96.4276 14.828 97.3876 14.828C98.4916 14.828 99.4516 15.032 100.268 15.44L99.3676 19.94C98.6716 19.604 97.8196 19.436 96.8116 19.436C94.0276 19.436 92.6356 21.668 92.6356 26.132ZM116.606 15.188L106.238 40.244H100.946L104.978 30.272L98.4982 15.188H103.826L107.534 24.728L111.278 15.188H116.606ZM121.962 23.648C121.962 24.872 122.334 25.844 123.078 26.564C123.846 27.284 124.77 27.644 125.85 27.644C126.93 27.644 127.842 27.272 128.586 26.528C129.354 25.784 129.738 24.824 129.738 23.648C129.738 22.448 129.354 21.476 128.586 20.732C127.842 19.964 126.93 19.58 125.85 19.58C124.77 19.58 123.846 19.964 123.078 20.732C122.334 21.5 121.962 22.472 121.962 23.648ZM116.886 15.188H121.854V17.276C122.262 16.508 122.91 15.908 123.798 15.476C124.71 15.044 125.706 14.828 126.786 14.828C129.018 14.828 130.926 15.644 132.51 17.276C134.118 18.884 134.922 20.972 134.922 23.54C134.922 26.156 134.118 28.28 132.51 29.912C130.926 31.544 129.018 32.36 126.786 32.36C125.706 32.36 124.71 32.144 123.798 31.712C122.91 31.28 122.262 30.692 121.854 29.948V40.244H116.886V15.188ZM142.758 15.188H146.286V19.148H142.758V32H137.79V19.148H134.73V15.188H137.79V8.744H142.758V15.188ZM154.653 27.392C155.733 27.392 156.633 27.044 157.353 26.348C158.097 25.628 158.469 24.692 158.469 23.54C158.469 22.436 158.097 21.524 157.353 20.804C156.609 20.084 155.709 19.724 154.653 19.724C153.597 19.724 152.697 20.084 151.953 20.804C151.233 21.524 150.873 22.436 150.873 23.54C150.873 24.692 151.233 25.628 151.953 26.348C152.697 27.044 153.597 27.392 154.653 27.392ZM160.845 29.876C159.165 31.484 157.101 32.288 154.653 32.288C152.205 32.288 150.141 31.484 148.461 29.876C146.781 28.244 145.941 26.132 145.941 23.54C145.941 20.948 146.781 18.848 148.461 17.24C150.141 15.632 152.205 14.828 154.653 14.828C157.101 14.828 159.165 15.632 160.845 17.24C162.549 18.848 163.401 20.948 163.401 23.54C163.401 26.132 162.549 28.244 160.845 29.876ZM177.14 23.54C177.14 22.34 176.732 21.38 175.916 20.66C175.124 19.94 174.176 19.58 173.072 19.58C171.968 19.58 171.02 19.952 170.228 20.696C169.436 21.44 169.04 22.388 169.04 23.54C169.04 24.764 169.436 25.76 170.228 26.528C171.02 27.272 171.968 27.644 173.072 27.644C174.152 27.644 175.1 27.26 175.916 26.492C176.732 25.7 177.14 24.716 177.14 23.54ZM168.356 33.188C168.644 33.956 169.208 34.592 170.048 35.096C170.888 35.624 171.74 35.888 172.604 35.888C175.964 35.888 177.512 33.896 177.248 29.912C176.864 30.656 176.192 31.256 175.232 31.712C174.296 32.144 173.288 32.36 172.208 32.36C169.952 32.36 167.984 31.544 166.304 29.912C164.648 28.28 163.82 26.192 163.82 23.648C163.82 21.056 164.648 18.944 166.304 17.312C167.984 15.656 169.952 14.828 172.208 14.828C173.288 14.828 174.296 15.056 175.232 15.512C176.168 15.944 176.84 16.532 177.248 17.276V15.188H182.108V29.66C182.108 33.212 181.28 35.888 179.624 37.688C177.992 39.488 175.652 40.388 172.604 40.388C170.756 40.388 169.088 39.908 167.6 38.948C166.136 38.012 165.044 36.752 164.324 35.168C164.756 34.952 165.428 34.616 166.34 34.16C167.276 33.728 167.948 33.404 168.356 33.188ZM197.026 32V30.092C196.546 30.812 195.802 31.364 194.794 31.748C193.81 32.132 192.922 32.324 192.13 32.324C189.874 32.324 187.882 31.52 186.154 29.912C184.426 28.28 183.562 26.168 183.562 23.576C183.562 20.984 184.426 18.884 186.154 17.276C187.882 15.644 189.874 14.828 192.13 14.828C192.922 14.828 193.786 14.996 194.722 15.332C195.682 15.668 196.45 16.244 197.026 17.06V15.188H201.994V32H197.026ZM190.006 20.732C189.166 21.476 188.746 22.424 188.746 23.576C188.746 24.728 189.166 25.688 190.006 26.456C190.87 27.2 191.854 27.572 192.958 27.572C194.038 27.572 194.986 27.212 195.802 26.492C196.618 25.748 197.026 24.776 197.026 23.576C197.026 22.376 196.618 21.416 195.802 20.696C194.986 19.952 194.038 19.58 192.958 19.58C191.854 19.58 190.87 19.964 190.006 20.732ZM211.005 15.188H214.533V19.148H211.005V32H206.037V19.148H202.977V15.188H206.037V8.744H211.005V15.188ZM227.003 26.456L230.639 28.94C229.103 31.22 226.547 32.36 222.971 32.36C220.499 32.36 218.411 31.544 216.707 29.912C215.027 28.256 214.187 26.132 214.187 23.54C214.187 20.948 215.027 18.848 216.707 17.24C218.411 15.632 220.499 14.828 222.971 14.828C225.419 14.828 227.459 15.656 229.091 17.312C230.747 18.944 231.575 21.068 231.575 23.684C231.575 24.14 231.551 24.656 231.503 25.232H219.191C219.311 26.144 219.779 26.84 220.595 27.32C221.435 27.8 222.347 28.04 223.331 28.04C224.963 28.04 226.187 27.512 227.003 26.456ZM219.263 22.1H226.535C226.415 21.164 225.995 20.456 225.275 19.976C224.579 19.472 223.823 19.22 223.007 19.22C222.191 19.22 221.411 19.46 220.667 19.94C219.923 20.42 219.455 21.14 219.263 22.1Z" fill="#FF9358"/>
</g>
<defs>
<linearGradient id="paint0_linear_1416_12747" x1="54.5357" y1="10.9074" x2="10.9062" y2="10.9074" gradientUnits="userSpaceOnUse">
<stop stop-color="#27E3DE"/>
<stop offset="1" stop-color="#1544BE"/>
</linearGradient>
<linearGradient id="paint1_linear_1416_12747" x1="1.43033e-06" y1="32.7219" x2="43.6295" y2="32.7219" gradientUnits="userSpaceOnUse">
<stop stop-color="#FFCE52"/>
<stop offset="1" stop-color="#FF675C"/>
</linearGradient>
<clipPath id="clip0_1416_12747">
<rect width="233" height="45" fill="white"/>
</clipPath>
</defs>
</svg>
