<svg width="1080" height="147" viewBox="0 0 1080 147" fill="none" xmlns="http://www.w3.org/2000/svg">
<path fill-rule="evenodd" clip-rule="evenodd" d="M948.007 65.6898C947.93 64.7757 947.891 63.8508 947.891 62.9169C947.891 61.9829 947.93 61.0581 948.007 60.1439C948.059 59.5307 948.596 59.0757 949.206 59.1276C949.817 59.1796 950.27 59.7188 950.218 60.332C950.146 61.1836 950.11 62.0458 950.11 62.9169C950.11 63.788 950.146 64.6501 950.218 65.5018C950.27 66.115 949.817 66.6542 949.206 66.7061C948.596 66.758 948.059 66.303 948.007 65.6898ZM951.345 50.9325C950.788 50.6764 950.543 50.0151 950.798 49.4555C951.57 47.7619 952.483 46.1484 953.522 44.6309C953.869 44.1238 954.56 43.9953 955.065 44.3439C955.57 44.6926 955.698 45.3863 955.351 45.8934C954.384 47.3057 953.534 48.8071 952.816 50.3831C952.561 50.9427 951.902 51.1887 951.345 50.9325ZM951.345 74.9012C951.902 74.6451 952.561 74.891 952.816 75.4506C953.534 77.0266 954.384 78.528 955.351 79.9403C955.698 80.4474 955.57 81.1412 955.065 81.4898C954.56 81.8384 953.869 81.71 953.522 81.2028C952.483 79.6853 951.57 78.0719 950.798 76.3782C950.543 75.8186 950.788 75.1574 951.345 74.9012ZM960.971 38.2937C960.614 37.7933 960.729 37.0972 961.227 36.7391C962.722 35.6643 964.314 34.7185 965.986 33.918C966.54 33.6532 967.202 33.8888 967.465 34.4444C967.729 34.9999 967.494 35.6649 966.941 35.9297C965.388 36.6732 963.909 37.552 962.519 38.5512C962.02 38.9094 961.327 38.7941 960.971 38.2937ZM960.971 87.54C961.327 87.0396 962.02 86.9243 962.519 87.2825C963.909 88.2817 965.388 89.1605 966.941 89.9041C967.494 90.1688 967.729 90.8338 967.465 91.3894C967.202 91.9449 966.54 92.1806 965.986 91.9158C964.314 91.1152 962.722 90.1694 961.227 89.0947C960.729 88.7365 960.614 88.0404 960.971 87.54ZM975.603 93.6185C975.656 93.0055 976.195 92.5524 976.805 92.6064C977.652 92.6814 978.509 92.7197 979.375 92.7197C980.241 92.7197 981.098 92.6814 981.945 92.6064C982.555 92.5524 983.094 93.0055 983.148 93.6185C983.202 94.2316 982.75 94.7723 982.14 94.8264C981.229 94.9071 980.307 94.9482 979.375 94.9482C978.444 94.9482 977.522 94.9071 976.611 94.8264C976 94.7723 975.549 94.2316 975.603 93.6185ZM975.603 32.2152C975.549 31.6022 976 31.0614 976.611 31.0073C977.522 30.9266 978.444 30.8855 979.375 30.8855C980.307 30.8855 981.229 30.9266 982.14 31.0073C982.75 31.0614 983.202 31.6022 983.148 32.2152C983.094 32.8282 982.555 33.2814 981.945 33.2273C981.098 33.1523 980.241 33.1141 979.375 33.1141C978.509 33.1141 977.652 33.1523 976.805 33.2273C976.195 33.2814 975.656 32.8282 975.603 32.2152ZM991.285 34.4444C991.549 33.8888 992.211 33.6532 992.764 33.9179C994.437 34.7185 996.028 35.6643 997.523 36.739C998.022 37.0972 998.137 37.7933 997.78 38.2937C997.423 38.7941 996.73 38.9094 996.232 38.5512C994.842 37.552 993.363 36.6732 991.809 35.9297C991.256 35.6649 991.021 34.9999 991.285 34.4444ZM991.285 91.3894C991.021 90.8338 991.256 90.1688 991.809 89.9041C993.363 89.1605 994.842 88.2817 996.232 87.2825C996.73 86.9243 997.423 87.0396 997.78 87.54C998.137 88.0404 998.022 88.7365 997.523 89.0947C996.028 90.1694 994.437 91.1152 992.764 91.9158C992.211 92.1806 991.549 91.9449 991.285 91.3894ZM1003.69 44.3439C1004.19 43.9953 1004.88 44.1238 1005.23 44.6309C1006.27 46.1484 1007.18 47.7618 1007.95 49.4555C1008.21 50.0151 1007.96 50.6764 1007.41 50.9325C1006.85 51.1887 1006.19 50.9427 1005.93 50.3831C1005.22 48.8071 1004.37 47.3057 1003.4 45.8934C1003.05 45.3863 1003.18 44.6926 1003.69 44.3439ZM1003.69 81.4898C1003.18 81.1411 1003.05 80.4474 1003.4 79.9403C1004.37 78.528 1005.22 77.0266 1005.93 75.4506C1006.19 74.891 1006.85 74.6451 1007.41 74.9012C1007.96 75.1574 1008.21 75.8186 1007.95 76.3782C1007.18 78.0719 1006.27 79.6853 1005.23 81.2028C1004.88 81.71 1004.19 81.8384 1003.69 81.4898ZM1009.54 66.7061C1008.93 66.6542 1008.48 66.115 1008.53 65.5018C1008.6 64.6501 1008.64 63.788 1008.64 62.9169C1008.64 62.0458 1008.6 61.1836 1008.53 60.332C1008.48 59.7188 1008.93 59.1796 1009.54 59.1276C1010.15 59.0757 1010.69 59.5307 1010.74 60.1439C1010.82 61.058 1010.86 61.9829 1010.86 62.9169C1010.86 63.8508 1010.82 64.7757 1010.74 65.6898C1010.69 66.303 1010.15 66.758 1009.54 66.7061Z" fill="white" fill-opacity="0.28"/>
<path fill-rule="evenodd" clip-rule="evenodd" d="M1010.15 76.0518C1010.15 68.4629 1004.1 62.3109 996.647 62.3109C989.191 62.3109 983.147 68.4629 983.147 76.0518C983.147 83.6407 989.191 89.7927 996.647 89.7927C1004.1 89.7927 1010.15 83.6407 1010.15 76.0518ZM1030 76.0518C1030 57.3027 1015.07 42.1036 996.647 42.1036C978.227 42.1036 963.294 57.3027 963.294 76.0518C963.294 94.8009 978.227 110 996.647 110C1015.07 110 1030 94.8009 1030 76.0518Z" fill="white" fill-opacity="0.26"/>
<path fill-rule="evenodd" clip-rule="evenodd" d="M213.98 75.6308C213.981 75.5816 213.982 75.5323 213.983 75.4831C213.994 74.9901 214 74.4957 214 74C214 73.5043 213.994 73.0099 213.983 72.5169C213.982 72.4677 213.981 72.4184 213.98 72.3692C213.978 72.3199 213.977 72.2706 213.976 72.2214C213.813 72.2255 213.684 72.3607 213.688 72.5236C213.699 73.0144 213.704 73.5065 213.704 74C213.704 74.4934 213.699 74.9856 213.688 75.4763C213.684 75.6393 213.813 75.7745 213.976 75.7786C213.977 75.7293 213.978 75.6801 213.98 75.6308ZM213.868 78.1412C213.706 78.1304 213.565 78.2533 213.554 78.4159C213.486 79.399 213.397 80.3759 213.285 81.3461C213.267 81.5081 213.383 81.6545 213.545 81.6735C213.551 81.6245 213.556 81.5756 213.562 81.5267C213.568 81.4778 213.573 81.4288 213.579 81.3799C213.691 80.4051 213.781 79.4237 213.849 78.4361C213.852 78.387 213.855 78.3378 213.859 78.2887C213.862 78.2395 213.865 78.1904 213.868 78.1412ZM213.221 84.0161C213.06 83.9904 212.908 84.0998 212.882 84.2608C212.725 85.2326 212.546 86.1971 212.345 87.1536C212.311 87.3132 212.413 87.4697 212.573 87.5035C212.583 87.4554 212.593 87.4072 212.604 87.359C212.614 87.3108 212.624 87.2626 212.634 87.2144C212.836 86.2534 213.016 85.2844 213.174 84.308C213.182 84.2594 213.19 84.2108 213.198 84.1621C213.205 84.1134 213.213 84.0648 213.221 84.0161ZM212.033 89.8063C211.875 89.7658 211.715 89.8607 211.674 90.0185C211.427 90.9711 211.159 91.915 210.87 92.8498C210.821 93.0055 210.908 93.1708 211.064 93.2193C211.079 93.1723 211.093 93.1253 211.108 93.0783C211.123 93.0312 211.137 92.9842 211.152 92.9371C211.442 91.998 211.712 91.0497 211.96 90.0927C211.972 90.045 211.984 89.9973 211.997 89.9495C212.009 89.9018 212.021 89.8541 212.033 89.8063ZM210.312 95.463C210.159 95.408 209.99 95.4875 209.935 95.6408C209.6 96.5658 209.246 97.4807 208.871 98.3852C208.808 98.5358 208.879 98.7085 209.03 98.7712C209.049 98.7258 209.068 98.6804 209.087 98.6349C209.106 98.5894 209.125 98.5439 209.144 98.4984C209.52 97.5897 209.877 96.6705 210.213 95.7412C210.229 95.6949 210.246 95.6485 210.263 95.6022C210.279 95.5558 210.296 95.5094 210.312 95.463ZM208.073 100.935C207.925 100.866 207.75 100.929 207.68 101.077C207.262 101.966 206.824 102.844 206.366 103.711C206.29 103.855 206.345 104.033 206.489 104.11C206.512 104.066 206.535 104.023 206.559 103.979C206.582 103.936 206.605 103.892 206.628 103.849C207.087 102.978 207.528 102.096 207.948 101.203C207.969 101.158 207.99 101.114 208.011 101.069C208.031 101.024 208.052 100.98 208.073 100.935ZM205.336 106.176C205.195 106.093 205.015 106.14 204.932 106.281C204.433 107.127 203.916 107.961 203.38 108.781C203.291 108.918 203.329 109.101 203.465 109.19C203.493 109.149 203.52 109.108 203.547 109.067C203.574 109.026 203.601 108.984 203.628 108.943C204.166 108.119 204.686 107.281 205.187 106.431C205.212 106.388 205.237 106.346 205.261 106.303C205.286 106.261 205.311 106.218 205.336 106.176ZM202.127 111.141C201.994 111.046 201.81 111.076 201.715 111.208C201.141 112.005 200.549 112.787 199.939 113.555C199.838 113.683 199.859 113.869 199.987 113.97C200.017 113.932 200.048 113.893 200.079 113.855C200.11 113.816 200.14 113.778 200.171 113.739C200.783 112.967 201.378 112.181 201.955 111.381C201.983 111.341 202.012 111.301 202.041 111.261C202.07 111.221 202.098 111.181 202.127 111.141ZM198.474 115.79C198.351 115.683 198.165 115.696 198.058 115.819C197.413 116.559 196.752 117.284 196.074 117.993C195.962 118.111 195.966 118.298 196.084 118.411C196.118 118.375 196.152 118.34 196.186 118.304C196.22 118.269 196.254 118.233 196.288 118.197C196.969 117.485 197.633 116.756 198.281 116.013C198.313 115.976 198.345 115.939 198.378 115.901C198.41 115.864 198.442 115.827 198.474 115.79ZM194.411 120.084C194.298 119.966 194.111 119.962 193.993 120.074C193.284 120.752 192.559 121.413 191.819 122.058C191.696 122.165 191.683 122.351 191.79 122.474C191.827 122.442 191.864 122.41 191.901 122.378C191.939 122.345 191.976 122.313 192.013 122.281C192.756 121.633 193.485 120.969 194.197 120.288C194.233 120.254 194.269 120.22 194.304 120.186C194.34 120.152 194.375 120.118 194.411 120.084ZM189.97 123.987C189.869 123.859 189.683 123.838 189.555 123.939C188.787 124.549 188.005 125.141 187.208 125.715C187.076 125.81 187.046 125.994 187.141 126.127C187.181 126.098 187.221 126.07 187.261 126.041C187.301 126.012 187.341 125.983 187.381 125.955C188.181 125.378 188.967 124.783 189.739 124.171C189.778 124.14 189.816 124.11 189.855 124.079C189.893 124.048 189.932 124.017 189.97 123.987ZM185.19 127.465C185.101 127.329 184.918 127.291 184.781 127.38C183.961 127.916 183.127 128.433 182.281 128.932C182.14 129.015 182.093 129.195 182.176 129.336C182.218 129.311 182.261 129.286 182.303 129.261C182.346 129.237 182.388 129.212 182.431 129.187C183.281 128.686 184.119 128.166 184.943 127.628C184.984 127.601 185.026 127.574 185.067 127.547C185.108 127.52 185.149 127.493 185.19 127.465ZM180.11 130.489C180.033 130.345 179.855 130.29 179.711 130.366C178.844 130.824 177.966 131.262 177.077 131.68C176.929 131.75 176.866 131.925 176.935 132.073C176.98 132.052 177.024 132.031 177.069 132.011C177.114 131.99 177.158 131.969 177.203 131.948C178.096 131.528 178.978 131.087 179.849 130.628C179.892 130.605 179.936 130.582 179.979 130.559C180.023 130.535 180.066 130.512 180.11 130.489ZM174.771 133.03C174.708 132.879 174.536 132.808 174.385 132.871C173.481 133.246 172.566 133.6 171.641 133.935C171.487 133.99 171.408 134.159 171.463 134.312C171.509 134.296 171.556 134.279 171.602 134.263C171.649 134.246 171.695 134.229 171.741 134.213C172.67 133.877 173.59 133.52 174.498 133.144C174.544 133.125 174.589 133.106 174.635 133.087C174.68 133.068 174.726 133.049 174.771 133.03ZM169.219 135.064C169.171 134.908 169.006 134.821 168.85 134.87C167.915 135.159 166.971 135.427 166.019 135.674C165.861 135.715 165.766 135.875 165.806 136.033C165.854 136.021 165.902 136.009 165.95 135.997C165.997 135.984 166.045 135.972 166.093 135.96C167.05 135.712 167.998 135.442 168.937 135.152C168.984 135.137 169.031 135.123 169.078 135.108C169.125 135.093 169.172 135.079 169.219 135.064ZM163.504 136.573C163.47 136.413 163.313 136.311 163.154 136.345C162.197 136.546 161.233 136.725 160.261 136.882C160.1 136.908 159.99 137.06 160.016 137.221C160.065 137.213 160.113 137.205 160.162 137.198C160.211 137.19 160.259 137.182 160.308 137.174C161.284 137.016 162.253 136.836 163.214 136.634C163.263 136.624 163.311 136.614 163.359 136.604C163.407 136.593 163.455 136.583 163.504 136.573ZM157.673 137.545C157.655 137.383 157.508 137.267 157.346 137.285C156.376 137.397 155.399 137.486 154.416 137.554C154.253 137.565 154.13 137.706 154.141 137.868C154.19 137.865 154.24 137.862 154.289 137.859C154.338 137.855 154.387 137.852 154.436 137.849C155.424 137.781 156.405 137.691 157.38 137.579C157.429 137.573 157.478 137.568 157.527 137.562C157.576 137.556 157.625 137.551 157.673 137.545ZM151.779 137.976C151.775 137.813 151.639 137.684 151.476 137.688C150.986 137.699 150.493 137.704 150 137.704C149.507 137.704 149.014 137.699 148.524 137.688C148.361 137.684 148.225 137.813 148.221 137.976C148.271 137.977 148.32 137.978 148.369 137.98C148.418 137.981 148.468 137.982 148.517 137.983C149.01 137.994 149.504 138 150 138C150.496 138 150.99 137.994 151.483 137.983C151.532 137.982 151.582 137.981 151.631 137.98C151.68 137.978 151.729 137.977 151.779 137.976ZM145.859 137.868C145.87 137.706 145.747 137.565 145.584 137.554C144.601 137.486 143.624 137.397 142.654 137.285C142.492 137.267 142.345 137.383 142.327 137.545C142.375 137.551 142.424 137.556 142.473 137.562C142.522 137.568 142.571 137.573 142.62 137.579C143.595 137.691 144.576 137.781 145.564 137.849C145.613 137.852 145.662 137.855 145.711 137.859C145.76 137.862 145.81 137.865 145.859 137.868ZM139.984 137.221C140.01 137.06 139.9 136.908 139.739 136.882C138.767 136.725 137.803 136.546 136.846 136.345C136.687 136.311 136.53 136.413 136.496 136.573C136.545 136.583 136.593 136.593 136.641 136.604C136.689 136.614 136.737 136.624 136.786 136.634C137.747 136.836 138.716 137.016 139.692 137.174C139.741 137.182 139.789 137.19 139.838 137.198C139.887 137.205 139.935 137.213 139.984 137.221ZM134.194 136.033C134.234 135.875 134.139 135.715 133.981 135.674C133.029 135.427 132.085 135.159 131.15 134.87C130.994 134.821 130.829 134.908 130.781 135.064C130.828 135.079 130.875 135.093 130.922 135.108C130.969 135.123 131.016 135.137 131.063 135.152C132.002 135.442 132.95 135.712 133.907 135.96C133.955 135.972 134.003 135.984 134.05 135.997C134.098 136.009 134.146 136.021 134.194 136.033ZM128.537 134.312C128.592 134.159 128.513 133.99 128.359 133.935C127.434 133.6 126.519 133.246 125.615 132.871C125.464 132.808 125.292 132.879 125.229 133.03C125.274 133.049 125.32 133.068 125.365 133.087C125.411 133.106 125.456 133.125 125.502 133.144C126.41 133.52 127.33 133.877 128.259 134.213C128.305 134.229 128.351 134.246 128.398 134.263C128.444 134.279 128.491 134.296 128.537 134.312ZM123.065 132.073C123.134 131.925 123.071 131.75 122.923 131.68C122.034 131.262 121.156 130.824 120.289 130.366C120.145 130.29 119.967 130.345 119.89 130.489C119.934 130.512 119.977 130.535 120.021 130.559C120.064 130.582 120.108 130.605 120.151 130.628C121.022 131.087 121.904 131.528 122.797 131.948C122.842 131.969 122.886 131.99 122.931 132.011C122.976 132.031 123.02 132.052 123.065 132.073ZM117.824 129.336C117.907 129.195 117.86 129.015 117.719 128.932C116.873 128.433 116.039 127.916 115.219 127.38C115.082 127.291 114.899 127.329 114.81 127.465C114.851 127.493 114.892 127.52 114.933 127.547C114.974 127.574 115.016 127.601 115.057 127.628C115.881 128.166 116.719 128.686 117.569 129.187C117.612 129.212 117.654 129.237 117.697 129.261C117.739 129.286 117.782 129.311 117.824 129.336ZM112.859 126.127C112.954 125.994 112.924 125.81 112.792 125.715C111.995 125.141 111.213 124.549 110.444 123.939C110.317 123.838 110.131 123.859 110.03 123.987C110.068 124.017 110.107 124.048 110.145 124.079C110.184 124.11 110.222 124.14 110.261 124.171C111.033 124.783 111.819 125.378 112.619 125.955C112.659 125.983 112.699 126.012 112.739 126.041C112.779 126.07 112.819 126.098 112.859 126.127ZM108.21 122.474C108.317 122.351 108.304 122.165 108.181 122.058C107.441 121.413 106.716 120.752 106.007 120.074C105.889 119.962 105.702 119.966 105.589 120.084C105.625 120.118 105.66 120.152 105.696 120.186C105.731 120.22 105.767 120.254 105.803 120.288C106.515 120.969 107.244 121.633 107.987 122.281C108.024 122.313 108.061 122.345 108.099 122.378C108.136 122.41 108.173 122.442 108.21 122.474ZM103.916 118.411C104.034 118.298 104.038 118.111 103.926 117.993C103.248 117.284 102.587 116.559 101.942 115.819C101.835 115.696 101.649 115.683 101.526 115.79C101.558 115.827 101.59 115.864 101.622 115.901C101.655 115.939 101.687 115.976 101.719 116.013C102.367 116.756 103.031 117.485 103.712 118.197C103.746 118.233 103.78 118.269 103.814 118.304C103.848 118.34 103.882 118.375 103.916 118.411ZM100.013 113.97C100.141 113.869 100.162 113.683 100.061 113.555C99.4513 112.787 98.8593 112.005 98.2853 111.208C98.1899 111.076 98.0056 111.046 97.8732 111.141C97.9018 111.181 97.9305 111.221 97.9592 111.261C97.9879 111.301 98.0167 111.341 98.0455 111.381C98.6222 112.181 99.2169 112.967 99.8291 113.739C99.8597 113.778 99.8904 113.816 99.9211 113.855C99.9518 113.893 99.9825 113.932 100.013 113.97ZM96.5345 109.19C96.6707 109.101 96.709 108.918 96.6198 108.781C96.084 107.961 95.5666 107.127 95.0681 106.281C94.9854 106.14 94.8046 106.093 94.664 106.176C94.6888 106.218 94.7136 106.261 94.7385 106.303C94.7634 106.346 94.7884 106.388 94.8134 106.431C95.3141 107.281 95.834 108.119 96.3723 108.943C96.3993 108.984 96.4262 109.026 96.4533 109.067C96.4803 109.108 96.5074 109.149 96.5345 109.19ZM93.5109 104.11C93.6548 104.033 93.7098 103.855 93.6336 103.711C93.1761 102.844 92.7379 101.966 92.3197 101.077C92.2503 100.929 92.0747 100.866 91.927 100.935C91.9478 100.98 91.9686 101.024 91.9895 101.069C92.0103 101.114 92.0312 101.158 92.0522 101.203C92.4724 102.096 92.9126 102.978 93.3723 103.849C93.3953 103.892 93.4183 103.936 93.4414 103.979C93.4646 104.023 93.4877 104.066 93.5109 104.11ZM90.9702 98.7712C91.1206 98.7085 91.1919 98.5358 91.1294 98.3852C90.7544 97.4807 90.3995 96.5658 90.0655 95.6408C90.0101 95.4875 89.8411 95.408 89.6877 95.463C89.7042 95.5094 89.7208 95.5558 89.7374 95.6022C89.754 95.6485 89.7707 95.6949 89.7875 95.7412C90.123 96.6705 90.4795 97.5897 90.8564 98.4984C90.8752 98.5439 90.8942 98.5894 90.9131 98.6349C90.9321 98.6804 90.9511 98.7258 90.9702 98.7712ZM88.936 93.2193C89.0916 93.1708 89.1786 93.0055 89.1304 92.8498C88.8413 91.915 88.5731 90.9711 88.3264 90.0185C88.2855 89.8607 88.1246 89.7658 87.9668 89.8063C87.9789 89.8541 87.9911 89.9018 88.0033 89.9495C88.0156 89.9973 88.0279 90.045 88.0402 90.0927C88.2881 91.0497 88.5575 91.998 88.848 92.9371C88.8626 92.9842 88.8772 93.0312 88.8918 93.0783C88.9065 93.1253 88.9212 93.1723 88.936 93.2193ZM87.4272 87.5035C87.5866 87.4697 87.6886 87.3132 87.6551 87.1536C87.4543 86.1971 87.2749 85.2326 87.1176 84.2608C87.0915 84.0998 86.9401 83.9904 86.7792 84.0161C86.7868 84.0648 86.7946 84.1134 86.8023 84.1621C86.8101 84.2108 86.8179 84.2594 86.8258 84.308C86.9839 85.2844 87.164 86.2534 87.3658 87.2144C87.3759 87.2626 87.3861 87.3108 87.3963 87.359C87.4066 87.4072 87.4168 87.4554 87.4272 87.5035ZM86.4553 81.6735C86.6171 81.6545 86.7332 81.5081 86.7146 81.3461C86.6032 80.3759 86.5136 79.399 86.4463 78.416C86.4351 78.2533 86.2944 78.1304 86.1318 78.1412C86.135 78.1904 86.1382 78.2395 86.1414 78.2887C86.1447 78.3379 86.148 78.387 86.1513 78.4361C86.219 79.4237 86.309 80.4051 86.4209 81.3799C86.4265 81.4288 86.4322 81.4778 86.4379 81.5267C86.4436 81.5756 86.4494 81.6245 86.4553 81.6735ZM86.0242 75.7786C86.1871 75.7745 86.3161 75.6394 86.3124 75.4764C86.3012 74.9856 86.2956 74.4935 86.2956 74C86.2956 73.5066 86.3012 73.0144 86.3124 72.5237C86.3161 72.3607 86.1871 72.2255 86.0242 72.2214C86.0229 72.2707 86.0216 72.3199 86.0204 72.3692C86.0191 72.4184 86.018 72.4677 86.0168 72.5169C86.0056 73.0099 86 73.5043 86 74C86 74.4957 86.0056 74.9901 86.0168 75.4831C86.018 75.5323 86.0191 75.5816 86.0204 75.6308C86.0216 75.6801 86.0229 75.7294 86.0242 75.7786ZM86.1318 69.8588C86.2944 69.8696 86.4351 69.7467 86.4463 69.5841C86.5136 68.601 86.6032 67.6241 86.7146 66.6539C86.7332 66.4919 86.6171 66.3455 86.4553 66.3265C86.4494 66.3755 86.4436 66.4244 86.4379 66.4733C86.4322 66.5222 86.4265 66.5712 86.4209 66.6201C86.309 67.5949 86.219 68.5763 86.1513 69.5639C86.148 69.613 86.1447 69.6622 86.1414 69.7113C86.1382 69.7605 86.135 69.8097 86.1318 69.8588ZM86.7792 63.9839C86.9401 64.0096 87.0915 63.9002 87.1176 63.7392C87.2749 62.7674 87.4543 61.8029 87.6551 60.8463C87.6886 60.6868 87.5866 60.5303 87.4272 60.4965C87.4168 60.5446 87.4066 60.5928 87.3963 60.641C87.3861 60.6892 87.3759 60.7374 87.3658 60.7856C87.164 61.7466 86.9839 62.7156 86.8258 63.692C86.8179 63.7406 86.8101 63.7892 86.8023 63.8379C86.7946 63.8866 86.7868 63.9352 86.7792 63.9839ZM87.9668 58.1937C88.1246 58.2342 88.2855 58.1393 88.3264 57.9815C88.5731 57.0289 88.8413 56.085 89.1304 55.1502C89.1786 54.9945 89.0916 54.8292 88.936 54.7807C88.9212 54.8277 88.9065 54.8747 88.8918 54.9217C88.8772 54.9688 88.8626 55.0158 88.848 55.0629C88.5575 56.002 88.2881 56.9503 88.0402 57.9073C88.0279 57.955 88.0156 58.0027 88.0033 58.0505C87.9911 58.0982 87.9789 58.1459 87.9668 58.1937ZM89.6877 52.537C89.8411 52.592 90.0101 52.5125 90.0655 52.3592C90.3995 51.4343 90.7544 50.5193 91.1294 49.6148C91.1919 49.4642 91.1206 49.2915 90.9702 49.2288C90.9511 49.2742 90.9321 49.3196 90.9131 49.3651C90.8942 49.4106 90.8752 49.4561 90.8564 49.5016C90.4795 50.4103 90.1231 51.3295 89.7875 52.2588C89.7707 52.3051 89.754 52.3515 89.7374 52.3978C89.7208 52.4442 89.7042 52.4906 89.6877 52.537ZM91.927 47.065C92.0747 47.134 92.2503 47.0705 92.3197 46.923C92.7379 46.0337 93.1761 45.1556 93.6336 44.2893C93.7098 44.1452 93.6548 43.9666 93.5109 43.8902C93.4877 43.9337 93.4646 43.9771 93.4414 44.0207C93.4183 44.0642 93.3953 44.1077 93.3723 44.1513C92.9126 45.0216 92.4724 45.9037 92.0522 46.7972C92.0313 46.8418 92.0103 46.8864 91.9895 46.931C91.9686 46.9756 91.9478 47.0203 91.927 47.065ZM94.664 41.8245C94.8046 41.9068 94.9854 41.8599 95.0681 41.7194C95.5666 40.8731 96.084 40.0392 96.6198 39.2185C96.709 39.082 96.6707 38.8992 96.5345 38.8098C96.5074 38.8509 96.4803 38.8921 96.4533 38.9332C96.4262 38.9744 96.3993 39.0157 96.3723 39.0569C95.834 39.8814 95.3141 40.7191 94.8134 41.5694C94.7884 41.6118 94.7634 41.6543 94.7385 41.6968C94.7136 41.7393 94.6888 41.7819 94.664 41.8245ZM97.8732 36.8593C98.0056 36.9542 98.1899 36.9242 98.2853 36.7919C98.8593 35.9954 99.4513 35.2128 100.061 34.4445C100.162 34.3168 100.141 34.1312 100.013 34.0296C99.9825 34.0681 99.9518 34.1066 99.9211 34.1451C99.8904 34.1836 99.8597 34.2222 99.8291 34.2608C99.2169 35.0326 98.6222 35.8189 98.0455 36.619C98.0167 36.659 97.9879 36.699 97.9592 36.739C97.9305 36.7791 97.9018 36.8192 97.8732 36.8593ZM101.526 32.2104C101.649 32.3172 101.835 32.3042 101.942 32.1812C102.587 31.4412 103.248 30.7161 103.926 30.0067C104.038 29.8888 104.034 29.7021 103.916 29.5892C103.882 29.6247 103.848 29.6602 103.814 29.6958C103.78 29.7313 103.746 29.7669 103.712 29.8025C103.031 30.5152 102.367 31.2436 101.719 31.9871C101.687 32.0242 101.655 32.0614 101.622 32.0986C101.59 32.1359 101.558 32.1731 101.526 32.2104ZM105.589 27.9165C105.702 28.034 105.889 28.0382 106.007 27.9256C106.716 27.248 107.441 26.5867 108.181 25.9421C108.304 25.8351 108.317 25.6487 108.21 25.5256C108.173 25.5578 108.136 25.59 108.099 25.6223C108.061 25.6545 108.024 25.6869 107.987 25.7192C107.244 26.3667 106.515 27.0311 105.803 27.7118C105.767 27.7458 105.731 27.7799 105.696 27.814C105.66 27.8481 105.625 27.8823 105.589 27.9165ZM110.03 24.0133C110.131 24.1407 110.317 24.162 110.444 24.0607C111.213 23.4513 111.995 22.8593 112.792 22.2853C112.924 22.1899 112.954 22.0056 112.859 21.8732C112.819 21.9018 112.779 21.9305 112.739 21.9592C112.699 21.9879 112.659 22.0167 112.619 22.0455C111.819 22.6222 111.033 23.2169 110.261 23.8291C110.222 23.8597 110.184 23.8904 110.145 23.9211C110.107 23.9518 110.068 23.9825 110.03 24.0133ZM114.81 20.5345C114.899 20.6707 115.082 20.709 115.219 20.6198C116.039 20.084 116.873 19.5666 117.719 19.0681C117.86 18.9854 117.907 18.8046 117.824 18.664C117.782 18.6888 117.739 18.7136 117.697 18.7385C117.654 18.7634 117.612 18.7884 117.569 18.8134C116.719 19.3141 115.881 19.834 115.057 20.3723C115.016 20.3993 114.974 20.4262 114.933 20.4533C114.892 20.4803 114.851 20.5074 114.81 20.5345ZM119.89 17.5109C119.967 17.6548 120.145 17.7098 120.289 17.6336C121.156 17.1761 122.034 16.7379 122.923 16.3197C123.071 16.2503 123.134 16.0747 123.065 15.927C123.02 15.9478 122.976 15.9686 122.931 15.9895C122.886 16.0103 122.842 16.0312 122.797 16.0522C121.904 16.4724 121.022 16.9126 120.151 17.3723C120.108 17.3953 120.064 17.4183 120.021 17.4414C119.977 17.4646 119.934 17.4877 119.89 17.5109ZM125.229 14.9702C125.292 15.1206 125.464 15.1919 125.615 15.1294C126.519 14.7544 127.434 14.3995 128.359 14.0655C128.513 14.0101 128.592 13.8411 128.537 13.6877C128.491 13.7042 128.444 13.7208 128.398 13.7374C128.351 13.754 128.305 13.7707 128.259 13.7875C127.33 14.123 126.41 14.4795 125.502 14.8564C125.456 14.8752 125.411 14.8942 125.365 14.9131C125.32 14.9321 125.274 14.9511 125.229 14.9702ZM130.781 12.936C130.829 13.0916 130.994 13.1786 131.15 13.1304C132.085 12.8413 133.029 12.5731 133.981 12.3264C134.139 12.2855 134.234 12.1246 134.194 11.9668C134.146 11.9789 134.098 11.9911 134.05 12.0033C134.003 12.0156 133.955 12.0279 133.907 12.0402C132.95 12.2881 132.002 12.5575 131.063 12.848C131.016 12.8626 130.969 12.8772 130.922 12.8918C130.875 12.9065 130.828 12.9212 130.781 12.936ZM136.496 11.4272C136.53 11.5866 136.687 11.6886 136.846 11.6551C137.803 11.4543 138.767 11.2749 139.739 11.1176C139.9 11.0915 140.01 10.9401 139.984 10.7792C139.935 10.7868 139.887 10.7946 139.838 10.8023C139.789 10.8101 139.741 10.8179 139.692 10.8258C138.716 10.9839 137.747 11.164 136.786 11.3658C136.737 11.3759 136.689 11.3861 136.641 11.3963C136.593 11.4066 136.545 11.4168 136.496 11.4272ZM142.327 10.4553C142.345 10.6171 142.492 10.7332 142.654 10.7146C143.624 10.6032 144.601 10.5136 145.584 10.4463C145.747 10.4351 145.87 10.2944 145.859 10.1318C145.81 10.135 145.76 10.1382 145.711 10.1414C145.662 10.1447 145.613 10.148 145.564 10.1513C144.576 10.219 143.595 10.309 142.62 10.4209C142.571 10.4265 142.522 10.4322 142.473 10.4379C142.424 10.4436 142.375 10.4494 142.327 10.4553ZM148.221 10.0242C148.225 10.1871 148.361 10.3161 148.524 10.3124C149.014 10.3012 149.507 10.2956 150 10.2956C150.493 10.2956 150.986 10.3012 151.476 10.3124C151.639 10.3161 151.774 10.1871 151.779 10.0242C151.729 10.0229 151.68 10.0216 151.631 10.0204C151.582 10.0191 151.532 10.018 151.483 10.0168C150.99 10.0056 150.496 10 150 10C149.504 10 149.01 10.0056 148.517 10.0168C148.468 10.018 148.418 10.0191 148.369 10.0204C148.32 10.0216 148.271 10.0229 148.221 10.0242ZM154.141 10.1318C154.13 10.2944 154.253 10.4351 154.416 10.4463C155.399 10.5136 156.376 10.6032 157.346 10.7146C157.508 10.7332 157.655 10.6171 157.673 10.4553C157.625 10.4494 157.576 10.4436 157.527 10.4379C157.478 10.4322 157.429 10.4265 157.38 10.4209C156.405 10.309 155.424 10.219 154.436 10.1513C154.387 10.148 154.338 10.1447 154.289 10.1414C154.24 10.1382 154.19 10.135 154.141 10.1318ZM160.016 10.7792C159.99 10.9401 160.1 11.0915 160.261 11.1176C161.233 11.2749 162.197 11.4543 163.154 11.6551C163.313 11.6886 163.47 11.5866 163.504 11.4272C163.455 11.4168 163.407 11.4066 163.359 11.3963C163.311 11.3861 163.263 11.3759 163.214 11.3658C162.253 11.164 161.284 10.9839 160.308 10.8258C160.259 10.8179 160.211 10.8101 160.162 10.8023C160.113 10.7946 160.065 10.7868 160.016 10.7792ZM165.806 11.9668C165.766 12.1246 165.861 12.2855 166.019 12.3264C166.971 12.5731 167.915 12.8413 168.85 13.1304C169.006 13.1786 169.171 13.0916 169.219 12.936C169.172 12.9212 169.125 12.9065 169.078 12.8918C169.031 12.8772 168.984 12.8626 168.937 12.848C167.998 12.5575 167.05 12.2881 166.093 12.0402C166.045 12.0279 165.997 12.0156 165.95 12.0033C165.902 11.9911 165.854 11.9789 165.806 11.9668ZM171.463 13.6877C171.408 13.8411 171.487 14.0101 171.641 14.0655C172.566 14.3995 173.481 14.7544 174.385 15.1294C174.536 15.1919 174.708 15.1206 174.771 14.9702C174.726 14.9511 174.68 14.9321 174.635 14.9131C174.589 14.8942 174.544 14.8752 174.498 14.8564C173.59 14.4795 172.67 14.123 171.741 13.7875C171.695 13.7707 171.649 13.754 171.602 13.7374C171.556 13.7208 171.509 13.7042 171.463 13.6877ZM176.935 15.927C176.866 16.0747 176.929 16.2503 177.077 16.3197C177.966 16.7379 178.844 17.1761 179.711 17.6336C179.855 17.7098 180.033 17.6548 180.11 17.5109C180.066 17.4877 180.023 17.4646 179.979 17.4414C179.936 17.4183 179.892 17.3953 179.849 17.3723C178.978 16.9126 178.096 16.4724 177.203 16.0522C177.158 16.0312 177.114 16.0103 177.069 15.9895C177.024 15.9686 176.98 15.9478 176.935 15.927ZM182.176 18.664C182.093 18.8046 182.14 18.9854 182.281 19.0681C183.127 19.5666 183.961 20.084 184.781 20.6198C184.918 20.709 185.101 20.6707 185.19 20.5345C185.149 20.5074 185.108 20.4803 185.067 20.4533C185.026 20.4262 184.984 20.3993 184.943 20.3723C184.119 19.834 183.281 19.3141 182.431 18.8134C182.388 18.7884 182.346 18.7634 182.303 18.7385C182.261 18.7136 182.218 18.6888 182.176 18.664ZM187.141 21.8732C187.046 22.0056 187.076 22.1899 187.208 22.2853C188.005 22.8593 188.787 23.4513 189.555 24.0607C189.683 24.162 189.869 24.1407 189.97 24.0133C189.932 23.9825 189.893 23.9518 189.855 23.9211C189.816 23.8904 189.778 23.8597 189.739 23.8291C188.967 23.2169 188.181 22.6222 187.381 22.0455C187.341 22.0167 187.301 21.9879 187.261 21.9592C187.221 21.9305 187.181 21.9018 187.141 21.8732ZM191.79 25.5256C191.683 25.6487 191.696 25.8351 191.819 25.9421C192.559 26.5867 193.284 27.248 193.993 27.9256C194.111 28.0382 194.298 28.034 194.411 27.9165C194.375 27.8823 194.34 27.8481 194.304 27.814C194.269 27.7799 194.233 27.7458 194.197 27.7118C193.485 27.0311 192.756 26.3667 192.013 25.7192C191.976 25.6869 191.939 25.6545 191.901 25.6223C191.864 25.59 191.827 25.5578 191.79 25.5256ZM196.084 29.5892C195.966 29.7021 195.962 29.8888 196.074 30.0067C196.752 30.7161 197.413 31.4412 198.058 32.1812C198.165 32.3042 198.351 32.3172 198.474 32.2104C198.442 32.1731 198.41 32.1359 198.378 32.0986C198.345 32.0614 198.313 32.0242 198.281 31.9871C197.633 31.2436 196.969 30.5152 196.288 29.8025C196.254 29.7669 196.22 29.7313 196.186 29.6958C196.152 29.6602 196.118 29.6247 196.084 29.5892ZM199.987 34.0296C199.859 34.1312 199.838 34.3168 199.939 34.4445C200.549 35.2128 201.141 35.9954 201.715 36.7919C201.81 36.9241 201.994 36.9542 202.127 36.8593C202.098 36.8191 202.07 36.7791 202.041 36.739C202.012 36.699 201.983 36.659 201.955 36.619C201.378 35.8189 200.783 35.0326 200.171 34.2608C200.14 34.2222 200.11 34.1836 200.079 34.1451C200.048 34.1066 200.017 34.0681 199.987 34.0296ZM203.465 38.8098C203.329 38.8992 203.291 39.082 203.38 39.2185C203.916 40.0392 204.433 40.8731 204.932 41.7194C205.015 41.8599 205.195 41.9068 205.336 41.8245C205.311 41.7819 205.286 41.7393 205.261 41.6968C205.237 41.6543 205.212 41.6118 205.187 41.5694C204.686 40.7191 204.166 39.8814 203.628 39.0569C203.601 39.0157 203.574 38.9744 203.547 38.9332C203.52 38.8921 203.493 38.8509 203.465 38.8098ZM206.489 43.8902C206.345 43.9666 206.29 44.1452 206.366 44.2893C206.824 45.1556 207.262 46.0337 207.68 46.923C207.75 47.0705 207.925 47.134 208.073 47.065C208.052 47.0203 208.031 46.9756 208.011 46.931C207.99 46.8864 207.969 46.8418 207.948 46.7972C207.528 45.9037 207.087 45.0216 206.628 44.1513C206.605 44.1077 206.582 44.0642 206.559 44.0207C206.535 43.9771 206.512 43.9337 206.489 43.8902ZM209.03 49.2288C208.879 49.2915 208.808 49.4642 208.871 49.6148C209.246 50.5193 209.6 51.4343 209.935 52.3592C209.99 52.5125 210.159 52.592 210.312 52.537C210.296 52.4906 210.279 52.4442 210.263 52.3978C210.246 52.3515 210.229 52.3051 210.213 52.2588C209.877 51.3295 209.52 50.4103 209.144 49.5016C209.125 49.4561 209.106 49.4106 209.087 49.3651C209.068 49.3196 209.049 49.2742 209.03 49.2288ZM211.064 54.7807C210.908 54.8292 210.821 54.9945 210.87 55.1502C211.159 56.085 211.427 57.0289 211.674 57.9815C211.715 58.1393 211.875 58.2342 212.033 58.1937C212.021 58.1459 212.009 58.0982 211.997 58.0505C211.984 58.0027 211.972 57.955 211.96 57.9073C211.712 56.9503 211.442 56.002 211.152 55.0629C211.137 55.0158 211.123 54.9688 211.108 54.9217C211.093 54.8747 211.079 54.8277 211.064 54.7807ZM212.573 60.4965C212.413 60.5303 212.311 60.6868 212.345 60.8463C212.546 61.8029 212.725 62.7674 212.882 63.7392C212.908 63.9002 213.06 64.0096 213.221 63.9839C213.213 63.9352 213.205 63.8866 213.198 63.8379C213.19 63.7892 213.182 63.7406 213.174 63.692C213.016 62.7156 212.836 61.7466 212.634 60.7856C212.624 60.7374 212.614 60.6892 212.604 60.641C212.593 60.5928 212.583 60.5446 212.573 60.4965ZM213.868 69.8588C213.865 69.8096 213.862 69.7605 213.859 69.7113C213.855 69.6622 213.852 69.613 213.849 69.5638C213.781 68.5763 213.691 67.5949 213.579 66.6201C213.573 66.5712 213.568 66.5222 213.562 66.4733C213.556 66.4244 213.551 66.3754 213.545 66.3265C213.383 66.3455 213.267 66.4919 213.285 66.6539C213.397 67.6241 213.486 68.601 213.554 69.584C213.565 69.7467 213.706 69.8696 213.868 69.8588Z" fill="white" fill-opacity="0.5"/>
<path fill-rule="evenodd" clip-rule="evenodd" d="M150 94.3973C161.265 94.3973 170.397 85.2652 170.397 74.0001C170.397 62.735 161.265 53.6029 150 53.6029C138.735 53.6029 129.603 62.735 129.603 74.0001C129.603 85.2652 138.735 94.3973 150 94.3973ZM150 109.178C169.428 109.178 185.178 93.4283 185.178 74.0001C185.178 54.5719 169.428 38.8223 150 38.8223C130.572 38.8223 114.822 54.5719 114.822 74.0001C114.822 93.4283 130.572 109.178 150 109.178Z" fill="white" fill-opacity="0.5"/>
</svg>
