<svg width="1440" height="1024" viewBox="0 0 1440 1024" fill="none" xmlns="http://www.w3.org/2000/svg">
<g clip-path="url(#clip0_1469_12985)">
<path d="M1071.13 149.745C1100.88 149.745 1125 125.625 1125 95.8724C1125 66.1195 1100.88 42 1071.13 42C1041.37 42 1017.25 66.1195 1017.25 95.8724C1017.25 125.625 1041.37 149.745 1071.13 149.745Z" stroke="#6D4ECB" stroke-opacity="0.13" stroke-width="2" stroke-linecap="round" stroke-linejoin="round" stroke-dasharray="15 15"/>
<path fill-rule="evenodd" clip-rule="evenodd" d="M1047.94 151.172C1061.34 151.172 1072.2 140.311 1072.2 126.912C1072.2 113.513 1061.34 102.651 1047.94 102.651C1034.54 102.651 1023.68 113.513 1023.68 126.912C1023.68 140.311 1034.54 151.172 1047.94 151.172ZM1047.94 186.849C1081.04 186.849 1107.88 160.014 1107.88 126.912C1107.88 93.809 1081.04 66.9741 1047.94 66.9741C1014.83 66.9741 988 93.809 988 126.912C988 160.014 1014.83 186.849 1047.94 186.849Z" fill="#6D4ECB" fill-opacity="0.13"/>
<path d="M579.736 513.98C605.412 513.98 626.226 493.166 626.226 467.49C626.226 441.814 605.412 421 579.736 421C554.06 421 533.246 441.814 533.246 467.49C533.246 493.166 554.06 513.98 579.736 513.98Z" stroke="#6D4ECB" stroke-opacity="0.13" stroke-width="2" stroke-linecap="round" stroke-linejoin="round" stroke-dasharray="15 15"/>
<path fill-rule="evenodd" clip-rule="evenodd" d="M559.724 515.212C571.287 515.212 580.66 505.839 580.66 494.276C580.66 482.713 571.287 473.34 559.724 473.34C548.161 473.34 538.788 482.713 538.788 494.276C538.788 505.839 548.161 515.212 559.724 515.212ZM559.724 546C588.291 546 611.448 522.842 611.448 494.276C611.448 465.709 588.291 442.552 559.724 442.552C531.158 442.552 508 465.709 508 494.276C508 522.842 531.158 546 559.724 546Z" fill="#6D4ECB" fill-opacity="0.13"/>
<path d="M923.691 452C924.414 452 925 452.593 925 453.324C925 454.055 924.414 454.647 923.691 454.647C922.968 454.647 922.381 454.055 922.381 453.324C922.381 452.593 922.968 452 923.691 452Z" fill="#0054B1" fill-opacity="0.44"/>
<path d="M923.691 472.226C924.414 472.226 925 472.819 925 473.55C925 474.281 924.414 474.874 923.691 474.874C922.968 474.874 922.381 474.281 922.381 473.55C922.381 472.819 922.968 472.226 923.691 472.226Z" fill="#0054B1" fill-opacity="0.44"/>
<path d="M923.691 492.453C924.414 492.453 925 493.045 925 493.776C925 494.507 924.414 495.1 923.691 495.1C922.968 495.1 922.381 494.507 922.381 493.776C922.381 493.045 922.968 492.453 923.691 492.453Z" fill="#0054B1" fill-opacity="0.44"/>
<path d="M923.691 512.679C924.414 512.679 925 513.272 925 514.003C925 514.734 924.414 515.326 923.691 515.326C922.968 515.326 922.381 514.734 922.381 514.003C922.381 513.272 922.968 512.679 923.691 512.679Z" fill="#0054B1" fill-opacity="0.44"/>
<path d="M923.691 532.9C924.414 532.9 925 533.493 925 534.224C925 534.955 924.414 535.547 923.691 535.547C922.968 535.547 922.381 534.955 922.381 534.224C922.381 533.493 922.968 532.9 923.691 532.9Z" fill="#0054B1" fill-opacity="0.44"/>
<path d="M923.691 553.126C924.414 553.126 925 553.719 925 554.45C925 555.181 924.414 555.774 923.691 555.774C922.968 555.774 922.381 555.181 922.381 554.45C922.381 553.719 922.968 553.126 923.691 553.126Z" fill="#0054B1" fill-opacity="0.44"/>
<path d="M923.691 573.352C924.414 573.352 925 573.945 925 574.676C925 575.407 924.414 576 923.691 576C922.968 576 922.381 575.407 922.381 574.676C922.381 573.945 922.968 573.352 923.691 573.352Z" fill="#0054B1" fill-opacity="0.44"/>
<path d="M908.961 452C909.684 452 910.271 452.593 910.271 453.324C910.271 454.055 909.684 454.647 908.961 454.647C908.238 454.647 907.652 454.055 907.652 453.324C907.652 452.593 908.238 452 908.961 452Z" fill="#0054B1" fill-opacity="0.44"/>
<path d="M908.961 472.226C909.684 472.226 910.271 472.819 910.271 473.55C910.271 474.281 909.684 474.874 908.961 474.874C908.238 474.874 907.652 474.281 907.652 473.55C907.652 472.819 908.238 472.226 908.961 472.226Z" fill="#0054B1" fill-opacity="0.44"/>
<path d="M908.961 492.453C909.684 492.453 910.271 493.045 910.271 493.776C910.271 494.507 909.684 495.1 908.961 495.1C908.238 495.1 907.652 494.507 907.652 493.776C907.652 493.045 908.238 492.453 908.961 492.453Z" fill="#0054B1" fill-opacity="0.44"/>
<path d="M908.961 512.679C909.684 512.679 910.271 513.272 910.271 514.003C910.271 514.734 909.684 515.326 908.961 515.326C908.238 515.326 907.652 514.734 907.652 514.003C907.652 513.272 908.238 512.679 908.961 512.679Z" fill="#0054B1" fill-opacity="0.44"/>
<path d="M908.961 532.9C909.684 532.9 910.271 533.493 910.271 534.224C910.271 534.955 909.684 535.547 908.961 535.547C908.238 535.547 907.652 534.955 907.652 534.224C907.652 533.493 908.238 532.9 908.961 532.9Z" fill="#0054B1" fill-opacity="0.44"/>
<path d="M908.961 553.126C909.684 553.126 910.271 553.719 910.271 554.45C910.271 555.181 909.684 555.774 908.961 555.774C908.238 555.774 907.652 555.181 907.652 554.45C907.652 553.719 908.238 553.126 908.961 553.126Z" fill="#0054B1" fill-opacity="0.44"/>
<path d="M908.961 573.353C909.684 573.353 910.271 573.945 910.271 574.676C910.271 575.407 909.684 576 908.961 576C908.238 576 907.652 575.407 907.652 574.676C907.652 573.945 908.238 573.353 908.961 573.353Z" fill="#0054B1" fill-opacity="0.44"/>
<path d="M894.232 452C894.955 452 895.541 452.593 895.541 453.324C895.541 454.055 894.955 454.647 894.232 454.647C893.509 454.647 892.923 454.055 892.923 453.324C892.923 452.593 893.509 452 894.232 452Z" fill="#0054B1" fill-opacity="0.44"/>
<path d="M894.232 472.226C894.955 472.226 895.541 472.819 895.541 473.55C895.541 474.281 894.955 474.874 894.232 474.874C893.509 474.874 892.923 474.281 892.923 473.55C892.923 472.819 893.509 472.226 894.232 472.226Z" fill="#0054B1" fill-opacity="0.44"/>
<path d="M895.541 493.776C895.541 493.045 894.955 492.453 894.232 492.453C893.509 492.453 892.923 493.045 892.923 493.776C892.923 494.507 893.509 495.1 894.232 495.1C894.955 495.1 895.541 494.507 895.541 493.776Z" fill="#0054B1" fill-opacity="0.44"/>
<path d="M895.541 513.998C895.541 513.266 894.955 512.674 894.232 512.674C893.509 512.674 892.923 513.266 892.923 513.998C892.923 514.729 893.509 515.321 894.232 515.321C894.955 515.321 895.541 514.729 895.541 513.998Z" fill="#0054B1" fill-opacity="0.44"/>
<path d="M894.232 532.9C894.955 532.9 895.541 533.493 895.541 534.224C895.541 534.955 894.955 535.547 894.232 535.547C893.509 535.547 892.923 534.955 892.923 534.224C892.923 533.493 893.509 532.9 894.232 532.9Z" fill="#0054B1" fill-opacity="0.44"/>
<path d="M894.232 553.126C894.955 553.126 895.541 553.719 895.541 554.45C895.541 555.181 894.955 555.774 894.232 555.774C893.509 555.774 892.923 555.181 892.923 554.45C892.923 553.719 893.509 553.126 894.232 553.126Z" fill="#0054B1" fill-opacity="0.44"/>
<path d="M894.232 573.353C894.955 573.353 895.541 573.945 895.541 574.676C895.541 575.407 894.955 576 894.232 576C893.509 576 892.923 575.407 892.923 574.676C892.923 573.945 893.509 573.353 894.232 573.353Z" fill="#0054B1" fill-opacity="0.44"/>
<path d="M879.502 452C880.225 452 880.812 452.593 880.812 453.324C880.812 454.055 880.225 454.647 879.502 454.647C878.779 454.647 878.193 454.055 878.193 453.324C878.193 452.593 878.779 452 879.502 452Z" fill="#0054B1" fill-opacity="0.44"/>
<path d="M879.502 472.226C880.225 472.226 880.812 472.819 880.812 473.55C880.812 474.281 880.225 474.874 879.502 474.874C878.779 474.874 878.193 474.281 878.193 473.55C878.193 472.819 878.779 472.226 879.502 472.226Z" fill="#0054B1" fill-opacity="0.44"/>
<path d="M879.502 492.453C880.225 492.453 880.812 493.045 880.812 493.776C880.812 494.507 880.225 495.1 879.502 495.1C878.779 495.1 878.193 494.507 878.193 493.776C878.193 493.045 878.779 492.453 879.502 492.453Z" fill="#0054B1" fill-opacity="0.44"/>
<path d="M879.502 512.679C880.225 512.679 880.812 513.272 880.812 514.003C880.812 514.734 880.225 515.326 879.502 515.326C878.779 515.326 878.193 514.734 878.193 514.003C878.193 513.272 878.779 512.679 879.502 512.679Z" fill="#0054B1" fill-opacity="0.44"/>
<path d="M879.502 532.9C880.225 532.9 880.812 533.493 880.812 534.224C880.812 534.955 880.225 535.547 879.502 535.547C878.779 535.547 878.193 534.955 878.193 534.224C878.193 533.493 878.779 532.9 879.502 532.9Z" fill="#0054B1" fill-opacity="0.44"/>
<path d="M879.502 553.126C880.225 553.126 880.812 553.719 880.812 554.45C880.812 555.181 880.225 555.774 879.502 555.774C878.779 555.774 878.193 555.181 878.193 554.45C878.193 553.719 878.779 553.126 879.502 553.126Z" fill="#0054B1" fill-opacity="0.44"/>
<path d="M879.502 573.353C880.225 573.353 880.812 573.945 880.812 574.676C880.812 575.407 880.225 576 879.502 576C878.779 576 878.193 575.407 878.193 574.676C878.193 573.945 878.779 573.353 879.502 573.353Z" fill="#0054B1" fill-opacity="0.44"/>
<path d="M864.773 452C865.496 452 866.082 452.593 866.082 453.324C866.082 454.055 865.496 454.647 864.773 454.647C864.05 454.647 863.464 454.055 863.464 453.324C863.464 452.593 864.05 452 864.773 452Z" fill="#0054B1" fill-opacity="0.44"/>
<path d="M864.773 472.226C865.496 472.226 866.082 472.819 866.082 473.55C866.082 474.281 865.496 474.874 864.773 474.874C864.05 474.874 863.464 474.281 863.464 473.55C863.464 472.819 864.05 472.226 864.773 472.226Z" fill="#0054B1" fill-opacity="0.44"/>
<path d="M864.773 492.453C865.496 492.453 866.082 493.045 866.082 493.776C866.082 494.507 865.496 495.1 864.773 495.1C864.05 495.1 863.464 494.507 863.464 493.776C863.464 493.045 864.05 492.453 864.773 492.453Z" fill="#0054B1" fill-opacity="0.44"/>
<path d="M864.773 512.679C865.496 512.679 866.082 513.272 866.082 514.003C866.082 514.734 865.496 515.326 864.773 515.326C864.05 515.326 863.464 514.734 863.464 514.003C863.464 513.272 864.05 512.679 864.773 512.679Z" fill="#0054B1" fill-opacity="0.44"/>
<path d="M864.773 532.9C865.496 532.9 866.082 533.493 866.082 534.224C866.082 534.955 865.496 535.547 864.773 535.547C864.05 535.547 863.464 534.955 863.464 534.224C863.464 533.493 864.05 532.9 864.773 532.9Z" fill="#0054B1" fill-opacity="0.44"/>
<path d="M864.773 553.126C865.496 553.126 866.082 553.719 866.082 554.45C866.082 555.181 865.496 555.774 864.773 555.774C864.05 555.774 863.464 555.181 863.464 554.45C863.464 553.719 864.05 553.126 864.773 553.126Z" fill="#0054B1" fill-opacity="0.44"/>
<path d="M864.773 573.353C865.496 573.353 866.082 573.945 866.082 574.676C866.082 575.407 865.496 576 864.773 576C864.05 576 863.464 575.407 863.464 574.676C863.464 573.945 864.05 573.353 864.773 573.353Z" fill="#0054B1" fill-opacity="0.44"/>
<path d="M850.044 452C850.767 452 851.353 452.593 851.353 453.324C851.353 454.055 850.767 454.647 850.044 454.647C849.321 454.647 848.734 454.055 848.734 453.324C848.734 452.593 849.321 452 850.044 452Z" fill="#0054B1" fill-opacity="0.44"/>
<path d="M850.044 472.226C850.767 472.226 851.353 472.819 851.353 473.55C851.353 474.281 850.767 474.874 850.044 474.874C849.321 474.874 848.734 474.281 848.734 473.55C848.734 472.819 849.321 472.226 850.044 472.226Z" fill="#0054B1" fill-opacity="0.44"/>
<path d="M850.044 492.453C850.767 492.453 851.353 493.045 851.353 493.776C851.353 494.507 850.767 495.1 850.044 495.1C849.321 495.1 848.734 494.507 848.734 493.776C848.734 493.045 849.321 492.453 850.044 492.453Z" fill="#0054B1" fill-opacity="0.44"/>
<path d="M850.044 512.679C850.767 512.679 851.353 513.272 851.353 514.003C851.353 514.734 850.767 515.326 850.044 515.326C849.321 515.326 848.734 514.734 848.734 514.003C848.734 513.272 849.321 512.679 850.044 512.679Z" fill="#0054B1" fill-opacity="0.44"/>
<path d="M850.044 532.9C850.767 532.9 851.353 533.493 851.353 534.224C851.353 534.955 850.767 535.547 850.044 535.547C849.321 535.547 848.734 534.955 848.734 534.224C848.734 533.493 849.321 532.9 850.044 532.9Z" fill="#0054B1" fill-opacity="0.44"/>
<path d="M850.044 553.126C850.767 553.126 851.353 553.719 851.353 554.45C851.353 555.181 850.767 555.774 850.044 555.774C849.321 555.774 848.734 555.181 848.734 554.45C848.734 553.719 849.321 553.126 850.044 553.126Z" fill="#0054B1" fill-opacity="0.44"/>
<path d="M850.044 573.353C850.767 573.353 851.353 573.945 851.353 574.676C851.353 575.407 850.767 576 850.044 576C849.321 576 848.734 575.407 848.734 574.676C848.734 573.945 849.321 573.353 850.044 573.353Z" fill="#0054B1" fill-opacity="0.44"/>
<path d="M835.309 452C836.032 452 836.619 452.593 836.619 453.324C836.619 454.055 836.032 454.647 835.309 454.647C834.586 454.647 834 454.055 834 453.324C834.005 452.593 834.586 452 835.309 452Z" fill="#0054B1" fill-opacity="0.44"/>
<path d="M835.309 472.226C836.032 472.226 836.619 472.819 836.619 473.55C836.619 474.281 836.032 474.874 835.309 474.874C834.586 474.874 834 474.281 834 473.55C834.005 472.819 834.586 472.226 835.309 472.226Z" fill="#0054B1" fill-opacity="0.44"/>
<path d="M836.619 493.776C836.619 493.045 836.032 492.453 835.309 492.453C834.586 492.453 834 493.045 834 493.776C834 494.507 834.586 495.1 835.309 495.1C836.032 495.1 836.619 494.507 836.619 493.776Z" fill="#0054B1" fill-opacity="0.44"/>
<path d="M836.619 513.998C836.619 513.266 836.032 512.674 835.309 512.674C834.586 512.674 834 513.266 834 513.998C834 514.729 834.586 515.321 835.309 515.321C836.032 515.321 836.619 514.729 836.619 513.998Z" fill="#0054B1" fill-opacity="0.44"/>
<path d="M835.309 532.9C836.032 532.9 836.619 533.493 836.619 534.224C836.619 534.955 836.032 535.547 835.309 535.547C834.586 535.547 834 534.955 834 534.224C834 533.493 834.586 532.9 835.309 532.9Z" fill="#0054B1" fill-opacity="0.44"/>
<path d="M835.309 553.126C836.032 553.126 836.619 553.719 836.619 554.45C836.619 555.181 836.032 555.774 835.309 555.774C834.586 555.774 834 555.181 834 554.45C834.005 553.719 834.586 553.126 835.309 553.126Z" fill="#0054B1" fill-opacity="0.44"/>
<path d="M835.309 573.353C836.032 573.353 836.619 573.945 836.619 574.676C836.619 575.407 836.032 576 835.309 576C834.586 576 834 575.407 834 574.676C834.005 573.945 834.586 573.353 835.309 573.353Z" fill="#0054B1" fill-opacity="0.44"/>
<path fill-rule="evenodd" clip-rule="evenodd" d="M508 833.81C508 833.131 508.55 832.581 509.228 832.581C509.906 832.581 510.456 833.131 510.456 833.81C510.456 834.489 509.906 835.039 509.228 835.039C508.55 835.039 508 834.489 508 833.81ZM526.767 833.81C526.767 833.131 527.317 832.581 527.995 832.581C528.674 832.581 529.223 833.131 529.223 833.81C529.223 834.489 528.674 835.039 527.995 835.039C527.317 835.039 526.767 834.489 526.767 833.81ZM546.762 832.581C546.084 832.581 545.534 833.131 545.534 833.81C545.534 834.489 546.084 835.039 546.762 835.039C547.441 835.039 547.99 834.489 547.99 833.81C547.99 833.131 547.441 832.581 546.762 832.581ZM564.301 833.81C564.301 833.131 564.851 832.581 565.529 832.581C566.208 832.581 566.758 833.131 566.758 833.81C566.758 834.489 566.208 835.039 565.529 835.039C564.851 835.039 564.301 834.489 564.301 833.81ZM584.292 832.581C583.613 832.581 583.064 833.131 583.064 833.81C583.064 834.489 583.613 835.039 584.292 835.039C584.97 835.039 585.52 834.489 585.52 833.81C585.52 833.131 584.97 832.581 584.292 832.581ZM601.831 833.81C601.831 833.131 602.381 832.581 603.059 832.581C603.737 832.581 604.287 833.131 604.287 833.81C604.287 834.489 603.737 835.039 603.059 835.039C602.381 835.039 601.831 834.489 601.831 833.81ZM621.826 832.581C621.148 832.581 620.598 833.131 620.598 833.81C620.598 834.489 621.148 835.039 621.826 835.039C622.504 835.039 623.054 834.489 623.054 833.81C623.054 833.131 622.504 832.581 621.826 832.581ZM508 847.636C508 846.957 508.55 846.407 509.228 846.407C509.906 846.407 510.456 846.957 510.456 847.636C510.456 848.315 509.906 848.865 509.228 848.865C508.55 848.865 508 848.315 508 847.636ZM527.995 846.407C527.317 846.407 526.767 846.957 526.767 847.636C526.767 848.315 527.317 848.865 527.995 848.865C528.674 848.865 529.223 848.315 529.223 847.636C529.223 846.957 528.674 846.407 527.995 846.407ZM545.534 847.636C545.534 846.957 546.084 846.407 546.762 846.407C547.441 846.407 547.99 846.957 547.99 847.636C547.99 848.315 547.441 848.865 546.762 848.865C546.084 848.865 545.534 848.315 545.534 847.636ZM565.529 846.407C564.851 846.407 564.301 846.957 564.301 847.636C564.301 848.315 564.851 848.865 565.529 848.865C566.208 848.865 566.758 848.315 566.758 847.636C566.758 846.957 566.208 846.407 565.529 846.407ZM583.064 847.636C583.064 846.957 583.613 846.407 584.292 846.407C584.97 846.407 585.52 846.957 585.52 847.636C585.52 848.315 584.97 848.865 584.292 848.865C583.613 848.865 583.064 848.315 583.064 847.636ZM603.059 846.407C602.381 846.407 601.831 846.957 601.831 847.636C601.831 848.315 602.381 848.865 603.059 848.865C603.737 848.865 604.287 848.315 604.287 847.636C604.287 846.957 603.737 846.407 603.059 846.407ZM620.598 847.636C620.598 846.957 621.148 846.407 621.826 846.407C622.504 846.407 623.054 846.957 623.054 847.636C623.054 848.315 622.504 848.865 621.826 848.865C621.148 848.865 620.598 848.315 620.598 847.636ZM509.228 860.233C508.55 860.233 508 860.784 508 861.462C508 862.141 508.55 862.691 509.228 862.691C509.906 862.691 510.456 862.141 510.456 861.462C510.456 860.784 509.906 860.233 509.228 860.233ZM526.767 861.462C526.767 860.784 527.317 860.233 527.995 860.233C528.674 860.233 529.223 860.784 529.223 861.462C529.223 862.141 528.674 862.691 527.995 862.691C527.317 862.691 526.767 862.141 526.767 861.462ZM545.534 861.462C545.534 860.783 546.084 860.233 546.762 860.233C547.441 860.233 547.99 860.783 547.99 861.462C547.99 862.141 547.441 862.691 546.762 862.691C546.084 862.691 545.534 862.141 545.534 861.462ZM565.525 860.233C564.846 860.233 564.297 860.783 564.297 861.462C564.297 862.141 564.846 862.691 565.525 862.691C566.203 862.691 566.753 862.141 566.753 861.462C566.753 860.783 566.203 860.233 565.525 860.233ZM584.292 860.233C583.613 860.233 583.064 860.784 583.064 861.462C583.064 862.141 583.613 862.691 584.292 862.691C584.97 862.691 585.52 862.141 585.52 861.462C585.52 860.784 584.97 860.233 584.292 860.233ZM601.831 861.462C601.831 860.784 602.381 860.233 603.059 860.233C603.737 860.233 604.287 860.784 604.287 861.462C604.287 862.141 603.737 862.691 603.059 862.691C602.381 862.691 601.831 862.141 601.831 861.462ZM621.826 860.233C621.148 860.233 620.598 860.783 620.598 861.462C620.598 862.141 621.148 862.691 621.826 862.691C622.504 862.691 623.054 862.141 623.054 861.462C623.054 860.783 622.504 860.233 621.826 860.233ZM508 875.288C508 874.61 508.55 874.059 509.228 874.059C509.906 874.059 510.456 874.61 510.456 875.288C510.456 875.967 509.906 876.517 509.228 876.517C508.55 876.517 508 875.967 508 875.288ZM527.995 874.059C527.317 874.059 526.767 874.61 526.767 875.288C526.767 875.967 527.317 876.517 527.995 876.517C528.674 876.517 529.223 875.967 529.223 875.288C529.223 874.61 528.674 874.059 527.995 874.059ZM545.534 875.288C545.534 874.61 546.084 874.059 546.762 874.059C547.441 874.059 547.99 874.61 547.99 875.288C547.99 875.967 547.441 876.517 546.762 876.517C546.084 876.517 545.534 875.967 545.534 875.288ZM565.529 874.059C564.851 874.059 564.301 874.61 564.301 875.288C564.301 875.967 564.851 876.517 565.529 876.517C566.208 876.517 566.758 875.967 566.758 875.288C566.758 874.61 566.208 874.059 565.529 874.059ZM583.064 875.288C583.064 874.61 583.613 874.059 584.292 874.059C584.97 874.059 585.52 874.61 585.52 875.288C585.52 875.967 584.97 876.517 584.292 876.517C583.613 876.517 583.064 875.967 583.064 875.288ZM603.059 874.059C602.381 874.059 601.831 874.61 601.831 875.288C601.831 875.967 602.381 876.517 603.059 876.517C603.737 876.517 604.287 875.967 604.287 875.288C604.287 874.61 603.737 874.059 603.059 874.059ZM620.598 875.288C620.598 874.61 621.148 874.059 621.826 874.059C622.504 874.059 623.054 874.61 623.054 875.288C623.054 875.967 622.504 876.517 621.826 876.517C621.148 876.517 620.598 875.967 620.598 875.288ZM509.228 887.885C508.55 887.885 508 888.436 508 889.114C508 889.793 508.55 890.343 509.228 890.343C509.906 890.343 510.456 889.793 510.456 889.114C510.456 888.436 509.906 887.885 509.228 887.885ZM526.767 889.114C526.767 888.436 527.317 887.885 527.995 887.885C528.674 887.885 529.223 888.436 529.223 889.114C529.223 889.793 528.674 890.343 527.995 890.343C527.317 890.343 526.767 889.793 526.767 889.114ZM546.762 887.885C546.084 887.885 545.534 888.436 545.534 889.114C545.534 889.793 546.084 890.343 546.762 890.343C547.441 890.343 547.99 889.793 547.99 889.114C547.99 888.436 547.441 887.885 546.762 887.885ZM564.301 889.114C564.301 888.436 564.851 887.885 565.529 887.885C566.208 887.885 566.758 888.436 566.758 889.114C566.758 889.793 566.208 890.343 565.529 890.343C564.851 890.343 564.301 889.793 564.301 889.114ZM584.292 887.885C583.613 887.885 583.064 888.436 583.064 889.114C583.064 889.793 583.613 890.343 584.292 890.343C584.97 890.343 585.52 889.793 585.52 889.114C585.52 888.436 584.97 887.885 584.292 887.885ZM601.831 889.114C601.831 888.436 602.381 887.885 603.059 887.885C603.737 887.885 604.287 888.436 604.287 889.114C604.287 889.793 603.737 890.343 603.059 890.343C602.381 890.343 601.831 889.793 601.831 889.114ZM621.826 887.885C621.148 887.885 620.598 888.436 620.598 889.114C620.598 889.793 621.148 890.343 621.826 890.343C622.504 890.343 623.054 889.793 623.054 889.114C623.054 888.436 622.504 887.885 621.826 887.885ZM508 902.94C508 902.262 508.55 901.711 509.228 901.711C509.906 901.711 510.456 902.262 510.456 902.94C510.456 903.619 509.906 904.169 509.228 904.169C508.55 904.169 508 903.619 508 902.94ZM527.995 901.711C527.317 901.711 526.767 902.262 526.767 902.94C526.767 903.619 527.317 904.169 527.995 904.169C528.674 904.169 529.223 903.619 529.223 902.94C529.223 902.262 528.674 901.711 527.995 901.711ZM545.534 902.94C545.534 902.262 546.084 901.711 546.762 901.711C547.441 901.711 547.99 902.262 547.99 902.94C547.99 903.619 547.441 904.169 546.762 904.169C546.084 904.169 545.534 903.619 545.534 902.94ZM565.529 901.711C564.851 901.711 564.301 902.262 564.301 902.94C564.301 903.619 564.851 904.169 565.529 904.169C566.208 904.169 566.758 903.619 566.758 902.94C566.758 902.262 566.208 901.711 565.529 901.711ZM583.064 902.94C583.064 902.262 583.613 901.711 584.292 901.711C584.97 901.711 585.52 902.262 585.52 902.94C585.52 903.619 584.97 904.169 584.292 904.169C583.613 904.169 583.064 903.619 583.064 902.94ZM603.059 901.711C602.381 901.711 601.831 902.262 601.831 902.94C601.831 903.619 602.381 904.169 603.059 904.169C603.737 904.169 604.287 903.619 604.287 902.94C604.287 902.262 603.737 901.711 603.059 901.711ZM620.598 902.94C620.598 902.262 621.148 901.711 621.826 901.711C622.504 901.711 623.054 902.262 623.054 902.94C623.054 903.619 622.504 904.169 621.826 904.169C621.148 904.169 620.598 903.619 620.598 902.94ZM509.228 915.542C508.55 915.542 508 916.092 508 916.771C508 917.45 508.55 917.995 509.228 918C509.906 918 510.456 917.45 510.456 916.771C510.456 916.092 509.906 915.542 509.228 915.542ZM526.767 916.771C526.767 916.092 527.317 915.542 527.995 915.542C528.674 915.542 529.223 916.092 529.223 916.771C529.223 917.45 528.674 918 527.995 918C527.317 917.995 526.767 917.45 526.767 916.771ZM545.534 916.771C545.534 916.092 546.084 915.542 546.762 915.542C547.441 915.542 547.99 916.092 547.99 916.771C547.99 917.45 547.441 918 546.762 918C546.084 918 545.534 917.45 545.534 916.771ZM565.525 915.542C564.846 915.542 564.297 916.092 564.297 916.771C564.297 917.45 564.846 918 565.525 918C566.203 918 566.753 917.45 566.753 916.771C566.753 916.092 566.203 915.542 565.525 915.542ZM584.292 915.542C583.613 915.542 583.064 916.092 583.064 916.771C583.064 917.45 583.613 918 584.292 918C584.97 918 585.52 917.45 585.52 916.771C585.52 916.092 584.97 915.542 584.292 915.542ZM601.831 916.771C601.831 916.092 602.381 915.542 603.059 915.542C603.737 915.542 604.287 916.092 604.287 916.771C604.287 917.45 603.737 918 603.059 918C602.381 917.995 601.831 917.45 601.831 916.771ZM621.826 915.542C621.148 915.542 620.598 916.092 620.598 916.771C620.598 917.45 621.148 917.995 621.826 918C622.504 918 623.054 917.45 623.054 916.771C623.054 916.092 622.504 915.542 621.826 915.542ZM639.39 914.961C638.712 914.961 638.162 915.511 638.162 916.19C638.162 916.869 638.712 917.414 639.39 917.419C640.069 917.419 640.619 916.869 640.619 916.19C640.619 915.511 640.069 914.961 639.39 914.961ZM638.162 902.359C638.162 901.681 638.712 901.13 639.39 901.13C640.069 901.13 640.619 901.681 640.619 902.359C640.619 903.038 640.069 903.588 639.39 903.588C638.712 903.588 638.162 903.038 638.162 902.359ZM639.39 887.304C638.712 887.304 638.162 887.855 638.162 888.533C638.162 889.212 638.712 889.762 639.39 889.762C640.069 889.762 640.619 889.212 640.619 888.533C640.619 887.855 640.069 887.304 639.39 887.304ZM638.162 874.707C638.162 874.028 638.712 873.478 639.39 873.478C640.069 873.478 640.619 874.028 640.619 874.707C640.619 875.386 640.069 875.936 639.39 875.936C638.712 875.936 638.162 875.386 638.162 874.707ZM639.39 859.652C638.712 859.652 638.162 860.202 638.162 860.881C638.162 861.56 638.712 862.11 639.39 862.11C640.069 862.11 640.619 861.56 640.619 860.881C640.619 860.202 640.069 859.652 639.39 859.652ZM638.162 847.055C638.162 846.376 638.712 845.826 639.39 845.826C640.069 845.826 640.619 846.376 640.619 847.055C640.619 847.734 640.069 848.284 639.39 848.284C638.712 848.284 638.162 847.734 638.162 847.055ZM638.162 833.229C638.162 832.55 638.712 832 639.39 832C640.069 832 640.619 832.55 640.619 833.229C640.619 833.908 640.069 834.458 639.39 834.458C638.712 834.458 638.162 833.908 638.162 833.229ZM656.929 833.229C656.929 832.55 657.479 832 658.157 832C658.836 832 659.386 832.55 659.386 833.229C659.386 833.908 658.836 834.458 658.157 834.458C657.479 834.458 656.929 833.908 656.929 833.229ZM676.924 832C676.246 832 675.696 832.55 675.696 833.229C675.696 833.908 676.246 834.458 676.924 834.458C677.603 834.458 678.153 833.908 678.153 833.229C678.153 832.55 677.603 832 676.924 832ZM694.463 833.229C694.463 832.55 695.013 832 695.692 832C696.37 832 696.92 832.55 696.92 833.229C696.92 833.908 696.37 834.458 695.692 834.458C695.013 834.458 694.463 833.908 694.463 833.229ZM714.454 832C713.776 832 713.226 832.55 713.226 833.229C713.226 833.908 713.776 834.458 714.454 834.458C715.132 834.458 715.682 833.908 715.682 833.229C715.682 832.55 715.132 832 714.454 832ZM731.993 833.229C731.993 832.55 732.543 832 733.221 832C733.899 832 734.449 832.55 734.449 833.229C734.449 833.908 733.899 834.458 733.221 834.458C732.543 834.458 731.993 833.908 731.993 833.229ZM751.988 832C751.31 832 750.76 832.55 750.76 833.229C750.76 833.908 751.31 834.458 751.988 834.458C752.666 834.458 753.216 833.908 753.216 833.229C753.216 832.55 752.666 832 751.988 832ZM658.157 845.826C657.479 845.826 656.929 846.376 656.929 847.055C656.929 847.734 657.479 848.284 658.157 848.284C658.836 848.284 659.386 847.734 659.386 847.055C659.386 846.376 658.836 845.826 658.157 845.826ZM675.696 847.055C675.696 846.376 676.246 845.826 676.924 845.826C677.603 845.826 678.153 846.376 678.153 847.055C678.153 847.734 677.603 848.284 676.924 848.284C676.246 848.284 675.696 847.734 675.696 847.055ZM695.692 845.826C695.013 845.826 694.463 846.376 694.463 847.055C694.463 847.734 695.013 848.284 695.692 848.284C696.37 848.284 696.92 847.734 696.92 847.055C696.92 846.376 696.37 845.826 695.692 845.826ZM713.226 847.055C713.226 846.376 713.776 845.826 714.454 845.826C715.132 845.826 715.682 846.376 715.682 847.055C715.682 847.734 715.132 848.284 714.454 848.284C713.776 848.284 713.226 847.734 713.226 847.055ZM733.221 845.826C732.543 845.826 731.993 846.376 731.993 847.055C731.993 847.734 732.543 848.284 733.221 848.284C733.899 848.284 734.449 847.734 734.449 847.055C734.449 846.376 733.899 845.826 733.221 845.826ZM750.76 847.055C750.76 846.376 751.31 845.826 751.988 845.826C752.666 845.826 753.216 846.376 753.216 847.055C753.216 847.734 752.666 848.284 751.988 848.284C751.31 848.284 750.76 847.734 750.76 847.055ZM656.929 860.881C656.929 860.202 657.479 859.652 658.157 859.652C658.836 859.652 659.386 860.202 659.386 860.881C659.386 861.56 658.836 862.11 658.157 862.11C657.479 862.11 656.929 861.56 656.929 860.881ZM675.696 860.881C675.696 860.202 676.246 859.652 676.924 859.652C677.603 859.652 678.153 860.202 678.153 860.881C678.153 861.56 677.603 862.11 676.924 862.11C676.246 862.11 675.696 861.56 675.696 860.881ZM695.687 859.652C695.009 859.652 694.459 860.202 694.459 860.881C694.459 861.56 695.009 862.11 695.687 862.11C696.365 862.11 696.915 861.56 696.915 860.881C696.915 860.202 696.365 859.652 695.687 859.652ZM714.454 859.652C713.776 859.652 713.226 860.202 713.226 860.881C713.226 861.56 713.776 862.11 714.454 862.11C715.132 862.11 715.682 861.56 715.682 860.881C715.682 860.202 715.132 859.652 714.454 859.652ZM731.993 860.881C731.993 860.202 732.543 859.652 733.221 859.652C733.899 859.652 734.449 860.202 734.449 860.881C734.449 861.56 733.899 862.11 733.221 862.11C732.543 862.11 731.993 861.56 731.993 860.881ZM751.988 859.652C751.31 859.652 750.76 860.202 750.76 860.881C750.76 861.56 751.31 862.11 751.988 862.11C752.666 862.11 753.216 861.56 753.216 860.881C753.216 860.202 752.666 859.652 751.988 859.652ZM658.157 873.478C657.479 873.478 656.929 874.028 656.929 874.707C656.929 875.386 657.479 875.936 658.157 875.936C658.836 875.936 659.386 875.386 659.386 874.707C659.386 874.028 658.836 873.478 658.157 873.478ZM675.696 874.707C675.696 874.028 676.246 873.478 676.924 873.478C677.603 873.478 678.153 874.028 678.153 874.707C678.153 875.386 677.603 875.936 676.924 875.936C676.246 875.936 675.696 875.386 675.696 874.707ZM695.692 873.478C695.013 873.478 694.463 874.028 694.463 874.707C694.463 875.386 695.013 875.936 695.692 875.936C696.37 875.936 696.92 875.386 696.92 874.707C696.92 874.028 696.37 873.478 695.692 873.478ZM713.226 874.707C713.226 874.028 713.776 873.478 714.454 873.478C715.132 873.478 715.682 874.028 715.682 874.707C715.682 875.386 715.132 875.936 714.454 875.936C713.776 875.936 713.226 875.386 713.226 874.707ZM733.221 873.478C732.543 873.478 731.993 874.028 731.993 874.707C731.993 875.386 732.543 875.936 733.221 875.936C733.899 875.936 734.449 875.386 734.449 874.707C734.449 874.028 733.899 873.478 733.221 873.478ZM750.76 874.707C750.76 874.028 751.31 873.478 751.988 873.478C752.666 873.478 753.216 874.028 753.216 874.707C753.216 875.386 752.666 875.936 751.988 875.936C751.31 875.936 750.76 875.386 750.76 874.707ZM656.929 888.533C656.929 887.855 657.479 887.304 658.157 887.304C658.836 887.304 659.386 887.855 659.386 888.533C659.386 889.212 658.836 889.762 658.157 889.762C657.479 889.762 656.929 889.212 656.929 888.533ZM676.924 887.304C676.246 887.304 675.696 887.855 675.696 888.533C675.696 889.212 676.246 889.762 676.924 889.762C677.603 889.762 678.153 889.212 678.153 888.533C678.153 887.855 677.603 887.304 676.924 887.304ZM694.463 888.533C694.463 887.855 695.013 887.304 695.692 887.304C696.37 887.304 696.92 887.855 696.92 888.533C696.92 889.212 696.37 889.762 695.692 889.762C695.013 889.762 694.463 889.212 694.463 888.533ZM714.454 887.304C713.776 887.304 713.226 887.855 713.226 888.533C713.226 889.212 713.776 889.762 714.454 889.762C715.132 889.762 715.682 889.212 715.682 888.533C715.682 887.855 715.132 887.304 714.454 887.304ZM731.993 888.533C731.993 887.855 732.543 887.304 733.221 887.304C733.899 887.304 734.449 887.855 734.449 888.533C734.449 889.212 733.899 889.762 733.221 889.762C732.543 889.762 731.993 889.212 731.993 888.533ZM751.988 887.304C751.31 887.304 750.76 887.855 750.76 888.533C750.76 889.212 751.31 889.762 751.988 889.762C752.666 889.762 753.216 889.212 753.216 888.533C753.216 887.855 752.666 887.304 751.988 887.304ZM658.157 901.13C657.479 901.13 656.929 901.681 656.929 902.359C656.929 903.038 657.479 903.588 658.157 903.588C658.836 903.588 659.386 903.038 659.386 902.359C659.386 901.681 658.836 901.13 658.157 901.13ZM675.696 902.359C675.696 901.681 676.246 901.13 676.924 901.13C677.603 901.13 678.153 901.681 678.153 902.359C678.153 903.038 677.603 903.588 676.924 903.588C676.246 903.588 675.696 903.038 675.696 902.359ZM695.692 901.13C695.013 901.13 694.463 901.681 694.463 902.359C694.463 903.038 695.013 903.588 695.692 903.588C696.37 903.588 696.92 903.038 696.92 902.359C696.92 901.681 696.37 901.13 695.692 901.13ZM713.226 902.359C713.226 901.681 713.776 901.13 714.454 901.13C715.132 901.13 715.682 901.681 715.682 902.359C715.682 903.038 715.132 903.588 714.454 903.588C713.776 903.588 713.226 903.038 713.226 902.359ZM733.221 901.13C732.543 901.13 731.993 901.681 731.993 902.359C731.993 903.038 732.543 903.588 733.221 903.588C733.899 903.588 734.449 903.038 734.449 902.359C734.449 901.681 733.899 901.13 733.221 901.13ZM750.76 902.359C750.76 901.681 751.31 901.13 751.988 901.13C752.666 901.13 753.216 901.681 753.216 902.359C753.216 903.038 752.666 903.588 751.988 903.588C751.31 903.588 750.76 903.038 750.76 902.359ZM656.929 916.19C656.929 915.511 657.479 914.961 658.157 914.961C658.836 914.961 659.386 915.511 659.386 916.19C659.386 916.869 658.836 917.419 658.157 917.419C657.479 917.414 656.929 916.869 656.929 916.19ZM675.696 916.19C675.696 915.511 676.246 914.961 676.924 914.961C677.603 914.961 678.153 915.511 678.153 916.19C678.153 916.869 677.603 917.419 676.924 917.419C676.246 917.419 675.696 916.869 675.696 916.19ZM695.687 914.961C695.009 914.961 694.459 915.511 694.459 916.19C694.459 916.869 695.009 917.419 695.687 917.419C696.365 917.419 696.915 916.869 696.915 916.19C696.915 915.511 696.365 914.961 695.687 914.961ZM714.454 914.961C713.776 914.961 713.226 915.511 713.226 916.19C713.226 916.869 713.776 917.419 714.454 917.419C715.132 917.419 715.682 916.869 715.682 916.19C715.682 915.511 715.132 914.961 714.454 914.961ZM731.993 916.19C731.993 915.511 732.543 914.961 733.221 914.961C733.899 914.961 734.449 915.511 734.449 916.19C734.449 916.869 733.899 917.419 733.221 917.419C732.543 917.414 731.993 916.869 731.993 916.19ZM751.988 914.961C751.31 914.961 750.76 915.511 750.76 916.19C750.76 916.869 751.31 917.414 751.988 917.419C752.666 917.419 753.216 916.869 753.216 916.19C753.216 915.511 752.666 914.961 751.988 914.961Z" fill="#0054B1" fill-opacity="0.44"/>
<path fill-rule="evenodd" clip-rule="evenodd" d="M508.636 312.107C507.957 312.107 507.407 311.557 507.407 310.879C507.407 310.201 507.957 309.651 508.636 309.651C509.315 309.651 509.865 310.201 509.865 310.879C509.865 311.557 509.315 312.107 508.636 312.107ZM494.81 312.107C494.131 312.107 493.581 311.557 493.581 310.879C493.581 310.201 494.131 309.651 494.81 309.651C495.489 309.651 496.039 310.201 496.039 310.879C496.039 311.557 495.489 312.107 494.81 312.107ZM494.81 293.34C494.131 293.34 493.581 292.79 493.581 292.112C493.581 291.434 494.131 290.884 494.81 290.884C495.489 290.884 496.039 291.434 496.039 292.112C496.039 292.79 495.489 293.34 494.81 293.34ZM493.581 273.345C493.581 274.023 494.131 274.573 494.81 274.573C495.489 274.573 496.039 274.023 496.039 273.345C496.039 272.667 495.489 272.117 494.81 272.117C494.131 272.117 493.581 272.667 493.581 273.345ZM494.81 255.806C494.131 255.806 493.581 255.256 493.581 254.578C493.581 253.9 494.131 253.35 494.81 253.35C495.489 253.35 496.039 253.9 496.039 254.578C496.039 255.256 495.489 255.806 494.81 255.806ZM493.581 235.816C493.581 236.494 494.131 237.044 494.81 237.044C495.489 237.044 496.039 236.494 496.039 235.816C496.039 235.137 495.489 234.587 494.81 234.587C494.131 234.587 493.581 235.137 493.581 235.816ZM494.81 218.277C494.131 218.277 493.581 217.727 493.581 217.049C493.581 216.37 494.131 215.82 494.81 215.82C495.489 215.82 496.039 216.37 496.039 217.049C496.039 217.727 495.489 218.277 494.81 218.277ZM493.581 198.282C493.581 198.96 494.131 199.51 494.81 199.51C495.489 199.51 496.039 198.96 496.039 198.282C496.039 197.603 495.489 197.053 494.81 197.053C494.131 197.053 493.581 197.603 493.581 198.282ZM507.407 292.112C507.407 292.79 507.957 293.34 508.636 293.34C509.315 293.34 509.865 292.79 509.865 292.112C509.865 291.434 509.315 290.884 508.636 290.884C507.957 290.884 507.407 291.434 507.407 292.112ZM508.636 274.573C507.957 274.573 507.407 274.023 507.407 273.345C507.407 272.667 507.957 272.117 508.636 272.117C509.315 272.117 509.865 272.667 509.865 273.345C509.865 274.023 509.315 274.573 508.636 274.573ZM507.407 254.578C507.407 255.256 507.957 255.806 508.636 255.806C509.315 255.806 509.865 255.256 509.865 254.578C509.865 253.9 509.315 253.35 508.636 253.35C507.957 253.35 507.407 253.9 507.407 254.578ZM508.636 237.044C507.957 237.044 507.407 236.494 507.407 235.816C507.407 235.137 507.957 234.587 508.636 234.587C509.315 234.587 509.865 235.137 509.865 235.816C509.865 236.494 509.315 237.044 508.636 237.044ZM507.407 217.049C507.407 217.727 507.957 218.277 508.636 218.277C509.315 218.277 509.865 217.727 509.865 217.049C509.865 216.37 509.315 215.82 508.636 215.82C507.957 215.82 507.407 216.37 507.407 217.049ZM508.636 199.51C507.957 199.51 507.407 198.96 507.407 198.282C507.407 197.603 507.957 197.053 508.636 197.053C509.315 197.053 509.865 197.603 509.865 198.282C509.865 198.96 509.315 199.51 508.636 199.51ZM521.233 310.879C521.233 311.557 521.784 312.107 522.462 312.107C523.141 312.107 523.691 311.557 523.691 310.879C523.691 310.201 523.141 309.651 522.462 309.651C521.784 309.651 521.233 310.201 521.233 310.879ZM522.462 293.34C521.783 293.34 521.233 292.79 521.233 292.112C521.233 291.434 521.783 290.884 522.462 290.884C523.141 290.884 523.691 291.434 523.691 292.112C523.691 292.79 523.141 293.34 522.462 293.34ZM522.462 274.573C521.783 274.573 521.233 274.023 521.233 273.345C521.233 272.667 521.783 272.117 522.462 272.117C523.141 272.117 523.691 272.667 523.691 273.345C523.691 274.023 523.141 274.573 522.462 274.573ZM521.233 254.583C521.233 255.261 521.783 255.811 522.462 255.811C523.141 255.811 523.691 255.261 523.691 254.583C523.691 253.904 523.141 253.355 522.462 253.355C521.783 253.355 521.233 253.904 521.233 254.583ZM521.233 235.816C521.233 236.494 521.783 237.044 522.462 237.044C523.141 237.044 523.691 236.494 523.691 235.816C523.691 235.137 523.141 234.587 522.462 234.587C521.783 234.587 521.233 235.137 521.233 235.816ZM522.462 218.277C521.783 218.277 521.233 217.727 521.233 217.049C521.233 216.37 521.783 215.82 522.462 215.82C523.141 215.82 523.691 216.37 523.691 217.049C523.691 217.727 523.141 218.277 522.462 218.277ZM521.233 198.282C521.233 198.96 521.783 199.51 522.462 199.51C523.141 199.51 523.691 198.96 523.691 198.282C523.691 197.603 523.141 197.053 522.462 197.053C521.783 197.053 521.233 197.603 521.233 198.282ZM536.288 312.107C535.61 312.107 535.059 311.557 535.059 310.879C535.059 310.201 535.61 309.651 536.288 309.651C536.967 309.651 537.517 310.201 537.517 310.879C537.517 311.557 536.967 312.107 536.288 312.107ZM535.059 292.112C535.059 292.79 535.61 293.34 536.288 293.34C536.967 293.34 537.517 292.79 537.517 292.112C537.517 291.434 536.967 290.884 536.288 290.884C535.61 290.884 535.059 291.434 535.059 292.112ZM536.288 274.573C535.61 274.573 535.059 274.023 535.059 273.345C535.059 272.667 535.61 272.117 536.288 272.117C536.967 272.117 537.517 272.667 537.517 273.345C537.517 274.023 536.967 274.573 536.288 274.573ZM535.059 254.578C535.059 255.256 535.61 255.806 536.288 255.806C536.967 255.806 537.517 255.256 537.517 254.578C537.517 253.9 536.967 253.35 536.288 253.35C535.61 253.35 535.059 253.9 535.059 254.578ZM536.288 237.044C535.61 237.044 535.059 236.494 535.059 235.816C535.059 235.137 535.61 234.587 536.288 234.587C536.967 234.587 537.517 235.137 537.517 235.816C537.517 236.494 536.967 237.044 536.288 237.044ZM535.059 217.049C535.059 217.727 535.61 218.277 536.288 218.277C536.967 218.277 537.517 217.727 537.517 217.049C537.517 216.37 536.967 215.82 536.288 215.82C535.61 215.82 535.059 216.37 535.059 217.049ZM536.288 199.51C535.61 199.51 535.059 198.96 535.059 198.282C535.059 197.603 535.61 197.053 536.288 197.053C536.967 197.053 537.517 197.603 537.517 198.282C537.517 198.96 536.967 199.51 536.288 199.51ZM548.885 310.879C548.885 311.557 549.436 312.107 550.114 312.107C550.793 312.107 551.343 311.557 551.343 310.879C551.343 310.201 550.793 309.651 550.114 309.651C549.436 309.651 548.885 310.201 548.885 310.879ZM550.114 293.34C549.436 293.34 548.885 292.79 548.885 292.112C548.885 291.434 549.436 290.884 550.114 290.884C550.793 290.884 551.343 291.434 551.343 292.112C551.343 292.79 550.793 293.34 550.114 293.34ZM548.885 273.345C548.885 274.023 549.436 274.573 550.114 274.573C550.793 274.573 551.343 274.023 551.343 273.345C551.343 272.667 550.793 272.117 550.114 272.117C549.436 272.117 548.885 272.667 548.885 273.345ZM550.114 255.806C549.436 255.806 548.885 255.256 548.885 254.578C548.885 253.9 549.436 253.35 550.114 253.35C550.793 253.35 551.343 253.9 551.343 254.578C551.343 255.256 550.793 255.806 550.114 255.806ZM548.885 235.816C548.885 236.494 549.436 237.044 550.114 237.044C550.793 237.044 551.343 236.494 551.343 235.816C551.343 235.137 550.793 234.587 550.114 234.587C549.436 234.587 548.885 235.137 548.885 235.816ZM550.114 218.277C549.436 218.277 548.885 217.727 548.885 217.049C548.885 216.37 549.436 215.82 550.114 215.82C550.793 215.82 551.343 216.37 551.343 217.049C551.343 217.727 550.793 218.277 550.114 218.277ZM548.885 198.282C548.885 198.96 549.436 199.51 550.114 199.51C550.793 199.51 551.343 198.96 551.343 198.282C551.343 197.603 550.793 197.053 550.114 197.053C549.436 197.053 548.885 197.603 548.885 198.282ZM563.94 312.107C563.262 312.107 562.711 311.557 562.711 310.879C562.711 310.201 563.262 309.651 563.94 309.651C564.619 309.651 565.169 310.201 565.169 310.879C565.169 311.557 564.619 312.107 563.94 312.107ZM562.711 292.112C562.711 292.79 563.262 293.34 563.94 293.34C564.619 293.34 565.169 292.79 565.169 292.112C565.169 291.434 564.619 290.884 563.94 290.884C563.262 290.884 562.711 291.434 562.711 292.112ZM563.94 274.573C563.262 274.573 562.711 274.023 562.711 273.345C562.711 272.667 563.262 272.117 563.94 272.117C564.619 272.117 565.169 272.667 565.169 273.345C565.169 274.023 564.619 274.573 563.94 274.573ZM562.711 254.578C562.711 255.256 563.262 255.806 563.94 255.806C564.619 255.806 565.169 255.256 565.169 254.578C565.169 253.9 564.619 253.35 563.94 253.35C563.262 253.35 562.711 253.9 562.711 254.578ZM563.94 237.044C563.262 237.044 562.711 236.494 562.711 235.816C562.711 235.137 563.262 234.587 563.94 234.587C564.619 234.587 565.169 235.137 565.169 235.816C565.169 236.494 564.619 237.044 563.94 237.044ZM562.711 217.049C562.711 217.727 563.262 218.277 563.94 218.277C564.619 218.277 565.169 217.727 565.169 217.049C565.169 216.37 564.619 215.82 563.94 215.82C563.262 215.82 562.711 216.37 562.711 217.049ZM563.94 199.51C563.262 199.51 562.711 198.96 562.711 198.282C562.711 197.603 563.262 197.053 563.94 197.053C564.619 197.053 565.169 197.603 565.169 198.282C565.169 198.96 564.619 199.51 563.94 199.51ZM576.542 310.879C576.542 311.557 577.092 312.107 577.771 312.107C578.45 312.107 578.995 311.557 579 310.879C579 310.201 578.45 309.651 577.771 309.651C577.092 309.651 576.542 310.201 576.542 310.879ZM577.771 293.34C577.092 293.34 576.542 292.79 576.542 292.112C576.542 291.434 577.092 290.884 577.771 290.884C578.45 290.884 579 291.434 579 292.112C578.995 292.79 578.45 293.34 577.771 293.34ZM577.771 274.573C577.092 274.573 576.542 274.023 576.542 273.345C576.542 272.667 577.092 272.117 577.771 272.117C578.45 272.117 579 272.667 579 273.345C579 274.023 578.45 274.573 577.771 274.573ZM576.542 254.583C576.542 255.261 577.092 255.811 577.771 255.811C578.45 255.811 579 255.261 579 254.583C579 253.904 578.45 253.355 577.771 253.355C577.092 253.355 576.542 253.904 576.542 254.583ZM576.542 235.816C576.542 236.494 577.092 237.044 577.771 237.044C578.45 237.044 579 236.494 579 235.816C579 235.137 578.45 234.587 577.771 234.587C577.092 234.587 576.542 235.137 576.542 235.816ZM577.771 218.277C577.092 218.277 576.542 217.727 576.542 217.049C576.542 216.37 577.092 215.82 577.771 215.82C578.45 215.82 579 216.37 579 217.049C578.995 217.727 578.45 218.277 577.771 218.277ZM576.542 198.282C576.542 198.96 577.092 199.51 577.771 199.51C578.45 199.51 578.995 198.96 579 198.282C579 197.603 578.45 197.053 577.771 197.053C577.092 197.053 576.542 197.603 576.542 198.282ZM575.961 180.826C575.961 181.504 576.511 182.054 577.19 182.054C577.869 182.054 578.414 181.504 578.419 180.826C578.419 180.148 577.869 179.598 577.19 179.598C576.511 179.598 575.961 180.148 575.961 180.826ZM563.359 182.054C562.681 182.054 562.13 181.504 562.13 180.826C562.13 180.148 562.681 179.598 563.359 179.598C564.038 179.598 564.588 180.148 564.588 180.826C564.588 181.504 564.038 182.054 563.359 182.054ZM548.304 180.826C548.304 181.504 548.855 182.054 549.533 182.054C550.212 182.054 550.762 181.504 550.762 180.826C550.762 180.148 550.212 179.598 549.533 179.598C548.855 179.598 548.304 180.148 548.304 180.826ZM535.707 182.054C535.028 182.054 534.478 181.504 534.478 180.826C534.478 180.148 535.028 179.598 535.707 179.598C536.386 179.598 536.936 180.148 536.936 180.826C536.936 181.504 536.386 182.054 535.707 182.054ZM520.652 180.826C520.652 181.504 521.202 182.054 521.881 182.054C522.56 182.054 523.11 181.504 523.11 180.826C523.11 180.148 522.56 179.598 521.881 179.598C521.202 179.598 520.652 180.148 520.652 180.826ZM508.055 182.054C507.376 182.054 506.826 181.504 506.826 180.826C506.826 180.148 507.376 179.598 508.055 179.598C508.734 179.598 509.284 180.148 509.284 180.826C509.284 181.504 508.734 182.054 508.055 182.054ZM494.229 182.054C493.55 182.054 493 181.504 493 180.826C493 180.148 493.55 179.598 494.229 179.598C494.908 179.598 495.458 180.148 495.458 180.826C495.458 181.504 494.908 182.054 494.229 182.054ZM494.229 163.287C493.55 163.287 493 162.737 493 162.059C493 161.381 493.55 160.831 494.229 160.831C494.908 160.831 495.458 161.381 495.458 162.059C495.458 162.737 494.908 163.287 494.229 163.287ZM493 143.292C493 143.97 493.55 144.52 494.229 144.52C494.908 144.52 495.458 143.97 495.458 143.292C495.458 142.614 494.908 142.064 494.229 142.064C493.55 142.064 493 142.614 493 143.292ZM494.229 125.753C493.55 125.753 493 125.203 493 124.525C493 123.846 493.55 123.296 494.229 123.296C494.908 123.296 495.458 123.846 495.458 124.525C495.458 125.203 494.908 125.753 494.229 125.753ZM493 105.762C493 106.441 493.55 106.991 494.229 106.991C494.908 106.991 495.458 106.441 495.458 105.762C495.458 105.084 494.908 104.534 494.229 104.534C493.55 104.534 493 105.084 493 105.762ZM494.229 88.2235C493.55 88.2235 493 87.6735 493 86.9953C493 86.317 493.55 85.7671 494.229 85.7671C494.908 85.7671 495.458 86.317 495.458 86.9953C495.458 87.6735 494.908 88.2235 494.229 88.2235ZM493 68.2283C493 68.9065 493.55 69.4565 494.229 69.4565C494.908 69.4565 495.458 68.9065 495.458 68.2283C495.458 67.55 494.908 67 494.229 67C493.55 67 493 67.55 493 68.2283ZM506.826 162.059C506.826 162.737 507.376 163.287 508.055 163.287C508.734 163.287 509.284 162.737 509.284 162.059C509.284 161.381 508.734 160.831 508.055 160.831C507.376 160.831 506.826 161.381 506.826 162.059ZM508.055 144.52C507.376 144.52 506.826 143.97 506.826 143.292C506.826 142.614 507.376 142.064 508.055 142.064C508.734 142.064 509.284 142.614 509.284 143.292C509.284 143.97 508.734 144.52 508.055 144.52ZM506.826 124.525C506.826 125.203 507.376 125.753 508.055 125.753C508.734 125.753 509.284 125.203 509.284 124.525C509.284 123.846 508.734 123.296 508.055 123.296C507.376 123.296 506.826 123.846 506.826 124.525ZM508.055 106.991C507.376 106.991 506.826 106.441 506.826 105.762C506.826 105.084 507.376 104.534 508.055 104.534C508.734 104.534 509.284 105.084 509.284 105.762C509.284 106.441 508.734 106.991 508.055 106.991ZM506.826 86.9953C506.826 87.6735 507.376 88.2235 508.055 88.2235C508.734 88.2235 509.284 87.6735 509.284 86.9953C509.284 86.317 508.734 85.7671 508.055 85.7671C507.376 85.7671 506.826 86.317 506.826 86.9953ZM508.055 69.4565C507.376 69.4565 506.826 68.9065 506.826 68.2283C506.826 67.55 507.376 67 508.055 67C508.734 67 509.284 67.55 509.284 68.2283C509.284 68.9065 508.734 69.4565 508.055 69.4565ZM521.881 163.287C521.202 163.287 520.652 162.737 520.652 162.059C520.652 161.381 521.202 160.831 521.881 160.831C522.56 160.831 523.11 161.381 523.11 162.059C523.11 162.737 522.56 163.287 521.881 163.287ZM521.881 144.52C521.202 144.52 520.652 143.97 520.652 143.292C520.652 142.613 521.202 142.064 521.881 142.064C522.56 142.064 523.11 142.613 523.11 143.292C523.11 143.97 522.56 144.52 521.881 144.52ZM520.652 124.529C520.652 125.208 521.202 125.758 521.881 125.758C522.56 125.758 523.11 125.208 523.11 124.529C523.11 123.851 522.56 123.301 521.881 123.301C521.202 123.301 520.652 123.851 520.652 124.529ZM520.652 105.762C520.652 106.441 521.202 106.991 521.881 106.991C522.56 106.991 523.11 106.441 523.11 105.762C523.11 105.084 522.56 104.534 521.881 104.534C521.202 104.534 520.652 105.084 520.652 105.762ZM521.881 88.2235C521.202 88.2235 520.652 87.6735 520.652 86.9953C520.652 86.317 521.202 85.7671 521.881 85.7671C522.56 85.7671 523.11 86.317 523.11 86.9953C523.11 87.6735 522.56 88.2235 521.881 88.2235ZM520.652 68.2283C520.652 68.9065 521.202 69.4565 521.881 69.4565C522.56 69.4565 523.11 68.9065 523.11 68.2283C523.11 67.55 522.56 67 521.881 67C521.202 67 520.652 67.55 520.652 68.2283ZM534.478 162.059C534.478 162.737 535.028 163.287 535.707 163.287C536.386 163.287 536.936 162.737 536.936 162.059C536.936 161.381 536.386 160.831 535.707 160.831C535.028 160.831 534.478 161.381 534.478 162.059ZM535.707 144.52C535.028 144.52 534.478 143.97 534.478 143.292C534.478 142.614 535.028 142.064 535.707 142.064C536.386 142.064 536.936 142.614 536.936 143.292C536.936 143.97 536.386 144.52 535.707 144.52ZM534.478 124.525C534.478 125.203 535.028 125.753 535.707 125.753C536.386 125.753 536.936 125.203 536.936 124.525C536.936 123.846 536.386 123.296 535.707 123.296C535.028 123.296 534.478 123.846 534.478 124.525ZM535.707 106.991C535.028 106.991 534.478 106.441 534.478 105.762C534.478 105.084 535.028 104.534 535.707 104.534C536.386 104.534 536.936 105.084 536.936 105.762C536.936 106.441 536.386 106.991 535.707 106.991ZM534.478 86.9953C534.478 87.6735 535.028 88.2235 535.707 88.2235C536.386 88.2235 536.936 87.6735 536.936 86.9953C536.936 86.317 536.386 85.7671 535.707 85.7671C535.028 85.7671 534.478 86.317 534.478 86.9953ZM535.707 69.4565C535.028 69.4565 534.478 68.9065 534.478 68.2283C534.478 67.55 535.028 67 535.707 67C536.386 67 536.936 67.55 536.936 68.2283C536.936 68.9065 536.386 69.4565 535.707 69.4565ZM549.533 163.287C548.855 163.287 548.304 162.737 548.304 162.059C548.304 161.381 548.855 160.831 549.533 160.831C550.212 160.831 550.762 161.381 550.762 162.059C550.762 162.737 550.212 163.287 549.533 163.287ZM548.304 143.292C548.304 143.97 548.855 144.52 549.533 144.52C550.212 144.52 550.762 143.97 550.762 143.292C550.762 142.614 550.212 142.064 549.533 142.064C548.855 142.064 548.304 142.614 548.304 143.292ZM549.533 125.753C548.855 125.753 548.304 125.203 548.304 124.525C548.304 123.846 548.855 123.296 549.533 123.296C550.212 123.296 550.762 123.846 550.762 124.525C550.762 125.203 550.212 125.753 549.533 125.753ZM548.304 105.762C548.304 106.441 548.855 106.991 549.533 106.991C550.212 106.991 550.762 106.441 550.762 105.762C550.762 105.084 550.212 104.534 549.533 104.534C548.855 104.534 548.304 105.084 548.304 105.762ZM549.533 88.2235C548.855 88.2235 548.304 87.6735 548.304 86.9953C548.304 86.317 548.855 85.7671 549.533 85.7671C550.212 85.7671 550.762 86.317 550.762 86.9953C550.762 87.6735 550.212 88.2235 549.533 88.2235ZM548.304 68.2283C548.304 68.9065 548.855 69.4565 549.533 69.4565C550.212 69.4565 550.762 68.9065 550.762 68.2283C550.762 67.55 550.212 67 549.533 67C548.855 67 548.304 67.55 548.304 68.2283ZM562.13 162.059C562.13 162.737 562.681 163.287 563.359 163.287C564.038 163.287 564.588 162.737 564.588 162.059C564.588 161.381 564.038 160.831 563.359 160.831C562.681 160.831 562.13 161.381 562.13 162.059ZM563.359 144.52C562.681 144.52 562.13 143.97 562.13 143.292C562.13 142.614 562.681 142.064 563.359 142.064C564.038 142.064 564.588 142.614 564.588 143.292C564.588 143.97 564.038 144.52 563.359 144.52ZM562.13 124.525C562.13 125.203 562.681 125.753 563.359 125.753C564.038 125.753 564.588 125.203 564.588 124.525C564.588 123.846 564.038 123.296 563.359 123.296C562.681 123.296 562.13 123.846 562.13 124.525ZM563.359 106.991C562.681 106.991 562.13 106.441 562.13 105.762C562.13 105.084 562.681 104.534 563.359 104.534C564.038 104.534 564.588 105.084 564.588 105.762C564.588 106.441 564.038 106.991 563.359 106.991ZM562.13 86.9953C562.13 87.6735 562.681 88.2235 563.359 88.2235C564.038 88.2235 564.588 87.6735 564.588 86.9953C564.588 86.317 564.038 85.7671 563.359 85.7671C562.681 85.7671 562.13 86.317 562.13 86.9953ZM563.359 69.4565C562.681 69.4565 562.13 68.9065 562.13 68.2283C562.13 67.55 562.681 67 563.359 67C564.038 67 564.588 67.55 564.588 68.2283C564.588 68.9065 564.038 69.4565 563.359 69.4565ZM577.19 163.287C576.511 163.287 575.961 162.737 575.961 162.059C575.961 161.381 576.511 160.831 577.19 160.831C577.869 160.831 578.419 161.381 578.419 162.059C578.414 162.737 577.869 163.287 577.19 163.287ZM577.19 144.52C576.511 144.52 575.961 143.97 575.961 143.292C575.961 142.613 576.511 142.064 577.19 142.064C577.869 142.064 578.419 142.613 578.419 143.292C578.419 143.97 577.869 144.52 577.19 144.52ZM575.961 124.529C575.961 125.208 576.511 125.758 577.19 125.758C577.869 125.758 578.419 125.208 578.419 124.529C578.419 123.851 577.869 123.301 577.19 123.301C576.511 123.301 575.961 123.851 575.961 124.529ZM575.961 105.762C575.961 106.441 576.511 106.991 577.19 106.991C577.869 106.991 578.419 106.441 578.419 105.762C578.419 105.084 577.869 104.534 577.19 104.534C576.511 104.534 575.961 105.084 575.961 105.762ZM577.19 88.2235C576.511 88.2235 575.961 87.6735 575.961 86.9953C575.961 86.317 576.511 85.7671 577.19 85.7671C577.869 85.7671 578.419 86.317 578.419 86.9953C578.414 87.6735 577.869 88.2235 577.19 88.2235ZM575.961 68.2282C575.961 68.9065 576.511 69.4565 577.19 69.4565C577.869 69.4565 578.414 68.9065 578.419 68.2282C578.419 67.55 577.869 67 577.19 67C576.511 67 575.961 67.55 575.961 68.2282Z" fill="#0054B1" fill-opacity="0.44"/>
<path d="M1356.81 566.143C1331.3 591.66 1331.3 633.032 1356.81 658.55C1382.33 684.067 1423.7 684.067 1449.22 658.549L1955.16 152.611C1980.68 127.093 1980.68 85.7211 1955.16 60.2036C1929.64 34.6862 1888.27 34.6862 1862.75 60.2037L1356.81 566.143Z" stroke="#2278F7" stroke-opacity="0.05" stroke-width="50"/>
<path d="M1189.74 726.143C1162.27 753.613 1162.27 798.151 1189.74 825.621C1217.21 853.091 1261.75 853.091 1289.22 825.621C1316.69 798.151 1316.69 753.613 1289.22 726.143C1261.75 698.673 1217.21 698.673 1189.74 726.143Z" stroke="#2278F7" stroke-opacity="0.05" stroke-width="40"/>
<path d="M237.121 336.14C261.395 311.867 261.395 272.512 237.121 248.239C212.848 223.965 173.494 223.965 149.22 248.239L-332.049 729.508C-356.322 753.781 -356.322 793.136 -332.049 817.409C-307.776 841.683 -268.421 841.683 -244.148 817.409L237.121 336.14Z" stroke="#2278F7" stroke-opacity="0.05" stroke-width="50"/>
<path d="M396.051 183.941C422.182 157.81 422.182 115.444 396.051 89.3136C369.92 63.183 327.554 63.1831 301.424 89.3137C275.293 115.444 275.293 157.81 301.424 183.941C327.554 210.072 369.92 210.072 396.051 183.941Z" stroke="#2278F7" stroke-opacity="0.05" stroke-width="40"/>
<path fill-rule="evenodd" clip-rule="evenodd" d="M239.754 654.246C220.76 635.251 189.965 635.251 170.97 654.246C151.976 673.24 151.976 704.035 170.97 723.029C189.965 742.023 220.76 742.023 239.754 723.029C258.749 704.035 258.749 673.24 239.754 654.246ZM151.711 742.288C132.717 723.294 101.922 723.294 82.9281 742.288L-257.754 1082.97C-276.749 1101.97 -276.749 1132.76 -257.754 1151.75C-238.76 1170.75 -207.965 1170.75 -188.971 1151.75L151.711 811.072C170.705 792.077 170.705 761.282 151.711 742.288Z" fill="#2278F7" fill-opacity="0.05"/>
<path fill-rule="evenodd" clip-rule="evenodd" d="M1248.4 286.602C1260.93 299.133 1281.24 299.133 1293.77 286.602C1306.3 274.072 1306.3 253.756 1293.77 241.226C1281.24 228.696 1260.93 228.696 1248.4 241.226C1235.87 253.757 1235.87 274.072 1248.4 286.602ZM1306.48 228.521C1319.01 241.051 1339.33 241.051 1351.86 228.521L1576.6 3.77377C1589.13 -8.75653 1589.13 -29.072 1576.6 -41.6023C1564.07 -54.1326 1543.76 -54.1326 1531.23 -41.6023L1306.48 183.145C1293.95 195.675 1293.95 215.991 1306.48 228.521Z" fill="#2278F7" fill-opacity="0.05"/>
<path d="M764.033 280.092L782.003 267.855M731.641 238.359L749.614 226.12M729.866 271.463L747.836 259.227M765.809 246.988L783.779 234.751M747.852 259.222L749.626 226.117L783.792 234.748L782.017 267.853L747.852 259.222ZM729.879 271.462L731.654 238.357L765.82 246.988L764.045 280.093L729.879 271.462Z" stroke="#0065F2" stroke-opacity="0.1" stroke-miterlimit="10"/>
</g>
<defs>
<clipPath id="clip0_1469_12985">
<rect width="1440" height="1024" fill="white"/>
</clipPath>
</defs>
</svg>
