<svg width="1024" height="304" viewBox="0 0 1024 304" fill="none" xmlns="http://www.w3.org/2000/svg">
<path d="M987.569 303.407H35.8671C16.0914 303.407 0 287.262 0 267.508V35.8454C0 16.0806 16.0914 0 35.8671 0H987.569C1007.33 0 1024 16.0806 1024 35.8454V267.508C1024 287.267 1007.33 303.407 987.569 303.407Z" fill="#A6A6A6"/>
<path d="M1016.66 267.512C1016.66 283.566 1003.65 296.564 987.574 296.564H35.8717C19.7965 296.564 6.75 283.561 6.75 267.512V35.8392C6.76005 28.1217 9.83248 20.7237 15.2926 15.2696C20.7527 9.8156 28.1542 6.75143 35.8717 6.75H987.569C995.284 6.75 1002.68 9.81474 1008.14 15.27C1013.59 20.7253 1016.66 28.1243 1016.66 35.8392V267.512Z" fill="black"/>
<path d="M228.501 150.097C228.279 125.645 248.516 113.753 249.442 113.2C237.978 96.4912 220.212 94.2048 213.97 94.0206C199.049 92.4548 184.578 102.955 176.976 102.955C169.229 102.955 157.526 94.1777 144.907 94.4324C128.675 94.687 113.488 104.082 105.161 118.678C87.9751 148.433 100.794 192.162 117.259 216.213C125.495 227.997 135.122 241.146 147.725 240.686C160.051 240.176 164.65 232.829 179.528 232.829C194.265 232.829 198.589 240.686 211.44 240.388C224.666 240.176 232.993 228.555 240.947 216.668C250.466 203.166 254.286 189.87 254.437 189.188C254.129 189.079 228.745 179.397 228.496 150.097H228.501ZM204.229 78.2001C210.855 69.9105 215.39 58.6303 214.133 47.1875C204.538 47.6101 192.537 53.8245 185.623 61.9298C179.512 69.0816 174.051 80.7844 175.459 91.8046C186.241 92.6065 197.305 86.365 204.229 78.2055V78.2001Z" fill="white"/>
<path d="M406.907 238.99H389.678L380.245 209.337H347.445L338.456 238.99H321.688L354.185 138.042H374.253L406.907 238.99V238.99ZM377.401 196.897L368.867 170.539C367.963 167.846 366.272 161.507 363.774 151.522H363.476C362.48 155.818 360.876 162.157 358.682 170.539L350.3 196.897H377.401V196.897ZM490.474 201.698C490.474 214.078 487.126 223.863 480.44 231.047C474.448 237.44 467.003 240.637 458.118 240.637C448.533 240.637 441.647 237.191 437.454 230.305H437.15V268.648H420.978V190.163C420.978 182.377 420.772 174.396 420.382 166.199H434.598L435.503 177.739H435.807C441.198 169.043 449.384 164.704 460.366 164.704C468.954 164.704 476.122 168.095 481.854 174.889C487.608 181.684 490.469 190.618 490.469 201.698H490.474ZM473.998 202.294C473.998 195.207 472.405 189.366 469.203 184.766C465.709 179.977 461.011 177.577 455.127 177.577C451.134 177.577 447.509 178.915 444.27 181.543C441.024 184.197 438.906 187.665 437.909 191.961C437.405 193.966 437.156 195.602 437.156 196.892V209.028C437.156 214.321 438.781 218.786 442.026 222.438C445.277 226.084 449.492 227.91 454.677 227.91C460.767 227.91 465.513 225.553 468.9 220.866C472.297 216.169 473.998 209.982 473.998 202.288V202.294ZM574.193 201.698C574.193 214.078 570.845 223.863 564.148 231.047C558.161 237.44 550.722 240.637 541.842 240.637C532.252 240.637 525.366 237.191 521.178 230.305H520.874V268.648H504.702V190.163C504.702 182.377 504.496 174.396 504.106 166.199H518.328L519.227 177.739H519.531C524.916 169.043 533.103 164.704 544.091 164.704C552.673 164.704 559.841 168.095 565.589 174.889C571.316 181.684 574.193 190.618 574.193 201.698V201.698ZM557.717 202.294C557.717 195.207 556.113 189.366 552.916 184.766C549.416 179.977 544.735 177.577 538.846 177.577C534.847 177.577 531.228 178.915 527.983 181.543C524.732 184.197 522.619 187.665 521.628 191.961C521.135 193.966 520.874 195.602 520.874 196.892V209.028C520.874 214.321 522.5 218.786 525.729 222.438C528.98 226.079 533.195 227.91 538.396 227.91C544.486 227.91 549.232 225.553 552.619 220.866C556.016 216.169 557.711 209.982 557.711 202.288L557.717 202.294ZM667.794 210.675C667.794 219.268 664.814 226.252 658.827 231.643C652.25 237.538 643.094 240.48 631.331 240.48C620.468 240.48 611.761 238.388 605.168 234.195L608.917 220.715C615.959 224.995 624.055 227.228 632.295 227.162C638.385 227.162 643.126 225.781 646.529 223.034C649.92 220.292 651.611 216.602 651.611 212.008C651.611 207.912 650.218 204.461 647.417 201.66C644.632 198.864 639.984 196.258 633.493 193.858C615.819 187.264 606.988 177.604 606.988 164.909C606.988 156.614 610.082 149.809 616.28 144.516C622.456 139.212 630.692 136.562 640.991 136.562C650.18 136.562 657.809 138.166 663.899 141.357L659.857 154.539C654.168 151.451 647.737 149.902 640.536 149.902C634.847 149.902 630.405 151.305 627.219 154.095C624.526 156.587 623.177 159.632 623.177 163.235C623.177 167.223 624.716 170.522 627.809 173.118C630.502 175.512 635.395 178.108 642.492 180.909C651.183 184.403 657.56 188.494 661.661 193.181C665.752 197.851 667.794 203.702 667.794 210.681V210.675ZM721.259 178.335H703.434V213.677C703.434 222.665 706.576 227.157 712.872 227.157C715.76 227.157 718.16 226.902 720.056 226.404L720.5 238.686C717.315 239.878 713.121 240.474 707.925 240.474C701.537 240.474 696.547 238.524 692.944 234.634C689.358 230.733 687.554 224.198 687.554 215.01V178.319H676.934V166.183H687.554V152.854L703.434 148.065V166.183H721.259V178.335V178.335ZM801.683 201.996C801.683 213.184 798.487 222.367 792.094 229.551C785.402 236.947 776.511 240.631 765.426 240.631C754.753 240.631 746.247 237.093 739.908 230.007C733.563 222.92 730.394 213.98 730.394 203.198C730.394 191.924 733.655 182.68 740.2 175.502C746.729 168.307 755.544 164.714 766.629 164.714C777.303 164.714 785.901 168.258 792.386 175.35C798.59 182.231 801.683 191.111 801.683 201.996ZM784.909 202.516C784.909 195.803 783.474 190.049 780.57 185.249C777.178 179.435 772.334 176.536 766.049 176.536C759.548 176.536 754.612 179.446 751.22 185.249C748.316 190.054 746.886 195.906 746.886 202.819C746.886 209.537 748.316 215.291 751.22 220.086C754.72 225.894 759.602 228.793 765.903 228.793C772.08 228.793 776.929 225.835 780.423 219.935C783.403 215.042 784.909 209.223 784.909 202.516V202.516ZM854.254 180.421C852.572 180.118 850.865 179.969 849.156 179.977C843.467 179.977 839.068 182.122 835.969 186.424C833.276 190.217 831.927 195.006 831.927 200.798V238.99H815.765L815.917 189.122C815.917 180.735 815.711 173.096 815.31 166.204H829.397L829.987 180.134H830.431C832.138 175.35 834.831 171.492 838.52 168.604C842.123 166.004 846.014 164.704 850.207 164.704C851.702 164.704 853.052 164.812 854.249 165.002V180.421H854.254ZM926.574 199.151C926.615 201.61 926.417 204.067 925.983 206.487H877.47C877.66 213.677 880.001 219.176 884.508 222.969C888.599 226.36 893.881 228.062 900.378 228.062C907.562 228.062 914.112 226.913 920.007 224.616L922.543 235.842C915.651 238.843 907.524 240.339 898.14 240.339C886.854 240.339 877.99 237.017 871.543 230.38C865.112 223.743 861.888 214.831 861.888 203.648C861.888 192.671 864.884 183.531 870.882 176.244C877.167 168.458 885.651 164.568 896.336 164.568C906.825 164.568 914.768 168.458 920.159 176.244C924.428 182.42 926.574 190.071 926.574 199.151V199.151ZM911.154 194.958C911.262 190.163 910.206 186.018 908.012 182.523C905.216 178.026 900.914 175.778 895.128 175.778C889.84 175.778 885.538 177.972 882.254 182.372C879.562 185.866 877.963 190.065 877.47 194.947H911.154V194.958Z" fill="white"/>
<path d="M372.015 75.946C372.015 84.8694 369.338 91.5931 363.991 96.1009C359.039 100.273 351.995 102.353 342.882 102.353C338.358 102.353 334.49 102.158 331.25 101.763V52.9845C335.476 52.3019 340.027 51.9551 344.941 51.9551C353.626 51.9551 360.177 53.8406 364.587 57.6169C369.534 61.8863 372.015 67.9924 372.015 75.946V75.946ZM363.633 76.1627C363.633 70.3763 362.1 65.939 359.039 62.8453C355.972 59.757 351.497 58.2075 345.602 58.2075C343.099 58.2075 340.97 58.3754 339.204 58.7276V95.8083C340.179 95.96 341.967 96.025 344.567 96.025C350.657 96.025 355.349 94.3401 358.654 90.9538C361.965 87.573 363.633 82.6426 363.633 76.1627V76.1627ZM416.459 83.7425C416.459 89.2417 414.887 93.7441 411.745 97.282C408.456 100.912 404.095 102.727 398.644 102.727C393.4 102.727 389.217 100.993 386.102 97.4987C382.992 94.0204 381.437 89.6264 381.437 84.333C381.437 78.7958 383.035 74.2556 386.253 70.723C389.466 67.2013 393.79 65.4297 399.24 65.4297C404.485 65.4297 408.706 67.1634 411.897 70.6472C414.931 74.0334 416.459 78.4003 416.459 83.7425V83.7425ZM408.213 83.9971C408.213 80.6976 407.497 77.8748 406.078 75.5125C404.409 72.6573 402.036 71.2323 398.948 71.2323C395.757 71.2323 393.329 72.6573 391.661 75.5125C390.236 77.8694 389.531 80.7463 389.531 84.1434C389.531 87.443 390.241 90.2711 391.661 92.6334C393.383 95.4833 395.778 96.9136 398.872 96.9136C401.906 96.9136 404.29 95.4616 406.002 92.5575C407.476 90.1519 408.213 87.3021 408.213 83.9971ZM476.046 66.1611L464.858 101.92H457.576L452.943 86.3864C451.788 82.5877 450.828 78.7323 450.066 74.8353H449.92C449.236 78.7483 448.276 82.6083 447.049 86.3864L442.124 101.914H434.755L424.239 66.1557H432.409L436.451 83.1573C437.426 87.1775 438.234 91.008 438.878 94.6326H439.025C439.615 91.6473 440.596 87.8385 441.972 83.2332L447.049 66.1665H453.523L458.389 82.8702C459.564 86.9445 460.518 90.8617 461.255 94.6435H461.471C462.013 90.9592 462.826 87.042 463.904 82.8702L468.238 66.1665H476.046V66.1611V66.1611ZM517.255 101.914H509.307V81.4344C509.307 75.1224 506.912 71.9692 502.101 71.9692C499.744 71.9692 497.837 72.8361 496.358 74.5698C494.895 76.3036 494.153 78.357 494.153 80.6976V101.909H486.205V76.374C486.205 73.2316 486.102 69.8291 485.912 66.1448H492.901L493.27 71.7362H493.492C494.413 69.997 495.8 68.5613 497.609 67.4181C499.773 66.0794 502.271 65.3824 504.815 65.408C508.153 65.408 510.932 66.4862 513.137 68.6479C515.884 71.2919 517.255 75.2471 517.255 80.4971V101.914V101.914ZM539.176 101.914H531.233V49.75H539.176V101.914ZM585.977 83.7425C585.977 89.2417 584.406 93.7441 581.263 97.282C577.974 100.912 573.608 102.727 568.168 102.727C562.912 102.727 558.73 100.993 555.62 97.4987C552.51 94.0204 550.96 89.6264 550.96 84.333C550.96 78.7958 552.559 74.2556 555.771 70.723C558.99 67.2013 563.313 65.4297 568.753 65.4297C574.008 65.4297 578.218 67.1634 581.42 70.6472C584.454 74.0334 585.977 78.4003 585.977 83.7425V83.7425ZM577.725 83.9971C577.725 80.6976 577.01 77.8748 575.596 75.5125C573.933 72.6573 571.549 71.2323 568.471 71.2323C565.275 71.2323 562.842 72.6573 561.184 75.5125C559.754 77.8694 559.049 80.7463 559.049 84.1434C559.049 87.443 559.765 90.2711 561.184 92.6334C562.902 95.4833 565.302 96.9136 568.395 96.9136C571.429 96.9136 573.803 95.4616 575.52 92.5575C576.999 90.1519 577.725 87.3021 577.725 83.9971ZM624.45 101.914H617.314L616.718 97.7967H616.502C614.058 101.08 610.574 102.727 606.056 102.727C602.68 102.727 599.95 101.644 597.896 99.4871C596.027 97.5312 595.095 95.0986 595.095 92.2054C595.095 87.8385 596.916 84.5118 600.578 82.2038C604.235 79.8957 609.377 78.7633 615.998 78.8175V78.1511C615.998 73.4374 613.527 71.0915 608.575 71.0915C605.048 71.0915 601.938 71.9746 599.256 73.7354L597.636 68.5179C600.958 66.4591 605.059 65.4297 609.903 65.4297C619.249 65.4297 623.935 70.36 623.935 80.2208V93.3865C623.935 96.9624 624.109 99.8068 624.45 101.914V101.914ZM616.198 89.6264V84.1109C607.427 83.9592 603.043 86.3648 603.043 91.3168C603.043 93.186 603.547 94.5784 604.571 95.5158C605.595 96.4477 606.901 96.9082 608.451 96.9082C610.195 96.9082 611.826 96.3555 613.316 95.2557C614.218 94.6227 614.952 93.7792 615.455 92.7982C615.957 91.8172 616.212 90.7284 616.198 89.6264V89.6264ZM669.62 101.914H662.565L662.192 96.1713H661.975C659.721 100.544 655.885 102.727 650.489 102.727C646.181 102.727 642.595 101.037 639.75 97.6504C636.906 94.2696 635.486 89.8756 635.486 84.4847C635.486 78.6983 637.025 74.0118 640.119 70.4305C643.115 67.093 646.788 65.4242 651.155 65.4242C655.961 65.4242 659.32 67.0388 661.233 70.2788H661.384V49.75H669.338V92.2812C669.338 95.765 669.43 98.9724 669.62 101.914V101.914ZM661.384 86.8361V80.8764C661.384 79.8469 661.309 79.0071 661.162 78.3732C660.74 76.5023 659.735 74.8138 658.291 73.5512C656.824 72.2581 654.925 71.5622 652.97 71.6008C650.007 71.6008 647.682 72.7819 645.981 75.1387C644.285 77.5009 643.429 80.5079 643.429 84.1867C643.429 87.7247 644.242 90.5908 645.867 92.8013C646.642 93.9201 647.683 94.828 648.897 95.443C650.11 96.0579 651.458 96.3604 652.819 96.323C655.43 96.323 657.516 95.3478 659.103 93.3811C660.631 91.5715 661.379 89.3826 661.379 86.8361H661.384ZM737.605 83.7425C737.605 89.2417 736.033 93.7441 732.891 97.282C729.602 100.912 725.252 102.727 719.796 102.727C714.557 102.727 710.374 100.993 707.248 97.4987C704.138 94.0204 702.588 89.6264 702.588 84.333C702.588 78.7958 704.187 74.2556 707.399 70.723C710.618 67.2013 714.941 65.4297 720.397 65.4297C725.636 65.4297 729.862 67.1634 733.048 70.6472C736.082 74.0334 737.605 78.4003 737.605 83.7425V83.7425ZM729.369 83.9971C729.369 80.6976 728.654 77.8748 727.235 75.5125C725.56 72.6573 723.193 71.2323 720.099 71.2323C716.913 71.2323 714.486 72.6573 712.812 75.5125C711.382 77.8694 710.677 80.7463 710.677 84.1434C710.677 87.443 711.392 90.2711 712.812 92.6334C714.529 95.4833 716.93 96.9136 720.023 96.9136C723.057 96.9136 725.447 95.4616 727.159 92.5575C728.622 90.1519 729.369 87.3021 729.369 83.9971V83.9971ZM780.347 101.914H772.404V81.4344C772.404 75.1224 770.01 71.9692 765.193 71.9692C762.836 71.9692 760.929 72.8361 759.461 74.5698C757.987 76.3036 757.25 78.357 757.25 80.6976V101.909H749.297V76.374C749.297 73.2316 749.205 69.8291 749.015 66.1448H755.993L756.362 71.7362H756.584C757.516 69.997 758.897 68.5613 760.702 67.4181C762.869 66.0788 765.371 65.3818 767.918 65.408C771.245 65.408 774.024 66.4862 776.23 68.6479C778.982 71.2919 780.347 75.2471 780.347 80.4971V101.914V101.914ZM833.844 72.1155H825.094V89.4855C825.094 93.8958 826.649 96.1063 829.727 96.1063C831.152 96.1063 832.338 95.9817 833.27 95.7325L833.476 101.763C831.905 102.359 829.846 102.651 827.299 102.651C824.157 102.651 821.719 101.698 819.953 99.7797C818.176 97.8726 817.298 94.6543 817.298 90.1411V72.1155H812.07V66.1557H817.298V59.6053L825.084 57.2539V66.1503H833.839V72.11H833.844V72.1155ZM875.931 101.914H867.972V81.5861C867.972 75.1766 865.578 71.9692 860.772 71.9692C857.088 71.9692 854.568 73.8275 853.187 77.5443C852.954 78.3245 852.818 79.278 852.818 80.405V101.909H844.875V49.75H852.818V71.3028H852.97C855.473 67.3801 859.06 65.4242 863.708 65.4242C867.003 65.4242 869.722 66.5024 871.89 68.6642C874.577 71.3569 875.931 75.3608 875.931 80.6542V101.914V101.914ZM919.34 82.3446C919.34 83.7696 919.232 84.9723 919.042 85.9476H895.203C895.312 89.4855 896.449 92.1783 898.654 94.0421C900.67 95.7108 903.276 96.5452 906.456 96.5452C909.748 96.5896 913.02 96.0162 916.1 94.8548L917.347 100.376C913.955 101.849 909.962 102.581 905.346 102.581C899.808 102.581 895.447 100.955 892.288 97.6884C889.119 94.4267 887.548 90.049 887.548 84.5606C887.548 79.1697 889.01 74.6782 891.963 71.0969C895.046 67.2718 899.207 65.3646 904.463 65.3646C909.61 65.3646 913.511 67.2718 916.155 71.0969C918.284 74.131 919.34 77.8856 919.34 82.3446V82.3446ZM911.755 80.2858C911.815 77.929 911.289 75.8972 910.216 74.1851C908.835 71.9746 906.733 70.8693 903.888 70.8693C901.293 70.8693 899.175 71.9475 897.56 74.1093C896.213 75.9077 895.397 78.0473 895.203 80.2858H911.755V80.2858Z" fill="white"/>
</svg>
