<svg width="55" height="45" viewBox="0 0 55 45" fill="none" xmlns="http://www.w3.org/2000/svg">
<g clip-path="url(#clip0_1420_12768)">
<path d="M54.5357 21.8147C54.5357 16.0291 52.2373 10.4804 48.1463 6.38938C44.0552 2.29833 38.5066 7.58693e-07 32.721 0C26.9354 -7.58691e-07 21.3867 2.29833 17.2957 6.38938C13.2046 10.4804 10.9062 16.0291 10.9062 21.8147H17.7234C19.9824 21.8147 21.7442 19.9216 22.5716 17.8196C23.1149 16.4395 23.9392 15.1712 25.0082 14.102C27.0538 12.0565 29.8282 10.9074 32.721 10.9074C35.6138 10.9074 38.3881 12.0565 40.4337 14.102C42.4792 16.1475 43.6283 18.9219 43.6283 21.8147H54.5357Z" fill="url(#paint0_linear_1420_12768)"/>
<path d="M41.9689 30.163C43.0653 27.5163 43.6296 24.6796 43.6296 21.8149H54.5358C54.5358 33.8628 44.7689 43.6295 32.721 43.6295C30.8343 43.6295 29.0033 43.39 27.2573 42.9398C28.2452 42.6852 29.2162 42.3611 30.1629 41.969C32.8096 40.8727 35.2144 39.2659 37.2402 37.2402C39.2659 35.2145 40.8728 32.8097 41.9689 30.163Z" fill="#0065F2"/>
<path d="M0 21.8145C-4.09827e-07 24.6793 0.564254 27.516 1.66054 30.1627C2.75684 32.8094 4.36369 35.2142 6.38938 37.2399C8.41506 39.2655 10.8199 40.8724 13.4666 41.9687C16.1132 43.065 18.9499 43.6292 21.8147 43.6292C24.6794 43.6292 27.5161 43.065 30.1628 41.9687C32.8095 40.8724 35.2143 39.2655 37.24 37.2399C39.2657 35.2142 40.8725 32.8094 41.9688 30.1627C43.0651 27.516 43.6295 24.6793 43.6295 21.8145H36.8123C34.5533 21.8145 32.7915 23.7075 31.9641 25.8095C31.9406 25.8694 31.9164 25.929 31.8918 25.9886C31.3436 27.3119 30.5402 28.5144 29.5273 29.5272C28.5145 30.54 27.312 31.3435 25.9888 31.8916C24.6655 32.4398 23.2471 32.7219 21.8147 32.7219C20.3823 32.7219 18.964 32.4398 17.6407 31.8916C16.3173 31.3435 15.1149 30.54 14.102 29.5272C13.0892 28.5144 12.2858 27.3119 11.7376 25.9886C11.1895 24.6652 10.9074 23.2469 10.9074 21.8145H0Z" fill="url(#paint1_linear_1420_12768)"/>
<path d="M0.00244141 21.8147C0.00244141 9.76674 9.76919 0 21.8171 0C23.7034 0 25.5338 0.239408 27.2796 0.689517C23.5335 1.65455 20.0778 3.60752 17.2958 6.3894C13.2048 10.4804 10.9065 16.0291 10.9065 21.8147H0.00244141Z" fill="#FF735C"/>
</g>
<defs>
<linearGradient id="paint0_linear_1420_12768" x1="54.5357" y1="10.9074" x2="10.9062" y2="10.9074" gradientUnits="userSpaceOnUse">
<stop stop-color="#27E3DE"/>
<stop offset="1" stop-color="#1544BE"/>
</linearGradient>
<linearGradient id="paint1_linear_1420_12768" x1="1.43033e-06" y1="32.7219" x2="43.6295" y2="32.7219" gradientUnits="userSpaceOnUse">
<stop stop-color="#FFCE52"/>
<stop offset="1" stop-color="#FF675C"/>
</linearGradient>
<clipPath id="clip0_1420_12768">
<rect width="55" height="45" fill="white"/>
</clipPath>
</defs>
</svg>
