<svg width="214" height="46" viewBox="0 0 214 46" fill="none" xmlns="http://www.w3.org/2000/svg">
<ellipse cx="24.2823" cy="23" rx="20.2823" ry="20" fill="url(#paint0_linear_1920_1447)"/>
<path fill-rule="evenodd" clip-rule="evenodd" d="M31.3032 20.7847C31.3032 17.1225 28.2472 14.1538 24.4774 14.1538C20.7077 14.1538 17.6517 17.1225 17.6517 20.7847C17.6517 25.4369 17.6517 27.5646 17.6517 32.2307L24.8131 32.2307L24.8131 28.9696L21.0086 28.9696L21.0086 28.0372C21.0086 26.1761 22.5616 24.6674 24.4774 24.6674C26.3932 24.6674 27.9463 26.1761 27.9463 28.0372L27.9463 32.2307L31.3032 32.2307C31.3032 27.5646 31.3032 25.4369 31.3032 20.7847ZM21.0086 22.3252C22.0251 21.7414 23.211 21.4063 24.4774 21.4063C25.7439 21.4063 26.9298 21.7414 27.9463 22.3252L27.9463 20.7847C27.9463 18.9236 26.3932 17.4149 24.4774 17.4149C22.5616 17.4149 21.0086 18.9236 21.0086 20.7847L21.0086 22.3252Z" fill="white"/>
<path d="M62.3829 31.4637C61.1888 31.4637 60.0748 31.2699 59.041 30.8822C58.0216 30.4802 57.1261 29.9202 56.3543 29.2022C55.5826 28.4843 54.9782 27.6443 54.5414 26.6822C54.1191 25.7058 53.908 24.6504 53.908 23.516C53.908 22.3673 54.1191 21.3119 54.5414 20.3499C54.9782 19.3878 55.5753 18.555 56.3325 17.8514C57.1042 17.1478 57.9998 16.6022 59.0191 16.2145C60.0384 15.8125 61.1451 15.6114 62.3392 15.6114C63.5478 15.6114 64.6545 15.7981 65.6592 16.1714C66.664 16.5448 67.5377 17.0617 68.2803 17.7222L65.3753 20.6084C65.0258 20.235 64.5962 19.9407 64.0866 19.7253C63.5915 19.5099 63.009 19.4022 62.3392 19.4022C61.7567 19.4022 61.2179 19.4955 60.7228 19.6822C60.2423 19.8689 59.8273 20.1417 59.4778 20.5007C59.1283 20.8596 58.8516 21.2976 58.6478 21.8145C58.4585 22.3171 58.3638 22.8843 58.3638 23.516C58.3638 24.1622 58.4585 24.7437 58.6478 25.2607C58.8516 25.7632 59.1283 26.194 59.4778 26.553C59.8273 26.9119 60.2423 27.1919 60.7228 27.393C61.2179 27.5796 61.7567 27.673 62.3392 27.673C62.9944 27.673 63.5769 27.5725 64.0866 27.3714C64.6108 27.1704 65.0622 26.876 65.4408 26.4884L68.3677 29.3745C67.5959 30.035 66.7295 30.5519 65.7684 30.9253C64.8074 31.2843 63.6788 31.4637 62.3829 31.4637Z" fill="#7850D1"/>
<path d="M73.4202 25.0884V22.1161H76.0631C76.6601 22.1161 77.1115 21.9725 77.4173 21.6853C77.7377 21.3981 77.8979 21.0176 77.8979 20.5437C77.8979 20.0699 77.7377 19.6894 77.4173 19.4022C77.1115 19.115 76.6601 18.9714 76.0631 18.9714H73.4202V15.8699H76.7621C77.8396 15.8699 78.7861 16.0637 79.6016 16.4514C80.417 16.8391 81.0577 17.3776 81.5237 18.0668C81.9897 18.7561 82.2227 19.5602 82.2227 20.4791C82.2227 21.3981 81.9824 22.2022 81.5019 22.8914C81.0359 23.5807 80.3806 24.1191 79.5361 24.5068C78.6915 24.8945 77.694 25.0884 76.5436 25.0884H73.4202ZM69.8817 31.2053V15.8699H74.2502V31.2053H69.8817ZM78.2692 31.2053L74.0317 24.6576L77.9634 23.8176L83.2274 31.2053H78.2692Z" fill="#7850D1"/>
<path d="M88.4645 25.9284L82.5452 15.8699H87.569L92.0467 24.076H88.2898L92.7675 15.8699H97.6821L91.7191 25.9284H88.4645ZM87.9621 31.2053V24.356H92.3306V31.2053H87.9621Z" fill="#7850D1"/>
<path d="M102.067 25.8207V22.7191H104.885C105.22 22.7191 105.526 22.6545 105.802 22.5253C106.093 22.3817 106.326 22.1735 106.501 21.9007C106.676 21.6135 106.763 21.2617 106.763 20.8453C106.763 20.4289 106.676 20.0843 106.501 19.8114C106.326 19.5243 106.093 19.3161 105.802 19.1868C105.526 19.0432 105.22 18.9714 104.885 18.9714H102.067V15.8699H105.737C106.741 15.8699 107.644 16.0709 108.445 16.473C109.261 16.8607 109.901 17.4278 110.367 18.1745C110.848 18.9068 111.088 19.7971 111.088 20.8453C111.088 21.8791 110.848 22.7694 110.367 23.516C109.901 24.2627 109.261 24.8371 108.445 25.2391C107.644 25.6268 106.741 25.8207 105.737 25.8207H102.067ZM98.5286 31.2053V15.8699H102.897V31.2053H98.5286Z" fill="#7850D1"/>
<path d="M116.341 31.2053V15.8699H120.71V31.2053H116.341ZM111.689 19.5314V15.8699H125.384V19.5314H111.689Z" fill="#7850D1"/>
<path d="M134.096 31.5068C132.873 31.5068 131.745 31.3058 130.711 30.9037C129.691 30.5017 128.796 29.9417 128.024 29.2237C127.267 28.5058 126.677 27.6586 126.255 26.6822C125.833 25.7058 125.621 24.6504 125.621 23.516C125.621 22.3673 125.825 21.3119 126.233 20.3499C126.655 19.3878 127.245 18.5478 128.002 17.8299C128.759 17.1119 129.648 16.5591 130.667 16.1714C131.701 15.7694 132.829 15.5684 134.053 15.5684C135.276 15.5684 136.397 15.7694 137.416 16.1714C138.45 16.5591 139.346 17.1119 140.103 17.8299C140.86 18.5478 141.443 19.395 141.85 20.3714C142.273 21.3335 142.484 22.3889 142.484 23.5376C142.484 24.6719 142.273 25.7273 141.85 26.7037C141.443 27.6658 140.86 28.513 140.103 29.2453C139.346 29.9632 138.457 30.5232 137.438 30.9253C136.419 31.313 135.305 31.5068 134.096 31.5068ZM134.053 27.716C134.868 27.716 135.574 27.5437 136.171 27.1991C136.768 26.8545 137.227 26.3663 137.547 25.7345C137.868 25.1027 138.028 24.3632 138.028 23.516C138.028 22.8843 137.933 22.3171 137.744 21.8145C137.569 21.2976 137.307 20.8596 136.958 20.5007C136.608 20.1273 136.186 19.8473 135.691 19.6607C135.21 19.4596 134.664 19.3591 134.053 19.3591C133.237 19.3591 132.531 19.5314 131.934 19.8761C131.337 20.2063 130.878 20.6873 130.558 21.3191C130.237 21.9366 130.077 22.6689 130.077 23.516C130.077 24.1622 130.165 24.7437 130.339 25.2607C130.529 25.7776 130.798 26.2227 131.148 26.596C131.497 26.955 131.912 27.235 132.393 27.436C132.888 27.6227 133.441 27.716 134.053 27.716Z" fill="#7850D1"/>
<path d="M152.205 31.4637C150.997 31.4637 149.876 31.2699 148.842 30.8822C147.822 30.4802 146.927 29.9202 146.155 29.2022C145.398 28.4843 144.808 27.6443 144.386 26.6822C143.964 25.7202 143.752 24.6719 143.752 23.5376C143.752 22.3889 143.971 21.3335 144.408 20.3714C144.859 19.4094 145.478 18.5766 146.264 17.873C147.065 17.155 147.99 16.6022 149.038 16.2145C150.087 15.8125 151.208 15.6114 152.402 15.6114C153.844 15.6114 155.132 15.8555 156.268 16.3437C157.418 16.8319 158.35 17.4925 159.064 18.3253L156.115 21.233C155.576 20.6155 155.016 20.1561 154.433 19.8545C153.851 19.553 153.152 19.4022 152.336 19.4022C151.565 19.4022 150.866 19.5745 150.24 19.9191C149.613 20.2494 149.111 20.7232 148.732 21.3407C148.368 21.9581 148.186 22.6832 148.186 23.516C148.186 24.3489 148.354 25.0812 148.689 25.713C149.038 26.3304 149.519 26.8114 150.13 27.156C150.742 27.5007 151.455 27.673 152.271 27.673C153.057 27.673 153.72 27.5222 154.259 27.2207C154.797 26.9191 155.205 26.4884 155.482 25.9284C155.773 25.3684 155.919 24.7078 155.919 23.9468L158.911 25.8207L151.681 25.6053V22.1591H160.309V22.8053C160.309 24.6432 159.967 26.2084 159.282 27.5007C158.613 28.793 157.666 29.7766 156.443 30.4514C155.234 31.1263 153.822 31.4637 152.205 31.4637Z" fill="#7850D1"/>
<path d="M160.168 31.2053L166.088 15.8699H170.543L176.397 31.2053H171.854L167.507 18.1745H169.08L164.624 31.2053H160.168ZM164.012 28.6207V25.2607H172.706V28.6207H164.012Z" fill="#7850D1"/>
<path d="M179.821 31.2053V15.8699H184.19V31.2053H179.821ZM175.169 19.5314V15.8699H188.864V19.5314H175.169Z" fill="#7850D1"/>
<path d="M190.506 31.2053V15.8699H194.875V31.2053H190.506ZM194.045 31.2053V27.6299H202.388V31.2053H194.045ZM194.045 25.1314V21.6422H201.58V25.1314H194.045ZM194.045 19.4453V15.8699H202.257V19.4453H194.045Z" fill="#7850D1"/>
<path d="M206.553 31.4637C205.869 31.4637 205.301 31.234 204.849 30.7745C204.398 30.315 204.172 29.755 204.172 29.0945C204.172 28.4196 204.398 27.8525 204.849 27.393C205.301 26.9335 205.869 26.7037 206.553 26.7037C207.238 26.7037 207.798 26.9335 208.235 27.393C208.686 27.8525 208.912 28.4196 208.912 29.0945C208.912 29.755 208.686 30.315 208.235 30.7745C207.798 31.234 207.238 31.4637 206.553 31.4637Z" fill="#7850D1"/>
<defs>
<linearGradient id="paint0_linear_1920_1447" x1="16" y1="48" x2="51.9239" y2="41.5473" gradientUnits="userSpaceOnUse">
<stop stop-color="#49478C"/>
<stop offset="1" stop-color="#9756FF"/>
</linearGradient>
</defs>
</svg>
