<svg width="106" height="106" viewBox="0 0 106 106" fill="none" xmlns="http://www.w3.org/2000/svg">
<ellipse cx="52.5047" cy="53" rx="52.5047" ry="53" fill="#FF5934"/>
<path d="M65.5998 36.8H40.3998C38.4198 36.8 36.7998 38.42 36.7998 40.4V63.44C36.7998 65.42 38.4198 67.04 40.3998 67.04H46.5198C48.3198 68.408 50.5518 69.2 52.9998 69.2C55.4478 69.2 57.6798 68.408 59.4798 67.04H65.5998C67.5798 67.04 69.1998 65.42 69.1998 63.44V40.4C69.1998 38.42 67.5798 36.8 65.5998 36.8ZM52.9998 67.76C47.8518 67.76 43.6398 63.548 43.6398 58.4C43.6398 53.252 47.8518 49.04 52.9998 49.04C58.1478 49.04 62.3598 53.252 62.3598 58.4C62.3598 63.548 58.1478 67.76 52.9998 67.76ZM67.7598 63.44C67.7598 64.628 66.7878 65.6 65.5998 65.6H61.0278C62.7558 63.692 63.7998 61.172 63.7998 58.4C63.7998 52.46 58.9398 47.6 52.9998 47.6C47.0598 47.6 42.1998 52.46 42.1998 58.4C42.1998 61.172 43.2438 63.692 44.9718 65.6H40.3998C39.2118 65.6 38.2398 64.628 38.2398 63.44V45.44H67.7598V63.44ZM67.7598 44H38.2398V40.4C38.2398 39.212 39.2118 38.24 40.3998 38.24H65.5998C66.7878 38.24 67.7598 39.212 67.7598 40.4V44ZM41.8398 41.12C41.8398 41.516 41.5158 41.84 41.1198 41.84C40.7238 41.84 40.3998 41.516 40.3998 41.12C40.3998 40.724 40.7238 40.4 41.1198 40.4C41.5158 40.4 41.8398 40.724 41.8398 41.12ZM45.4398 41.12C45.4398 41.516 45.1158 41.84 44.7198 41.84C44.3238 41.84 43.9998 41.516 43.9998 41.12C43.9998 40.724 44.3238 40.4 44.7198 40.4C45.1158 40.4 45.4398 40.724 45.4398 41.12ZM49.0398 41.12C49.0398 41.516 48.7158 41.84 48.3198 41.84C47.9238 41.84 47.5998 41.516 47.5998 41.12C47.5998 40.724 47.9238 40.4 48.3198 40.4C48.7158 40.4 49.0398 40.724 49.0398 41.12ZM52.9998 51.2C49.0398 51.2 45.7998 54.44 45.7998 58.4C45.7998 62.36 49.0398 65.6 52.9998 65.6C56.9598 65.6 60.1998 62.36 60.1998 58.4C60.1998 54.44 56.9598 51.2 52.9998 51.2ZM52.9998 64.16C49.8318 64.16 47.2398 61.568 47.2398 58.4C47.2398 55.232 49.8318 52.64 52.9998 52.64C56.1678 52.64 58.7598 55.232 58.7598 58.4C58.7598 61.568 56.1678 64.16 52.9998 64.16ZM56.5998 58.4C56.5998 58.796 56.2758 59.12 55.8798 59.12H52.9998C52.6038 59.12 52.2798 58.796 52.2798 58.4V55.52C52.2798 55.124 52.6038 54.8 52.9998 54.8C53.3958 54.8 53.7198 55.124 53.7198 55.52V57.68H55.8798C56.2758 57.68 56.5998 58.004 56.5998 58.4Z" fill="white"/>
</svg>
