<svg width="1740" height="726" viewBox="0 0 1740 726" fill="none" xmlns="http://www.w3.org/2000/svg">
<g clip-path="url(#clip0_209_467)">
<g filter="url(#filter0_f_209_467)">
<circle cx="1605" cy="682" r="202" fill="#FF5934" fill-opacity="0.7"/>
</g>
<g filter="url(#filter1_f_209_467)">
<circle cx="81.5" cy="212.5" r="133.5" fill="#0065F2"/>
</g>
<path d="M298.66 495.34L275.701 513.78C276.794 512.4 277.927 511.039 279.132 509.737L293.969 497.83C295.501 496.928 297.065 496.115 298.66 495.34Z" fill="#DADADA"/>
<path d="M312.599 490.613L268.029 526.354C268.341 525.64 268.693 524.945 269.036 524.27L310.332 491.144C311.084 490.957 311.836 490.77 312.599 490.613Z" fill="#DADADA"/>
<path d="M322.286 489.271L264.648 535.514C264.823 534.932 264.99 534.371 265.176 533.819L320.497 489.413C321.083 489.369 321.679 489.306 322.286 489.271Z" fill="#DADADA"/>
<path d="M330.262 489.314L262.947 543.3C263.035 542.8 263.094 542.311 263.202 541.821L328.757 489.22C329.245 489.228 329.743 489.266 330.262 489.314Z" fill="#DADADA"/>
<path d="M337.231 490.136L262.234 550.296C262.244 549.858 262.283 549.409 262.302 548.95L335.882 489.919C336.342 489.988 336.801 490.057 337.231 490.136Z" fill="#DADADA"/>
<path d="M343.478 491.553L262.264 556.707C262.235 556.299 262.235 555.881 262.215 555.453L342.266 491.253C342.666 491.343 343.087 491.442 343.478 491.553Z" fill="#DADADA"/>
<path d="M349.147 493.461L262.881 562.657C262.822 562.26 262.773 561.892 262.714 561.496L348.062 493.049C348.424 493.17 348.776 493.311 349.147 493.461Z" fill="#DADADA"/>
<path d="M354.338 495.709L263.976 568.216C263.898 567.86 263.8 567.494 263.722 567.137L353.331 495.235C353.673 495.396 354.016 495.558 354.338 495.709Z" fill="#DADADA"/>
<path d="M359.108 498.326L265.481 573.428C265.374 573.082 265.257 572.756 265.149 572.41L358.189 497.77C358.502 497.942 358.805 498.134 359.108 498.326Z" fill="#DADADA"/>
<path d="M363.497 501.23L267.369 578.352C267.222 578.037 267.085 577.702 266.958 577.396L362.656 500.612C362.95 500.825 363.224 501.027 363.497 501.23Z" fill="#DADADA"/>
<path d="M367.564 504.4L269.588 582.99C269.431 582.695 269.265 582.37 269.108 582.075L366.782 503.761C367.036 503.955 367.32 504.187 367.564 504.4Z" fill="#DADADA"/>
<path d="M371.279 507.847L272.149 587.37C271.964 587.085 271.778 586.801 271.612 586.526L370.575 507.147C370.81 507.381 371.044 507.614 371.279 507.847Z" fill="#DADADA"/>
<path d="M374.7 511.551L275.014 591.525C274.798 591.251 274.603 590.987 274.408 590.722L374.045 510.8C374.26 511.024 374.485 511.277 374.7 511.551Z" fill="#DADADA"/>
<path d="M377.213 514.678C377.428 514.952 377.623 515.216 377.819 515.48L278.181 595.403C277.956 595.149 277.751 594.905 277.526 594.652L377.213 514.678Z" fill="#DADADA"/>
<path d="M380.087 518.812C380.273 519.097 380.459 519.381 380.624 519.656L281.651 599.055C281.417 598.822 281.183 598.588 280.928 598.345L380.087 518.812Z" fill="#DADADA"/>
<path d="M382.628 523.183C382.784 523.478 382.951 523.803 383.108 524.098L285.444 602.441C285.18 602.218 284.916 601.996 284.672 601.782L382.628 523.183Z" fill="#DADADA"/>
<path d="M384.858 527.851C385.005 528.166 385.142 528.501 385.268 528.807L289.56 605.561C289.277 605.378 288.983 605.166 288.709 604.963L384.858 527.851Z" fill="#DADADA"/>
<path d="M386.745 532.774C386.853 533.12 386.97 533.446 387.077 533.792L294.047 608.413C293.734 608.241 293.431 608.049 293.128 607.857L386.745 532.774Z" fill="#DADADA"/>
<path d="M388.25 537.986C388.328 538.343 388.426 538.709 388.504 539.065L298.896 610.967C298.553 610.806 298.231 610.654 297.889 610.493L388.25 537.986Z" fill="#DADADA"/>
<path d="M389.346 543.546C389.405 543.943 389.453 544.31 389.512 544.707L304.164 613.154C303.803 613.033 303.451 612.892 303.079 612.741L389.346 543.546Z" fill="#DADADA"/>
<path d="M389.942 549.486C389.972 549.893 389.971 550.312 389.991 550.739L309.961 614.95C309.561 614.86 309.149 614.74 308.759 614.629L389.942 549.486Z" fill="#DADADA"/>
<path d="M389.972 555.897C389.962 556.336 389.923 556.785 389.904 557.243L316.324 616.274C315.885 616.215 315.425 616.146 314.995 616.067L389.972 555.897Z" fill="#DADADA"/>
<path d="M389.288 562.883C389.2 563.383 389.142 563.872 389.034 564.362L323.479 616.963C322.991 616.955 322.472 616.907 321.964 616.889L389.288 562.883Z" fill="#DADADA"/>
<path d="M387.579 570.689C387.403 571.27 387.237 571.832 387.051 572.384L331.73 616.79C331.134 616.854 330.547 616.897 329.941 616.931L387.579 570.689Z" fill="#DADADA"/>
<path d="M384.198 579.848C383.886 580.562 383.534 581.257 383.191 581.932L341.895 615.058C341.143 615.245 340.39 615.432 339.627 615.589L384.198 579.848Z" fill="#DADADA"/>
<path d="M376.525 592.423C375.432 593.803 374.299 595.163 373.095 596.466L358.258 608.373C356.726 609.275 355.161 610.088 353.576 610.842L376.525 592.423Z" fill="#DADADA"/>
<path d="M1516.66 144.34L1493.7 162.78C1494.79 161.4 1495.93 160.039 1497.13 158.737L1511.97 146.83C1513.5 145.928 1515.07 145.115 1516.66 144.34Z" fill="#CBE1FB"/>
<path d="M1530.6 139.613L1486.03 175.354C1486.34 174.64 1486.69 173.945 1487.04 173.27L1528.33 140.144C1529.08 139.957 1529.84 139.77 1530.6 139.613Z" fill="#CBE1FB"/>
<path d="M1540.29 138.271L1482.65 184.514C1482.82 183.932 1482.99 183.371 1483.18 182.819L1538.5 138.413C1539.08 138.369 1539.68 138.306 1540.29 138.271Z" fill="#CBE1FB"/>
<path d="M1548.26 138.314L1480.95 192.3C1481.04 191.8 1481.09 191.311 1481.2 190.821L1546.76 138.22C1547.24 138.228 1547.74 138.266 1548.26 138.314Z" fill="#CBE1FB"/>
<path d="M1555.23 139.136L1480.23 199.296C1480.24 198.858 1480.28 198.409 1480.3 197.95L1553.88 138.919C1554.34 138.988 1554.8 139.057 1555.23 139.136Z" fill="#CBE1FB"/>
<path d="M1561.48 140.553L1480.26 205.707C1480.24 205.299 1480.24 204.881 1480.22 204.453L1560.27 140.253C1560.67 140.343 1561.09 140.442 1561.48 140.553Z" fill="#CBE1FB"/>
<path d="M1567.15 142.461L1480.88 211.657C1480.82 211.26 1480.77 210.892 1480.71 210.496L1566.06 142.049C1566.42 142.17 1566.78 142.311 1567.15 142.461Z" fill="#CBE1FB"/>
<path d="M1572.34 144.709L1481.98 217.216C1481.9 216.86 1481.8 216.494 1481.72 216.137L1571.33 144.235C1571.67 144.396 1572.02 144.558 1572.34 144.709Z" fill="#CBE1FB"/>
<path d="M1577.11 147.326L1483.48 222.428C1483.37 222.082 1483.26 221.756 1483.15 221.41L1576.19 146.77C1576.5 146.942 1576.8 147.134 1577.11 147.326Z" fill="#CBE1FB"/>
<path d="M1581.5 150.23L1485.37 227.352C1485.22 227.037 1485.08 226.702 1484.96 226.396L1580.66 149.612C1580.95 149.825 1581.22 150.027 1581.5 150.23Z" fill="#CBE1FB"/>
<path d="M1585.56 153.4L1487.59 231.99C1487.43 231.695 1487.26 231.37 1487.11 231.075L1584.78 152.761C1585.04 152.955 1585.32 153.187 1585.56 153.4Z" fill="#CBE1FB"/>
<path d="M1589.28 156.847L1490.15 236.37C1489.96 236.085 1489.78 235.801 1489.61 235.526L1588.58 156.147C1588.81 156.381 1589.04 156.614 1589.28 156.847Z" fill="#CBE1FB"/>
<path d="M1592.7 160.551L1493.01 240.525C1492.8 240.251 1492.6 239.987 1492.41 239.722L1592.05 159.8C1592.26 160.024 1592.48 160.277 1592.7 160.551Z" fill="#CBE1FB"/>
<path d="M1595.21 163.678C1595.43 163.952 1595.62 164.216 1595.82 164.48L1496.18 244.403C1495.96 244.149 1495.75 243.905 1495.53 243.652L1595.21 163.678Z" fill="#CBE1FB"/>
<path d="M1598.09 167.812C1598.27 168.097 1598.46 168.381 1598.62 168.656L1499.65 248.055C1499.42 247.822 1499.18 247.588 1498.93 247.345L1598.09 167.812Z" fill="#CBE1FB"/>
<path d="M1600.63 172.183C1600.78 172.478 1600.95 172.803 1601.11 173.098L1503.44 251.441C1503.18 251.218 1502.92 250.996 1502.67 250.782L1600.63 172.183Z" fill="#CBE1FB"/>
<path d="M1602.86 176.851C1603 177.166 1603.14 177.501 1603.27 177.807L1507.56 254.561C1507.28 254.378 1506.98 254.166 1506.71 253.963L1602.86 176.851Z" fill="#CBE1FB"/>
<path d="M1604.74 181.774C1604.85 182.12 1604.97 182.446 1605.08 182.792L1512.05 257.413C1511.73 257.241 1511.43 257.049 1511.13 256.857L1604.74 181.774Z" fill="#CBE1FB"/>
<path d="M1606.25 186.986C1606.33 187.343 1606.43 187.709 1606.5 188.065L1516.9 259.967C1516.55 259.806 1516.23 259.654 1515.89 259.493L1606.25 186.986Z" fill="#CBE1FB"/>
<path d="M1607.35 192.546C1607.4 192.943 1607.45 193.31 1607.51 193.707L1522.16 262.154C1521.8 262.033 1521.45 261.892 1521.08 261.741L1607.35 192.546Z" fill="#CBE1FB"/>
<path d="M1607.94 198.486C1607.97 198.893 1607.97 199.312 1607.99 199.739L1527.96 263.95C1527.56 263.86 1527.15 263.74 1526.76 263.629L1607.94 198.486Z" fill="#CBE1FB"/>
<path d="M1607.97 204.897C1607.96 205.336 1607.92 205.785 1607.9 206.243L1534.32 265.274C1533.88 265.215 1533.43 265.146 1533 265.067L1607.97 204.897Z" fill="#CBE1FB"/>
<path d="M1607.29 211.883C1607.2 212.383 1607.14 212.872 1607.03 213.362L1541.48 265.963C1540.99 265.955 1540.47 265.907 1539.96 265.889L1607.29 211.883Z" fill="#CBE1FB"/>
<path d="M1605.58 219.689C1605.4 220.27 1605.24 220.832 1605.05 221.384L1549.73 265.79C1549.13 265.854 1548.55 265.897 1547.94 265.931L1605.58 219.689Z" fill="#CBE1FB"/>
<path d="M1602.2 228.848C1601.89 229.562 1601.53 230.257 1601.19 230.932L1559.9 264.058C1559.14 264.245 1558.39 264.432 1557.63 264.589L1602.2 228.848Z" fill="#CBE1FB"/>
<path d="M1594.53 241.423C1593.43 242.803 1592.3 244.163 1591.09 245.466L1576.26 257.373C1574.73 258.275 1573.16 259.088 1571.58 259.842L1594.53 241.423Z" fill="#CBE1FB"/>
</g>
<defs>
<filter id="filter0_f_209_467" x="1003" y="80" width="1204" height="1204" filterUnits="userSpaceOnUse" color-interpolation-filters="sRGB">
<feFlood flood-opacity="0" result="BackgroundImageFix"/>
<feBlend mode="normal" in="SourceGraphic" in2="BackgroundImageFix" result="shape"/>
<feGaussianBlur stdDeviation="200" result="effect1_foregroundBlur_209_467"/>
</filter>
<filter id="filter1_f_209_467" x="-452" y="-321" width="1067" height="1067" filterUnits="userSpaceOnUse" color-interpolation-filters="sRGB">
<feFlood flood-opacity="0" result="BackgroundImageFix"/>
<feBlend mode="normal" in="SourceGraphic" in2="BackgroundImageFix" result="shape"/>
<feGaussianBlur stdDeviation="200" result="effect1_foregroundBlur_209_467"/>
</filter>
<clipPath id="clip0_209_467">
<rect width="1740" height="726" fill="white"/>
</clipPath>
</defs>
</svg>
