<svg width="1024" height="302" viewBox="0 0 1024 302" fill="none" xmlns="http://www.w3.org/2000/svg">
<path d="M986.062 301.916H37.9379C17.0313 301.916 -3.05176e-05 284.907 -3.05176e-05 264.189V37.8224C-3.05176e-05 17.0291 17.0313 0.0947266 37.9433 0.0947266H986.062C1006.95 0.0947266 1024 17.0291 1024 37.8224V264.189C1024 284.907 1006.95 301.916 986.057 301.916H986.062Z" fill="black"/>
<path fill-rule="evenodd" clip-rule="evenodd" d="M986.062 6.13116C1003.6 6.13116 1017.95 20.3815 1017.95 37.8224V264.189C1017.95 281.63 1003.69 295.88 986.062 295.88H37.9379C20.3999 295.88 6.04718 281.63 6.04718 264.189V37.8224C6.04718 20.3815 20.3083 6.13116 37.9379 6.13116H986.062V6.13116ZM986.062 0.0947266H37.9379C17.0313 0.0947266 -3.05176e-05 17.1045 -3.05176e-05 37.8224V264.189C-3.05176e-05 284.982 17.0313 301.916 37.9433 301.916H986.062C1006.95 301.916 1024 284.982 1024 264.189V37.8224C1024 17.1045 1006.95 0.0947266 986.057 0.0947266H986.062Z" fill="#A6A6A6"/>
<path d="M539.447 99.9384C532.607 99.9384 526.846 97.5454 522.286 92.8402C520.042 90.5589 518.273 87.854 517.083 84.883C515.893 81.912 515.306 78.734 515.355 75.534C515.355 68.6622 517.689 62.8467 522.286 58.2385C526.824 53.5333 532.591 51.1457 539.425 51.1457C546.189 51.1457 551.956 53.5333 556.591 58.2385C561.189 62.9976 563.523 68.8131 563.523 75.534C563.447 82.4166 561.113 88.2321 556.591 92.8241C552.048 97.567 546.286 99.9384 539.447 99.9384V99.9384ZM335.976 99.9384C329.293 99.9384 323.488 97.5831 318.74 92.9318C314.029 88.3075 311.636 82.4543 311.636 75.5502C311.636 68.646 314.029 62.7928 318.74 58.1631C323.391 53.5172 329.196 51.1619 335.976 51.1619C339.291 51.1619 342.514 51.8248 345.602 53.1561C348.636 54.455 351.099 56.2282 352.932 58.3894L353.385 58.9338L348.281 63.9408L347.752 63.321C344.869 59.8932 341.005 58.2224 335.901 58.2224C331.341 58.2224 327.369 59.8393 324.092 63.0353C320.793 66.253 319.117 70.4731 319.117 75.5663C319.117 80.6703 320.793 84.8851 324.092 88.1027C325.638 89.6535 327.48 90.8785 329.509 91.7051C331.537 92.5318 333.71 92.9435 335.901 92.9157C340.762 92.9157 344.847 91.2988 348.033 88.1027C349.919 86.2163 351.083 83.5862 351.498 80.2553H335.13V73.2164H358.526L358.618 73.8578C358.79 75.0435 358.958 76.267 358.958 77.3934C358.958 83.888 357.001 89.1375 353.121 93.0127C348.712 97.6047 342.945 99.9384 335.981 99.9384H335.976ZM606.511 98.9413H599.294L577.196 63.6228L577.385 69.9826V98.9252H570.173V52.159H578.403L578.63 52.5201L599.407 85.7851L599.218 79.4469V52.159H606.511V98.9413V98.9413ZM485.232 98.9413H477.924V59.1979H465.236V52.159H497.887V59.1979H485.205V98.9413H485.227H485.232ZM459.292 98.9413H451.999V52.159H459.292V98.9413ZM418.319 98.9413H411.027V59.1979H398.351V52.159H430.996V59.1979H418.319V98.9413ZM393.737 98.8659H365.781V52.159H393.737V59.1979H373.089V72.0307H391.721V78.9942H373.089V91.827H393.732V98.8659H393.737ZM527.638 88.0057C529.17 89.5824 531.007 90.8298 533.037 91.6713C535.068 92.5128 537.249 92.9308 539.447 92.8995C544.174 92.8995 548.038 91.2988 551.261 88.0057C554.462 84.8096 556.079 80.6111 556.079 75.5502C556.079 70.4839 554.462 66.2745 551.277 63.0946C549.745 61.5192 547.907 60.2726 545.877 59.4312C543.847 58.5898 541.666 58.1711 539.468 58.2008C534.736 58.2008 530.877 59.8015 527.676 63.0946C524.469 66.2907 522.852 70.4893 522.852 75.5502C522.852 80.6164 524.453 84.8258 527.638 88.0057V88.0057Z" fill="white"/>
<path fill-rule="evenodd" clip-rule="evenodd" d="M514.676 164.253C496.874 164.253 482.446 177.744 482.446 196.354C482.446 214.792 496.966 228.455 514.676 228.455C532.478 228.455 546.906 214.873 546.906 196.354C546.906 177.744 532.478 164.253 514.676 164.253V164.253ZM514.676 215.736C504.937 215.736 496.551 207.683 496.551 196.279C496.551 184.707 504.958 176.822 514.676 176.822C524.415 176.822 532.796 184.707 532.796 196.279C532.818 207.759 524.415 215.736 514.676 215.736ZM444.352 164.253C426.549 164.253 412.121 177.744 412.121 196.354C412.121 214.792 426.647 228.455 444.352 228.455C462.154 228.455 476.582 214.873 476.582 196.354C476.582 177.744 462.138 164.253 444.352 164.253V164.253ZM444.352 215.736C434.612 215.736 426.232 207.683 426.232 196.279C426.232 184.707 434.634 176.822 444.352 176.822C454.091 176.822 462.477 184.707 462.477 196.279C462.477 207.759 454.091 215.736 444.352 215.736ZM360.677 174.057V187.639H393.328C392.325 195.26 389.803 200.887 385.944 204.746C381.158 209.527 373.774 214.717 360.752 214.717C340.692 214.717 324.997 198.537 324.997 178.498C324.997 158.46 340.692 142.274 360.752 142.274C371.586 142.274 379.481 146.548 385.34 152.003L394.988 142.371C386.849 134.578 376.016 128.612 360.828 128.612C333.308 128.612 310.213 151.006 310.213 178.423C310.213 205.91 333.287 228.229 360.828 228.229C375.693 228.229 386.844 223.378 395.661 214.232C404.646 205.253 407.492 192.592 407.492 182.374C407.492 179.194 407.249 176.337 406.737 173.906H360.655C360.677 173.885 360.677 174.057 360.677 174.057ZM702.948 184.632C700.253 177.426 692.115 164.178 675.428 164.178C658.882 164.178 645.138 177.178 645.138 196.279C645.138 214.307 658.737 228.38 677.029 228.38C691.721 228.38 700.275 219.406 703.794 214.135L692.891 206.837C689.269 212.2 684.241 215.714 677.099 215.714C669.888 215.714 664.838 212.443 661.485 205.986L704.457 188.205C704.457 188.227 702.948 184.632 702.948 184.632V184.632ZM659.13 195.357C658.791 182.961 668.778 176.655 675.914 176.655C681.546 176.655 686.24 179.42 687.841 183.446L659.13 195.357ZM624.221 226.461H638.326V132.153H624.221V226.461ZM601.046 171.384H600.539C597.359 167.6 591.306 164.178 583.583 164.178C567.554 164.178 552.786 178.272 552.786 196.371C552.786 214.399 567.479 228.326 583.583 228.326C591.215 228.326 597.354 224.876 600.539 221.023H601.046V225.631C601.046 237.882 594.492 244.489 583.923 244.489C575.278 244.489 569.909 238.281 567.721 233.085L555.46 238.205C558.985 246.667 568.384 257.15 583.906 257.15C600.447 257.15 614.46 247.421 614.46 223.696V166.097H601.121V171.384H601.046V171.384ZM584.85 215.736C575.105 215.736 566.972 207.608 566.972 196.371C566.972 185.047 575.11 176.844 584.85 176.844C594.497 176.844 601.973 185.144 601.973 196.371C602.064 207.608 594.513 215.736 584.85 215.736V215.736ZM769.009 132.153H735.27V226.461H749.38V190.749H769.026C784.645 190.749 799.995 179.436 799.995 161.483C799.995 143.536 784.699 132.153 769.004 132.153H769.009ZM769.424 177.577H749.359V145.212H769.424C779.988 145.212 785.96 153.921 785.96 161.392C785.96 168.786 779.913 177.577 769.424 177.577ZM856.548 164.081C846.303 164.081 835.734 168.619 831.363 178.498L843.867 183.689C846.561 178.498 851.498 176.731 856.716 176.731C864.029 176.731 871.413 181.096 871.58 188.884V189.881C869.058 188.453 863.517 186.27 856.888 186.27C843.381 186.27 829.686 193.643 829.686 207.473C829.686 220.139 840.762 228.267 853.099 228.267C862.574 228.267 867.797 223.998 871.052 219.05H871.564V226.348H885.162V190.221C885.162 173.4 872.658 164.081 856.548 164.081V164.081ZM854.775 215.736C850.162 215.736 843.699 213.477 843.699 207.683C843.699 200.38 851.762 197.616 858.64 197.616C864.854 197.616 867.797 198.952 871.489 200.795C870.994 204.89 869.025 208.665 865.95 211.415C862.876 214.164 858.905 215.7 854.781 215.736H854.775ZM934.785 166.097L918.584 207.004H918.072L901.288 166.097H886.105L911.291 223.281L896.939 255.064H911.631L950.383 166.097H934.785V166.097ZM807.777 226.461H821.887V132.153H807.777V226.461Z" fill="white"/>
<path fill-rule="evenodd" clip-rule="evenodd" d="M78.8185 56.9396C76.6357 59.2949 75.3691 62.8844 75.3691 67.5896V234.438C75.3691 239.143 76.6357 242.738 78.894 244.996L79.4761 245.503L173.068 152.03V149.928L79.4006 56.433L78.8185 56.9396V56.9396Z" fill="url(#paint0_linear_1425_12748)"/>
<path fill-rule="evenodd" clip-rule="evenodd" d="M204.204 183.279L172.992 152.094V149.917L204.204 118.732L204.883 119.147L241.802 140.113C252.371 146.058 252.371 155.878 241.802 161.898L204.883 182.864L204.204 183.279V183.279Z" fill="url(#paint1_linear_1425_12748)"/>
<path fill-rule="evenodd" clip-rule="evenodd" d="M204.883 182.859L172.992 151.006L78.8185 245.071C82.2679 248.758 88.0511 249.173 94.5133 245.578L204.883 182.864" fill="url(#paint2_linear_1425_12748)"/>
<path fill-rule="evenodd" clip-rule="evenodd" d="M204.883 119.153L94.5133 56.5246C88.0457 52.8381 82.2464 53.3447 78.8185 57.0366L172.992 151.006L204.883 119.153Z" fill="url(#paint3_linear_1425_12748)"/>
<path opacity="0.2" d="M204.204 182.185L94.5887 244.392C88.4715 247.912 83.001 247.669 79.4815 244.468L78.8994 245.05L79.4815 245.562C83.0063 248.742 88.4715 249.006 94.5887 245.486L204.964 182.859L204.209 182.185H204.204Z" fill="black"/>
<path opacity="0.12" d="M241.808 160.809L204.112 182.185L204.791 182.864L241.711 161.898C247.003 158.891 249.607 154.94 249.607 151.006C249.283 154.617 246.588 158.044 241.808 160.809V160.809Z" fill="black"/>
<path opacity="0.25" fill-rule="evenodd" clip-rule="evenodd" d="M94.5133 57.6187L241.808 141.196C246.588 143.891 249.283 147.405 249.698 151C249.698 147.066 247.1 143.115 241.808 140.108L94.5079 56.5246C83.9441 50.4882 75.3745 55.5275 75.3745 67.5896V68.6837C75.3745 56.6001 83.9441 51.6524 94.5079 57.6187H94.5133Z" fill="white"/>
<defs>
<linearGradient id="paint0_linear_1425_12748" x1="135.019" y1="65.7919" x2="54.7608" y2="145.964" gradientUnits="userSpaceOnUse">
<stop stop-color="#00A0FF"/>
<stop offset="0.00657" stop-color="#00A1FF"/>
<stop offset="0.2601" stop-color="#00BEFF"/>
<stop offset="0.5122" stop-color="#00D2FF"/>
<stop offset="0.7604" stop-color="#00DFFF"/>
<stop offset="1" stop-color="#00E3FF"/>
</linearGradient>
<linearGradient id="paint1_linear_1425_12748" x1="255.584" y1="151.006" x2="72.8109" y2="151.006" gradientUnits="userSpaceOnUse">
<stop stop-color="#FFE000"/>
<stop offset="0.4087" stop-color="#FFBD00"/>
<stop offset="0.7754" stop-color="#FFA500"/>
<stop offset="1" stop-color="#FF9C00"/>
</linearGradient>
<linearGradient id="paint2_linear_1425_12748" x1="187.54" y1="181.043" x2="50.5871" y2="317.841" gradientUnits="userSpaceOnUse">
<stop stop-color="#FF3A44"/>
<stop offset="1" stop-color="#C31162"/>
</linearGradient>
<linearGradient id="paint3_linear_1425_12748" x1="55.1046" y1="42.6645" x2="116.234" y2="103.725" gradientUnits="userSpaceOnUse">
<stop stop-color="#32A071"/>
<stop offset="0.0685" stop-color="#2DA771"/>
<stop offset="0.4762" stop-color="#15CF74"/>
<stop offset="0.8009" stop-color="#06E775"/>
<stop offset="1" stop-color="#00F076"/>
</linearGradient>
</defs>
</svg>
