<svg width="1728" height="1039" viewBox="0 0 1728 1039" fill="none" xmlns="http://www.w3.org/2000/svg">
<g clip-path="url(#clip0_1982_1388)">
<g filter="url(#filter0_f_1982_1388)">
<path d="M1543 1002C1764.47 1002 1944 822.466 1944 601C1944 379.534 1764.47 200 1543 200C1321.53 200 1142 379.534 1142 601C1142 822.466 1321.53 1002 1543 1002Z" fill="#E8BF45" fill-opacity="0.41"/>
<path d="M108 609C218.457 609 308 519.457 308 409C308 298.543 218.457 209 108 209C-2.45695 209 -92 298.543 -92 409C-92 519.457 -2.45695 609 108 609Z" fill="#0065F2"/>
</g>
<path fill-rule="evenodd" clip-rule="evenodd" d="M417.886 30.6606C417.892 30.384 417.899 30.1073 417.905 29.8306C417.968 27.0613 418 24.2844 418 21.5C418 18.7156 417.968 15.9385 417.905 13.1693C417.899 12.8925 417.892 12.6159 417.886 12.3393C417.879 12.0625 417.871 11.7859 417.864 11.5093C416.949 11.5322 416.224 12.2915 416.245 13.207C416.308 15.9637 416.339 18.7282 416.339 21.5C416.339 24.2718 416.308 27.0362 416.245 29.7928C416.224 30.7084 416.949 31.4677 417.864 31.4906C417.871 31.214 417.879 30.9373 417.886 30.6606ZM417.259 44.7617C416.346 44.7013 415.556 45.3915 415.493 46.3052C415.115 51.8271 414.612 57.3145 413.986 62.7646C413.882 63.6744 414.533 64.4968 415.443 64.6032C415.475 64.3285 415.508 64.0537 415.54 63.7787C415.572 63.5039 415.604 63.229 415.636 62.954C416.264 57.4787 416.77 51.9659 417.15 46.4186C417.169 46.1426 417.187 45.8664 417.206 45.5902C417.224 45.3142 417.242 45.038 417.259 44.7617ZM413.623 77.7623C412.719 77.6181 411.869 78.2327 411.722 79.1367C410.838 84.5957 409.831 90.0133 408.703 95.3865C408.515 96.2827 409.088 97.1619 409.983 97.3519C410.041 97.0814 410.099 96.8107 410.157 96.54C410.214 96.2693 410.271 95.9986 410.328 95.7277C411.461 90.3294 412.473 84.8865 413.361 79.4021C413.406 79.1289 413.45 78.8557 413.493 78.5823C413.537 78.3091 413.58 78.0358 413.623 77.7623ZM406.952 110.287C406.066 110.06 405.162 110.593 404.932 111.479C403.546 116.83 402.04 122.132 400.416 127.383C400.145 128.258 400.634 129.186 401.508 129.458C401.591 129.194 401.674 128.93 401.756 128.666C401.838 128.402 401.92 128.138 402.002 127.873C403.634 122.598 405.148 117.271 406.54 111.895C406.609 111.628 406.678 111.36 406.747 111.091C406.816 110.823 406.884 110.555 406.952 110.287ZM397.285 142.061C396.424 141.753 395.474 142.199 395.163 143.061C393.287 148.256 391.294 153.396 389.187 158.476C388.836 159.322 389.237 160.292 390.081 160.645C390.188 160.39 390.295 160.134 390.402 159.879C390.509 159.623 390.615 159.368 390.721 159.112C392.838 154.008 394.84 148.844 396.725 143.625C396.819 143.364 396.913 143.104 397.006 142.843C397.1 142.583 397.193 142.322 397.285 142.061ZM384.707 172.799C383.878 172.411 382.891 172.768 382.501 173.597C380.152 178.592 377.691 183.524 375.12 188.39C374.693 189.2 375.001 190.203 375.81 190.632C375.94 190.388 376.07 190.144 376.2 189.9C376.33 189.655 376.459 189.411 376.589 189.166C379.171 184.277 381.643 179.322 384.004 174.303C384.121 174.053 384.239 173.802 384.356 173.552C384.473 173.301 384.59 173.05 384.707 172.799ZM369.333 202.236C368.543 201.773 367.527 202.037 367.063 202.826C364.263 207.58 361.356 212.264 358.346 216.874C357.846 217.641 358.06 218.668 358.826 219.17C358.978 218.939 359.13 218.708 359.282 218.476C359.434 218.245 359.585 218.014 359.737 217.782C362.761 213.15 365.681 208.445 368.493 203.669C368.634 203.43 368.774 203.192 368.914 202.953C369.054 202.714 369.193 202.475 369.333 202.236ZM351.306 230.127C350.562 229.593 349.527 229.762 348.991 230.505C345.767 234.979 342.441 239.375 339.019 243.691C338.449 244.408 338.569 245.451 339.285 246.021C339.458 245.805 339.63 245.589 339.803 245.372C339.975 245.156 340.148 244.939 340.319 244.722C343.758 240.387 347.099 235.97 350.338 231.476C350.5 231.251 350.662 231.027 350.823 230.802C350.984 230.577 351.145 230.352 351.306 230.127ZM330.79 256.24C330.098 255.64 329.051 255.713 328.45 256.404C324.83 260.561 321.115 264.634 317.309 268.618C316.676 269.281 316.699 270.33 317.36 270.964C317.552 270.764 317.744 270.565 317.935 270.365C318.127 270.165 318.318 269.966 318.51 269.765C322.333 265.762 326.065 261.671 329.702 257.495C329.884 257.286 330.065 257.077 330.247 256.868C330.428 256.659 330.609 256.449 330.79 256.24ZM307.964 280.36C307.33 279.699 306.281 279.676 305.619 280.309C301.634 284.115 297.561 287.83 293.404 291.45C292.713 292.051 292.64 293.098 293.24 293.79C293.449 293.609 293.659 293.428 293.868 293.247C294.077 293.065 294.286 292.884 294.495 292.702C298.671 289.065 302.762 285.333 306.765 281.51C306.966 281.318 307.165 281.127 307.365 280.935C307.565 280.744 307.764 280.552 307.964 280.36ZM283.021 302.285C282.451 301.569 281.408 301.449 280.691 302.018C276.375 305.441 271.979 308.767 267.505 311.991C266.762 312.527 266.593 313.562 267.127 314.306C267.352 314.145 267.577 313.984 267.802 313.823C268.027 313.662 268.251 313.5 268.476 313.338C272.97 310.099 277.387 306.758 281.723 303.319C281.939 303.148 282.156 302.975 282.372 302.803C282.589 302.63 282.805 302.458 283.021 302.285ZM256.17 321.826C255.668 321.06 254.641 320.846 253.874 321.346C249.264 324.356 244.58 327.263 239.826 330.063C239.037 330.527 238.773 331.543 239.236 332.333C239.475 332.193 239.714 332.054 239.953 331.914C240.192 331.774 240.43 331.634 240.669 331.493C245.445 328.681 250.15 325.761 254.782 322.737C255.014 322.585 255.245 322.434 255.476 322.282C255.708 322.13 255.939 321.978 256.17 321.826ZM227.632 338.81C227.203 338.001 226.2 337.693 225.39 338.12C220.524 340.691 215.592 343.152 210.597 345.501C209.768 345.891 209.411 346.878 209.799 347.707C210.05 347.59 210.301 347.473 210.552 347.356C210.802 347.239 211.053 347.121 211.303 347.004C216.322 344.643 221.277 342.171 226.166 339.589C226.411 339.459 226.655 339.33 226.9 339.2C227.144 339.07 227.388 338.94 227.632 338.81ZM197.645 353.081C197.292 352.237 196.322 351.836 195.476 352.187C190.396 354.294 185.256 356.287 180.061 358.163C179.199 358.474 178.753 359.424 179.061 360.285C179.322 360.193 179.583 360.1 179.843 360.006C180.104 359.913 180.364 359.819 180.625 359.725C185.844 357.84 191.008 355.838 196.112 353.721C196.368 353.615 196.623 353.509 196.879 353.402C197.134 353.295 197.39 353.188 197.645 353.081ZM166.458 364.508C166.186 363.634 165.258 363.145 164.383 363.416C159.132 365.04 153.83 366.546 148.479 367.932C147.593 368.162 147.06 369.066 147.287 369.952C147.555 369.884 147.823 369.816 148.091 369.747C148.36 369.678 148.628 369.609 148.895 369.54C154.271 368.148 159.598 366.634 164.873 365.002C165.138 364.92 165.402 364.838 165.666 364.756C165.93 364.674 166.194 364.591 166.458 364.508ZM134.352 372.983C134.162 372.088 133.283 371.515 132.387 371.703C127.013 372.831 121.596 373.838 116.137 374.722C115.233 374.869 114.618 375.719 114.762 376.623C115.036 376.58 115.309 376.537 115.582 376.493C115.856 376.45 116.129 376.406 116.402 376.361C121.887 375.473 127.329 374.461 132.728 373.328C132.999 373.271 133.269 373.214 133.54 373.157C133.811 373.099 134.081 373.041 134.352 372.983ZM101.603 378.443C101.497 377.533 100.674 376.882 99.7646 376.986C94.3146 377.612 88.8272 378.115 83.3053 378.493C82.3916 378.556 81.7013 379.346 81.7618 380.259C82.0381 380.242 82.3142 380.224 82.5903 380.206C82.8665 380.187 83.1427 380.169 83.4187 380.15C88.966 379.77 94.4787 379.264 99.9541 378.636C100.229 378.604 100.504 378.572 100.779 378.54C101.054 378.508 101.329 378.475 101.603 378.443ZM68.4907 380.864C68.4678 379.949 67.7085 379.224 66.793 379.245C64.0362 379.308 61.2718 379.339 58.5 379.339C55.7282 379.339 52.9638 379.308 50.2072 379.245C49.2916 379.224 48.5323 379.949 48.5094 380.864C48.786 380.871 49.0626 380.879 49.3394 380.886C49.616 380.892 49.8926 380.899 50.1694 380.905C52.9386 380.968 55.7156 381 58.5 381C61.2844 381 64.0614 380.968 66.8307 380.905C67.1075 380.899 67.3841 380.892 67.6607 380.886C67.9374 380.879 68.2141 380.871 68.4907 380.864ZM35.2383 380.259C35.2987 379.346 34.6084 378.556 33.6948 378.493C28.1729 378.115 22.6855 377.612 17.2354 376.986C16.3256 376.882 15.5032 377.533 15.3967 378.443C15.6715 378.475 15.9463 378.508 16.2212 378.54C16.496 378.572 16.771 378.604 17.046 378.636C22.5213 379.264 28.034 379.77 33.5814 380.15C33.8574 380.169 34.1335 380.187 34.4098 380.206C34.6858 380.224 34.962 380.242 35.2383 380.259ZM2.23766 376.623C2.38191 375.719 1.76733 374.869 0.863314 374.722C-4.59572 373.838 -10.0133 372.831 -15.3865 371.703C-16.2828 371.515 -17.1619 372.088 -17.352 372.983C-17.0814 373.041 -16.8107 373.099 -16.54 373.157C-16.2693 373.214 -15.9985 373.271 -15.7277 373.328C-10.3294 374.461 -4.88651 375.473 0.597905 376.361C0.871042 376.406 1.14428 376.45 1.41764 376.493C1.69088 376.537 1.96422 376.58 2.23766 376.623ZM-30.287 369.952C-30.0596 369.066 -30.5926 368.162 -31.4792 367.932C-36.8299 366.546 -42.1321 365.04 -47.3826 363.416C-48.2575 363.145 -49.186 363.634 -49.4585 364.508C-49.1945 364.591 -48.9304 364.674 -48.6662 364.756C-48.402 364.838 -48.1377 364.92 -47.8733 365.002C-42.5983 366.634 -37.2713 368.148 -31.8955 369.54C-31.6276 369.609 -31.3596 369.678 -31.0915 369.747C-30.8235 369.816 -30.5553 369.884 -30.287 369.952ZM-62.0615 360.285C-61.7526 359.424 -62.1993 358.474 -63.0606 358.163C-68.256 356.287 -73.3956 354.294 -78.4762 352.187C-79.3221 351.836 -80.2921 352.237 -80.6446 353.081C-80.3895 353.188 -80.1342 353.295 -79.8788 353.402C-79.6234 353.509 -79.3679 353.615 -79.1123 353.721C-74.008 355.838 -68.8444 357.84 -63.6246 359.725C-63.3643 359.819 -63.1039 359.913 -62.8434 360.006C-62.5829 360.1 -62.3223 360.193 -62.0615 360.285ZM-92.7991 347.707C-92.4115 346.878 -92.768 345.891 -93.5968 345.501C-98.5922 343.152 -103.524 340.691 -108.39 338.12C-109.2 337.693 -110.203 338.001 -110.632 338.81C-110.388 338.94 -110.144 339.07 -109.9 339.2C-109.655 339.33 -109.411 339.459 -109.166 339.589C-104.277 342.171 -99.3221 344.643 -94.3034 347.004C-94.053 347.121 -93.8024 347.239 -93.5516 347.356C-93.301 347.473 -93.0501 347.59 -92.7991 347.707ZM-122.236 332.333C-121.773 331.543 -122.037 330.527 -122.826 330.063C-127.58 327.263 -132.264 324.356 -136.874 321.346C-137.641 320.846 -138.668 321.06 -139.17 321.826C-138.939 321.978 -138.708 322.13 -138.477 322.282C-138.245 322.434 -138.014 322.585 -137.782 322.737C-133.15 325.761 -128.445 328.681 -123.669 331.493C-123.43 331.634 -123.192 331.774 -122.953 331.914C-122.714 332.054 -122.475 332.193 -122.236 332.333ZM-150.127 314.306C-149.593 313.562 -149.762 312.527 -150.505 311.991C-154.979 308.767 -159.375 305.441 -163.691 302.019C-164.408 301.449 -165.451 301.569 -166.021 302.285C-165.805 302.458 -165.589 302.63 -165.372 302.803C-165.156 302.975 -164.939 303.148 -164.723 303.319C-160.387 306.758 -155.97 310.099 -151.476 313.338C-151.251 313.5 -151.027 313.662 -150.802 313.823C-150.577 313.984 -150.352 314.145 -150.127 314.306ZM-176.24 293.79C-175.64 293.098 -175.713 292.051 -176.404 291.45C-180.561 287.83 -184.634 284.115 -188.619 280.309C-189.281 279.676 -190.33 279.699 -190.964 280.36C-190.764 280.552 -190.565 280.744 -190.365 280.935C-190.165 281.127 -189.966 281.318 -189.765 281.51C-185.762 285.333 -181.671 289.065 -177.495 292.702C-177.286 292.884 -177.077 293.065 -176.868 293.247C-176.659 293.428 -176.449 293.609 -176.24 293.79ZM-200.36 270.964C-199.699 270.33 -199.676 269.281 -200.309 268.619C-204.115 264.634 -207.83 260.561 -211.45 256.404C-212.051 255.713 -213.098 255.64 -213.79 256.24C-213.609 256.449 -213.428 256.659 -213.247 256.868C-213.065 257.077 -212.884 257.286 -212.702 257.495C-209.065 261.671 -205.333 265.762 -201.51 269.765C-201.318 269.966 -201.127 270.165 -200.935 270.365C-200.744 270.565 -200.552 270.764 -200.36 270.964ZM-222.285 246.021C-221.569 245.451 -221.449 244.408 -222.019 243.691C-225.441 239.375 -228.767 234.979 -231.991 230.505C-232.527 229.762 -233.562 229.593 -234.306 230.127C-234.145 230.352 -233.984 230.577 -233.823 230.802C-233.662 231.027 -233.5 231.251 -233.338 231.476C-230.099 235.97 -226.758 240.387 -223.319 244.723C-223.148 244.939 -222.975 245.156 -222.803 245.372C-222.63 245.589 -222.458 245.805 -222.285 246.021ZM-241.826 219.17C-241.06 218.668 -240.846 217.641 -241.346 216.874C-244.356 212.264 -247.263 207.58 -250.063 202.826C-250.527 202.037 -251.543 201.773 -252.333 202.236C-252.193 202.475 -252.054 202.714 -251.914 202.953C-251.774 203.192 -251.634 203.43 -251.493 203.669C-248.681 208.445 -245.761 213.15 -242.737 217.782C-242.585 218.014 -242.434 218.245 -242.282 218.477C-242.13 218.708 -241.978 218.939 -241.826 219.17ZM-258.81 190.632C-258.001 190.203 -257.693 189.2 -258.12 188.39C-260.691 183.524 -263.152 178.592 -265.501 173.597C-265.891 172.768 -266.878 172.411 -267.707 172.799C-267.59 173.05 -267.473 173.301 -267.356 173.552C-267.239 173.802 -267.121 174.053 -267.004 174.303C-264.644 179.322 -262.171 184.277 -259.589 189.166C-259.459 189.411 -259.33 189.655 -259.2 189.9C-259.07 190.144 -258.94 190.388 -258.81 190.632ZM-273.081 160.645C-272.237 160.292 -271.836 159.322 -272.187 158.476C-274.294 153.396 -276.287 148.256 -278.163 143.061C-278.474 142.199 -279.424 141.753 -280.286 142.061C-280.193 142.322 -280.1 142.583 -280.006 142.843C-279.913 143.104 -279.819 143.364 -279.725 143.625C-277.84 148.844 -275.838 154.008 -273.721 159.112C-273.615 159.368 -273.509 159.623 -273.402 159.879C-273.295 160.134 -273.189 160.39 -273.081 160.645ZM-284.508 129.458C-283.634 129.186 -283.145 128.258 -283.416 127.383C-285.04 122.132 -286.547 116.83 -287.932 111.479C-288.162 110.593 -289.066 110.06 -289.952 110.287C-289.884 110.555 -289.816 110.823 -289.747 111.091C-289.678 111.36 -289.609 111.628 -289.54 111.895C-288.148 117.271 -286.634 122.598 -285.002 127.873C-284.921 128.138 -284.838 128.402 -284.756 128.666C-284.674 128.93 -284.591 129.194 -284.508 129.458ZM-292.983 97.3519C-292.088 97.1619 -291.515 96.2827 -291.703 95.3865C-292.831 90.0133 -293.838 84.5957 -294.722 79.1367C-294.869 78.2327 -295.719 77.6181 -296.623 77.7623C-296.58 78.0358 -296.537 78.3091 -296.493 78.5824C-296.45 78.8557 -296.406 79.1289 -296.361 79.4021C-295.473 84.8865 -294.461 90.3294 -293.328 95.7277C-293.271 95.9986 -293.214 96.2694 -293.157 96.54C-293.099 96.8108 -293.041 97.0814 -292.983 97.3519ZM-298.443 64.6033C-297.533 64.4968 -296.882 63.6745 -296.986 62.7646C-297.612 57.3146 -298.115 51.8272 -298.493 46.3053C-298.556 45.3916 -299.346 44.7013 -300.259 44.7618C-300.242 45.0381 -300.224 45.3142 -300.206 45.5903C-300.187 45.8665 -300.169 46.1426 -300.15 46.4187C-299.77 51.966 -299.264 57.4787 -298.636 62.954C-298.604 63.229 -298.572 63.504 -298.54 63.7788C-298.508 64.0537 -298.475 64.3285 -298.443 64.6033ZM-300.864 31.4907C-299.949 31.4678 -299.224 30.7085 -299.245 29.793C-299.308 27.0362 -299.339 24.2718 -299.339 21.5C-299.339 18.7282 -299.308 15.9638 -299.245 13.2072C-299.224 12.2916 -299.949 11.5323 -300.864 11.5094C-300.871 11.786 -300.879 12.0626 -300.886 12.3394C-300.892 12.616 -300.899 12.8926 -300.905 13.1694C-300.968 15.9386 -301 18.7156 -301 21.5C-301 24.2844 -300.968 27.0614 -300.905 29.8307C-300.899 30.1075 -300.892 30.3841 -300.886 30.6607C-300.879 30.9374 -300.871 31.2141 -300.864 31.4907ZM-300.259 -1.76174C-299.346 -1.70126 -298.556 -2.39155 -298.493 -3.30522C-298.115 -8.82711 -297.612 -14.3145 -296.986 -19.7646C-296.882 -20.6744 -297.533 -21.4968 -298.443 -21.6033C-298.475 -21.3285 -298.508 -21.0537 -298.54 -20.7788C-298.572 -20.504 -298.604 -20.229 -298.636 -19.954C-299.264 -14.4787 -299.77 -8.96596 -300.15 -3.41863C-300.169 -3.1426 -300.187 -2.86645 -300.206 -2.59025C-300.224 -2.31417 -300.242 -2.038 -300.259 -1.76174ZM-296.623 -34.7623C-295.719 -34.6181 -294.869 -35.2327 -294.722 -36.1367C-293.838 -41.5957 -292.831 -47.0133 -291.703 -52.3865C-291.515 -53.2828 -292.088 -54.1619 -292.983 -54.352C-293.041 -54.0814 -293.099 -53.8107 -293.157 -53.54C-293.214 -53.2693 -293.271 -52.9985 -293.328 -52.7277C-294.461 -47.3294 -295.473 -41.8865 -296.361 -36.4021C-296.406 -36.129 -296.45 -35.8557 -296.493 -35.5824C-296.537 -35.3091 -296.58 -35.0358 -296.623 -34.7623ZM-289.952 -67.287C-289.066 -67.0596 -288.162 -67.5926 -287.932 -68.4792C-286.547 -73.8299 -285.04 -79.1321 -283.416 -84.3826C-283.145 -85.2575 -283.634 -86.186 -284.508 -86.4585C-284.591 -86.1945 -284.674 -85.9304 -284.756 -85.6662C-284.838 -85.402 -284.921 -85.1377 -285.002 -84.8733C-286.634 -79.5983 -288.148 -74.2713 -289.54 -68.8955C-289.609 -68.6276 -289.678 -68.3596 -289.747 -68.0915C-289.816 -67.8235 -289.884 -67.5553 -289.952 -67.287ZM-280.286 -99.0615C-279.424 -98.7526 -278.474 -99.1993 -278.163 -100.061C-276.287 -105.256 -274.294 -110.396 -272.187 -115.476C-271.836 -116.322 -272.237 -117.292 -273.081 -117.645C-273.188 -117.39 -273.295 -117.134 -273.402 -116.879C-273.509 -116.623 -273.615 -116.368 -273.721 -116.112C-275.838 -111.008 -277.84 -105.844 -279.725 -100.625C-279.819 -100.364 -279.913 -100.104 -280.006 -99.8434C-280.1 -99.5829 -280.193 -99.3223 -280.286 -99.0615ZM-267.707 -129.799C-266.878 -129.411 -265.891 -129.768 -265.501 -130.597C-263.152 -135.592 -260.691 -140.524 -258.12 -145.39C-257.693 -146.2 -258.001 -147.203 -258.81 -147.632C-258.94 -147.388 -259.07 -147.144 -259.2 -146.9C-259.33 -146.655 -259.459 -146.411 -259.589 -146.166C-262.171 -141.277 -264.644 -136.322 -267.004 -131.303C-267.121 -131.053 -267.239 -130.802 -267.356 -130.552C-267.473 -130.301 -267.59 -130.05 -267.707 -129.799ZM-252.333 -159.236C-251.543 -158.773 -250.527 -159.037 -250.063 -159.826C-247.263 -164.58 -244.356 -169.264 -241.346 -173.874C-240.846 -174.641 -241.06 -175.668 -241.826 -176.17C-241.978 -175.939 -242.13 -175.708 -242.282 -175.477C-242.434 -175.245 -242.585 -175.014 -242.737 -174.782C-245.761 -170.15 -248.681 -165.445 -251.493 -160.669C-251.634 -160.43 -251.774 -160.192 -251.914 -159.953C-252.054 -159.714 -252.193 -159.475 -252.333 -159.236ZM-234.306 -187.127C-233.562 -186.593 -232.527 -186.762 -231.991 -187.505C-228.767 -191.979 -225.441 -196.375 -222.019 -200.691C-221.449 -201.408 -221.569 -202.451 -222.285 -203.021C-222.458 -202.805 -222.63 -202.589 -222.803 -202.372C-222.975 -202.156 -223.148 -201.939 -223.32 -201.723C-226.758 -197.387 -230.099 -192.97 -233.338 -188.476C-233.5 -188.251 -233.662 -188.027 -233.823 -187.802C-233.984 -187.577 -234.145 -187.352 -234.306 -187.127ZM-213.79 -213.24C-213.098 -212.64 -212.051 -212.713 -211.45 -213.404C-207.83 -217.561 -204.115 -221.634 -200.309 -225.619C-199.676 -226.281 -199.699 -227.33 -200.36 -227.964C-200.552 -227.764 -200.744 -227.565 -200.935 -227.365C-201.127 -227.165 -201.318 -226.966 -201.51 -226.765C-205.333 -222.762 -209.065 -218.671 -212.702 -214.495C-212.884 -214.286 -213.065 -214.077 -213.247 -213.868C-213.428 -213.659 -213.609 -213.449 -213.79 -213.24ZM-190.964 -237.36C-190.33 -236.699 -189.281 -236.676 -188.619 -237.309C-184.634 -241.115 -180.561 -244.83 -176.404 -248.45C-175.713 -249.051 -175.64 -250.098 -176.24 -250.79C-176.449 -250.609 -176.659 -250.428 -176.868 -250.247C-177.077 -250.065 -177.286 -249.884 -177.495 -249.702C-181.671 -246.065 -185.762 -242.333 -189.765 -238.51C-189.966 -238.318 -190.165 -238.127 -190.365 -237.935C-190.565 -237.744 -190.764 -237.552 -190.964 -237.36ZM-166.021 -259.285C-165.451 -258.569 -164.408 -258.449 -163.691 -259.019C-159.375 -262.441 -154.979 -265.767 -150.505 -268.991C-149.762 -269.527 -149.593 -270.562 -150.127 -271.306C-150.352 -271.145 -150.577 -270.984 -150.802 -270.823C-151.027 -270.662 -151.251 -270.5 -151.476 -270.338C-155.97 -267.099 -160.387 -263.758 -164.723 -260.319C-164.939 -260.148 -165.156 -259.975 -165.372 -259.803C-165.589 -259.63 -165.805 -259.458 -166.021 -259.285ZM-139.17 -278.826C-138.668 -278.06 -137.641 -277.846 -136.874 -278.346C-132.264 -281.356 -127.58 -284.263 -122.826 -287.063C-122.037 -287.527 -121.773 -288.543 -122.236 -289.333C-122.475 -289.193 -122.714 -289.054 -122.953 -288.914C-123.192 -288.774 -123.43 -288.634 -123.669 -288.493C-128.445 -285.681 -133.15 -282.761 -137.782 -279.737C-138.014 -279.585 -138.245 -279.434 -138.477 -279.282C-138.708 -279.13 -138.939 -278.978 -139.17 -278.826ZM-110.632 -295.81C-110.203 -295.001 -109.2 -294.693 -108.39 -295.12C-103.524 -297.691 -98.5922 -300.152 -93.5967 -302.501C-92.768 -302.891 -92.4114 -303.878 -92.7991 -304.707C-93.0501 -304.59 -93.3009 -304.473 -93.5516 -304.356C-93.8024 -304.239 -94.0529 -304.121 -94.3034 -304.004C-99.3221 -301.644 -104.277 -299.171 -109.166 -296.589C-109.411 -296.459 -109.655 -296.33 -109.9 -296.2C-110.144 -296.07 -110.388 -295.94 -110.632 -295.81ZM-80.6446 -310.081C-80.2921 -309.237 -79.3221 -308.836 -78.4762 -309.187C-73.3956 -311.294 -68.256 -313.287 -63.0606 -315.163C-62.1993 -315.474 -61.7526 -316.424 -62.0615 -317.286C-62.3223 -317.193 -62.5829 -317.1 -62.8434 -317.006C-63.1039 -316.913 -63.3643 -316.819 -63.6246 -316.725C-68.8444 -314.84 -74.008 -312.838 -79.1123 -310.721C-79.3679 -310.615 -79.6234 -310.509 -79.8788 -310.402C-80.1342 -310.295 -80.3895 -310.189 -80.6446 -310.081ZM-49.4585 -321.508C-49.186 -320.634 -48.2575 -320.145 -47.3826 -320.416C-42.1321 -322.04 -36.8299 -323.547 -31.4792 -324.932C-30.5926 -325.162 -30.0596 -326.066 -30.287 -326.952C-30.5553 -326.884 -30.8235 -326.816 -31.0915 -326.747C-31.3596 -326.678 -31.6276 -326.609 -31.8955 -326.54C-37.2713 -325.148 -42.5983 -323.634 -47.8733 -322.002C-48.1377 -321.921 -48.402 -321.838 -48.6662 -321.756C-48.9304 -321.674 -49.1945 -321.591 -49.4585 -321.508ZM-17.352 -329.983C-17.1619 -329.088 -16.2828 -328.515 -15.3865 -328.703C-10.0133 -329.831 -4.59574 -330.838 0.863314 -331.722C1.76733 -331.869 2.38191 -332.719 2.23766 -333.623C1.96422 -333.58 1.69086 -333.537 1.41762 -333.493C1.14428 -333.45 0.871042 -333.406 0.597905 -333.361C-4.88654 -332.473 -10.3294 -331.461 -15.7277 -330.328C-15.9986 -330.271 -16.2693 -330.214 -16.54 -330.157C-16.8108 -330.099 -17.0815 -330.041 -17.352 -329.983ZM15.3967 -335.443C15.5032 -334.533 16.3255 -333.882 17.2353 -333.986C22.6854 -334.612 28.1728 -335.115 33.6947 -335.493C34.6084 -335.556 35.2987 -336.346 35.2382 -337.259C34.9619 -337.242 34.6858 -337.224 34.4097 -337.206C34.1335 -337.187 33.8573 -337.169 33.5813 -337.15C28.034 -336.77 22.5213 -336.264 17.0459 -335.636C16.771 -335.604 16.496 -335.572 16.2212 -335.54C15.9463 -335.508 15.6714 -335.475 15.3967 -335.443ZM48.5093 -337.864C48.5322 -336.949 49.2915 -336.224 50.207 -336.245C52.9637 -336.308 55.7282 -336.339 58.5 -336.339C61.2718 -336.339 64.0362 -336.308 66.7928 -336.245C67.7084 -336.224 68.4677 -336.949 68.4906 -337.864C68.214 -337.871 67.9373 -337.879 67.6606 -337.886C67.384 -337.892 67.1073 -337.899 66.8306 -337.905C64.0613 -337.968 61.2844 -338 58.5 -338C55.7156 -338 52.9385 -337.968 50.1693 -337.905C49.8925 -337.899 49.6159 -337.892 49.3393 -337.886C49.0625 -337.879 48.7859 -337.871 48.5093 -337.864ZM81.7617 -337.259C81.7012 -336.346 82.3915 -335.556 83.3052 -335.493C88.8271 -335.115 94.3145 -334.612 99.7646 -333.986C100.674 -333.882 101.497 -334.533 101.603 -335.443C101.329 -335.475 101.054 -335.508 100.779 -335.54C100.504 -335.572 100.229 -335.604 99.954 -335.636C94.4787 -336.264 88.9659 -336.77 83.4186 -337.15C83.1426 -337.169 82.8664 -337.187 82.5902 -337.206C82.3142 -337.224 82.038 -337.242 81.7617 -337.259ZM114.762 -333.623C114.618 -332.719 115.233 -331.869 116.137 -331.722C121.596 -330.838 127.013 -329.831 132.387 -328.703C133.283 -328.515 134.162 -329.088 134.352 -329.983C134.081 -330.041 133.811 -330.099 133.54 -330.157C133.269 -330.214 132.999 -330.271 132.728 -330.328C127.329 -331.461 121.887 -332.473 116.402 -333.361C116.129 -333.406 115.856 -333.45 115.582 -333.493C115.309 -333.537 115.036 -333.58 114.762 -333.623ZM147.287 -326.952C147.06 -326.066 147.593 -325.162 148.479 -324.932C153.83 -323.547 159.132 -322.04 164.383 -320.416C165.258 -320.145 166.186 -320.634 166.458 -321.508C166.194 -321.591 165.93 -321.674 165.666 -321.756C165.402 -321.838 165.138 -321.921 164.873 -322.002C159.598 -323.634 154.271 -325.148 148.895 -326.54C148.628 -326.609 148.36 -326.678 148.091 -326.747C147.823 -326.816 147.555 -326.884 147.287 -326.952ZM179.061 -317.286C178.753 -316.424 179.199 -315.474 180.061 -315.163C185.256 -313.287 190.396 -311.294 195.476 -309.187C196.322 -308.836 197.292 -309.237 197.645 -310.081C197.39 -310.189 197.134 -310.295 196.879 -310.402C196.623 -310.509 196.368 -310.615 196.112 -310.721C191.008 -312.838 185.844 -314.84 180.625 -316.725C180.364 -316.819 180.104 -316.913 179.843 -317.006C179.583 -317.1 179.322 -317.193 179.061 -317.286ZM209.799 -304.707C209.411 -303.878 209.768 -302.891 210.597 -302.501C215.592 -300.152 220.524 -297.691 225.39 -295.12C226.2 -294.693 227.203 -295.001 227.632 -295.81C227.388 -295.94 227.144 -296.07 226.9 -296.2C226.655 -296.33 226.411 -296.459 226.166 -296.589C221.277 -299.171 216.322 -301.644 211.303 -304.004C211.053 -304.121 210.802 -304.239 210.552 -304.356C210.301 -304.473 210.05 -304.59 209.799 -304.707ZM239.236 -289.333C238.773 -288.543 239.037 -287.527 239.826 -287.063C244.58 -284.263 249.264 -281.356 253.874 -278.346C254.641 -277.846 255.668 -278.06 256.17 -278.826C255.939 -278.978 255.708 -279.13 255.477 -279.282C255.245 -279.434 255.014 -279.585 254.782 -279.737C250.15 -282.761 245.445 -285.681 240.669 -288.493C240.43 -288.634 240.192 -288.774 239.953 -288.914C239.714 -289.054 239.475 -289.193 239.236 -289.333ZM267.127 -271.306C266.593 -270.562 266.762 -269.527 267.505 -268.991C271.979 -265.767 276.375 -262.441 280.691 -259.019C281.408 -258.449 282.451 -258.569 283.021 -259.285C282.805 -259.458 282.589 -259.63 282.372 -259.803C282.156 -259.975 281.939 -260.148 281.722 -260.32C277.387 -263.758 272.97 -267.099 268.476 -270.338C268.251 -270.5 268.027 -270.662 267.802 -270.823C267.577 -270.984 267.352 -271.145 267.127 -271.306ZM293.24 -250.79C292.64 -250.098 292.713 -249.051 293.404 -248.45C297.561 -244.83 301.634 -241.115 305.618 -237.309C306.281 -236.676 307.33 -236.699 307.964 -237.36C307.764 -237.552 307.565 -237.744 307.365 -237.935C307.165 -238.127 306.966 -238.318 306.765 -238.51C302.762 -242.333 298.671 -246.065 294.495 -249.702C294.286 -249.884 294.077 -250.065 293.868 -250.247C293.659 -250.428 293.449 -250.609 293.24 -250.79ZM317.36 -227.964C316.699 -227.33 316.676 -226.281 317.309 -225.619C321.115 -221.634 324.83 -217.561 328.45 -213.404C329.051 -212.713 330.098 -212.64 330.79 -213.24C330.609 -213.449 330.428 -213.659 330.247 -213.868C330.065 -214.077 329.884 -214.286 329.702 -214.495C326.065 -218.671 322.333 -222.762 318.51 -226.765C318.318 -226.966 318.127 -227.165 317.935 -227.365C317.744 -227.565 317.552 -227.764 317.36 -227.964ZM339.285 -203.021C338.569 -202.451 338.449 -201.408 339.018 -200.691C342.441 -196.375 345.767 -191.979 348.991 -187.505C349.527 -186.762 350.562 -186.593 351.306 -187.127C351.145 -187.352 350.984 -187.577 350.823 -187.802C350.662 -188.027 350.5 -188.251 350.338 -188.476C347.099 -192.97 343.758 -197.387 340.319 -201.723C340.147 -201.939 339.975 -202.156 339.803 -202.372C339.63 -202.589 339.458 -202.805 339.285 -203.021ZM358.826 -176.17C358.06 -175.668 357.846 -174.641 358.346 -173.874C361.356 -169.264 364.263 -164.58 367.063 -159.826C367.527 -159.037 368.543 -158.773 369.333 -159.236C369.193 -159.475 369.054 -159.714 368.914 -159.953C368.774 -160.192 368.634 -160.43 368.493 -160.669C365.681 -165.445 362.761 -170.15 359.737 -174.782C359.585 -175.014 359.434 -175.245 359.282 -175.477C359.13 -175.708 358.978 -175.939 358.826 -176.17ZM375.81 -147.632C375.001 -147.203 374.693 -146.2 375.12 -145.39C377.691 -140.524 380.152 -135.592 382.501 -130.597C382.891 -129.768 383.878 -129.411 384.707 -129.799C384.59 -130.05 384.473 -130.301 384.356 -130.552C384.239 -130.802 384.121 -131.053 384.004 -131.303C381.643 -136.322 379.171 -141.277 376.589 -146.166C376.459 -146.411 376.33 -146.655 376.2 -146.9C376.07 -147.144 375.94 -147.388 375.81 -147.632ZM390.081 -117.645C389.237 -117.292 388.836 -116.322 389.187 -115.476C391.294 -110.396 393.287 -105.256 395.163 -100.061C395.474 -99.1993 396.424 -98.7526 397.285 -99.0615C397.193 -99.3223 397.1 -99.5829 397.006 -99.8434C396.913 -100.104 396.819 -100.364 396.725 -100.625C394.84 -105.844 392.838 -111.008 390.721 -116.112C390.615 -116.368 390.509 -116.623 390.402 -116.879C390.295 -117.134 390.188 -117.389 390.081 -117.645ZM401.508 -86.4585C400.634 -86.186 400.145 -85.2575 400.416 -84.3826C402.04 -79.1321 403.546 -73.8299 404.932 -68.4792C405.162 -67.5926 406.066 -67.0596 406.952 -67.287C406.884 -67.5553 406.816 -67.8235 406.747 -68.0915C406.678 -68.3596 406.609 -68.6276 406.54 -68.8955C405.148 -74.2713 403.634 -79.5983 402.002 -84.8733C401.92 -85.1377 401.838 -85.402 401.756 -85.6662C401.674 -85.9304 401.591 -86.1945 401.508 -86.4585ZM409.983 -54.352C409.088 -54.1619 408.515 -53.2828 408.703 -52.3865C409.831 -47.0133 410.838 -41.5957 411.722 -36.1367C411.869 -35.2327 412.719 -34.6181 413.623 -34.7623C413.58 -35.0358 413.537 -35.3091 413.493 -35.5824C413.45 -35.8557 413.406 -36.129 413.361 -36.4021C412.473 -41.8865 411.461 -47.3294 410.328 -52.7277C410.271 -52.9986 410.214 -53.2693 410.157 -53.54C410.099 -53.8108 410.041 -54.0814 409.983 -54.352ZM417.259 -1.76184C417.242 -2.0381 417.224 -2.31425 417.206 -2.59032C417.187 -2.86653 417.169 -3.14268 417.15 -3.41873C416.77 -8.96604 416.264 -14.4788 415.636 -19.9541C415.604 -20.2291 415.572 -20.504 415.54 -20.7788C415.508 -21.0537 415.475 -21.3286 415.443 -21.6033C414.533 -21.4968 413.882 -20.6745 413.986 -19.7647C414.612 -14.3146 415.115 -8.82719 415.493 -3.30529C415.556 -2.39163 416.346 -1.70136 417.259 -1.76184Z" fill="white" fill-opacity="0.5"/>
<path fill-rule="evenodd" clip-rule="evenodd" d="M58.4999 136.075C121.778 136.075 173.075 84.7779 173.075 21.4999C173.075 -41.7782 121.778 -93.0752 58.4999 -93.0752C-4.77818 -93.0752 -56.0752 -41.7782 -56.0752 21.4999C-56.0752 84.7779 -4.77818 136.075 58.4999 136.075ZM58.4999 219.1C167.632 219.1 256.1 130.632 256.1 21.4999C256.1 -87.6318 167.632 -176.101 58.4999 -176.101C-50.6318 -176.101 -139.101 -87.6318 -139.101 21.4999C-139.101 130.632 -50.6318 219.1 58.4999 219.1Z" fill="white" fill-opacity="0.2"/>
<path d="M274.884 806.087C276.128 810.374 277.017 814.811 277.52 819.365C276.973 819.421 276.574 819.909 276.628 820.456C276.874 822.979 277 825.537 277 828.125C277 830.713 276.874 833.271 276.628 835.794C276.574 836.341 276.973 836.829 277.52 836.885C277.017 841.439 276.128 845.876 274.884 850.163C274.358 850.006 273.803 850.304 273.643 850.831C272.141 855.774 270.162 860.51 267.758 864.985C267.497 865.47 267.678 866.073 268.16 866.336C265.964 870.303 263.437 874.062 260.615 877.575C260.189 877.228 259.563 877.29 259.213 877.715C255.956 881.667 252.318 885.295 248.355 888.542C247.93 888.89 247.866 889.517 248.211 889.944C244.692 892.755 240.927 895.272 236.953 897.459C236.692 896.976 236.089 896.794 235.603 897.054C231.123 899.446 226.383 901.417 221.436 902.911C220.91 903.07 220.611 903.625 220.766 904.152C216.478 905.388 212.04 906.273 207.486 906.772C207.43 906.226 206.942 905.827 206.395 905.88C203.872 906.125 201.313 906.25 198.725 906.25C196.137 906.25 193.579 906.125 191.056 905.88C190.508 905.827 190.021 906.226 189.965 906.772C185.411 906.273 180.973 905.388 176.684 904.152C176.84 903.625 176.541 903.07 176.014 902.911C171.067 901.417 166.327 899.446 161.847 897.054C161.362 896.794 160.759 896.976 160.497 897.459C156.524 895.272 152.759 892.755 149.239 889.944C149.585 889.517 149.521 888.89 149.095 888.541C145.132 885.295 141.494 881.667 138.238 877.715C137.888 877.29 137.261 877.228 136.835 877.575C134.014 874.062 131.487 870.303 129.291 866.336C129.773 866.073 129.953 865.47 129.693 864.985C127.289 860.51 125.309 855.774 123.808 850.831C123.648 850.304 123.093 850.006 122.566 850.163C121.323 845.876 120.434 841.439 119.931 836.885C120.478 836.829 120.876 836.341 120.823 835.794C120.577 833.271 120.451 830.713 120.451 828.125C120.451 825.537 120.577 822.979 120.823 820.456C120.876 819.909 120.478 819.421 119.931 819.365C120.434 814.811 121.323 810.374 122.566 806.087C123.093 806.244 123.648 805.946 123.808 805.419C125.309 800.476 127.289 795.74 129.693 791.265C129.953 790.78 129.773 790.177 129.291 789.914C131.487 785.947 134.014 782.188 136.835 778.675C137.261 779.022 137.888 778.96 138.238 778.535C141.494 774.583 145.132 770.955 149.095 767.709C149.521 767.36 149.585 766.733 149.239 766.306C152.759 763.495 156.524 760.978 160.497 758.791C160.759 759.274 161.362 759.456 161.847 759.196C166.327 756.804 171.067 754.833 176.014 753.339C176.541 753.18 176.84 752.625 176.684 752.098C180.973 750.862 185.411 749.977 189.965 749.478C190.021 750.024 190.508 750.423 191.056 750.37C193.579 750.125 196.137 750 198.725 750C201.313 750 203.872 750.125 206.395 750.37C206.942 750.423 207.43 750.024 207.486 749.478C212.04 749.977 216.478 750.862 220.766 752.098C220.611 752.625 220.91 753.18 221.436 753.339C226.383 754.833 231.123 756.804 235.603 759.196C236.089 759.456 236.692 759.274 236.953 758.791C240.927 760.978 244.692 763.495 248.212 766.306C247.866 766.733 247.93 767.36 248.355 767.709C252.318 770.955 255.956 774.583 259.213 778.535C259.563 778.96 260.189 779.022 260.615 778.675C263.437 782.188 265.964 785.947 268.16 789.914C267.678 790.177 267.497 790.78 267.758 791.265C270.162 795.74 272.141 800.476 273.643 805.419C273.803 805.946 274.358 806.244 274.884 806.087Z" stroke="#6D4ECB" stroke-opacity="0.13" stroke-width="2" stroke-linecap="round" stroke-linejoin="round" stroke-dasharray="15 15"/>
<path fill-rule="evenodd" clip-rule="evenodd" d="M165.047 908.284C184.505 908.284 200.28 892.54 200.28 873.118C200.28 853.696 184.505 837.951 165.047 837.951C145.588 837.951 129.813 853.696 129.813 873.118C129.813 892.54 145.588 908.284 165.047 908.284ZM165.047 960C213.121 960 252.093 921.101 252.093 873.118C252.093 825.134 213.121 786.235 165.047 786.235C116.972 786.235 78 825.134 78 873.118C78 921.101 116.972 960 165.047 960Z" fill="#6D4ECB" fill-opacity="0.13"/>
</g>
<defs>
<filter id="filter0_f_1982_1388" x="-592" y="-300" width="3036" height="1802" filterUnits="userSpaceOnUse" color-interpolation-filters="sRGB">
<feFlood flood-opacity="0" result="BackgroundImageFix"/>
<feBlend mode="normal" in="SourceGraphic" in2="BackgroundImageFix" result="shape"/>
<feGaussianBlur stdDeviation="250" result="effect1_foregroundBlur_1982_1388"/>
</filter>
<clipPath id="clip0_1982_1388">
<rect width="1728" height="1039" fill="white"/>
</clipPath>
</defs>
</svg>
