<svg width="1440" height="1024" viewBox="0 0 1440 1024" fill="none" xmlns="http://www.w3.org/2000/svg">
<g clip-path="url(#clip0_2075_186)">
<path d="M296.5 261C338.197 261 372 227.197 372 185.5C372 143.803 338.197 110 296.5 110C254.803 110 221 143.803 221 185.5C221 227.197 254.803 261 296.5 261Z" stroke="white" stroke-width="2" stroke-linecap="round" stroke-linejoin="round" stroke-dasharray="15 15"/>
<path fill-rule="evenodd" clip-rule="evenodd" d="M264 263C282.778 263 298 247.778 298 229C298 210.222 282.778 195 264 195C245.222 195 230 210.222 230 229C230 247.778 245.222 263 264 263ZM264 313C310.392 313 348 275.392 348 229C348 182.608 310.392 145 264 145C217.608 145 180 182.608 180 229C180 275.392 217.608 313 264 313Z" fill="white"/>
<path d="M360.736 831.98C386.412 831.98 407.226 811.166 407.226 785.49C407.226 759.814 386.412 739 360.736 739C335.06 739 314.246 759.814 314.246 785.49C314.246 811.166 335.06 831.98 360.736 831.98Z" stroke="white" stroke-width="2" stroke-linecap="round" stroke-linejoin="round" stroke-dasharray="15 15"/>
<path fill-rule="evenodd" clip-rule="evenodd" d="M340.724 833.212C352.287 833.212 361.66 823.839 361.66 812.276C361.66 800.713 352.287 791.34 340.724 791.34C329.161 791.34 319.788 800.713 319.788 812.276C319.788 823.839 329.161 833.212 340.724 833.212ZM340.724 864C369.291 864 392.448 840.842 392.448 812.276C392.448 783.709 369.291 760.552 340.724 760.552C312.158 760.552 289 783.709 289 812.276C289 840.842 312.158 864 340.724 864Z" fill="white"/>
<path d="M1323.69 661C1324.41 661 1325 661.593 1325 662.324C1325 663.055 1324.41 663.647 1323.69 663.647C1322.97 663.647 1322.38 663.055 1322.38 662.324C1322.38 661.593 1322.97 661 1323.69 661Z" fill="white"/>
<path d="M1323.69 681.226C1324.41 681.226 1325 681.819 1325 682.55C1325 683.281 1324.41 683.874 1323.69 683.874C1322.97 683.874 1322.38 683.281 1322.38 682.55C1322.38 681.819 1322.97 681.226 1323.69 681.226Z" fill="white"/>
<path d="M1323.69 701.453C1324.41 701.453 1325 702.045 1325 702.776C1325 703.507 1324.41 704.1 1323.69 704.1C1322.97 704.1 1322.38 703.507 1322.38 702.776C1322.38 702.045 1322.97 701.453 1323.69 701.453Z" fill="white"/>
<path d="M1323.69 721.679C1324.41 721.679 1325 722.272 1325 723.003C1325 723.734 1324.41 724.326 1323.69 724.326C1322.97 724.326 1322.38 723.734 1322.38 723.003C1322.38 722.272 1322.97 721.679 1323.69 721.679Z" fill="white"/>
<path d="M1323.69 741.9C1324.41 741.9 1325 742.493 1325 743.224C1325 743.955 1324.41 744.547 1323.69 744.547C1322.97 744.547 1322.38 743.955 1322.38 743.224C1322.38 742.493 1322.97 741.9 1323.69 741.9Z" fill="white"/>
<path d="M1323.69 762.126C1324.41 762.126 1325 762.719 1325 763.45C1325 764.181 1324.41 764.774 1323.69 764.774C1322.97 764.774 1322.38 764.181 1322.38 763.45C1322.38 762.719 1322.97 762.126 1323.69 762.126Z" fill="white"/>
<path d="M1323.69 782.352C1324.41 782.352 1325 782.945 1325 783.676C1325 784.407 1324.41 785 1323.69 785C1322.97 785 1322.38 784.407 1322.38 783.676C1322.38 782.945 1322.97 782.352 1323.69 782.352Z" fill="white"/>
<path d="M1308.96 661C1309.68 661 1310.27 661.593 1310.27 662.324C1310.27 663.055 1309.68 663.647 1308.96 663.647C1308.24 663.647 1307.65 663.055 1307.65 662.324C1307.65 661.593 1308.24 661 1308.96 661Z" fill="white"/>
<path d="M1308.96 681.226C1309.68 681.226 1310.27 681.819 1310.27 682.55C1310.27 683.281 1309.68 683.874 1308.96 683.874C1308.24 683.874 1307.65 683.281 1307.65 682.55C1307.65 681.819 1308.24 681.226 1308.96 681.226Z" fill="white"/>
<path d="M1308.96 701.453C1309.68 701.453 1310.27 702.045 1310.27 702.776C1310.27 703.507 1309.68 704.1 1308.96 704.1C1308.24 704.1 1307.65 703.507 1307.65 702.776C1307.65 702.045 1308.24 701.453 1308.96 701.453Z" fill="white"/>
<path d="M1308.96 721.679C1309.68 721.679 1310.27 722.272 1310.27 723.003C1310.27 723.734 1309.68 724.326 1308.96 724.326C1308.24 724.326 1307.65 723.734 1307.65 723.003C1307.65 722.272 1308.24 721.679 1308.96 721.679Z" fill="white"/>
<path d="M1308.96 741.9C1309.68 741.9 1310.27 742.493 1310.27 743.224C1310.27 743.955 1309.68 744.547 1308.96 744.547C1308.24 744.547 1307.65 743.955 1307.65 743.224C1307.65 742.493 1308.24 741.9 1308.96 741.9Z" fill="white"/>
<path d="M1308.96 762.126C1309.68 762.126 1310.27 762.719 1310.27 763.45C1310.27 764.181 1309.68 764.774 1308.96 764.774C1308.24 764.774 1307.65 764.181 1307.65 763.45C1307.65 762.719 1308.24 762.126 1308.96 762.126Z" fill="white"/>
<path d="M1308.96 782.353C1309.68 782.353 1310.27 782.945 1310.27 783.676C1310.27 784.407 1309.68 785 1308.96 785C1308.24 785 1307.65 784.407 1307.65 783.676C1307.65 782.945 1308.24 782.353 1308.96 782.353Z" fill="white"/>
<path d="M1294.23 661C1294.95 661 1295.54 661.593 1295.54 662.324C1295.54 663.055 1294.95 663.647 1294.23 663.647C1293.51 663.647 1292.92 663.055 1292.92 662.324C1292.92 661.593 1293.51 661 1294.23 661Z" fill="white"/>
<path d="M1294.23 681.226C1294.95 681.226 1295.54 681.819 1295.54 682.55C1295.54 683.281 1294.95 683.874 1294.23 683.874C1293.51 683.874 1292.92 683.281 1292.92 682.55C1292.92 681.819 1293.51 681.226 1294.23 681.226Z" fill="white"/>
<path d="M1295.54 702.776C1295.54 702.045 1294.95 701.453 1294.23 701.453C1293.51 701.453 1292.92 702.045 1292.92 702.776C1292.92 703.507 1293.51 704.1 1294.23 704.1C1294.95 704.1 1295.54 703.507 1295.54 702.776Z" fill="white"/>
<path d="M1295.54 722.998C1295.54 722.266 1294.95 721.674 1294.23 721.674C1293.51 721.674 1292.92 722.266 1292.92 722.998C1292.92 723.729 1293.51 724.321 1294.23 724.321C1294.95 724.321 1295.54 723.729 1295.54 722.998Z" fill="white"/>
<path d="M1294.23 741.9C1294.95 741.9 1295.54 742.493 1295.54 743.224C1295.54 743.955 1294.95 744.547 1294.23 744.547C1293.51 744.547 1292.92 743.955 1292.92 743.224C1292.92 742.493 1293.51 741.9 1294.23 741.9Z" fill="white"/>
<path d="M1294.23 762.126C1294.95 762.126 1295.54 762.719 1295.54 763.45C1295.54 764.181 1294.95 764.774 1294.23 764.774C1293.51 764.774 1292.92 764.181 1292.92 763.45C1292.92 762.719 1293.51 762.126 1294.23 762.126Z" fill="white"/>
<path d="M1294.23 782.353C1294.95 782.353 1295.54 782.945 1295.54 783.676C1295.54 784.407 1294.95 785 1294.23 785C1293.51 785 1292.92 784.407 1292.92 783.676C1292.92 782.945 1293.51 782.353 1294.23 782.353Z" fill="white"/>
<path d="M1279.5 661C1280.23 661 1280.81 661.593 1280.81 662.324C1280.81 663.055 1280.23 663.647 1279.5 663.647C1278.78 663.647 1278.19 663.055 1278.19 662.324C1278.19 661.593 1278.78 661 1279.5 661Z" fill="white"/>
<path d="M1279.5 681.226C1280.23 681.226 1280.81 681.819 1280.81 682.55C1280.81 683.281 1280.23 683.874 1279.5 683.874C1278.78 683.874 1278.19 683.281 1278.19 682.55C1278.19 681.819 1278.78 681.226 1279.5 681.226Z" fill="white"/>
<path d="M1279.5 701.453C1280.23 701.453 1280.81 702.045 1280.81 702.776C1280.81 703.507 1280.23 704.1 1279.5 704.1C1278.78 704.1 1278.19 703.507 1278.19 702.776C1278.19 702.045 1278.78 701.453 1279.5 701.453Z" fill="white"/>
<path d="M1279.5 721.679C1280.23 721.679 1280.81 722.272 1280.81 723.003C1280.81 723.734 1280.23 724.326 1279.5 724.326C1278.78 724.326 1278.19 723.734 1278.19 723.003C1278.19 722.272 1278.78 721.679 1279.5 721.679Z" fill="white"/>
<path d="M1279.5 741.9C1280.23 741.9 1280.81 742.493 1280.81 743.224C1280.81 743.955 1280.23 744.547 1279.5 744.547C1278.78 744.547 1278.19 743.955 1278.19 743.224C1278.19 742.493 1278.78 741.9 1279.5 741.9Z" fill="white"/>
<path d="M1279.5 762.126C1280.23 762.126 1280.81 762.719 1280.81 763.45C1280.81 764.181 1280.23 764.774 1279.5 764.774C1278.78 764.774 1278.19 764.181 1278.19 763.45C1278.19 762.719 1278.78 762.126 1279.5 762.126Z" fill="white"/>
<path d="M1279.5 782.353C1280.23 782.353 1280.81 782.945 1280.81 783.676C1280.81 784.407 1280.23 785 1279.5 785C1278.78 785 1278.19 784.407 1278.19 783.676C1278.19 782.945 1278.78 782.353 1279.5 782.353Z" fill="white"/>
<path d="M1264.77 661C1265.5 661 1266.08 661.593 1266.08 662.324C1266.08 663.055 1265.5 663.647 1264.77 663.647C1264.05 663.647 1263.46 663.055 1263.46 662.324C1263.46 661.593 1264.05 661 1264.77 661Z" fill="white"/>
<path d="M1264.77 681.226C1265.5 681.226 1266.08 681.819 1266.08 682.55C1266.08 683.281 1265.5 683.874 1264.77 683.874C1264.05 683.874 1263.46 683.281 1263.46 682.55C1263.46 681.819 1264.05 681.226 1264.77 681.226Z" fill="white"/>
<path d="M1264.77 701.453C1265.5 701.453 1266.08 702.045 1266.08 702.776C1266.08 703.507 1265.5 704.1 1264.77 704.1C1264.05 704.1 1263.46 703.507 1263.46 702.776C1263.46 702.045 1264.05 701.453 1264.77 701.453Z" fill="white"/>
<path d="M1264.77 721.679C1265.5 721.679 1266.08 722.272 1266.08 723.003C1266.08 723.734 1265.5 724.326 1264.77 724.326C1264.05 724.326 1263.46 723.734 1263.46 723.003C1263.46 722.272 1264.05 721.679 1264.77 721.679Z" fill="white"/>
<path d="M1264.77 741.9C1265.5 741.9 1266.08 742.493 1266.08 743.224C1266.08 743.955 1265.5 744.547 1264.77 744.547C1264.05 744.547 1263.46 743.955 1263.46 743.224C1263.46 742.493 1264.05 741.9 1264.77 741.9Z" fill="white"/>
<path d="M1264.77 762.126C1265.5 762.126 1266.08 762.719 1266.08 763.45C1266.08 764.181 1265.5 764.774 1264.77 764.774C1264.05 764.774 1263.46 764.181 1263.46 763.45C1263.46 762.719 1264.05 762.126 1264.77 762.126Z" fill="white"/>
<path d="M1264.77 782.353C1265.5 782.353 1266.08 782.945 1266.08 783.676C1266.08 784.407 1265.5 785 1264.77 785C1264.05 785 1263.46 784.407 1263.46 783.676C1263.46 782.945 1264.05 782.353 1264.77 782.353Z" fill="white"/>
<path d="M1250.04 661C1250.77 661 1251.35 661.593 1251.35 662.324C1251.35 663.055 1250.77 663.647 1250.04 663.647C1249.32 663.647 1248.73 663.055 1248.73 662.324C1248.73 661.593 1249.32 661 1250.04 661Z" fill="white"/>
<path d="M1250.04 681.226C1250.77 681.226 1251.35 681.819 1251.35 682.55C1251.35 683.281 1250.77 683.874 1250.04 683.874C1249.32 683.874 1248.73 683.281 1248.73 682.55C1248.73 681.819 1249.32 681.226 1250.04 681.226Z" fill="white"/>
<path d="M1250.04 701.453C1250.77 701.453 1251.35 702.045 1251.35 702.776C1251.35 703.507 1250.77 704.1 1250.04 704.1C1249.32 704.1 1248.73 703.507 1248.73 702.776C1248.73 702.045 1249.32 701.453 1250.04 701.453Z" fill="white"/>
<path d="M1250.04 721.679C1250.77 721.679 1251.35 722.272 1251.35 723.003C1251.35 723.734 1250.77 724.326 1250.04 724.326C1249.32 724.326 1248.73 723.734 1248.73 723.003C1248.73 722.272 1249.32 721.679 1250.04 721.679Z" fill="white"/>
<path d="M1250.04 741.9C1250.77 741.9 1251.35 742.493 1251.35 743.224C1251.35 743.955 1250.77 744.547 1250.04 744.547C1249.32 744.547 1248.73 743.955 1248.73 743.224C1248.73 742.493 1249.32 741.9 1250.04 741.9Z" fill="white"/>
<path d="M1250.04 762.126C1250.77 762.126 1251.35 762.719 1251.35 763.45C1251.35 764.181 1250.77 764.774 1250.04 764.774C1249.32 764.774 1248.73 764.181 1248.73 763.45C1248.73 762.719 1249.32 762.126 1250.04 762.126Z" fill="white"/>
<path d="M1250.04 782.353C1250.77 782.353 1251.35 782.945 1251.35 783.676C1251.35 784.407 1250.77 785 1250.04 785C1249.32 785 1248.73 784.407 1248.73 783.676C1248.73 782.945 1249.32 782.353 1250.04 782.353Z" fill="white"/>
<path d="M1235.31 661C1236.03 661 1236.62 661.593 1236.62 662.324C1236.62 663.055 1236.03 663.647 1235.31 663.647C1234.59 663.647 1234 663.055 1234 662.324C1234 661.593 1234.59 661 1235.31 661Z" fill="white"/>
<path d="M1235.31 681.226C1236.03 681.226 1236.62 681.819 1236.62 682.55C1236.62 683.281 1236.03 683.874 1235.31 683.874C1234.59 683.874 1234 683.281 1234 682.55C1234 681.819 1234.59 681.226 1235.31 681.226Z" fill="white"/>
<path d="M1236.62 702.776C1236.62 702.045 1236.03 701.453 1235.31 701.453C1234.59 701.453 1234 702.045 1234 702.776C1234 703.507 1234.59 704.1 1235.31 704.1C1236.03 704.1 1236.62 703.507 1236.62 702.776Z" fill="white"/>
<path d="M1236.62 722.998C1236.62 722.266 1236.03 721.674 1235.31 721.674C1234.59 721.674 1234 722.266 1234 722.998C1234 723.729 1234.59 724.321 1235.31 724.321C1236.03 724.321 1236.62 723.729 1236.62 722.998Z" fill="white"/>
<path d="M1235.31 741.9C1236.03 741.9 1236.62 742.493 1236.62 743.224C1236.62 743.955 1236.03 744.547 1235.31 744.547C1234.59 744.547 1234 743.955 1234 743.224C1234 742.493 1234.59 741.9 1235.31 741.9Z" fill="white"/>
<path d="M1235.31 762.126C1236.03 762.126 1236.62 762.719 1236.62 763.45C1236.62 764.181 1236.03 764.774 1235.31 764.774C1234.59 764.774 1234 764.181 1234 763.45C1234 762.719 1234.59 762.126 1235.31 762.126Z" fill="white"/>
<path d="M1235.31 782.353C1236.03 782.353 1236.62 782.945 1236.62 783.676C1236.62 784.407 1236.03 785 1235.31 785C1234.59 785 1234 784.407 1234 783.676C1234 782.945 1234.59 782.353 1235.31 782.353Z" fill="white"/>
<path fill-rule="evenodd" clip-rule="evenodd" d="M-98 515.81C-98 515.131 -97.4501 514.581 -96.7718 514.581C-96.0935 514.581 -95.5435 515.131 -95.5435 515.81C-95.5435 516.489 -96.0935 517.039 -96.7718 517.039C-97.4501 517.039 -98 516.489 -98 515.81ZM-79.233 515.81C-79.233 515.131 -78.683 514.581 -78.0048 514.581C-77.3265 514.581 -76.7766 515.131 -76.7766 515.81C-76.7766 516.489 -77.3265 517.039 -78.0048 517.039C-78.683 517.039 -79.233 516.489 -79.233 515.81ZM-59.2378 514.581C-59.916 514.581 -60.4659 515.131 -60.4659 515.81C-60.4659 516.489 -59.916 517.039 -59.2378 517.039C-58.5595 517.039 -58.0095 516.489 -58.0095 515.81C-58.0095 515.131 -58.5595 514.581 -59.2378 514.581ZM-41.6989 515.81C-41.6989 515.131 -41.1489 514.581 -40.4706 514.581C-39.7924 514.581 -39.2424 515.131 -39.2424 515.81C-39.2424 516.489 -39.7924 517.039 -40.4706 517.039C-41.1489 517.039 -41.6989 516.489 -41.6989 515.81ZM-21.7083 514.581C-22.3866 514.581 -22.9365 515.131 -22.9365 515.81C-22.9365 516.489 -22.3866 517.039 -21.7083 517.039C-21.03 517.039 -20.48 516.489 -20.48 515.81C-20.48 515.131 -21.03 514.581 -21.7083 514.581ZM-4.16947 515.81C-4.16947 515.131 -3.6195 514.581 -2.94123 514.581C-2.26296 514.581 -1.71304 515.131 -1.71304 515.81C-1.71304 516.489 -2.26296 517.039 -2.94123 517.039C-3.6195 517.039 -4.16947 516.489 -4.16947 515.81ZM15.8258 514.581C15.1475 514.581 14.5975 515.131 14.5975 515.81C14.5975 516.489 15.1475 517.039 15.8258 517.039C16.5041 517.039 17.054 516.489 17.054 515.81C17.054 515.131 16.5041 514.581 15.8258 514.581ZM-98 529.636C-98 528.957 -97.4501 528.407 -96.7718 528.407C-96.0935 528.407 -95.5435 528.957 -95.5435 529.636C-95.5435 530.315 -96.0935 530.865 -96.7718 530.865C-97.4501 530.865 -98 530.315 -98 529.636ZM-78.0048 528.407C-78.683 528.407 -79.233 528.957 -79.233 529.636C-79.233 530.315 -78.683 530.865 -78.0048 530.865C-77.3265 530.865 -76.7766 530.315 -76.7766 529.636C-76.7766 528.957 -77.3265 528.407 -78.0048 528.407ZM-60.4659 529.636C-60.4659 528.957 -59.916 528.407 -59.2378 528.407C-58.5595 528.407 -58.0095 528.957 -58.0095 529.636C-58.0095 530.315 -58.5595 530.865 -59.2378 530.865C-59.916 530.865 -60.4659 530.315 -60.4659 529.636ZM-40.4706 528.407C-41.1489 528.407 -41.6989 528.957 -41.6989 529.636C-41.6989 530.315 -41.1489 530.865 -40.4706 530.865C-39.7924 530.865 -39.2424 530.315 -39.2424 529.636C-39.2424 528.957 -39.7924 528.407 -40.4706 528.407ZM-22.9365 529.636C-22.9365 528.957 -22.3866 528.407 -21.7083 528.407C-21.03 528.407 -20.48 528.957 -20.48 529.636C-20.48 530.315 -21.03 530.865 -21.7083 530.865C-22.3866 530.865 -22.9365 530.315 -22.9365 529.636ZM-2.94123 528.407C-3.61949 528.407 -4.16947 528.957 -4.16947 529.636C-4.16947 530.315 -3.61949 530.865 -2.94123 530.865C-2.26296 530.865 -1.71304 530.315 -1.71304 529.636C-1.71304 528.957 -2.26296 528.407 -2.94123 528.407ZM14.5975 529.636C14.5975 528.957 15.1475 528.407 15.8258 528.407C16.5041 528.407 17.054 528.957 17.054 529.636C17.054 530.315 16.5041 530.865 15.8258 530.865C15.1475 530.865 14.5975 530.315 14.5975 529.636ZM-96.7718 542.233C-97.4501 542.233 -98 542.784 -98 543.462C-98 544.141 -97.4501 544.691 -96.7718 544.691C-96.0935 544.691 -95.5435 544.141 -95.5435 543.462C-95.5435 542.784 -96.0935 542.233 -96.7718 542.233ZM-79.233 543.462C-79.233 542.784 -78.683 542.233 -78.0048 542.233C-77.3265 542.233 -76.7766 542.784 -76.7766 543.462C-76.7766 544.141 -77.3265 544.691 -78.0048 544.691C-78.683 544.691 -79.233 544.141 -79.233 543.462ZM-60.4659 543.462C-60.4659 542.783 -59.9161 542.233 -59.2378 542.233C-58.5594 542.233 -58.0095 542.783 -58.0095 543.462C-58.0095 544.141 -58.5594 544.691 -59.2378 544.691C-59.9161 544.691 -60.4659 544.141 -60.4659 543.462ZM-40.4753 542.233C-41.1536 542.233 -41.7035 542.783 -41.7035 543.462C-41.7035 544.141 -41.1536 544.691 -40.4753 544.691C-39.797 544.691 -39.2471 544.141 -39.2471 543.462C-39.2471 542.783 -39.797 542.233 -40.4753 542.233ZM-21.7083 542.233C-22.3866 542.233 -22.9365 542.784 -22.9365 543.462C-22.9365 544.141 -22.3866 544.691 -21.7083 544.691C-21.03 544.691 -20.48 544.141 -20.48 543.462C-20.48 542.784 -21.03 542.233 -21.7083 542.233ZM-4.16947 543.462C-4.16947 542.784 -3.61949 542.233 -2.94123 542.233C-2.26296 542.233 -1.71304 542.784 -1.71304 543.462C-1.71304 544.141 -2.26296 544.691 -2.94123 544.691C-3.61949 544.691 -4.16947 544.141 -4.16947 543.462ZM15.8258 542.233C15.1475 542.233 14.5975 542.783 14.5975 543.462C14.5975 544.141 15.1475 544.691 15.8258 544.691C16.5041 544.691 17.054 544.141 17.054 543.462C17.054 542.783 16.5041 542.233 15.8258 542.233ZM-98 557.288C-98 556.61 -97.4501 556.059 -96.7718 556.059C-96.0935 556.059 -95.5435 556.61 -95.5435 557.288C-95.5435 557.967 -96.0935 558.517 -96.7718 558.517C-97.4501 558.517 -98 557.967 -98 557.288ZM-78.0048 556.059C-78.683 556.059 -79.233 556.61 -79.233 557.288C-79.233 557.967 -78.683 558.517 -78.0048 558.517C-77.3265 558.517 -76.7766 557.967 -76.7766 557.288C-76.7766 556.61 -77.3265 556.059 -78.0048 556.059ZM-60.4659 557.288C-60.4659 556.61 -59.916 556.059 -59.2378 556.059C-58.5595 556.059 -58.0095 556.61 -58.0095 557.288C-58.0095 557.967 -58.5595 558.517 -59.2377 558.517C-59.916 558.517 -60.4659 557.967 -60.4659 557.288ZM-40.4706 556.059C-41.1489 556.059 -41.6989 556.61 -41.6989 557.288C-41.6989 557.967 -41.1489 558.517 -40.4706 558.517C-39.7924 558.517 -39.2424 557.967 -39.2424 557.288C-39.2424 556.61 -39.7924 556.059 -40.4706 556.059ZM-22.9365 557.288C-22.9365 556.61 -22.3866 556.059 -21.7083 556.059C-21.03 556.059 -20.48 556.61 -20.48 557.288C-20.48 557.967 -21.03 558.517 -21.7083 558.517C-22.3866 558.517 -22.9365 557.967 -22.9365 557.288ZM-2.94123 556.059C-3.61949 556.059 -4.16947 556.61 -4.16947 557.288C-4.16947 557.967 -3.61949 558.517 -2.94122 558.517C-2.26295 558.517 -1.71304 557.967 -1.71304 557.288C-1.71304 556.61 -2.26296 556.059 -2.94123 556.059ZM14.5975 557.288C14.5975 556.61 15.1475 556.059 15.8258 556.059C16.5041 556.059 17.054 556.61 17.054 557.288C17.054 557.967 16.5041 558.517 15.8258 558.517C15.1475 558.517 14.5975 557.967 14.5975 557.288ZM-96.7718 569.885C-97.4501 569.885 -98 570.436 -98 571.114C-98 571.793 -97.4501 572.343 -96.7718 572.343C-96.0935 572.343 -95.5435 571.793 -95.5435 571.114C-95.5435 570.436 -96.0935 569.885 -96.7718 569.885ZM-79.233 571.114C-79.233 570.436 -78.683 569.885 -78.0048 569.885C-77.3265 569.885 -76.7766 570.436 -76.7766 571.114C-76.7766 571.793 -77.3265 572.343 -78.0048 572.343C-78.683 572.343 -79.233 571.793 -79.233 571.114ZM-59.2377 569.885C-59.916 569.885 -60.4659 570.436 -60.4659 571.114C-60.4659 571.793 -59.916 572.343 -59.2377 572.343C-58.5595 572.343 -58.0095 571.793 -58.0095 571.114C-58.0095 570.436 -58.5595 569.885 -59.2377 569.885ZM-41.6989 571.114C-41.6989 570.436 -41.1489 569.885 -40.4706 569.885C-39.7924 569.885 -39.2424 570.436 -39.2424 571.114C-39.2424 571.793 -39.7924 572.343 -40.4706 572.343C-41.1489 572.343 -41.6989 571.793 -41.6989 571.114ZM-21.7083 569.885C-22.3866 569.885 -22.9365 570.436 -22.9365 571.114C-22.9365 571.793 -22.3866 572.343 -21.7083 572.343C-21.03 572.343 -20.48 571.793 -20.48 571.114C-20.48 570.436 -21.03 569.885 -21.7083 569.885ZM-4.16947 571.114C-4.16947 570.436 -3.61949 569.885 -2.94122 569.885C-2.26295 569.885 -1.71304 570.436 -1.71304 571.114C-1.71304 571.793 -2.26295 572.343 -2.94122 572.343C-3.61949 572.343 -4.16947 571.793 -4.16947 571.114ZM15.8258 569.885C15.1475 569.885 14.5975 570.436 14.5975 571.114C14.5975 571.793 15.1475 572.343 15.8258 572.343C16.5041 572.343 17.054 571.793 17.054 571.114C17.054 570.436 16.5041 569.885 15.8258 569.885ZM-98 584.94C-98 584.262 -97.4501 583.711 -96.7718 583.711C-96.0935 583.711 -95.5435 584.262 -95.5435 584.94C-95.5435 585.619 -96.0935 586.169 -96.7718 586.169C-97.4501 586.169 -98 585.619 -98 584.94ZM-78.0048 583.711C-78.683 583.711 -79.233 584.262 -79.233 584.94C-79.233 585.619 -78.683 586.169 -78.0048 586.169C-77.3265 586.169 -76.7766 585.619 -76.7766 584.94C-76.7766 584.262 -77.3265 583.711 -78.0048 583.711ZM-60.4659 584.94C-60.4659 584.262 -59.916 583.711 -59.2377 583.711C-58.5595 583.711 -58.0095 584.262 -58.0095 584.94C-58.0095 585.619 -58.5595 586.169 -59.2377 586.169C-59.916 586.169 -60.4659 585.619 -60.4659 584.94ZM-40.4706 583.711C-41.1489 583.711 -41.6989 584.262 -41.6989 584.94C-41.6989 585.619 -41.1489 586.169 -40.4706 586.169C-39.7924 586.169 -39.2424 585.619 -39.2424 584.94C-39.2424 584.262 -39.7924 583.711 -40.4706 583.711ZM-22.9365 584.94C-22.9365 584.262 -22.3866 583.711 -21.7083 583.711C-21.03 583.711 -20.48 584.262 -20.48 584.94C-20.48 585.619 -21.03 586.169 -21.7083 586.169C-22.3866 586.169 -22.9365 585.619 -22.9365 584.94ZM-2.94122 583.711C-3.61949 583.711 -4.16946 584.262 -4.16946 584.94C-4.16946 585.619 -3.61949 586.169 -2.94122 586.169C-2.26295 586.169 -1.71304 585.619 -1.71304 584.94C-1.71304 584.262 -2.26295 583.711 -2.94122 583.711ZM14.5975 584.94C14.5975 584.262 15.1475 583.711 15.8258 583.711C16.5041 583.711 17.054 584.262 17.054 584.94C17.054 585.619 16.5041 586.169 15.8258 586.169C15.1475 586.169 14.5975 585.619 14.5975 584.94ZM-96.7718 597.542C-97.4501 597.542 -98 598.092 -98 598.771C-98 599.45 -97.4501 599.995 -96.7718 600C-96.0935 600 -95.5435 599.45 -95.5435 598.771C-95.5435 598.092 -96.0935 597.542 -96.7718 597.542ZM-79.233 598.771C-79.233 598.092 -78.683 597.542 -78.0048 597.542C-77.3265 597.542 -76.7766 598.092 -76.7766 598.771C-76.7766 599.45 -77.3265 600 -78.0048 600C-78.683 599.995 -79.233 599.45 -79.233 598.771ZM-60.4659 598.771C-60.4659 598.092 -59.9161 597.542 -59.2377 597.542C-58.5594 597.542 -58.0095 598.092 -58.0095 598.771C-58.0095 599.45 -58.5594 600 -59.2377 600C-59.9161 600 -60.4659 599.45 -60.4659 598.771ZM-40.4753 597.542C-41.1536 597.542 -41.7035 598.092 -41.7035 598.771C-41.7035 599.45 -41.1536 600 -40.4753 600C-39.797 600 -39.2471 599.45 -39.2471 598.771C-39.2471 598.092 -39.797 597.542 -40.4753 597.542ZM-21.7083 597.542C-22.3866 597.542 -22.9365 598.092 -22.9365 598.771C-22.9365 599.45 -22.3866 600 -21.7083 600C-21.03 600 -20.48 599.45 -20.48 598.771C-20.48 598.092 -21.03 597.542 -21.7083 597.542ZM-4.16946 598.771C-4.16946 598.092 -3.61949 597.542 -2.94122 597.542C-2.26295 597.542 -1.71304 598.092 -1.71304 598.771C-1.71304 599.45 -2.26295 600 -2.94122 600C-3.61949 599.995 -4.16946 599.45 -4.16946 598.771ZM15.8258 597.542C15.1475 597.542 14.5975 598.092 14.5975 598.771C14.5975 599.45 15.1475 599.995 15.8258 600C16.5041 600 17.054 599.45 17.054 598.771C17.054 598.092 16.5041 597.542 15.8258 597.542ZM33.3904 596.961C32.7121 596.961 32.1621 597.511 32.1621 598.19C32.1621 598.869 32.7121 599.414 33.3904 599.419C34.0686 599.419 34.6186 598.869 34.6186 598.19C34.6186 597.511 34.0686 596.961 33.3904 596.961ZM32.1621 584.359C32.1621 583.681 32.7121 583.13 33.3903 583.13C34.0686 583.13 34.6186 583.681 34.6186 584.359C34.6186 585.038 34.0686 585.588 33.3903 585.588C32.7121 585.588 32.1621 585.038 32.1621 584.359ZM33.3903 569.304C32.7121 569.304 32.1621 569.855 32.1621 570.533C32.1621 571.212 32.7121 571.762 33.3903 571.762C34.0686 571.762 34.6186 571.212 34.6186 570.533C34.6186 569.855 34.0686 569.304 33.3903 569.304ZM32.1621 556.707C32.1621 556.028 32.7121 555.478 33.3903 555.478C34.0686 555.478 34.6186 556.028 34.6186 556.707C34.6186 557.386 34.0686 557.936 33.3903 557.936C32.7121 557.936 32.1621 557.386 32.1621 556.707ZM33.3903 541.652C32.7121 541.652 32.1621 542.202 32.1621 542.881C32.1621 543.56 32.7121 544.11 33.3903 544.11C34.0686 544.11 34.6186 543.56 34.6186 542.881C34.6186 542.202 34.0686 541.652 33.3903 541.652ZM32.1621 529.055C32.1621 528.376 32.7121 527.826 33.3903 527.826C34.0686 527.826 34.6186 528.376 34.6186 529.055C34.6186 529.734 34.0686 530.284 33.3903 530.284C32.7121 530.284 32.1621 529.734 32.1621 529.055ZM32.1621 515.229C32.1621 514.55 32.7121 514 33.3903 514C34.0686 514 34.6186 514.55 34.6186 515.229C34.6186 515.908 34.0686 516.458 33.3903 516.458C32.7121 516.458 32.1621 515.908 32.1621 515.229ZM50.9291 515.229C50.9291 514.55 51.4791 514 52.1574 514C52.8357 514 53.3856 514.55 53.3856 515.229C53.3856 515.908 52.8357 516.458 52.1574 516.458C51.4791 516.458 50.9291 515.908 50.9291 515.229ZM70.9244 514C70.2461 514 69.6962 514.55 69.6962 515.229C69.6962 515.908 70.2461 516.458 70.9244 516.458C71.6027 516.458 72.1526 515.908 72.1526 515.229C72.1526 514.55 71.6027 514 70.9244 514ZM88.4633 515.229C88.4633 514.55 89.0132 514 89.6915 514C90.3698 514 90.9197 514.55 90.9197 515.229C90.9197 515.908 90.3698 516.458 89.6915 516.458C89.0132 516.458 88.4633 515.908 88.4633 515.229ZM108.454 514C107.776 514 107.226 514.55 107.226 515.229C107.226 515.908 107.776 516.458 108.454 516.458C109.132 516.458 109.682 515.908 109.682 515.229C109.682 514.55 109.132 514 108.454 514ZM125.993 515.229C125.993 514.55 126.543 514 127.221 514C127.899 514 128.449 514.55 128.449 515.229C128.449 515.908 127.899 516.458 127.221 516.458C126.543 516.458 125.993 515.908 125.993 515.229ZM145.988 514C145.31 514 144.76 514.55 144.76 515.229C144.76 515.908 145.31 516.458 145.988 516.458C146.666 516.458 147.216 515.908 147.216 515.229C147.216 514.55 146.666 514 145.988 514ZM52.1574 527.826C51.4791 527.826 50.9292 528.376 50.9292 529.055C50.9292 529.734 51.4791 530.284 52.1574 530.284C52.8357 530.284 53.3856 529.734 53.3856 529.055C53.3856 528.376 52.8357 527.826 52.1574 527.826ZM69.6962 529.055C69.6962 528.376 70.2461 527.826 70.9244 527.826C71.6027 527.826 72.1526 528.376 72.1526 529.055C72.1526 529.734 71.6027 530.284 70.9244 530.284C70.2461 530.284 69.6962 529.734 69.6962 529.055ZM89.6915 527.826C89.0132 527.826 88.4633 528.376 88.4633 529.055C88.4633 529.734 89.0132 530.284 89.6915 530.284C90.3698 530.284 90.9197 529.734 90.9197 529.055C90.9197 528.376 90.3698 527.826 89.6915 527.826ZM107.226 529.055C107.226 528.376 107.776 527.826 108.454 527.826C109.132 527.826 109.682 528.376 109.682 529.055C109.682 529.734 109.132 530.284 108.454 530.284C107.776 530.284 107.226 529.734 107.226 529.055ZM127.221 527.826C126.543 527.826 125.993 528.376 125.993 529.055C125.993 529.734 126.543 530.284 127.221 530.284C127.899 530.284 128.449 529.734 128.449 529.055C128.449 528.376 127.899 527.826 127.221 527.826ZM144.76 529.055C144.76 528.376 145.31 527.826 145.988 527.826C146.666 527.826 147.216 528.376 147.216 529.055C147.216 529.734 146.666 530.284 145.988 530.284C145.31 530.284 144.76 529.734 144.76 529.055ZM50.9292 542.881C50.9292 542.202 51.4791 541.652 52.1574 541.652C52.8357 541.652 53.3856 542.202 53.3856 542.881C53.3856 543.56 52.8357 544.11 52.1574 544.11C51.4791 544.11 50.9292 543.56 50.9292 542.881ZM69.6962 542.881C69.6962 542.202 70.2461 541.652 70.9244 541.652C71.6027 541.652 72.1526 542.202 72.1526 542.881C72.1526 543.56 71.6027 544.11 70.9244 544.11C70.2461 544.11 69.6962 543.56 69.6962 542.881ZM89.6869 541.652C89.0086 541.652 88.4587 542.202 88.4587 542.881C88.4587 543.56 89.0086 544.11 89.6869 544.11C90.3652 544.11 90.915 543.56 90.915 542.881C90.915 542.202 90.3652 541.652 89.6869 541.652ZM108.454 541.652C107.776 541.652 107.226 542.202 107.226 542.881C107.226 543.56 107.776 544.11 108.454 544.11C109.132 544.11 109.682 543.56 109.682 542.881C109.682 542.202 109.132 541.652 108.454 541.652ZM125.993 542.881C125.993 542.202 126.543 541.652 127.221 541.652C127.899 541.652 128.449 542.202 128.449 542.881C128.449 543.56 127.899 544.11 127.221 544.11C126.543 544.11 125.993 543.56 125.993 542.881ZM145.988 541.652C145.31 541.652 144.76 542.202 144.76 542.881C144.76 543.56 145.31 544.11 145.988 544.11C146.666 544.11 147.216 543.56 147.216 542.881C147.216 542.202 146.666 541.652 145.988 541.652ZM52.1574 555.478C51.4791 555.478 50.9292 556.028 50.9292 556.707C50.9292 557.386 51.4791 557.936 52.1574 557.936C52.8357 557.936 53.3856 557.386 53.3856 556.707C53.3856 556.028 52.8357 555.478 52.1574 555.478ZM69.6962 556.707C69.6962 556.028 70.2461 555.478 70.9244 555.478C71.6027 555.478 72.1526 556.028 72.1526 556.707C72.1526 557.386 71.6027 557.936 70.9244 557.936C70.2461 557.936 69.6962 557.386 69.6962 556.707ZM89.6915 555.478C89.0132 555.478 88.4633 556.028 88.4633 556.707C88.4633 557.386 89.0132 557.936 89.6915 557.936C90.3698 557.936 90.9197 557.386 90.9197 556.707C90.9197 556.028 90.3698 555.478 89.6915 555.478ZM107.226 556.707C107.226 556.028 107.776 555.478 108.454 555.478C109.132 555.478 109.682 556.028 109.682 556.707C109.682 557.386 109.132 557.936 108.454 557.936C107.776 557.936 107.226 557.386 107.226 556.707ZM127.221 555.478C126.543 555.478 125.993 556.028 125.993 556.707C125.993 557.386 126.543 557.936 127.221 557.936C127.899 557.936 128.449 557.386 128.449 556.707C128.449 556.028 127.899 555.478 127.221 555.478ZM144.76 556.707C144.76 556.028 145.31 555.478 145.988 555.478C146.666 555.478 147.216 556.028 147.216 556.707C147.216 557.386 146.666 557.936 145.988 557.936C145.31 557.936 144.76 557.386 144.76 556.707ZM50.9292 570.533C50.9292 569.855 51.4791 569.304 52.1574 569.304C52.8357 569.304 53.3856 569.855 53.3856 570.533C53.3856 571.212 52.8357 571.762 52.1574 571.762C51.4791 571.762 50.9292 571.212 50.9292 570.533ZM70.9244 569.304C70.2461 569.304 69.6962 569.855 69.6962 570.533C69.6962 571.212 70.2461 571.762 70.9244 571.762C71.6027 571.762 72.1526 571.212 72.1526 570.533C72.1526 569.855 71.6027 569.304 70.9244 569.304ZM88.4633 570.533C88.4633 569.855 89.0132 569.304 89.6915 569.304C90.3698 569.304 90.9197 569.855 90.9197 570.533C90.9197 571.212 90.3698 571.762 89.6915 571.762C89.0132 571.762 88.4633 571.212 88.4633 570.533ZM108.454 569.304C107.776 569.304 107.226 569.855 107.226 570.533C107.226 571.212 107.776 571.762 108.454 571.762C109.132 571.762 109.682 571.212 109.682 570.533C109.682 569.855 109.132 569.304 108.454 569.304ZM125.993 570.533C125.993 569.855 126.543 569.304 127.221 569.304C127.899 569.304 128.449 569.855 128.449 570.533C128.449 571.212 127.899 571.762 127.221 571.762C126.543 571.762 125.993 571.212 125.993 570.533ZM145.988 569.304C145.31 569.304 144.76 569.855 144.76 570.533C144.76 571.212 145.31 571.762 145.988 571.762C146.666 571.762 147.216 571.212 147.216 570.533C147.216 569.855 146.666 569.304 145.988 569.304ZM52.1574 583.13C51.4791 583.13 50.9292 583.681 50.9292 584.359C50.9292 585.038 51.4791 585.588 52.1574 585.588C52.8357 585.588 53.3856 585.038 53.3856 584.359C53.3856 583.681 52.8357 583.13 52.1574 583.13ZM69.6962 584.359C69.6962 583.681 70.2461 583.13 70.9244 583.13C71.6027 583.13 72.1526 583.681 72.1526 584.359C72.1526 585.038 71.6027 585.588 70.9244 585.588C70.2461 585.588 69.6962 585.038 69.6962 584.359ZM89.6915 583.13C89.0132 583.13 88.4633 583.681 88.4633 584.359C88.4633 585.038 89.0132 585.588 89.6915 585.588C90.3698 585.588 90.9197 585.038 90.9197 584.359C90.9197 583.681 90.3698 583.13 89.6915 583.13ZM107.226 584.359C107.226 583.681 107.776 583.13 108.454 583.13C109.132 583.13 109.682 583.681 109.682 584.359C109.682 585.038 109.132 585.588 108.454 585.588C107.776 585.588 107.226 585.038 107.226 584.359ZM127.221 583.13C126.543 583.13 125.993 583.681 125.993 584.359C125.993 585.038 126.543 585.588 127.221 585.588C127.899 585.588 128.449 585.038 128.449 584.359C128.449 583.681 127.899 583.13 127.221 583.13ZM144.76 584.359C144.76 583.681 145.31 583.13 145.988 583.13C146.666 583.13 147.216 583.681 147.216 584.359C147.216 585.038 146.666 585.588 145.988 585.588C145.31 585.588 144.76 585.038 144.76 584.359ZM50.9292 598.19C50.9292 597.511 51.4791 596.961 52.1574 596.961C52.8357 596.961 53.3856 597.511 53.3856 598.19C53.3856 598.869 52.8357 599.419 52.1574 599.419C51.4791 599.414 50.9292 598.869 50.9292 598.19ZM69.6962 598.19C69.6962 597.511 70.2461 596.961 70.9244 596.961C71.6027 596.961 72.1526 597.511 72.1526 598.19C72.1526 598.869 71.6027 599.419 70.9244 599.419C70.2461 599.419 69.6962 598.869 69.6962 598.19ZM89.6869 596.961C89.0086 596.961 88.4587 597.511 88.4587 598.19C88.4587 598.869 89.0086 599.419 89.6869 599.419C90.3652 599.419 90.915 598.869 90.915 598.19C90.915 597.511 90.3652 596.961 89.6869 596.961ZM108.454 596.961C107.776 596.961 107.226 597.511 107.226 598.19C107.226 598.869 107.776 599.419 108.454 599.419C109.132 599.419 109.682 598.869 109.682 598.19C109.682 597.511 109.132 596.961 108.454 596.961ZM125.993 598.19C125.993 597.511 126.543 596.961 127.221 596.961C127.899 596.961 128.449 597.511 128.449 598.19C128.449 598.869 127.899 599.419 127.221 599.419C126.543 599.414 125.993 598.869 125.993 598.19ZM145.988 596.961C145.31 596.961 144.76 597.511 144.76 598.19C144.76 598.869 145.31 599.414 145.988 599.419C146.666 599.419 147.216 598.869 147.216 598.19C147.216 597.511 146.666 596.961 145.988 596.961Z" fill="white"/>
<path d="M138.97 930.359L182.34 948.927L138.97 930.359ZM177.446 822.369L220.824 840.938L177.446 822.369ZM114.834 857.796L158.203 876.363L114.834 857.796ZM201.582 894.932L244.952 913.5L201.582 894.932ZM158.231 876.386L220.844 840.958L244.973 913.521L182.36 948.949L158.231 876.386ZM114.851 857.82L177.464 822.391L201.593 894.954L138.98 930.383L114.851 857.82Z" stroke="white" stroke-width="3" stroke-miterlimit="10"/>
<path d="M98.2215 147.109L113.034 154.253L98.2215 147.109ZM113.309 110.104L128.125 117.249L113.309 110.104ZM90.9512 121.461L105.764 128.606L90.9512 121.461ZM120.579 135.751L135.392 142.895L120.579 135.751ZM105.773 128.614L128.132 117.256L135.399 142.903L113.041 154.261L105.773 128.614ZM90.957 121.47L113.315 110.112L120.583 135.759L98.2248 147.117L90.957 121.47Z" stroke="white" stroke-miterlimit="10"/>
<path d="M1096.97 900.169L1118.95 885.198L1096.97 900.169ZM1057.34 849.111L1079.33 834.137L1057.34 849.111ZM1055.16 889.612L1077.15 874.642L1055.16 889.612ZM1099.14 859.668L1121.12 844.697L1099.14 859.668ZM1077.17 874.635L1079.34 834.133L1121.14 844.693L1118.97 885.195L1077.17 874.635ZM1055.18 889.611L1057.35 849.109L1099.15 859.669L1096.98 900.171L1055.18 889.611Z" stroke="white" stroke-width="2" stroke-miterlimit="10"/>
<path d="M764.033 280.092L782.003 267.855L764.033 280.092ZM731.641 238.359L749.614 226.12L731.641 238.359ZM729.866 271.463L747.836 259.227L729.866 271.463ZM765.809 246.988L783.779 234.751L765.809 246.988ZM747.852 259.222L749.626 226.117L783.792 234.748L782.017 267.853L747.852 259.222ZM729.879 271.462L731.654 238.357L765.82 246.988L764.045 280.093L729.879 271.462Z" stroke="white" stroke-miterlimit="10"/>
<path fill-rule="evenodd" clip-rule="evenodd" d="M1504.94 234.02C1504.94 233.868 1504.95 233.717 1504.95 233.565C1504.98 232.048 1505 230.526 1505 229C1505 227.474 1504.98 225.952 1504.95 224.435C1504.95 224.283 1504.94 224.132 1504.94 223.98C1504.93 223.828 1504.93 223.677 1504.93 223.525C1504.42 223.538 1504.03 223.954 1504.04 224.456C1504.07 225.966 1504.09 227.481 1504.09 229C1504.09 230.519 1504.07 232.034 1504.04 233.544C1504.03 234.046 1504.42 234.462 1504.93 234.475C1504.93 234.323 1504.93 234.172 1504.94 234.02ZM1504.6 241.747C1504.09 241.714 1503.66 242.092 1503.63 242.593C1503.42 245.619 1503.14 248.626 1502.8 251.612C1502.74 252.111 1503.1 252.562 1503.6 252.62C1503.62 252.469 1503.64 252.319 1503.65 252.168C1503.67 252.018 1503.69 251.867 1503.7 251.716C1504.05 248.716 1504.33 245.695 1504.54 242.655C1504.55 242.504 1504.55 242.352 1504.56 242.201C1504.58 242.05 1504.59 241.898 1504.6 241.747ZM1502.6 259.831C1502.11 259.752 1501.64 260.089 1501.56 260.584C1501.07 263.576 1500.52 266.544 1499.9 269.489C1499.8 269.98 1500.12 270.461 1500.61 270.566C1500.64 270.417 1500.67 270.269 1500.7 270.121C1500.73 269.972 1500.76 269.824 1500.8 269.676C1501.41 266.718 1501.97 263.735 1502.46 260.729C1502.48 260.58 1502.51 260.43 1502.53 260.28C1502.55 260.131 1502.58 259.981 1502.6 259.831ZM1498.94 277.654C1498.46 277.529 1497.97 277.821 1497.84 278.307C1497.08 281.239 1496.26 284.145 1495.36 287.022C1495.21 287.501 1495.48 288.01 1495.96 288.16C1496.01 288.015 1496.06 287.87 1496.1 287.725C1496.14 287.58 1496.19 287.436 1496.23 287.291C1497.13 284.4 1497.96 281.481 1498.72 278.535C1498.76 278.388 1498.79 278.241 1498.84 278.095C1498.87 277.948 1498.91 277.801 1498.94 277.654ZM1493.65 295.066C1493.18 294.896 1492.66 295.141 1492.48 295.613C1491.46 298.46 1490.36 301.277 1489.21 304.061C1489.02 304.524 1489.24 305.056 1489.7 305.249C1489.76 305.109 1489.82 304.969 1489.88 304.829C1489.94 304.689 1490 304.549 1490.05 304.409C1491.21 301.612 1492.31 298.783 1493.34 295.922C1493.39 295.78 1493.44 295.637 1493.49 295.494C1493.55 295.351 1493.6 295.208 1493.65 295.066ZM1486.76 311.909C1486.3 311.697 1485.76 311.892 1485.55 312.346C1484.26 315.084 1482.91 317.786 1481.5 320.453C1481.27 320.897 1481.44 321.447 1481.88 321.682C1481.95 321.548 1482.02 321.414 1482.09 321.28C1482.17 321.146 1482.24 321.012 1482.31 320.878C1483.72 318.199 1485.08 315.484 1486.37 312.734C1486.43 312.596 1486.5 312.459 1486.56 312.322C1486.63 312.185 1486.69 312.047 1486.76 311.909ZM1478.33 328.04C1477.9 327.787 1477.34 327.931 1477.09 328.364C1475.55 330.969 1473.96 333.536 1472.31 336.062C1472.04 336.482 1472.16 337.045 1472.57 337.32C1472.66 337.193 1472.74 337.067 1472.82 336.94C1472.91 336.813 1472.99 336.686 1473.07 336.559C1474.73 334.021 1476.33 331.443 1477.87 328.825C1477.95 328.695 1478.03 328.564 1478.1 328.433C1478.18 328.302 1478.25 328.172 1478.33 328.04ZM1468.45 343.324C1468.04 343.032 1467.48 343.124 1467.18 343.531C1465.42 345.983 1463.59 348.392 1461.72 350.757C1461.41 351.15 1461.47 351.721 1461.86 352.034C1461.96 351.915 1462.06 351.797 1462.15 351.678C1462.24 351.56 1462.34 351.441 1462.43 351.322C1464.32 348.947 1466.15 346.526 1467.92 344.063C1468.01 343.94 1468.1 343.817 1468.19 343.694C1468.28 343.571 1468.37 343.447 1468.45 343.324ZM1457.21 357.634C1456.83 357.305 1456.26 357.345 1455.93 357.723C1453.94 360.001 1451.91 362.233 1449.82 364.417C1449.48 364.78 1449.49 365.354 1449.85 365.702C1449.96 365.593 1450.06 365.483 1450.17 365.374C1450.27 365.264 1450.38 365.155 1450.48 365.045C1452.57 362.852 1454.62 360.61 1456.61 358.321C1456.71 358.207 1456.81 358.092 1456.91 357.978C1457.01 357.863 1457.11 357.748 1457.21 357.634ZM1444.7 370.851C1444.35 370.489 1443.78 370.476 1443.42 370.823C1441.23 372.908 1439 374.944 1436.72 376.928C1436.35 377.258 1436.3 377.831 1436.63 378.21C1436.75 378.111 1436.86 378.012 1436.98 377.913C1437.09 377.813 1437.21 377.714 1437.32 377.614C1439.61 375.621 1441.85 373.576 1444.04 371.481C1444.15 371.376 1444.27 371.271 1444.38 371.166C1444.49 371.061 1444.59 370.956 1444.7 370.851ZM1431.03 382.865C1430.72 382.473 1430.15 382.407 1429.76 382.72C1427.39 384.595 1424.98 386.418 1422.53 388.184C1422.12 388.478 1422.03 389.045 1422.32 389.453C1422.45 389.365 1422.57 389.277 1422.69 389.188C1422.82 389.1 1422.94 389.011 1423.07 388.923C1425.53 387.147 1427.95 385.317 1430.32 383.433C1430.44 383.338 1430.56 383.244 1430.68 383.149C1430.8 383.055 1430.91 382.96 1431.03 382.865ZM1416.32 393.573C1416.05 393.154 1415.48 393.036 1415.06 393.311C1412.54 394.96 1409.97 396.553 1407.36 398.087C1406.93 398.342 1406.79 398.899 1407.04 399.331C1407.17 399.255 1407.3 399.178 1407.43 399.102C1407.56 399.025 1407.7 398.948 1407.82 398.871C1410.44 397.33 1413.02 395.73 1415.56 394.073C1415.69 393.99 1415.81 393.907 1415.94 393.823C1416.07 393.74 1416.2 393.657 1416.32 393.573ZM1400.68 402.88C1400.44 402.437 1399.9 402.269 1399.45 402.503C1396.79 403.911 1394.08 405.26 1391.35 406.547C1390.89 406.761 1390.7 407.301 1390.91 407.756C1391.04 407.692 1391.19 407.628 1391.32 407.563C1391.46 407.499 1391.6 407.435 1391.73 407.371C1394.48 406.077 1397.2 404.722 1399.88 403.307C1400.01 403.236 1400.14 403.165 1400.28 403.094C1400.41 403.023 1400.55 402.952 1400.68 402.88ZM1384.25 410.701C1384.06 410.238 1383.52 410.019 1383.06 410.211C1380.28 411.366 1377.46 412.458 1374.61 413.486C1374.14 413.656 1373.9 414.177 1374.07 414.649C1374.21 414.598 1374.35 414.547 1374.49 414.496C1374.64 414.445 1374.78 414.393 1374.92 414.342C1377.78 413.309 1380.61 412.211 1383.41 411.052C1383.55 410.993 1383.69 410.935 1383.83 410.877C1383.97 410.818 1384.11 410.76 1384.25 410.701ZM1367.16 416.963C1367.01 416.484 1366.5 416.216 1366.02 416.364C1363.15 417.254 1360.24 418.079 1357.31 418.839C1356.82 418.965 1356.53 419.46 1356.65 419.946C1356.8 419.909 1356.95 419.871 1357.1 419.833C1357.24 419.796 1357.39 419.758 1357.54 419.72C1360.48 418.957 1363.4 418.128 1366.29 417.234C1366.44 417.189 1366.58 417.144 1366.73 417.099C1366.87 417.054 1367.01 417.008 1367.16 416.963ZM1349.57 421.607C1349.46 421.116 1348.98 420.802 1348.49 420.905C1345.54 421.524 1342.58 422.075 1339.58 422.56C1339.09 422.64 1338.75 423.106 1338.83 423.601C1338.98 423.578 1339.13 423.554 1339.28 423.53C1339.43 423.506 1339.58 423.482 1339.73 423.458C1342.74 422.972 1345.72 422.417 1348.67 421.796C1348.82 421.765 1348.97 421.733 1349.12 421.702C1349.27 421.671 1349.42 421.639 1349.57 421.607ZM1331.62 424.599C1331.56 424.101 1331.11 423.743 1330.61 423.8C1327.63 424.143 1324.62 424.419 1321.59 424.626C1321.09 424.661 1320.71 425.094 1320.75 425.594C1320.9 425.585 1321.05 425.575 1321.2 425.565C1321.35 425.555 1321.5 425.545 1321.65 425.534C1324.69 425.326 1327.71 425.049 1330.72 424.704C1330.87 424.687 1331.02 424.67 1331.17 424.652C1331.32 424.634 1331.47 424.616 1331.62 424.599ZM1313.47 425.925C1313.46 425.424 1313.05 425.027 1312.55 425.039C1311.03 425.073 1309.52 425.09 1308 425.09C1306.48 425.09 1304.97 425.073 1303.45 425.039C1302.95 425.027 1302.54 425.424 1302.53 425.925C1302.68 425.929 1302.83 425.934 1302.98 425.937C1303.13 425.941 1303.28 425.944 1303.44 425.948C1304.95 425.983 1306.48 426 1308 426C1309.52 426 1311.05 425.983 1312.56 425.948C1312.72 425.944 1312.87 425.941 1313.02 425.937C1313.17 425.934 1313.32 425.929 1313.47 425.925ZM1295.25 425.594C1295.29 425.094 1294.91 424.661 1294.41 424.626C1291.38 424.419 1288.37 424.143 1285.39 423.801C1284.89 423.743 1284.44 424.101 1284.38 424.599C1284.53 424.616 1284.68 424.634 1284.83 424.652C1284.98 424.67 1285.13 424.687 1285.28 424.704C1288.29 425.049 1291.31 425.326 1294.35 425.534C1294.5 425.545 1294.65 425.555 1294.8 425.565C1294.95 425.575 1295.1 425.585 1295.25 425.594ZM1277.17 423.601C1277.25 423.106 1276.91 422.64 1276.42 422.56C1273.42 422.075 1270.46 421.524 1267.51 420.905C1267.02 420.802 1266.54 421.116 1266.43 421.607C1266.58 421.639 1266.73 421.671 1266.88 421.702C1267.03 421.733 1267.18 421.765 1267.33 421.796C1270.28 422.417 1273.26 422.972 1276.27 423.458C1276.42 423.482 1276.57 423.506 1276.72 423.53C1276.87 423.554 1277.02 423.578 1277.17 423.601ZM1259.35 419.946C1259.47 419.46 1259.18 418.965 1258.69 418.839C1255.76 418.079 1252.85 417.254 1249.98 416.364C1249.5 416.216 1248.99 416.484 1248.84 416.963C1248.99 417.008 1249.13 417.054 1249.27 417.099C1249.42 417.144 1249.56 417.189 1249.71 417.234C1252.6 418.128 1255.52 418.957 1258.46 419.72C1258.61 419.758 1258.76 419.796 1258.9 419.833C1259.05 419.871 1259.2 419.909 1259.35 419.946ZM1241.93 414.649C1242.1 414.177 1241.86 413.656 1241.39 413.486C1238.54 412.458 1235.72 411.366 1232.94 410.211C1232.48 410.019 1231.94 410.238 1231.75 410.701C1231.89 410.76 1232.03 410.818 1232.17 410.877C1232.31 410.935 1232.45 410.993 1232.59 411.052C1235.39 412.211 1238.22 413.309 1241.08 414.342C1241.22 414.393 1241.36 414.445 1241.51 414.496C1241.65 414.547 1241.79 414.598 1241.93 414.649ZM1225.09 407.756C1225.3 407.301 1225.11 406.76 1224.65 406.547C1221.92 405.26 1219.21 403.911 1216.55 402.503C1216.1 402.269 1215.56 402.437 1215.32 402.88C1215.45 402.952 1215.59 403.023 1215.72 403.094C1215.86 403.165 1215.99 403.236 1216.12 403.307C1218.8 404.722 1221.52 406.077 1224.27 407.371C1224.4 407.435 1224.54 407.499 1224.68 407.563C1224.81 407.628 1224.96 407.692 1225.09 407.756ZM1208.96 399.331C1209.21 398.899 1209.07 398.342 1208.64 398.087C1206.03 396.553 1203.46 394.96 1200.94 393.311C1200.52 393.036 1199.95 393.154 1199.68 393.573C1199.8 393.657 1199.93 393.74 1200.06 393.823C1200.19 393.907 1200.31 393.99 1200.44 394.073C1202.98 395.73 1205.56 397.33 1208.18 398.871C1208.3 398.948 1208.44 399.025 1208.57 399.102C1208.7 399.178 1208.83 399.255 1208.96 399.331ZM1193.68 389.453C1193.97 389.045 1193.88 388.478 1193.47 388.184C1191.02 386.418 1188.61 384.595 1186.24 382.72C1185.85 382.407 1185.28 382.473 1184.97 382.865C1185.09 382.96 1185.2 383.055 1185.32 383.149C1185.44 383.244 1185.56 383.338 1185.68 383.433C1188.05 385.317 1190.47 387.147 1192.93 388.923C1193.06 389.011 1193.18 389.1 1193.31 389.188C1193.43 389.277 1193.55 389.365 1193.68 389.453ZM1179.37 378.21C1179.7 377.831 1179.65 377.258 1179.28 376.928C1177 374.944 1174.77 372.908 1172.58 370.823C1172.22 370.476 1171.65 370.489 1171.3 370.851C1171.41 370.956 1171.51 371.061 1171.62 371.166C1171.73 371.271 1171.85 371.376 1171.96 371.481C1174.15 373.576 1176.39 375.621 1178.68 377.614C1178.79 377.714 1178.91 377.813 1179.02 377.913C1179.14 378.012 1179.25 378.111 1179.37 378.21ZM1166.15 365.702C1166.51 365.354 1166.52 364.78 1166.18 364.417C1164.09 362.233 1162.06 360.001 1160.07 357.723C1159.74 357.345 1159.17 357.305 1158.79 357.634C1158.89 357.748 1158.99 357.863 1159.09 357.978C1159.19 358.092 1159.29 358.207 1159.39 358.321C1161.38 360.61 1163.43 362.852 1165.52 365.045C1165.62 365.155 1165.73 365.264 1165.83 365.374C1165.94 365.483 1166.04 365.593 1166.15 365.702ZM1154.14 352.034C1154.53 351.721 1154.59 351.15 1154.28 350.757C1152.41 348.392 1150.58 345.983 1148.82 343.531C1148.52 343.124 1147.96 343.032 1147.55 343.324C1147.63 343.447 1147.72 343.571 1147.81 343.694C1147.9 343.817 1147.99 343.94 1148.08 344.063C1149.85 346.526 1151.68 348.947 1153.57 351.322C1153.66 351.441 1153.76 351.56 1153.85 351.678C1153.94 351.797 1154.04 351.915 1154.14 352.034ZM1143.43 337.32C1143.84 337.045 1143.96 336.482 1143.69 336.062C1142.04 333.536 1140.45 330.969 1138.91 328.364C1138.66 327.931 1138.1 327.787 1137.67 328.04C1137.75 328.172 1137.82 328.302 1137.9 328.433C1137.97 328.564 1138.05 328.695 1138.13 328.825C1139.67 331.443 1141.27 334.021 1142.93 336.559C1143.01 336.686 1143.09 336.813 1143.18 336.94C1143.26 337.067 1143.34 337.193 1143.43 337.32ZM1134.12 321.682C1134.56 321.446 1134.73 320.897 1134.5 320.453C1133.09 317.786 1131.74 315.084 1130.45 312.346C1130.24 311.892 1129.7 311.697 1129.24 311.909C1129.31 312.047 1129.37 312.185 1129.44 312.322C1129.5 312.459 1129.57 312.596 1129.63 312.734C1130.92 315.484 1132.28 318.199 1133.69 320.878C1133.76 321.012 1133.83 321.146 1133.91 321.28C1133.98 321.414 1134.05 321.548 1134.12 321.682ZM1126.3 305.249C1126.76 305.056 1126.98 304.524 1126.79 304.061C1125.64 301.277 1124.54 298.46 1123.52 295.613C1123.34 295.141 1122.82 294.896 1122.35 295.066C1122.4 295.208 1122.45 295.351 1122.51 295.494C1122.56 295.637 1122.61 295.78 1122.66 295.922C1123.69 298.783 1124.79 301.612 1125.95 304.409C1126 304.549 1126.06 304.689 1126.12 304.829C1126.18 304.969 1126.24 305.109 1126.3 305.249ZM1120.04 288.16C1120.52 288.01 1120.79 287.501 1120.64 287.022C1119.74 284.145 1118.92 281.239 1118.16 278.307C1118.03 277.821 1117.54 277.529 1117.06 277.654C1117.09 277.801 1117.13 277.948 1117.16 278.095C1117.21 278.241 1117.24 278.388 1117.28 278.535C1118.04 281.481 1118.87 284.4 1119.77 287.291C1119.81 287.436 1119.86 287.58 1119.9 287.725C1119.94 287.87 1119.99 288.015 1120.04 288.16ZM1115.39 270.566C1115.88 270.461 1116.2 269.98 1116.1 269.489C1115.48 266.544 1114.93 263.576 1114.44 260.584C1114.36 260.089 1113.89 259.752 1113.4 259.831C1113.42 259.981 1113.45 260.131 1113.47 260.28C1113.49 260.43 1113.52 260.58 1113.54 260.729C1114.03 263.735 1114.59 266.718 1115.2 269.676C1115.24 269.824 1115.27 269.972 1115.3 270.121C1115.33 270.269 1115.36 270.417 1115.39 270.566ZM1112.4 252.62C1112.9 252.562 1113.26 252.111 1113.2 251.612C1112.86 248.626 1112.58 245.619 1112.37 242.593C1112.34 242.092 1111.91 241.714 1111.4 241.747C1111.41 241.898 1111.42 242.05 1111.44 242.201C1111.45 242.352 1111.45 242.504 1111.46 242.655C1111.67 245.695 1111.95 248.716 1112.3 251.716C1112.31 251.867 1112.33 252.018 1112.35 252.168C1112.36 252.319 1112.38 252.469 1112.4 252.62ZM1111.07 234.475C1111.58 234.462 1111.97 234.046 1111.96 233.544C1111.93 232.034 1111.91 230.519 1111.91 229C1111.91 227.481 1111.93 225.966 1111.96 224.456C1111.97 223.954 1111.58 223.538 1111.07 223.525C1111.07 223.677 1111.07 223.828 1111.06 223.98C1111.06 224.132 1111.05 224.283 1111.05 224.435C1111.02 225.952 1111 227.474 1111 229C1111 230.526 1111.02 232.048 1111.05 233.565C1111.05 233.717 1111.06 233.868 1111.06 234.02C1111.07 234.172 1111.07 234.323 1111.07 234.475ZM1111.4 216.253C1111.91 216.286 1112.34 215.908 1112.37 215.407C1112.58 212.381 1112.86 209.374 1113.2 206.388C1113.26 205.889 1112.9 205.438 1112.4 205.38C1112.38 205.531 1112.36 205.681 1112.35 205.832C1112.33 205.983 1112.31 206.133 1112.3 206.284C1111.95 209.284 1111.67 212.305 1111.46 215.345C1111.45 215.496 1111.45 215.648 1111.44 215.799C1111.42 215.95 1111.41 216.102 1111.4 216.253ZM1113.4 198.169C1113.89 198.248 1114.36 197.911 1114.44 197.416C1114.93 194.425 1115.48 191.456 1116.1 188.511C1116.2 188.02 1115.88 187.539 1115.39 187.434C1115.36 187.583 1115.33 187.731 1115.3 187.879C1115.27 188.028 1115.24 188.176 1115.2 188.325C1114.59 191.283 1114.03 194.265 1113.54 197.271C1113.52 197.42 1113.49 197.57 1113.47 197.72C1113.45 197.87 1113.42 198.019 1113.4 198.169ZM1117.06 180.346C1117.54 180.471 1118.03 180.179 1118.16 179.693C1118.92 176.761 1119.74 173.855 1120.64 170.978C1120.79 170.499 1120.52 169.99 1120.04 169.841C1119.99 169.985 1119.94 170.13 1119.9 170.275C1119.86 170.419 1119.81 170.564 1119.77 170.709C1118.87 173.6 1118.04 176.519 1117.28 179.465C1117.24 179.612 1117.21 179.758 1117.16 179.905C1117.13 180.052 1117.09 180.199 1117.06 180.346ZM1122.35 162.934C1122.82 163.104 1123.34 162.859 1123.52 162.387C1124.54 159.54 1125.64 156.723 1126.79 153.939C1126.98 153.476 1126.76 152.944 1126.3 152.751C1126.24 152.891 1126.18 153.031 1126.12 153.171C1126.06 153.311 1126 153.451 1125.95 153.591C1124.79 156.388 1123.69 159.217 1122.66 162.078C1122.61 162.22 1122.56 162.363 1122.51 162.506C1122.45 162.649 1122.4 162.791 1122.35 162.934ZM1129.24 146.091C1129.7 146.303 1130.24 146.108 1130.45 145.654C1131.74 142.916 1133.09 140.214 1134.5 137.547C1134.73 137.103 1134.56 136.553 1134.12 136.318C1134.05 136.452 1133.98 136.586 1133.91 136.72C1133.83 136.854 1133.76 136.988 1133.69 137.122C1132.28 139.801 1130.92 142.516 1129.63 145.266C1129.57 145.404 1129.5 145.541 1129.44 145.678C1129.37 145.815 1129.31 145.953 1129.24 146.091ZM1137.67 129.959C1138.1 130.213 1138.66 130.069 1138.91 129.636C1140.45 127.031 1142.04 124.464 1143.69 121.938C1143.96 121.518 1143.84 120.955 1143.43 120.68C1143.34 120.807 1143.26 120.933 1143.18 121.06C1143.09 121.187 1143.01 121.314 1142.93 121.441C1141.27 123.979 1139.67 126.557 1138.13 129.175C1138.05 129.305 1137.97 129.436 1137.9 129.567C1137.82 129.698 1137.75 129.828 1137.67 129.959ZM1147.55 114.676C1147.96 114.968 1148.52 114.876 1148.82 114.469C1150.58 112.017 1152.41 109.608 1154.28 107.243C1154.59 106.85 1154.53 106.279 1154.14 105.966C1154.04 106.085 1153.94 106.203 1153.85 106.322C1153.76 106.44 1153.66 106.559 1153.57 106.678C1151.68 109.053 1149.85 111.474 1148.08 113.937C1147.99 114.06 1147.9 114.183 1147.81 114.306C1147.72 114.429 1147.63 114.553 1147.55 114.676ZM1158.79 100.366C1159.17 100.695 1159.74 100.655 1160.07 100.277C1162.06 97.9986 1164.09 95.767 1166.18 93.5832C1166.52 93.2201 1166.51 92.6455 1166.15 92.2979C1166.04 92.4071 1165.94 92.5168 1165.83 92.626C1165.73 92.7356 1165.62 92.8452 1165.52 92.9549C1163.43 95.1483 1161.38 97.3903 1159.39 99.6788C1159.29 99.7935 1159.19 99.9077 1159.09 100.022C1158.99 100.137 1158.89 100.252 1158.79 100.366ZM1171.3 87.1491C1171.65 87.5112 1172.22 87.524 1172.58 87.1773C1174.77 85.0917 1177 83.0558 1179.28 81.0721C1179.65 80.7423 1179.7 80.1686 1179.37 79.7896C1179.25 79.8887 1179.14 79.9879 1179.02 80.0871C1178.91 80.1867 1178.79 80.2859 1178.68 80.3856C1176.39 82.3788 1174.15 84.4238 1171.96 86.519C1171.85 86.624 1171.73 86.7287 1171.62 86.8338C1171.51 86.9389 1171.41 87.044 1171.3 87.1491ZM1184.97 75.1348C1185.28 75.527 1185.85 75.5925 1186.24 75.2804C1188.61 73.405 1191.02 71.5824 1193.47 69.8158C1193.88 69.5224 1193.97 68.9546 1193.68 68.5469C1193.55 68.6352 1193.43 68.7234 1193.31 68.8117C1193.18 68.9004 1193.06 68.9887 1192.93 69.0774C1190.47 70.8527 1188.05 72.6835 1185.68 74.5675C1185.56 74.6617 1185.44 74.7563 1185.32 74.8509C1185.2 74.9451 1185.09 75.0397 1184.97 75.1348ZM1199.68 64.4268C1199.95 64.8458 1200.52 64.9636 1200.94 64.6893C1203.46 63.04 1206.03 61.4472 1208.64 59.913C1209.07 59.6582 1209.21 59.1014 1208.96 58.6687C1208.83 58.7451 1208.7 58.8216 1208.57 58.8985C1208.44 58.9749 1208.3 59.0518 1208.18 59.1287C1205.56 60.6701 1202.98 62.2702 1200.44 63.9272C1200.31 64.01 1200.19 64.0933 1200.06 64.1765C1199.93 64.2598 1199.8 64.343 1199.68 64.4268ZM1215.32 55.1195C1215.56 55.5627 1216.1 55.7319 1216.55 55.4971C1219.21 54.089 1221.92 52.74 1224.65 51.4529C1225.11 51.2391 1225.3 50.6986 1225.09 50.2441C1224.96 50.3083 1224.81 50.372 1224.68 50.4366C1224.54 50.5007 1224.4 50.5649 1224.27 50.6295C1221.52 51.9229 1218.8 53.2778 1216.12 54.6928C1215.99 54.7637 1215.86 54.8347 1215.72 54.9057C1215.59 54.9767 1215.45 55.0481 1215.32 55.1195ZM1231.75 47.2991C1231.94 47.7618 1232.48 47.9811 1232.94 47.7891C1235.72 46.6344 1238.54 45.5425 1241.39 44.5143C1241.86 44.3437 1242.1 43.8232 1241.93 43.3514C1241.79 43.4019 1241.65 43.4528 1241.51 43.5043C1241.36 43.5552 1241.22 43.6066 1241.08 43.6585C1238.22 44.6913 1235.39 45.7886 1232.59 46.9483C1232.45 47.0066 1232.31 47.0648 1232.17 47.123C1232.03 47.1817 1231.89 47.2404 1231.75 47.2991ZM1248.84 41.0374C1248.99 41.5161 1249.5 41.784 1249.98 41.6357C1252.85 40.7458 1255.76 39.92 1258.69 39.1607C1259.18 39.0351 1259.47 38.5397 1259.35 38.0538C1259.2 38.0911 1259.05 38.1288 1258.9 38.1666C1258.76 38.2039 1258.61 38.2421 1258.46 38.2799C1255.52 39.0429 1252.6 39.8723 1249.71 40.7663C1249.56 40.8113 1249.42 40.8564 1249.27 40.9014C1249.13 40.9464 1248.99 40.9919 1248.84 41.0374ZM1266.43 36.3931C1266.54 36.8836 1267.02 37.1975 1267.51 37.0947C1270.46 36.4764 1273.42 35.9245 1276.42 35.44C1276.91 35.3599 1277.25 34.8936 1277.17 34.3986C1277.02 34.4222 1276.87 34.4459 1276.72 34.4696C1276.57 34.4937 1276.42 34.5178 1276.27 34.5419C1273.26 35.0283 1270.28 35.5828 1267.33 36.2039C1267.18 36.2353 1267.03 36.2667 1266.88 36.2981C1266.73 36.3294 1266.58 36.3613 1266.43 36.3931ZM1284.38 33.4013C1284.44 33.8995 1284.89 34.2566 1285.39 34.1998C1288.37 33.8567 1291.38 33.581 1294.41 33.3735C1294.91 33.3394 1295.29 32.9063 1295.25 32.4058C1295.1 32.4154 1294.95 32.4254 1294.8 32.4354C1294.65 32.4454 1294.5 32.4554 1294.35 32.4659C1291.31 32.6738 1288.29 32.9509 1285.28 33.2957C1285.13 33.313 1284.98 33.3303 1284.83 33.3481C1284.68 33.3658 1284.53 33.3835 1284.38 33.4013ZM1302.53 32.0746C1302.54 32.576 1302.95 32.9732 1303.45 32.9613C1304.97 32.9272 1306.48 32.9099 1308 32.9099C1309.52 32.9099 1311.03 32.9272 1312.55 32.9613C1313.05 32.9732 1313.46 32.576 1313.47 32.0746C1313.32 32.0705 1313.17 32.0664 1313.02 32.0628C1312.87 32.0591 1312.72 32.0555 1312.56 32.0519C1311.05 32.0173 1309.52 32 1308 32C1306.48 32 1304.95 32.0173 1303.44 32.0519C1303.28 32.0555 1303.13 32.0591 1302.98 32.0628C1302.83 32.0664 1302.68 32.0705 1302.53 32.0746ZM1320.75 32.4058C1320.71 32.9063 1321.09 33.3394 1321.59 33.3735C1324.62 33.581 1327.63 33.8567 1330.61 34.1998C1331.11 34.2566 1331.56 33.8995 1331.62 33.4013C1331.47 33.3835 1331.32 33.3658 1331.17 33.3481C1331.02 33.3303 1330.87 33.313 1330.72 33.2957C1327.71 32.9509 1324.69 32.6738 1321.65 32.4659C1321.5 32.4554 1321.35 32.4454 1321.2 32.4354C1321.05 32.4254 1320.9 32.4154 1320.75 32.4058ZM1338.83 34.3986C1338.75 34.8936 1339.09 35.3599 1339.58 35.44C1342.58 35.9245 1345.54 36.4764 1348.49 37.0947C1348.98 37.1975 1349.46 36.8836 1349.57 36.3931C1349.42 36.3613 1349.27 36.3294 1349.12 36.2981C1348.97 36.2667 1348.82 36.2353 1348.67 36.2039C1345.72 35.5828 1342.74 35.0283 1339.73 34.5419C1339.58 34.5178 1339.43 34.4937 1339.28 34.4696C1339.13 34.4459 1338.98 34.4222 1338.83 34.3986ZM1356.65 38.0538C1356.53 38.5397 1356.82 39.0351 1357.31 39.1607C1360.24 39.92 1363.15 40.7458 1366.02 41.6357C1366.5 41.784 1367.01 41.5161 1367.16 41.0374C1367.01 40.9919 1366.87 40.9464 1366.73 40.9014C1366.58 40.8564 1366.44 40.8113 1366.29 40.7663C1363.4 39.8723 1360.48 39.0429 1357.54 38.2799C1357.39 38.2421 1357.24 38.2039 1357.1 38.1666C1356.95 38.1288 1356.8 38.0911 1356.65 38.0538ZM1374.07 43.3514C1373.9 43.8232 1374.14 44.3437 1374.61 44.5143C1377.46 45.5425 1380.28 46.6344 1383.06 47.7891C1383.52 47.9811 1384.06 47.7618 1384.25 47.2991C1384.11 47.2404 1383.97 47.1817 1383.83 47.123C1383.69 47.0648 1383.55 47.0066 1383.41 46.9483C1380.61 45.7886 1377.78 44.6913 1374.92 43.6585C1374.78 43.6066 1374.64 43.5552 1374.49 43.5043C1374.35 43.4528 1374.21 43.4019 1374.07 43.3514ZM1390.91 50.2441C1390.7 50.6986 1390.89 51.2396 1391.35 51.4529C1394.08 52.74 1396.79 54.089 1399.45 55.4971C1399.9 55.7319 1400.44 55.5627 1400.68 55.1195C1400.55 55.0481 1400.41 54.9767 1400.28 54.9057C1400.14 54.8347 1400.01 54.7637 1399.88 54.6928C1397.2 53.2778 1394.48 51.9229 1391.73 50.6295C1391.6 50.5649 1391.46 50.5007 1391.32 50.4366C1391.19 50.372 1391.04 50.3083 1390.91 50.2441ZM1407.04 58.6687C1406.79 59.1014 1406.93 59.6583 1407.36 59.9126C1409.97 61.4472 1412.54 63.0396 1415.06 64.6893C1415.48 64.9636 1416.05 64.8458 1416.32 64.4263C1416.2 64.343 1416.07 64.2598 1415.94 64.1765C1415.81 64.0933 1415.69 64.01 1415.56 63.9272C1413.02 62.2702 1410.44 60.6701 1407.82 59.1287C1407.7 59.0518 1407.56 58.9749 1407.43 58.8985C1407.3 58.8216 1407.17 58.7451 1407.04 58.6687ZM1422.32 68.5469C1422.03 68.9546 1422.12 69.5224 1422.53 69.8158C1424.98 71.5824 1427.39 73.405 1429.76 75.2804C1430.15 75.5925 1430.72 75.527 1431.03 75.1348C1430.91 75.0397 1430.8 74.9451 1430.68 74.8509C1430.56 74.7563 1430.44 74.6617 1430.32 74.5675C1427.95 72.6835 1425.53 70.8527 1423.07 69.0774C1422.94 68.9887 1422.82 68.9004 1422.69 68.8117C1422.57 68.7234 1422.45 68.6352 1422.32 68.5469ZM1436.63 79.7896C1436.3 80.1686 1436.35 80.7423 1436.72 81.0721C1439 83.0558 1441.23 85.0917 1443.42 87.1773C1443.78 87.5235 1444.35 87.5112 1444.7 87.1491C1444.59 87.044 1444.49 86.9389 1444.38 86.8338C1444.27 86.7287 1444.15 86.624 1444.04 86.519C1441.85 84.4238 1439.61 82.3788 1437.32 80.3856C1437.21 80.2859 1437.09 80.1867 1436.98 80.0871C1436.86 79.9879 1436.75 79.8887 1436.63 79.7896ZM1449.85 92.2979C1449.49 92.6455 1449.48 93.2201 1449.82 93.5832C1451.91 95.767 1453.94 97.9986 1455.93 100.277C1456.26 100.655 1456.83 100.695 1457.21 100.366C1457.11 100.252 1457.01 100.137 1456.91 100.022C1456.81 99.9077 1456.71 99.7935 1456.61 99.6788C1454.62 97.3903 1452.57 95.1483 1450.48 92.9549C1450.38 92.8452 1450.27 92.7356 1450.17 92.626C1450.06 92.5168 1449.96 92.4071 1449.85 92.2979ZM1461.86 105.966C1461.47 106.279 1461.41 106.85 1461.72 107.243C1463.59 109.608 1465.42 112.017 1467.18 114.469C1467.48 114.876 1468.04 114.968 1468.45 114.676C1468.37 114.553 1468.28 114.429 1468.19 114.306C1468.1 114.183 1468.01 114.06 1467.92 113.937C1466.15 111.474 1464.32 109.053 1462.43 106.678C1462.34 106.559 1462.24 106.44 1462.15 106.322C1462.06 106.203 1461.96 106.085 1461.86 105.966ZM1472.57 120.68C1472.16 120.955 1472.04 121.518 1472.31 121.938C1473.96 124.464 1475.55 127.031 1477.09 129.636C1477.34 130.069 1477.9 130.213 1478.33 129.959C1478.25 129.828 1478.18 129.698 1478.1 129.567C1478.03 129.436 1477.95 129.305 1477.87 129.175C1476.33 126.557 1474.73 123.979 1473.07 121.441C1472.99 121.314 1472.91 121.187 1472.82 121.06C1472.74 120.933 1472.66 120.807 1472.57 120.68ZM1481.88 136.318C1481.44 136.553 1481.27 137.103 1481.5 137.547C1482.91 140.214 1484.26 142.916 1485.55 145.654C1485.76 146.108 1486.3 146.303 1486.76 146.091C1486.69 145.953 1486.63 145.815 1486.56 145.678C1486.5 145.541 1486.43 145.404 1486.37 145.266C1485.08 142.516 1483.72 139.801 1482.31 137.122C1482.24 136.988 1482.17 136.854 1482.09 136.72C1482.02 136.586 1481.95 136.452 1481.88 136.318ZM1489.7 152.751C1489.24 152.944 1489.02 153.476 1489.21 153.939C1490.36 156.723 1491.46 159.54 1492.48 162.387C1492.66 162.859 1493.18 163.104 1493.65 162.934C1493.6 162.791 1493.55 162.649 1493.49 162.506C1493.44 162.363 1493.39 162.22 1493.34 162.078C1492.31 159.217 1491.21 156.388 1490.05 153.591C1490 153.451 1489.94 153.311 1489.88 153.171C1489.82 153.031 1489.76 152.891 1489.7 152.751ZM1495.96 169.841C1495.48 169.99 1495.21 170.499 1495.36 170.978C1496.26 173.855 1497.08 176.761 1497.84 179.693C1497.97 180.179 1498.46 180.471 1498.94 180.346C1498.91 180.199 1498.87 180.052 1498.84 179.905C1498.79 179.758 1498.76 179.612 1498.72 179.465C1497.96 176.519 1497.13 173.6 1496.23 170.709C1496.19 170.564 1496.14 170.419 1496.1 170.275C1496.06 170.13 1496.01 169.985 1495.96 169.841ZM1500.61 187.434C1500.12 187.539 1499.8 188.02 1499.9 188.511C1500.52 191.456 1501.07 194.425 1501.56 197.416C1501.64 197.911 1502.11 198.248 1502.6 198.169C1502.58 198.019 1502.55 197.87 1502.53 197.72C1502.51 197.57 1502.48 197.42 1502.46 197.271C1501.97 194.265 1501.41 191.283 1500.8 188.324C1500.76 188.176 1500.73 188.028 1500.7 187.879C1500.67 187.731 1500.64 187.583 1500.61 187.434ZM1504.6 216.253C1504.59 216.102 1504.58 215.95 1504.56 215.799C1504.55 215.648 1504.55 215.496 1504.54 215.345C1504.33 212.305 1504.05 209.284 1503.7 206.284C1503.69 206.133 1503.67 205.983 1503.65 205.832C1503.64 205.681 1503.62 205.531 1503.6 205.38C1503.1 205.438 1502.74 205.889 1502.8 206.388C1503.14 209.374 1503.42 212.381 1503.63 215.407C1503.66 215.908 1504.09 216.286 1504.6 216.253Z" fill="white"/>
<path fill-rule="evenodd" clip-rule="evenodd" d="M1308 291.785C1342.68 291.785 1370.79 263.675 1370.79 229C1370.79 194.325 1342.68 166.215 1308 166.215C1273.32 166.215 1245.22 194.325 1245.22 229C1245.22 263.675 1273.32 291.785 1308 291.785ZM1308 337.282C1367.8 337.282 1416.28 288.802 1416.28 229C1416.28 169.198 1367.8 120.718 1308 120.718C1248.2 120.718 1199.72 169.198 1199.72 229C1199.72 288.802 1248.2 337.282 1308 337.282Z" fill="white"/>
</g>
<defs>
<clipPath id="clip0_2075_186">
<rect width="1440" height="1024" fill="white"/>
</clipPath>
</defs>
</svg>
