<svg width="106" height="106" viewBox="0 0 106 106" fill="none" xmlns="http://www.w3.org/2000/svg">
<circle cx="53" cy="53" r="53" fill="#FF5934"/>
<path d="M64.8 57.92L59.2 53.04V45.4C59.2 45.24 59.16 45.12 59.08 45L53.48 35.4C53.32 35.16 53.08 35 52.8 35C52.52 35 52.24 35.16 52.12 35.4L46.52 45C46.44 45.12 46.4 45.28 46.4 45.4V53.04L40.8 57.92C40.28 58.36 40 59.04 40 59.72V67C40 68.32 41.08 69.4 42.4 69.4H46.56C46.88 70.32 47.76 71 48.8 71H56.8C57.84 71 58.72 70.32 59.04 69.4H63.2C64.52 69.4 65.6 68.32 65.6 67V59.72C65.6 59.04 65.32 58.36 64.8 57.92ZM48 53.4V46.2H52V63.8H48V53.4ZM57 44.6H48.6L50 42.2H55.6L57 44.6ZM53.6 46.2H57.6V53.4V63.8H53.6V46.2ZM52.8 37.4L54.68 40.6H50.92L52.8 37.4ZM41.6 67V59.72C41.6 59.48 41.68 59.28 41.88 59.12L46.4 55.16V67.8H42.4C41.96 67.8 41.6 67.44 41.6 67ZM56.8 69.4H48.8C48.36 69.4 48 69.04 48 68.6V65.4H57.6V68.6C57.6 69.04 57.24 69.4 56.8 69.4ZM64 67C64 67.44 63.64 67.8 63.2 67.8H59.2V55.16L63.72 59.12C63.88 59.28 64 59.48 64 59.72V67Z" fill="white"/>
</svg>
