<svg width="106" height="106" viewBox="0 0 106 106" fill="none" xmlns="http://www.w3.org/2000/svg">
<circle cx="53" cy="53" r="53" fill="#FF5934"/>
<path d="M68 43.8H49.56C49.36 42.24 48 41 46.4 41H46.36C47.12 40.16 47.6 39.04 47.6 37.8C47.6 35.16 45.44 33 42.8 33C40.16 33 38 35.16 38 37.8C38 39.04 38.48 40.16 39.24 41H39.2C37.44 41 36 42.44 36 44.2V53C36 54.2 36.88 55.2 38.08 55.36L39.08 66.8C39.2 68.04 40.2 69 41.48 69H44.16C45.4 69 46.44 68.04 46.56 66.8L46.96 62.2H61.8L60.56 64.16C60.32 64.52 60.44 65.04 60.8 65.28C60.92 65.36 61.08 65.4 61.24 65.4C61.52 65.4 61.76 65.28 61.92 65.04L63.24 62.92L64.56 65.04C64.72 65.28 64.96 65.4 65.24 65.4C65.4 65.4 65.52 65.36 65.68 65.28C66.04 65.04 66.16 64.56 65.92 64.16L64.64 62.2H68C69.32 62.2 70.4 61.12 70.4 59.8V46.2C70.4 44.88 69.32 43.8 68 43.8ZM42.8 34.6C44.56 34.6 46 36.04 46 37.8C46 39.56 44.56 41 42.8 41C41.04 41 39.6 39.56 39.6 37.8C39.6 36.04 41.04 34.6 42.8 34.6ZM44.92 66.68C44.88 67.08 44.56 67.4 44.12 67.4H41.44C41.04 67.4 40.68 67.08 40.64 66.68L39.68 55.4H45.92L44.92 66.68ZM38.4 53.8C37.96 53.8 37.6 53.44 37.6 53V44.2C37.6 43.32 38.32 42.6 39.2 42.6H46.4C47.28 42.6 48 43.32 48 44.2V53C48 53.44 47.64 53.8 47.2 53.8H38.4ZM63.2 60.6C62.32 60.6 61.6 59.88 61.6 59C61.6 58.12 62.32 57.4 63.2 57.4C64.08 57.4 64.8 58.12 64.8 59C64.8 59.88 64.08 60.6 63.2 60.6ZM68.8 59.8C68.8 60.24 68.44 60.6 68 60.6H65.96C66.24 60.12 66.4 59.6 66.4 59C66.4 57.24 64.96 55.8 63.2 55.8C61.44 55.8 60 57.24 60 59C60 59.6 60.16 60.12 60.44 60.6H47.08L47.56 55.36C48.72 55.2 49.6 54.2 49.6 53V45.4H68C68.44 45.4 68.8 45.76 68.8 46.2V59.8ZM62.88 49.32C63.2 49.64 63.2 50.12 62.88 50.44C62.72 50.6 62.52 50.68 62.32 50.68C62.12 50.68 61.92 50.6 61.76 50.44C61.52 50.2 61.28 50.04 61.04 49.88C59.92 49.24 58.56 49.24 57.44 49.88C57.16 50.04 56.92 50.24 56.72 50.44C56.4 50.76 55.92 50.76 55.6 50.44C55.28 50.12 55.28 49.6 55.6 49.32C57.56 47.28 60.84 47.28 62.88 49.32Z" fill="white"/>
</svg>
