<svg width="163" height="49" viewBox="0 0 163 49" fill="none" xmlns="http://www.w3.org/2000/svg">
<path d="M37.1962 17.7295C37.1962 20.8047 34.7032 23.2977 31.6279 23.2977C28.5526 23.2977 26.0596 20.8047 26.0596 17.7295C26.0596 14.6542 28.5526 12.1612 31.6279 12.1612C34.7032 12.1612 37.1962 14.6542 37.1962 17.7295Z" fill="#502FD2"/>
<path fill-rule="evenodd" clip-rule="evenodd" d="M24.3223 48.6446C37.7552 48.6446 48.6446 37.7552 48.6446 24.3223C48.6446 10.8895 37.7552 0 24.3223 0C10.8895 0 0 10.8895 0 24.3223C0 37.7552 10.8895 48.6446 24.3223 48.6446ZM40.6708 17.7295C40.6708 22.7237 36.6222 26.7724 31.6279 26.7724C26.6337 26.7724 22.585 22.7237 22.585 17.7295C22.585 12.7352 26.6337 8.68654 31.6279 8.68654C36.6222 8.68654 40.6708 12.7352 40.6708 17.7295Z" fill="#502FD2"/>
<path d="M67.9886 36.578C66.3208 36.578 64.842 36.2222 63.5522 35.5106C62.2624 34.799 61.2506 33.7983 60.5168 32.5085C59.7829 31.2187 59.416 29.7288 59.416 28.0387C59.416 26.3264 59.7718 24.8032 60.4834 23.4689C61.2173 22.1347 62.2179 21.1006 63.4855 20.3668C64.7753 19.6107 66.2874 19.2327 68.0219 19.2327C69.6453 19.2327 71.0796 19.5885 72.3249 20.3001C73.5702 21.0117 74.5375 21.9901 75.2269 23.2354C75.9385 24.4585 76.2943 25.8261 76.2943 27.3383C76.2943 27.5829 76.2832 27.8386 76.261 28.1055C76.261 28.3723 76.2498 28.6503 76.2276 28.9394H63.6523C63.7412 30.2291 64.186 31.2409 64.9865 31.9748C65.8093 32.7086 66.7989 33.0755 67.9552 33.0755C68.8225 33.0755 69.5452 32.8865 70.1234 32.5085C70.7238 32.1082 71.1686 31.5967 71.4576 30.9741H75.794C75.4826 32.0193 74.9601 32.9755 74.2262 33.8427C73.5146 34.6878 72.6251 35.3549 71.5577 35.8441C70.5126 36.3333 69.3228 36.578 67.9886 36.578ZM68.0219 22.7017C66.9768 22.7017 66.0539 23.0019 65.2534 23.6023C64.4528 24.1805 63.9414 25.07 63.719 26.2709H71.958C71.8913 25.1812 71.491 24.314 70.7572 23.6691C70.0233 23.0242 69.1116 22.7017 68.0219 22.7017Z" fill="black"/>
<path d="M85.8228 36.578C84.2661 36.578 82.8763 36.1999 81.6532 35.4438C80.4301 34.6878 79.4628 33.6537 78.7512 32.3417C78.0396 31.0297 77.6838 29.5398 77.6838 27.872C77.6838 26.2041 78.0396 24.7253 78.7512 23.4356C79.4628 22.1236 80.4301 21.1006 81.6532 20.3668C82.8763 19.6107 84.2661 19.2327 85.8228 19.2327C87.0681 19.2327 88.1577 19.4662 89.0917 19.9332C90.0257 20.4001 90.7817 21.0562 91.3599 21.9012V12.1611H95.6295V36.1777H91.8269L91.3599 33.8094C90.8262 34.5432 90.1146 35.1881 89.2251 35.744C88.3578 36.3 87.2237 36.578 85.8228 36.578ZM86.7234 32.8421C88.1021 32.8421 89.2251 32.3862 90.0924 31.4744C90.9819 30.5405 91.4266 29.3508 91.4266 27.9053C91.4266 26.4599 90.9819 25.2813 90.0924 24.3695C89.2251 23.4356 88.1021 22.9686 86.7234 22.9686C85.3669 22.9686 84.2439 23.4244 83.3544 24.3362C82.4649 25.2479 82.0201 26.4265 82.0201 27.872C82.0201 29.3174 82.4649 30.5071 83.3544 31.4411C84.2439 32.3751 85.3669 32.8421 86.7234 32.8421Z" fill="black"/>
<path d="M104.514 36.578C102.446 36.578 100.845 35.9331 99.7104 34.6433C98.5986 33.3535 98.0426 31.4633 98.0426 28.9727V19.6329H102.279V28.5724C102.279 29.9956 102.568 31.0853 103.146 31.8414C103.724 32.5974 104.636 32.9755 105.881 32.9755C107.06 32.9755 108.027 32.553 108.783 31.7079C109.562 30.8629 109.951 29.6843 109.951 28.1722V19.6329H114.22V36.1777H110.451L110.118 33.3758C109.606 34.3542 108.861 35.1325 107.883 35.7107C106.927 36.2889 105.804 36.578 104.514 36.578Z" fill="black"/>
<path d="M116.936 36.1777V19.6329H120.705L121.072 21.8678C121.605 21.0673 122.306 20.4335 123.173 19.9665C124.063 19.4773 125.086 19.2327 126.242 19.2327C128.799 19.2327 130.612 20.2222 131.679 22.2014C132.28 21.2896 133.08 20.5669 134.081 20.0332C135.104 19.4995 136.216 19.2327 137.416 19.2327C139.573 19.2327 141.23 19.8776 142.386 21.1673C143.543 22.4571 144.121 24.3473 144.121 26.8379V36.1777H139.851V27.2382C139.851 25.815 139.573 24.7253 139.017 23.9693C138.484 23.2132 137.65 22.8352 136.516 22.8352C135.359 22.8352 134.425 23.2577 133.714 24.1027C133.024 24.9477 132.68 26.1263 132.68 27.6385V36.1777H128.41V27.2382C128.41 25.815 128.132 24.7253 127.576 23.9693C127.02 23.2132 126.164 22.8352 125.008 22.8352C123.874 22.8352 122.951 23.2577 122.239 24.1027C121.55 24.9477 121.205 26.1263 121.205 27.6385V36.1777H116.936Z" fill="black"/>
<path d="M154.446 36.578C152.844 36.578 151.399 36.211 150.109 35.4772C148.842 34.7434 147.83 33.7316 147.074 32.4418C146.34 31.1298 145.973 29.6176 145.973 27.9053C145.973 26.193 146.351 24.692 147.107 23.4022C147.863 22.0902 148.875 21.0673 150.143 20.3334C151.432 19.5996 152.878 19.2327 154.479 19.2327C156.058 19.2327 157.481 19.5996 158.749 20.3334C160.038 21.0673 161.05 22.0902 161.784 23.4022C162.54 24.692 162.918 26.193 162.918 27.9053C162.918 29.6176 162.54 31.1298 161.784 32.4418C161.05 33.7316 160.038 34.7434 158.749 35.4772C157.459 36.211 156.024 36.578 154.446 36.578ZM154.446 32.8754C155.557 32.8754 156.525 32.464 157.348 31.6412C158.17 30.7962 158.582 29.5509 158.582 27.9053C158.582 26.2597 158.17 25.0256 157.348 24.2028C156.525 23.3577 155.569 22.9352 154.479 22.9352C153.345 22.9352 152.366 23.3577 151.544 24.2028C150.743 25.0256 150.343 26.2597 150.343 27.9053C150.343 29.5509 150.743 30.7962 151.544 31.6412C152.366 32.464 153.334 32.8754 154.446 32.8754Z" fill="black"/>
</svg>
