<svg width="1440" height="353" viewBox="0 0 1440 353" fill="none" xmlns="http://www.w3.org/2000/svg">
<path d="M118.198 139.397C119.412 139.397 120.397 138.412 120.397 137.198C120.397 135.984 119.412 135 118.198 135C116.984 135 116 135.984 116 137.198C116 138.412 116.984 139.397 118.198 139.397Z" fill="#8EB7F1"/>
<path d="M118.198 171.638C119.412 171.638 120.397 170.654 120.397 169.44C120.397 168.226 119.412 167.241 118.198 167.241C116.984 167.241 116 168.226 116 169.44C116 170.654 116.984 171.638 118.198 171.638Z" fill="#8EB7F1"/>
<path d="M120.397 201.681C120.397 202.895 119.412 203.879 118.198 203.879C116.984 203.879 116 202.895 116 201.681C116 200.467 116.984 199.483 118.198 199.483C119.412 199.483 120.397 200.467 120.397 201.681Z" fill="#8EB7F1"/>
<path d="M118.198 155.517C119.412 155.517 120.397 154.533 120.397 153.319C120.397 152.105 119.412 151.121 118.198 151.121C116.984 151.121 116 152.105 116 153.319C116 154.533 116.984 155.517 118.198 155.517Z" fill="#8EB7F1"/>
<path d="M120.397 185.56C120.397 186.774 119.412 187.759 118.198 187.759C116.984 187.759 116 186.774 116 185.56C116 184.346 116.984 183.362 118.198 183.362C119.412 183.362 120.397 184.346 120.397 185.56Z" fill="#8EB7F1"/>
<path d="M118.198 220C119.412 220 120.397 219.016 120.397 217.802C120.397 216.588 119.412 215.603 118.198 215.603C116.984 215.603 116 216.588 116 217.802C116 219.016 116.984 220 118.198 220Z" fill="#8EB7F1"/>
<path d="M184.879 137.198C184.879 138.412 183.895 139.397 182.681 139.397C181.467 139.397 180.483 138.412 180.483 137.198C180.483 135.984 181.467 135 182.681 135C183.895 135 184.879 135.984 184.879 137.198Z" fill="#8EB7F1"/>
<path d="M182.681 171.638C183.895 171.638 184.879 170.654 184.879 169.44C184.879 168.226 183.895 167.241 182.681 167.241C181.467 167.241 180.483 168.226 180.483 169.44C180.483 170.654 181.467 171.638 182.681 171.638Z" fill="#8EB7F1"/>
<path d="M184.879 201.681C184.879 202.895 183.895 203.879 182.681 203.879C181.467 203.879 180.483 202.895 180.483 201.681C180.483 200.467 181.467 199.483 182.681 199.483C183.895 199.483 184.879 200.467 184.879 201.681Z" fill="#8EB7F1"/>
<path d="M182.681 155.517C183.895 155.517 184.879 154.533 184.879 153.319C184.879 152.105 183.895 151.121 182.681 151.121C181.467 151.121 180.483 152.105 180.483 153.319C180.483 154.533 181.467 155.517 182.681 155.517Z" fill="#8EB7F1"/>
<path d="M184.879 185.56C184.879 186.774 183.895 187.759 182.681 187.759C181.467 187.759 180.483 186.774 180.483 185.56C180.483 184.346 181.467 183.362 182.681 183.362C183.895 183.362 184.879 184.346 184.879 185.56Z" fill="#8EB7F1"/>
<path d="M182.681 220C183.895 220 184.879 219.016 184.879 217.802C184.879 216.588 183.895 215.603 182.681 215.603C181.467 215.603 180.483 216.588 180.483 217.802C180.483 219.016 181.467 220 182.681 220Z" fill="#8EB7F1"/>
<path d="M152.638 137.198C152.638 138.412 151.654 139.397 150.44 139.397C149.226 139.397 148.241 138.412 148.241 137.198C148.241 135.984 149.226 135 150.44 135C151.654 135 152.638 135.984 152.638 137.198Z" fill="#8EB7F1"/>
<path d="M150.44 171.638C151.654 171.638 152.638 170.654 152.638 169.44C152.638 168.226 151.654 167.241 150.44 167.241C149.226 167.241 148.241 168.226 148.241 169.44C148.241 170.654 149.226 171.638 150.44 171.638Z" fill="#8EB7F1"/>
<path d="M152.638 201.681C152.638 202.895 151.654 203.879 150.44 203.879C149.226 203.879 148.241 202.895 148.241 201.681C148.241 200.467 149.226 199.483 150.44 199.483C151.654 199.483 152.638 200.467 152.638 201.681Z" fill="#8EB7F1"/>
<path d="M150.44 155.517C151.654 155.517 152.638 154.533 152.638 153.319C152.638 152.105 151.654 151.121 150.44 151.121C149.226 151.121 148.241 152.105 148.241 153.319C148.241 154.533 149.226 155.517 150.44 155.517Z" fill="#8EB7F1"/>
<path d="M152.638 185.56C152.638 186.774 151.654 187.759 150.44 187.759C149.226 187.759 148.241 186.774 148.241 185.56C148.241 184.346 149.226 183.362 150.44 183.362C151.654 183.362 152.638 184.346 152.638 185.56Z" fill="#8EB7F1"/>
<path d="M150.44 220C151.654 220 152.638 219.016 152.638 217.802C152.638 216.588 151.654 215.603 150.44 215.603C149.226 215.603 148.241 216.588 148.241 217.802C148.241 219.016 149.226 220 150.44 220Z" fill="#8EB7F1"/>
<path d="M136.517 137.198C136.517 138.412 135.533 139.397 134.319 139.397C133.105 139.397 132.121 138.412 132.121 137.198C132.121 135.984 133.105 135 134.319 135C135.533 135 136.517 135.984 136.517 137.198Z" fill="#8EB7F1"/>
<path d="M134.319 171.638C135.533 171.638 136.517 170.654 136.517 169.44C136.517 168.226 135.533 167.241 134.319 167.241C133.105 167.241 132.121 168.226 132.121 169.44C132.121 170.654 133.105 171.638 134.319 171.638Z" fill="#8EB7F1"/>
<path d="M136.517 201.681C136.517 202.895 135.533 203.879 134.319 203.879C133.105 203.879 132.121 202.895 132.121 201.681C132.121 200.467 133.105 199.483 134.319 199.483C135.533 199.483 136.517 200.467 136.517 201.681Z" fill="#8EB7F1"/>
<path d="M134.319 155.517C135.533 155.517 136.517 154.533 136.517 153.319C136.517 152.105 135.533 151.121 134.319 151.121C133.105 151.121 132.121 152.105 132.121 153.319C132.121 154.533 133.105 155.517 134.319 155.517Z" fill="#8EB7F1"/>
<path d="M136.517 185.56C136.517 186.774 135.533 187.759 134.319 187.759C133.105 187.759 132.121 186.774 132.121 185.56C132.121 184.346 133.105 183.362 134.319 183.362C135.533 183.362 136.517 184.346 136.517 185.56Z" fill="#8EB7F1"/>
<path d="M134.319 220C135.533 220 136.517 219.016 136.517 217.802C136.517 216.588 135.533 215.603 134.319 215.603C133.105 215.603 132.121 216.588 132.121 217.802C132.121 219.016 133.105 220 134.319 220Z" fill="#8EB7F1"/>
<path d="M201 137.198C201 138.412 200.016 139.397 198.802 139.397C197.588 139.397 196.603 138.412 196.603 137.198C196.603 135.984 197.588 135 198.802 135C200.016 135 201 135.984 201 137.198Z" fill="#8EB7F1"/>
<path d="M198.802 171.638C200.016 171.638 201 170.654 201 169.44C201 168.226 200.016 167.241 198.802 167.241C197.588 167.241 196.603 168.226 196.603 169.44C196.603 170.654 197.588 171.638 198.802 171.638Z" fill="#8EB7F1"/>
<path d="M201 201.681C201 202.895 200.016 203.879 198.802 203.879C197.588 203.879 196.603 202.895 196.603 201.681C196.603 200.467 197.588 199.483 198.802 199.483C200.016 199.483 201 200.467 201 201.681Z" fill="#8EB7F1"/>
<path d="M198.802 155.517C200.016 155.517 201 154.533 201 153.319C201 152.105 200.016 151.121 198.802 151.121C197.588 151.121 196.603 152.105 196.603 153.319C196.603 154.533 197.588 155.517 198.802 155.517Z" fill="#8EB7F1"/>
<path d="M201 185.56C201 186.774 200.016 187.759 198.802 187.759C197.588 187.759 196.603 186.774 196.603 185.56C196.603 184.346 197.588 183.362 198.802 183.362C200.016 183.362 201 184.346 201 185.56Z" fill="#8EB7F1"/>
<path d="M198.802 220C200.016 220 201 219.016 201 217.802C201 216.588 200.016 215.603 198.802 215.603C197.588 215.603 196.603 216.588 196.603 217.802C196.603 219.016 197.588 220 198.802 220Z" fill="#8EB7F1"/>
<path d="M168.759 137.198C168.759 138.412 167.774 139.397 166.56 139.397C165.346 139.397 164.362 138.412 164.362 137.198C164.362 135.984 165.346 135 166.56 135C167.774 135 168.759 135.984 168.759 137.198Z" fill="#8EB7F1"/>
<path d="M166.56 171.638C167.774 171.638 168.759 170.654 168.759 169.44C168.759 168.226 167.774 167.241 166.56 167.241C165.346 167.241 164.362 168.226 164.362 169.44C164.362 170.654 165.346 171.638 166.56 171.638Z" fill="#8EB7F1"/>
<path d="M168.759 201.681C168.759 202.895 167.774 203.879 166.56 203.879C165.346 203.879 164.362 202.895 164.362 201.681C164.362 200.467 165.346 199.483 166.56 199.483C167.774 199.483 168.759 200.467 168.759 201.681Z" fill="#8EB7F1"/>
<path d="M166.56 155.517C167.774 155.517 168.759 154.533 168.759 153.319C168.759 152.105 167.774 151.121 166.56 151.121C165.346 151.121 164.362 152.105 164.362 153.319C164.362 154.533 165.346 155.517 166.56 155.517Z" fill="#8EB7F1"/>
<path d="M168.759 185.56C168.759 186.774 167.774 187.759 166.56 187.759C165.346 187.759 164.362 186.774 164.362 185.56C164.362 184.346 165.346 183.362 166.56 183.362C167.774 183.362 168.759 184.346 168.759 185.56Z" fill="#8EB7F1"/>
<path d="M166.56 220C167.774 220 168.759 219.016 168.759 217.802C168.759 216.588 167.774 215.603 166.56 215.603C165.346 215.603 164.362 216.588 164.362 217.802C164.362 219.016 165.346 220 166.56 220Z" fill="#8EB7F1"/>
<path d="M1337.29 96C1338.23 96 1339 96.7743 1339 97.7294C1339 98.6844 1338.23 99.4588 1337.29 99.4588C1336.34 99.4588 1335.58 98.6844 1335.58 97.7294C1335.58 96.7743 1336.34 96 1337.29 96Z" fill="#0054B1" fill-opacity="0.44"/>
<path d="M1337.29 122.425C1338.23 122.425 1339 123.199 1339 124.154C1339 125.109 1338.23 125.883 1337.29 125.883C1336.34 125.883 1335.58 125.109 1335.58 124.154C1335.58 123.199 1336.34 122.425 1337.29 122.425Z" fill="#0054B1" fill-opacity="0.44"/>
<path d="M1337.29 148.849C1338.23 148.849 1339 149.624 1339 150.579C1339 151.534 1338.23 152.308 1337.29 152.308C1336.34 152.308 1335.58 151.534 1335.58 150.579C1335.58 149.624 1336.34 148.849 1337.29 148.849Z" fill="#0054B1" fill-opacity="0.44"/>
<path d="M1337.29 175.274C1338.23 175.274 1339 176.048 1339 177.003C1339 177.958 1338.23 178.733 1337.29 178.733C1336.34 178.733 1335.58 177.958 1335.58 177.003C1335.58 176.048 1336.34 175.274 1337.29 175.274Z" fill="#0054B1" fill-opacity="0.44"/>
<path d="M1337.29 201.692C1338.23 201.692 1339 202.466 1339 203.421C1339 204.376 1338.23 205.151 1337.29 205.151C1336.34 205.151 1335.58 204.376 1335.58 203.421C1335.58 202.466 1336.34 201.692 1337.29 201.692Z" fill="#0054B1" fill-opacity="0.44"/>
<path d="M1337.29 228.117C1338.23 228.117 1339 228.891 1339 229.846C1339 230.801 1338.23 231.575 1337.29 231.575C1336.34 231.575 1335.58 230.801 1335.58 229.846C1335.58 228.891 1336.34 228.117 1337.29 228.117Z" fill="#0054B1" fill-opacity="0.44"/>
<path d="M1337.29 254.541C1338.23 254.541 1339 255.316 1339 256.271C1339 257.226 1338.23 258 1337.29 258C1336.34 258 1335.58 257.226 1335.58 256.271C1335.58 255.316 1336.34 254.541 1337.29 254.541Z" fill="#0054B1" fill-opacity="0.44"/>
<path d="M1318.03 96C1318.97 96 1319.74 96.7743 1319.74 97.7294C1319.74 98.6844 1318.97 99.4588 1318.03 99.4588C1317.08 99.4588 1316.31 98.6844 1316.31 97.7294C1316.31 96.7743 1317.08 96 1318.03 96Z" fill="#0054B1" fill-opacity="0.44"/>
<path d="M1318.03 122.425C1318.97 122.425 1319.74 123.199 1319.74 124.154C1319.74 125.109 1318.97 125.883 1318.03 125.883C1317.08 125.883 1316.31 125.109 1316.31 124.154C1316.31 123.199 1317.08 122.425 1318.03 122.425Z" fill="#0054B1" fill-opacity="0.44"/>
<path d="M1318.03 148.849C1318.97 148.849 1319.74 149.624 1319.74 150.579C1319.74 151.534 1318.97 152.308 1318.03 152.308C1317.08 152.308 1316.31 151.534 1316.31 150.579C1316.31 149.624 1317.08 148.849 1318.03 148.849Z" fill="#0054B1" fill-opacity="0.44"/>
<path d="M1318.03 175.274C1318.97 175.274 1319.74 176.048 1319.74 177.003C1319.74 177.958 1318.97 178.733 1318.03 178.733C1317.08 178.733 1316.31 177.958 1316.31 177.003C1316.31 176.048 1317.08 175.274 1318.03 175.274Z" fill="#0054B1" fill-opacity="0.44"/>
<path d="M1318.03 201.692C1318.97 201.692 1319.74 202.466 1319.74 203.421C1319.74 204.376 1318.97 205.151 1318.03 205.151C1317.08 205.151 1316.31 204.376 1316.31 203.421C1316.31 202.466 1317.08 201.692 1318.03 201.692Z" fill="#0054B1" fill-opacity="0.44"/>
<path d="M1318.03 228.117C1318.97 228.117 1319.74 228.891 1319.74 229.846C1319.74 230.801 1318.97 231.575 1318.03 231.575C1317.08 231.575 1316.31 230.801 1316.31 229.846C1316.31 228.891 1317.08 228.117 1318.03 228.117Z" fill="#0054B1" fill-opacity="0.44"/>
<path d="M1318.03 254.541C1318.97 254.541 1319.74 255.316 1319.74 256.271C1319.74 257.226 1318.97 258 1318.03 258C1317.08 258 1316.31 257.226 1316.31 256.271C1316.31 255.316 1317.08 254.541 1318.03 254.541Z" fill="#0054B1" fill-opacity="0.44"/>
<path d="M1298.76 96C1299.71 96 1300.48 96.7743 1300.48 97.7294C1300.48 98.6844 1299.71 99.4588 1298.76 99.4588C1297.82 99.4588 1297.05 98.6844 1297.05 97.7294C1297.05 96.7743 1297.82 96 1298.76 96Z" fill="#0054B1" fill-opacity="0.44"/>
<path d="M1298.76 122.425C1299.71 122.425 1300.48 123.199 1300.48 124.154C1300.48 125.109 1299.71 125.883 1298.76 125.883C1297.82 125.883 1297.05 125.109 1297.05 124.154C1297.05 123.199 1297.82 122.425 1298.76 122.425Z" fill="#0054B1" fill-opacity="0.44"/>
<path d="M1300.48 150.579C1300.48 149.623 1299.71 148.849 1298.76 148.849C1297.82 148.849 1297.05 149.623 1297.05 150.579C1297.05 151.534 1297.82 152.308 1298.76 152.308C1299.71 152.308 1300.48 151.534 1300.48 150.579Z" fill="#0054B1" fill-opacity="0.44"/>
<path d="M1300.48 176.997C1300.48 176.042 1299.71 175.267 1298.76 175.267C1297.82 175.267 1297.05 176.042 1297.05 176.997C1297.05 177.952 1297.82 178.726 1298.76 178.726C1299.71 178.726 1300.48 177.952 1300.48 176.997Z" fill="#0054B1" fill-opacity="0.44"/>
<path d="M1298.76 201.692C1299.71 201.692 1300.48 202.466 1300.48 203.421C1300.48 204.376 1299.71 205.151 1298.76 205.151C1297.82 205.151 1297.05 204.376 1297.05 203.421C1297.05 202.466 1297.82 201.692 1298.76 201.692Z" fill="#0054B1" fill-opacity="0.44"/>
<path d="M1298.76 228.117C1299.71 228.117 1300.48 228.891 1300.48 229.846C1300.48 230.801 1299.71 231.575 1298.76 231.575C1297.82 231.575 1297.05 230.801 1297.05 229.846C1297.05 228.891 1297.82 228.117 1298.76 228.117Z" fill="#0054B1" fill-opacity="0.44"/>
<path d="M1298.76 254.541C1299.71 254.541 1300.48 255.316 1300.48 256.271C1300.48 257.226 1299.71 258 1298.76 258C1297.82 258 1297.05 257.226 1297.05 256.271C1297.05 255.316 1297.82 254.541 1298.76 254.541Z" fill="#0054B1" fill-opacity="0.44"/>
<path d="M1279.5 96C1280.45 96 1281.22 96.7743 1281.22 97.7294C1281.22 98.6844 1280.45 99.4588 1279.5 99.4588C1278.56 99.4588 1277.79 98.6844 1277.79 97.7294C1277.79 96.7743 1278.56 96 1279.5 96Z" fill="#0054B1" fill-opacity="0.44"/>
<path d="M1279.5 122.425C1280.45 122.425 1281.22 123.199 1281.22 124.154C1281.22 125.109 1280.45 125.883 1279.5 125.883C1278.56 125.883 1277.79 125.109 1277.79 124.154C1277.79 123.199 1278.56 122.425 1279.5 122.425Z" fill="#0054B1" fill-opacity="0.44"/>
<path d="M1279.5 148.849C1280.45 148.849 1281.22 149.624 1281.22 150.579C1281.22 151.534 1280.45 152.308 1279.5 152.308C1278.56 152.308 1277.79 151.534 1277.79 150.579C1277.79 149.624 1278.56 148.849 1279.5 148.849Z" fill="#0054B1" fill-opacity="0.44"/>
<path d="M1279.5 175.274C1280.45 175.274 1281.22 176.048 1281.22 177.003C1281.22 177.958 1280.45 178.733 1279.5 178.733C1278.56 178.733 1277.79 177.958 1277.79 177.003C1277.79 176.048 1278.56 175.274 1279.5 175.274Z" fill="#0054B1" fill-opacity="0.44"/>
<path d="M1279.5 201.692C1280.45 201.692 1281.22 202.466 1281.22 203.421C1281.22 204.376 1280.45 205.151 1279.5 205.151C1278.56 205.151 1277.79 204.376 1277.79 203.421C1277.79 202.466 1278.56 201.692 1279.5 201.692Z" fill="#0054B1" fill-opacity="0.44"/>
<path d="M1279.5 228.117C1280.45 228.117 1281.22 228.891 1281.22 229.846C1281.22 230.801 1280.45 231.575 1279.5 231.575C1278.56 231.575 1277.79 230.801 1277.79 229.846C1277.79 228.891 1278.56 228.117 1279.5 228.117Z" fill="#0054B1" fill-opacity="0.44"/>
<path d="M1279.5 254.541C1280.45 254.541 1281.22 255.316 1281.22 256.271C1281.22 257.226 1280.45 258 1279.5 258C1278.56 258 1277.79 257.226 1277.79 256.271C1277.79 255.316 1278.56 254.541 1279.5 254.541Z" fill="#0054B1" fill-opacity="0.44"/>
<path d="M1260.24 96C1261.19 96 1261.95 96.7743 1261.95 97.7294C1261.95 98.6844 1261.19 99.4588 1260.24 99.4588C1259.3 99.4588 1258.53 98.6844 1258.53 97.7294C1258.53 96.7743 1259.3 96 1260.24 96Z" fill="#0054B1" fill-opacity="0.44"/>
<path d="M1260.24 122.425C1261.19 122.425 1261.95 123.199 1261.95 124.154C1261.95 125.109 1261.19 125.883 1260.24 125.883C1259.3 125.883 1258.53 125.109 1258.53 124.154C1258.53 123.199 1259.3 122.425 1260.24 122.425Z" fill="#0054B1" fill-opacity="0.44"/>
<path d="M1260.24 148.849C1261.19 148.849 1261.95 149.624 1261.95 150.579C1261.95 151.534 1261.19 152.308 1260.24 152.308C1259.3 152.308 1258.53 151.534 1258.53 150.579C1258.53 149.624 1259.3 148.849 1260.24 148.849Z" fill="#0054B1" fill-opacity="0.44"/>
<path d="M1260.24 175.274C1261.19 175.274 1261.95 176.048 1261.95 177.003C1261.95 177.958 1261.19 178.733 1260.24 178.733C1259.3 178.733 1258.53 177.958 1258.53 177.003C1258.53 176.048 1259.3 175.274 1260.24 175.274Z" fill="#0054B1" fill-opacity="0.44"/>
<path d="M1260.24 201.692C1261.19 201.692 1261.95 202.466 1261.95 203.421C1261.95 204.376 1261.19 205.151 1260.24 205.151C1259.3 205.151 1258.53 204.376 1258.53 203.421C1258.53 202.466 1259.3 201.692 1260.24 201.692Z" fill="#0054B1" fill-opacity="0.44"/>
<path d="M1260.24 228.117C1261.19 228.117 1261.95 228.891 1261.95 229.846C1261.95 230.801 1261.19 231.575 1260.24 231.575C1259.3 231.575 1258.53 230.801 1258.53 229.846C1258.53 228.891 1259.3 228.117 1260.24 228.117Z" fill="#0054B1" fill-opacity="0.44"/>
<path d="M1260.24 254.541C1261.19 254.541 1261.95 255.316 1261.95 256.271C1261.95 257.226 1261.19 258 1260.24 258C1259.3 258 1258.53 257.226 1258.53 256.271C1258.53 255.316 1259.3 254.541 1260.24 254.541Z" fill="#0054B1" fill-opacity="0.44"/>
<path d="M1240.98 96C1241.93 96 1242.69 96.7743 1242.69 97.7294C1242.69 98.6844 1241.93 99.4588 1240.98 99.4588C1240.03 99.4588 1239.27 98.6844 1239.27 97.7294C1239.27 96.7743 1240.03 96 1240.98 96Z" fill="#0054B1" fill-opacity="0.44"/>
<path d="M1240.98 122.425C1241.93 122.425 1242.69 123.199 1242.69 124.154C1242.69 125.109 1241.93 125.883 1240.98 125.883C1240.03 125.883 1239.27 125.109 1239.27 124.154C1239.27 123.199 1240.03 122.425 1240.98 122.425Z" fill="#0054B1" fill-opacity="0.44"/>
<path d="M1240.98 148.849C1241.93 148.849 1242.69 149.624 1242.69 150.579C1242.69 151.534 1241.93 152.308 1240.98 152.308C1240.03 152.308 1239.27 151.534 1239.27 150.579C1239.27 149.624 1240.03 148.849 1240.98 148.849Z" fill="#0054B1" fill-opacity="0.44"/>
<path d="M1240.98 175.274C1241.93 175.274 1242.69 176.048 1242.69 177.003C1242.69 177.958 1241.93 178.733 1240.98 178.733C1240.03 178.733 1239.27 177.958 1239.27 177.003C1239.27 176.048 1240.03 175.274 1240.98 175.274Z" fill="#0054B1" fill-opacity="0.44"/>
<path d="M1240.98 201.692C1241.93 201.692 1242.69 202.466 1242.69 203.421C1242.69 204.376 1241.93 205.151 1240.98 205.151C1240.03 205.151 1239.27 204.376 1239.27 203.421C1239.27 202.466 1240.03 201.692 1240.98 201.692Z" fill="#0054B1" fill-opacity="0.44"/>
<path d="M1240.98 228.117C1241.93 228.117 1242.69 228.891 1242.69 229.846C1242.69 230.801 1241.93 231.575 1240.98 231.575C1240.03 231.575 1239.27 230.801 1239.27 229.846C1239.27 228.891 1240.03 228.117 1240.98 228.117Z" fill="#0054B1" fill-opacity="0.44"/>
<path d="M1240.98 254.541C1241.93 254.541 1242.69 255.316 1242.69 256.271C1242.69 257.226 1241.93 258 1240.98 258C1240.03 258 1239.27 257.226 1239.27 256.271C1239.27 255.316 1240.03 254.541 1240.98 254.541Z" fill="#0054B1" fill-opacity="0.44"/>
<path d="M1221.71 96C1222.66 96 1223.42 96.7743 1223.42 97.7294C1223.42 98.6844 1222.66 99.4588 1221.71 99.4588C1220.77 99.4588 1220 98.6844 1220 97.7294C1220.01 96.7743 1220.77 96 1221.71 96Z" fill="#0054B1" fill-opacity="0.44"/>
<path d="M1221.71 122.425C1222.66 122.425 1223.42 123.199 1223.42 124.154C1223.42 125.109 1222.66 125.883 1221.71 125.883C1220.77 125.883 1220 125.109 1220 124.154C1220.01 123.199 1220.77 122.425 1221.71 122.425Z" fill="#0054B1" fill-opacity="0.44"/>
<path d="M1223.42 150.579C1223.42 149.623 1222.66 148.849 1221.71 148.849C1220.77 148.849 1220 149.623 1220 150.579C1220 151.534 1220.77 152.308 1221.71 152.308C1222.66 152.308 1223.42 151.534 1223.42 150.579Z" fill="#0054B1" fill-opacity="0.44"/>
<path d="M1223.42 176.997C1223.42 176.042 1222.66 175.267 1221.71 175.267C1220.77 175.267 1220 176.042 1220 176.997C1220 177.952 1220.77 178.726 1221.71 178.726C1222.66 178.726 1223.42 177.952 1223.42 176.997Z" fill="#0054B1" fill-opacity="0.44"/>
<path d="M1221.71 201.692C1222.66 201.692 1223.42 202.466 1223.42 203.421C1223.42 204.376 1222.66 205.151 1221.71 205.151C1220.77 205.151 1220 204.376 1220 203.421C1220 202.466 1220.77 201.692 1221.71 201.692Z" fill="#0054B1" fill-opacity="0.44"/>
<path d="M1221.71 228.117C1222.66 228.117 1223.42 228.891 1223.42 229.846C1223.42 230.801 1222.66 231.575 1221.71 231.575C1220.77 231.575 1220 230.801 1220 229.846C1220.01 228.891 1220.77 228.117 1221.71 228.117Z" fill="#0054B1" fill-opacity="0.44"/>
<path d="M1221.71 254.541C1222.66 254.541 1223.42 255.316 1223.42 256.271C1223.42 257.226 1222.66 258 1221.71 258C1220.77 258 1220 257.226 1220 256.271C1220.01 255.316 1220.77 254.541 1221.71 254.541Z" fill="#0054B1" fill-opacity="0.44"/>
</svg>
