<svg width="106" height="106" viewBox="0 0 106 106" fill="none" xmlns="http://www.w3.org/2000/svg">
<ellipse cx="52.5047" cy="53" rx="52.5047" ry="53" fill="#FF5934"/>
<path d="M64.8176 38H40.5664C38.6049 38 37 39.62 37 41.6V61.4C37 63.38 38.6049 65 40.5664 65H47.3424V67.16H44.846C44.4537 67.16 44.1327 67.484 44.1327 67.88C44.1327 68.276 44.4537 68.6 44.846 68.6H48.0557H57.3282H60.5379C60.9302 68.6 61.2512 68.276 61.2512 67.88C61.2512 67.484 60.9302 67.16 60.5379 67.16H58.0415V65H64.8176C66.7791 65 68.3839 63.38 68.3839 61.4V41.6C68.3839 39.62 66.7791 38 64.8176 38ZM40.5664 39.44H64.8176C65.9945 39.44 66.9574 40.412 66.9574 41.6V60.32H64.8176V42.32C64.8176 41.924 64.4966 41.6 64.1043 41.6H41.2796C40.8873 41.6 40.5664 41.924 40.5664 42.32V60.32H38.4265V41.6C38.4265 40.412 39.3895 39.44 40.5664 39.44ZM41.9929 60.32V52.4H51.9787V60.32H41.9929ZM63.391 43.04V50.96H53.4052V43.04H63.391ZM51.9787 50.96H41.9929V43.04H51.9787V50.96ZM53.4052 52.4H63.391V60.32H53.4052V52.4ZM56.615 67.16H48.769V65H56.615V67.16ZM64.8176 63.56H57.3282H48.0557H40.5664C39.4964 63.56 38.6405 62.768 38.4622 61.76H41.2796H64.1043H66.9217C66.7434 62.768 65.8875 63.56 64.8176 63.56ZM44.4893 47C44.4893 46.604 44.8103 46.28 45.2026 46.28H46.2725V45.2C46.2725 44.804 46.5935 44.48 46.9858 44.48C47.3781 44.48 47.6991 44.804 47.6991 45.2V46.28H48.769C49.1613 46.28 49.4822 46.604 49.4822 47C49.4822 47.396 49.1613 47.72 48.769 47.72H47.6991V48.8C47.6991 49.196 47.3781 49.52 46.9858 49.52C46.5935 49.52 46.2725 49.196 46.2725 48.8V47.72H45.2026C44.8103 47.72 44.4893 47.396 44.4893 47ZM56.1157 45.704C55.8304 45.416 55.8304 44.984 56.1157 44.696C56.401 44.408 56.8289 44.408 57.1142 44.696L58.3981 45.992L59.682 44.696C59.9673 44.408 60.3953 44.408 60.6806 44.696C60.9659 44.984 60.9659 45.416 60.6806 45.704L59.3967 47L60.6806 48.296C60.9659 48.584 60.9659 49.016 60.6806 49.304C60.5379 49.448 60.3596 49.52 60.1813 49.52C60.003 49.52 59.8247 49.448 59.682 49.304L58.3981 48.008L57.1142 49.304C56.9716 49.448 56.7933 49.52 56.615 49.52C56.4366 49.52 56.2583 49.448 56.1157 49.304C55.8304 49.016 55.8304 48.584 56.1157 48.296L57.3996 47L56.1157 45.704ZM49.4822 56.36C49.4822 56.756 49.1613 57.08 48.769 57.08H45.2026C44.8103 57.08 44.4893 56.756 44.4893 56.36C44.4893 55.964 44.8103 55.64 45.2026 55.64H48.769C49.1613 55.64 49.4822 55.964 49.4822 56.36ZM60.6806 54.056C60.9659 54.344 60.9659 54.776 60.6806 55.064L57.1142 58.664C56.9716 58.808 56.7933 58.88 56.615 58.88C56.4366 58.88 56.2583 58.808 56.1157 58.664C55.8304 58.376 55.8304 57.944 56.1157 57.656L59.682 54.056C59.9673 53.768 60.3953 53.768 60.6806 54.056V54.056Z" fill="white"/>
</svg>
