<svg width="1440" height="863" viewBox="0 0 1440 863" fill="none" xmlns="http://www.w3.org/2000/svg">
<path fill-rule="evenodd" clip-rule="evenodd" d="M1793.89 369.173C1793.89 368.896 1793.9 368.619 1793.91 368.342C1793.97 365.569 1794 362.788 1794 360C1794 357.212 1793.97 354.431 1793.91 351.658C1793.9 351.381 1793.89 351.104 1793.89 350.827C1793.88 350.549 1793.87 350.272 1793.86 349.995C1792.95 350.018 1792.22 350.779 1792.24 351.696C1792.31 354.456 1792.34 357.224 1792.34 360C1792.34 362.776 1792.31 365.544 1792.24 368.304C1792.22 369.221 1792.95 369.982 1793.86 370.004C1793.87 369.728 1793.88 369.45 1793.89 369.173ZM1793.26 383.294C1792.34 383.234 1791.55 383.925 1791.49 384.84C1791.11 390.369 1790.61 395.864 1789.98 401.322C1789.88 402.233 1790.53 403.057 1791.44 403.163C1791.47 402.888 1791.5 402.613 1791.54 402.338C1791.57 402.062 1791.6 401.787 1791.63 401.512C1792.26 396.029 1792.77 390.508 1793.15 384.953C1793.17 384.677 1793.19 384.4 1793.2 384.124C1793.22 383.847 1793.24 383.571 1793.26 383.294ZM1789.62 416.341C1788.71 416.196 1787.86 416.812 1787.71 417.717C1786.83 423.183 1785.82 428.609 1784.69 433.989C1784.5 434.887 1785.08 435.767 1785.97 435.957C1786.03 435.687 1786.09 435.415 1786.15 435.144C1786.2 434.873 1786.26 434.602 1786.32 434.331C1787.45 428.925 1788.47 423.475 1789.36 417.983C1789.4 417.709 1789.44 417.435 1789.49 417.162C1789.53 416.888 1789.57 416.614 1789.62 416.341ZM1782.94 448.911C1782.05 448.683 1781.14 449.217 1780.91 450.104C1779.53 455.463 1778.02 460.772 1776.39 466.03C1776.12 466.906 1776.61 467.836 1777.49 468.109C1777.57 467.844 1777.65 467.58 1777.73 467.315C1777.82 467.051 1777.9 466.786 1777.98 466.521C1779.61 461.239 1781.13 455.904 1782.52 450.521C1782.59 450.253 1782.66 449.985 1782.73 449.716C1782.8 449.448 1782.87 449.179 1782.94 448.911ZM1773.26 480.729C1772.39 480.42 1771.44 480.867 1771.13 481.73C1769.25 486.932 1767.26 492.079 1765.15 497.167C1764.8 498.014 1765.2 498.985 1766.04 499.338C1766.15 499.083 1766.26 498.827 1766.36 498.571C1766.47 498.316 1766.58 498.06 1766.68 497.804C1768.8 492.692 1770.81 487.521 1772.7 482.294C1772.79 482.034 1772.88 481.773 1772.98 481.512C1773.07 481.251 1773.16 480.99 1773.26 480.729ZM1760.66 511.51C1759.83 511.121 1758.84 511.478 1758.45 512.308C1756.1 517.311 1753.63 522.25 1751.06 527.123C1750.63 527.933 1750.94 528.938 1751.75 529.368C1751.88 529.123 1752.01 528.879 1752.14 528.634C1752.27 528.389 1752.4 528.144 1752.53 527.899C1755.12 523.004 1757.59 518.042 1759.96 513.016C1760.07 512.765 1760.19 512.514 1760.31 512.263C1760.43 512.012 1760.54 511.761 1760.66 511.51ZM1745.27 540.987C1744.47 540.524 1743.46 540.788 1742.99 541.578C1740.19 546.339 1737.28 551.029 1734.26 555.646C1733.76 556.414 1733.98 557.442 1734.74 557.945C1734.9 557.714 1735.05 557.482 1735.2 557.25C1735.35 557.019 1735.5 556.787 1735.66 556.555C1738.68 551.917 1741.61 547.205 1744.42 542.422C1744.57 542.183 1744.71 541.944 1744.85 541.705C1744.99 541.466 1745.13 541.227 1745.27 540.987ZM1727.21 568.917C1726.47 568.382 1725.43 568.552 1724.9 569.296C1721.67 573.776 1718.34 578.178 1714.91 582.5C1714.34 583.218 1714.46 584.262 1715.18 584.833C1715.35 584.617 1715.52 584.401 1715.69 584.184C1715.87 583.967 1716.04 583.75 1716.21 583.533C1719.65 579.191 1723 574.769 1726.24 570.268C1726.41 570.043 1726.57 569.818 1726.73 569.593C1726.89 569.368 1727.05 569.142 1727.21 568.917ZM1706.67 595.066C1705.98 594.466 1704.93 594.539 1704.33 595.231C1700.7 599.394 1696.98 603.472 1693.17 607.462C1692.54 608.125 1692.56 609.176 1693.22 609.811C1693.41 609.611 1693.6 609.411 1693.8 609.211C1693.99 609.011 1694.18 608.811 1694.37 608.611C1698.2 604.602 1701.94 600.505 1705.58 596.323C1705.76 596.114 1705.94 595.905 1706.12 595.695C1706.31 595.486 1706.49 595.276 1706.67 595.066ZM1683.81 619.22C1683.18 618.559 1682.13 618.535 1681.46 619.169C1677.47 622.98 1673.39 626.7 1669.23 630.325C1668.54 630.928 1668.47 631.976 1669.07 632.669C1669.28 632.488 1669.49 632.306 1669.7 632.125C1669.9 631.943 1670.11 631.761 1670.32 631.579C1674.5 627.937 1678.6 624.2 1682.61 620.371C1682.81 620.18 1683.01 619.988 1683.21 619.796C1683.41 619.604 1683.61 619.412 1683.81 619.22ZM1658.83 641.175C1658.26 640.458 1657.22 640.339 1656.5 640.909C1652.18 644.336 1647.78 647.666 1643.3 650.895C1642.55 651.432 1642.38 652.469 1642.92 653.213C1643.14 653.052 1643.37 652.891 1643.59 652.73C1643.82 652.568 1644.04 652.406 1644.27 652.244C1648.77 649 1653.19 645.655 1657.53 642.211C1657.75 642.039 1657.97 641.867 1658.18 641.694C1658.4 641.521 1658.62 641.348 1658.83 641.175ZM1631.95 660.743C1631.44 659.977 1630.41 659.762 1629.65 660.263C1625.03 663.278 1620.34 666.188 1615.58 668.992C1614.79 669.457 1614.52 670.474 1614.99 671.265C1615.23 671.126 1615.47 670.986 1615.71 670.846C1615.94 670.706 1616.18 670.565 1616.42 670.425C1621.21 667.608 1625.92 664.684 1630.55 661.656C1630.79 661.504 1631.02 661.352 1631.25 661.2C1631.48 661.048 1631.71 660.896 1631.95 660.743ZM1603.37 677.751C1602.94 676.942 1601.93 676.632 1601.12 677.061C1596.25 679.635 1591.31 682.099 1586.31 684.452C1585.48 684.842 1585.12 685.83 1585.51 686.66C1585.76 686.544 1586.01 686.427 1586.26 686.309C1586.51 686.192 1586.77 686.074 1587.02 685.956C1592.04 683.593 1597 681.117 1601.9 678.531C1602.14 678.402 1602.39 678.272 1602.63 678.142C1602.88 678.012 1603.12 677.882 1603.37 677.751ZM1573.34 692.042C1572.99 691.197 1572.01 690.796 1571.17 691.147C1566.08 693.257 1560.93 695.253 1555.73 697.132C1554.87 697.443 1554.42 698.394 1554.73 699.257C1554.99 699.164 1555.25 699.071 1555.51 698.977C1555.77 698.884 1556.03 698.79 1556.29 698.696C1561.52 696.808 1566.69 694.803 1571.8 692.683C1572.06 692.577 1572.32 692.47 1572.57 692.364C1572.83 692.257 1573.08 692.15 1573.34 692.042ZM1542.11 703.485C1541.84 702.61 1540.91 702.121 1540.03 702.391C1534.77 704.018 1529.46 705.526 1524.1 706.914C1523.22 707.144 1522.68 708.049 1522.91 708.937C1523.18 708.869 1523.45 708.8 1523.72 708.731C1523.98 708.663 1524.25 708.593 1524.52 708.524C1529.9 707.13 1535.24 705.614 1540.52 703.98C1540.79 703.898 1541.05 703.816 1541.32 703.733C1541.58 703.651 1541.84 703.568 1542.11 703.485ZM1509.96 711.972C1509.77 711.076 1508.89 710.502 1507.99 710.69C1502.61 711.82 1497.18 712.828 1491.72 713.714C1490.81 713.86 1490.2 714.712 1490.34 715.617C1490.61 715.574 1490.89 715.531 1491.16 715.487C1491.44 715.443 1491.71 715.399 1491.98 715.355C1497.47 714.466 1502.93 713.452 1508.33 712.318C1508.6 712.261 1508.87 712.203 1509.14 712.146C1509.42 712.088 1509.69 712.03 1509.96 711.972ZM1477.16 717.439C1477.06 716.529 1476.23 715.876 1475.32 715.981C1469.86 716.607 1464.37 717.111 1458.84 717.49C1457.92 717.552 1457.23 718.344 1457.29 719.258C1457.57 719.241 1457.85 719.223 1458.12 719.205C1458.4 719.186 1458.68 719.168 1458.95 719.149C1464.51 718.768 1470.03 718.262 1475.51 717.633C1475.79 717.601 1476.06 717.569 1476.34 717.537C1476.61 717.504 1476.89 717.472 1477.16 717.439ZM1444 719.864C1443.98 718.947 1443.22 718.222 1442.3 718.243C1439.54 718.306 1436.78 718.337 1434 718.337C1431.22 718.337 1428.46 718.306 1425.7 718.243C1424.78 718.222 1424.02 718.947 1424 719.864C1424.27 719.871 1424.55 719.878 1424.83 719.885C1425.1 719.892 1425.38 719.899 1425.66 719.905C1428.43 719.968 1431.21 720 1434 720C1436.79 720 1439.57 719.968 1442.34 719.905C1442.62 719.899 1442.9 719.892 1443.17 719.885C1443.45 719.878 1443.73 719.871 1444 719.864ZM1410.71 719.258C1410.77 718.344 1410.08 717.552 1409.16 717.49C1403.63 717.111 1398.14 716.607 1392.68 715.981C1391.77 715.876 1390.94 716.529 1390.84 717.439C1391.11 717.472 1391.39 717.504 1391.66 717.537C1391.94 717.569 1392.21 717.601 1392.49 717.633C1397.97 718.262 1403.49 718.768 1409.05 719.149C1409.32 719.168 1409.6 719.186 1409.88 719.205C1410.15 719.223 1410.43 719.241 1410.71 719.258ZM1377.66 715.617C1377.8 714.712 1377.19 713.86 1376.28 713.714C1370.82 712.828 1365.39 711.82 1360.01 710.69C1359.11 710.502 1358.23 711.076 1358.04 711.972C1358.31 712.03 1358.58 712.088 1358.86 712.146C1359.13 712.203 1359.4 712.261 1359.67 712.318C1365.07 713.452 1370.53 714.466 1376.02 715.355C1376.29 715.399 1376.56 715.443 1376.84 715.487C1377.11 715.531 1377.39 715.574 1377.66 715.617ZM1345.09 708.937C1345.32 708.049 1344.78 707.144 1343.9 706.914C1338.54 705.526 1333.23 704.018 1327.97 702.391C1327.09 702.121 1326.16 702.61 1325.89 703.485C1326.16 703.568 1326.42 703.651 1326.68 703.733C1326.95 703.816 1327.21 703.898 1327.48 703.98C1332.76 705.614 1338.1 707.13 1343.48 708.524C1343.75 708.593 1344.02 708.663 1344.28 708.731C1344.55 708.8 1344.82 708.869 1345.09 708.937ZM1313.27 699.257C1313.58 698.394 1313.13 697.443 1312.27 697.132C1307.07 695.253 1301.92 693.257 1296.83 691.147C1295.99 690.796 1295.01 691.197 1294.66 692.042C1294.92 692.15 1295.17 692.257 1295.43 692.364C1295.68 692.47 1295.94 692.577 1296.2 692.683C1301.31 694.803 1306.48 696.808 1311.71 698.696C1311.97 698.79 1312.23 698.884 1312.49 698.977C1312.75 699.071 1313.01 699.164 1313.27 699.257ZM1282.49 686.66C1282.88 685.83 1282.52 684.842 1281.69 684.452C1276.69 682.099 1271.75 679.635 1266.88 677.061C1266.07 676.632 1265.06 676.942 1264.63 677.751C1264.88 677.882 1265.12 678.012 1265.37 678.142C1265.61 678.272 1265.86 678.402 1266.1 678.531C1271 681.117 1275.96 683.593 1280.98 685.956C1281.23 686.074 1281.49 686.192 1281.74 686.309C1281.99 686.427 1282.24 686.544 1282.49 686.66ZM1253.01 671.265C1253.48 670.474 1253.21 669.457 1252.42 668.992C1247.66 666.188 1242.97 663.278 1238.35 660.263C1237.59 659.762 1236.56 659.977 1236.05 660.743C1236.29 660.896 1236.52 661.048 1236.75 661.2C1236.98 661.352 1237.21 661.504 1237.45 661.656C1242.08 664.684 1246.8 667.608 1251.58 670.425C1251.82 670.565 1252.06 670.706 1252.29 670.846C1252.53 670.986 1252.77 671.126 1253.01 671.265ZM1225.08 653.213C1225.62 652.469 1225.45 651.432 1224.7 650.895C1220.22 647.666 1215.82 644.336 1211.5 640.909C1210.78 640.339 1209.74 640.458 1209.17 641.175C1209.38 641.348 1209.6 641.521 1209.82 641.694C1210.03 641.867 1210.25 642.039 1210.47 642.211C1214.81 645.655 1219.23 649 1223.73 652.244C1223.96 652.406 1224.18 652.568 1224.41 652.73C1224.63 652.891 1224.86 653.052 1225.08 653.213ZM1198.93 632.669C1199.53 631.976 1199.46 630.928 1198.77 630.325C1194.61 626.7 1190.53 622.98 1186.54 619.169C1185.87 618.535 1184.82 618.559 1184.19 619.22C1184.39 619.412 1184.59 619.604 1184.79 619.796C1184.99 619.988 1185.19 620.18 1185.39 620.371C1189.4 624.2 1193.5 627.937 1197.68 631.579C1197.89 631.761 1198.1 631.943 1198.3 632.125C1198.51 632.306 1198.72 632.488 1198.93 632.669ZM1174.78 609.811C1175.44 609.176 1175.46 608.125 1174.83 607.462C1171.02 603.472 1167.3 599.394 1163.67 595.231C1163.07 594.539 1162.02 594.466 1161.33 595.066C1161.51 595.276 1161.69 595.486 1161.88 595.695C1162.06 595.905 1162.24 596.114 1162.42 596.323C1166.06 600.505 1169.8 604.602 1173.63 608.611C1173.82 608.811 1174.01 609.011 1174.2 609.211C1174.4 609.411 1174.59 609.611 1174.78 609.811ZM1152.82 584.833C1153.54 584.262 1153.66 583.218 1153.09 582.5C1149.66 578.178 1146.33 573.776 1143.1 569.296C1142.57 568.552 1141.53 568.382 1140.79 568.917C1140.95 569.142 1141.11 569.368 1141.27 569.593C1141.43 569.818 1141.59 570.043 1141.76 570.268C1145 574.769 1148.35 579.192 1151.79 583.533C1151.96 583.75 1152.13 583.967 1152.31 584.184C1152.48 584.401 1152.65 584.617 1152.82 584.833ZM1133.26 557.945C1134.02 557.442 1134.24 556.414 1133.74 555.646C1130.72 551.029 1127.81 546.339 1125.01 541.578C1124.54 540.788 1123.53 540.524 1122.73 540.987C1122.87 541.227 1123.01 541.466 1123.15 541.705C1123.29 541.944 1123.43 542.183 1123.58 542.422C1126.39 547.205 1129.32 551.917 1132.34 556.555C1132.5 556.787 1132.65 557.019 1132.8 557.251C1132.95 557.482 1133.1 557.714 1133.26 557.945ZM1116.25 529.368C1117.06 528.938 1117.37 527.933 1116.94 527.123C1114.37 522.25 1111.9 517.311 1109.55 512.308C1109.16 511.478 1108.17 511.121 1107.34 511.51C1107.46 511.761 1107.57 512.012 1107.69 512.263C1107.81 512.514 1107.93 512.765 1108.04 513.016C1110.41 518.042 1112.88 523.004 1115.47 527.899C1115.6 528.144 1115.73 528.389 1115.86 528.634C1115.99 528.879 1116.12 529.123 1116.25 529.368ZM1101.96 499.338C1102.8 498.985 1103.2 498.014 1102.85 497.167C1100.74 492.079 1098.75 486.932 1096.87 481.73C1096.56 480.867 1095.61 480.42 1094.74 480.729C1094.84 480.99 1094.93 481.251 1095.02 481.512C1095.12 481.773 1095.21 482.034 1095.3 482.294C1097.19 487.521 1099.2 492.692 1101.32 497.804C1101.42 498.06 1101.53 498.316 1101.64 498.571C1101.74 498.827 1101.85 499.083 1101.96 499.338ZM1090.52 468.109C1091.39 467.836 1091.88 466.906 1091.61 466.03C1089.98 460.772 1088.47 455.463 1087.09 450.104C1086.86 449.217 1085.95 448.683 1085.06 448.911C1085.13 449.179 1085.2 449.448 1085.27 449.716C1085.34 449.985 1085.41 450.253 1085.48 450.521C1086.87 455.904 1088.39 461.239 1090.02 466.521C1090.1 466.786 1090.18 467.051 1090.27 467.315C1090.35 467.58 1090.43 467.844 1090.52 468.109ZM1082.03 435.957C1082.92 435.767 1083.5 434.887 1083.31 433.989C1082.18 428.609 1081.17 423.184 1080.29 417.717C1080.14 416.812 1079.29 416.196 1078.38 416.341C1078.43 416.614 1078.47 416.888 1078.51 417.162C1078.56 417.435 1078.6 417.709 1078.64 417.983C1079.53 423.475 1080.55 428.925 1081.68 434.331C1081.74 434.602 1081.8 434.873 1081.85 435.144C1081.91 435.416 1081.97 435.687 1082.03 435.957ZM1076.56 403.163C1077.47 403.057 1078.12 402.233 1078.02 401.322C1077.39 395.864 1076.89 390.369 1076.51 384.84C1076.45 383.925 1075.66 383.234 1074.74 383.294C1074.76 383.571 1074.78 383.847 1074.8 384.124C1074.81 384.4 1074.83 384.677 1074.85 384.953C1075.23 390.508 1075.74 396.029 1076.37 401.512C1076.4 401.787 1076.43 402.062 1076.46 402.338C1076.5 402.613 1076.53 402.888 1076.56 403.163ZM1074.14 370.005C1075.05 369.982 1075.78 369.221 1075.76 368.305C1075.69 365.544 1075.66 362.776 1075.66 360C1075.66 357.224 1075.69 354.456 1075.76 351.696C1075.78 350.779 1075.05 350.018 1074.14 349.996C1074.13 350.273 1074.12 350.55 1074.11 350.827C1074.11 351.104 1074.1 351.381 1074.09 351.658C1074.03 354.431 1074 357.212 1074 360C1074 362.788 1074.03 365.569 1074.09 368.342C1074.1 368.619 1074.11 368.897 1074.11 369.173C1074.12 369.451 1074.13 369.728 1074.14 370.005ZM1074.74 336.706C1075.66 336.766 1076.45 336.075 1076.51 335.16C1076.89 329.631 1077.39 324.136 1078.02 318.678C1078.12 317.767 1077.47 316.943 1076.56 316.837C1076.53 317.112 1076.5 317.387 1076.46 317.662C1076.43 317.938 1076.4 318.213 1076.37 318.488C1075.74 323.971 1075.23 329.492 1074.85 335.047C1074.83 335.323 1074.81 335.6 1074.8 335.876C1074.78 336.153 1074.76 336.429 1074.74 336.706ZM1078.38 303.659C1079.29 303.804 1080.14 303.188 1080.29 302.283C1081.17 296.817 1082.18 291.391 1083.31 286.011C1083.5 285.113 1082.92 284.233 1082.03 284.043C1081.97 284.313 1081.91 284.585 1081.85 284.856C1081.8 285.127 1081.74 285.398 1081.68 285.669C1080.55 291.075 1079.53 296.525 1078.64 302.017C1078.6 302.291 1078.56 302.565 1078.51 302.838C1078.47 303.112 1078.43 303.386 1078.38 303.659ZM1085.06 271.089C1085.95 271.317 1086.86 270.783 1087.09 269.896C1088.47 264.537 1089.98 259.228 1091.61 253.97C1091.88 253.094 1091.39 252.164 1090.52 251.891C1090.43 252.156 1090.35 252.42 1090.27 252.685C1090.18 252.949 1090.1 253.214 1090.02 253.479C1088.39 258.761 1086.87 264.096 1085.48 269.479C1085.41 269.747 1085.34 270.015 1085.27 270.284C1085.2 270.552 1085.13 270.821 1085.06 271.089ZM1094.74 239.271C1095.61 239.58 1096.56 239.133 1096.87 238.27C1098.75 233.068 1100.74 227.921 1102.85 222.833C1103.2 221.986 1102.8 221.015 1101.96 220.662C1101.85 220.917 1101.74 221.173 1101.64 221.429C1101.53 221.684 1101.42 221.94 1101.32 222.196C1099.2 227.308 1097.19 232.479 1095.3 237.706C1095.21 237.966 1095.12 238.227 1095.02 238.488C1094.93 238.749 1094.84 239.01 1094.74 239.271ZM1107.34 208.49C1108.17 208.879 1109.16 208.522 1109.55 207.692C1111.9 202.689 1114.37 197.75 1116.94 192.878C1117.37 192.067 1117.06 191.062 1116.25 190.632C1116.12 190.877 1115.99 191.121 1115.86 191.366C1115.73 191.611 1115.6 191.856 1115.47 192.101C1112.88 196.996 1110.41 201.958 1108.04 206.984C1107.93 207.235 1107.81 207.486 1107.69 207.737C1107.57 207.988 1107.46 208.239 1107.34 208.49ZM1122.73 179.013C1123.53 179.476 1124.54 179.212 1125.01 178.422C1127.81 173.661 1130.72 168.971 1133.74 164.354C1134.24 163.586 1134.02 162.558 1133.26 162.055C1133.1 162.286 1132.95 162.518 1132.8 162.75C1132.65 162.981 1132.5 163.213 1132.34 163.445C1129.32 168.083 1126.39 172.795 1123.58 177.578C1123.43 177.817 1123.29 178.056 1123.15 178.295C1123.01 178.534 1122.87 178.773 1122.73 179.013ZM1140.79 151.083C1141.53 151.618 1142.57 151.448 1143.1 150.704C1146.33 146.224 1149.66 141.822 1153.09 137.5C1153.66 136.782 1153.54 135.738 1152.82 135.167C1152.65 135.383 1152.48 135.599 1152.31 135.816C1152.13 136.033 1151.96 136.25 1151.79 136.467C1148.35 140.809 1145 145.231 1141.76 149.732C1141.59 149.957 1141.43 150.182 1141.27 150.407C1141.11 150.632 1140.95 150.858 1140.79 151.083ZM1161.33 124.934C1162.02 125.534 1163.07 125.461 1163.67 124.769C1167.3 120.606 1171.02 116.528 1174.83 112.538C1175.46 111.875 1175.44 110.824 1174.78 110.189C1174.59 110.389 1174.4 110.589 1174.2 110.789C1174.01 110.989 1173.82 111.189 1173.63 111.389C1169.8 115.398 1166.06 119.495 1162.42 123.677C1162.24 123.886 1162.06 124.095 1161.88 124.305C1161.69 124.514 1161.51 124.724 1161.33 124.934ZM1184.19 100.78C1184.82 101.441 1185.87 101.465 1186.54 100.831C1190.53 97.02 1194.61 93.3 1198.77 89.6745C1199.46 89.0722 1199.53 88.024 1198.93 87.3314C1198.72 87.5125 1198.51 87.6938 1198.3 87.8753C1198.1 88.0568 1197.89 88.2386 1197.68 88.4206C1193.5 92.0628 1189.4 95.8 1185.39 99.6288C1185.19 99.8203 1184.99 100.012 1184.79 100.204C1184.59 100.396 1184.39 100.588 1184.19 100.78ZM1209.17 78.8248C1209.74 79.5417 1210.78 79.6612 1211.5 79.0913C1215.82 75.6637 1220.22 72.3337 1224.7 69.1047C1225.45 68.5685 1225.62 67.5314 1225.08 66.7866C1224.86 66.9476 1224.63 67.1089 1224.41 67.2704C1224.18 67.4319 1223.96 67.5937 1223.73 67.7558C1219.23 70.9997 1214.81 74.3451 1210.47 77.7886C1210.25 77.9608 1210.03 78.1332 1209.82 78.306C1209.6 78.4787 1209.38 78.6516 1209.17 78.8248ZM1236.05 59.2566C1236.56 60.0229 1237.59 60.238 1238.35 59.7366C1242.97 56.7225 1247.66 53.8119 1252.42 51.0082C1253.21 50.5428 1253.48 49.5257 1253.01 48.7349C1252.77 48.8744 1252.53 49.0142 1252.29 49.1543C1252.06 49.2944 1251.82 49.4347 1251.58 49.5754C1246.8 52.3921 1242.08 55.3162 1237.45 58.3443C1237.21 58.4958 1236.98 58.6476 1236.75 58.7996C1236.52 58.9517 1236.29 59.104 1236.05 59.2566ZM1264.63 42.2489C1265.06 43.0584 1266.07 43.3676 1266.88 42.9392C1271.75 40.3655 1276.69 37.9008 1281.69 35.5484C1282.52 35.1582 1282.88 34.1699 1282.49 33.3396C1282.24 33.4564 1281.99 33.5734 1281.74 33.6908C1281.49 33.8081 1281.23 33.9258 1280.98 34.0437C1275.96 36.4071 1271 38.8832 1266.1 41.4689C1265.86 41.5984 1265.61 41.7281 1265.37 41.8581C1265.12 41.9881 1264.88 42.1184 1264.63 42.2489ZM1294.66 27.9575C1295.01 28.8034 1295.99 29.2043 1296.83 28.853C1301.92 26.7432 1307.07 24.7473 1312.27 22.8684C1313.13 22.5569 1313.58 21.6061 1313.27 20.7433C1313.01 20.8362 1312.75 20.9295 1312.49 21.023C1312.23 21.1165 1311.97 21.2103 1311.71 21.3045C1306.48 23.1922 1301.31 25.1974 1296.2 27.317C1295.94 27.4232 1295.68 27.5296 1295.43 27.6364C1295.17 27.7431 1294.92 27.8502 1294.66 27.9575ZM1325.89 16.515C1326.16 17.39 1327.09 17.8795 1327.97 17.6085C1333.23 15.9821 1338.54 14.4736 1343.9 13.0858C1344.78 12.8559 1345.32 11.9508 1345.09 11.063C1344.82 11.1312 1344.55 11.1998 1344.28 11.2686C1344.02 11.3375 1343.75 11.4067 1343.48 11.4761C1338.1 12.8703 1332.76 14.386 1327.48 16.02C1327.21 16.1019 1326.95 16.1841 1326.68 16.2666C1326.42 16.3491 1326.16 16.4319 1325.89 16.515ZM1358.04 8.02792C1358.23 8.92451 1359.11 9.49828 1360.01 9.30988C1365.39 8.18036 1370.82 7.17154 1376.28 6.2864C1377.19 6.13982 1377.8 5.28811 1377.66 4.38298C1377.39 4.42602 1377.11 4.46937 1376.84 4.51302C1376.56 4.55669 1376.29 4.60067 1376.02 4.64496C1370.53 5.53422 1365.07 6.54774 1359.67 7.68253C1359.4 7.73947 1359.13 7.79672 1358.86 7.85428C1358.58 7.91185 1358.31 7.96973 1358.04 8.02792ZM1390.84 2.56096C1390.94 3.47133 1391.77 4.12406 1392.68 4.01945C1398.14 3.39284 1403.63 2.88883 1409.16 2.51025C1410.08 2.44761 1410.77 1.65614 1410.71 0.741542C1410.43 0.75921 1410.15 0.777189 1409.88 0.795481C1409.6 0.813782 1409.32 0.832395 1409.05 0.85132C1403.49 1.23164 1397.97 1.73797 1392.49 2.36749C1392.21 2.39911 1391.94 2.43103 1391.66 2.46327C1391.39 2.49553 1391.11 2.52809 1390.84 2.56096ZM1424 0.136334C1424.02 1.05266 1424.78 1.77799 1425.7 1.75714C1428.46 1.69437 1431.22 1.66282 1434 1.66282C1436.78 1.66282 1439.54 1.69437 1442.3 1.75714C1443.22 1.77799 1443.98 1.05266 1444 0.13633C1443.73 0.128773 1443.45 0.121529 1443.17 0.114598C1442.9 0.10767 1442.62 0.101056 1442.34 0.0947538C1439.57 0.0316982 1436.79 0 1434 0C1431.21 0 1428.43 0.031699 1425.66 0.0947564C1425.38 0.101058 1425.1 0.107673 1424.83 0.114601C1424.55 0.121532 1424.27 0.128776 1424 0.136334ZM1457.29 0.741536C1457.23 1.65613 1457.92 2.44761 1458.84 2.51025C1464.37 2.88882 1469.86 3.39283 1475.32 4.01945C1476.23 4.12405 1477.06 3.47133 1477.16 2.56096C1476.89 2.52809 1476.61 2.49552 1476.34 2.46327C1476.06 2.43103 1475.79 2.3991 1475.51 2.36748C1470.03 1.73797 1464.51 1.23163 1458.95 0.851314C1458.68 0.832389 1458.4 0.813776 1458.12 0.795476C1457.85 0.777184 1457.57 0.759204 1457.29 0.741536ZM1490.34 4.38298C1490.2 5.28811 1490.81 6.13982 1491.72 6.2864C1497.18 7.17154 1502.61 8.18036 1507.99 9.30987C1508.89 9.49827 1509.77 8.92451 1509.96 8.02792C1509.69 7.96973 1509.42 7.91185 1509.14 7.85427C1508.87 7.79672 1508.6 7.73947 1508.33 7.68253C1502.93 6.54774 1497.47 5.53422 1491.98 4.64496C1491.71 4.60067 1491.44 4.55669 1491.16 4.51302C1490.89 4.46937 1490.61 4.42602 1490.34 4.38298ZM1522.91 11.063C1522.68 11.9508 1523.22 12.8559 1524.1 13.0858C1529.46 14.4736 1534.77 15.9821 1540.03 17.6085C1540.91 17.8795 1541.84 17.39 1542.11 16.515C1541.84 16.4319 1541.58 16.3491 1541.32 16.2666C1541.05 16.1841 1540.79 16.1019 1540.52 16.02C1535.24 14.386 1529.9 12.8703 1524.52 11.4761C1524.25 11.4067 1523.98 11.3375 1523.72 11.2686C1523.45 11.1998 1523.18 11.1312 1522.91 11.063ZM1554.73 20.7433C1554.42 21.6061 1554.87 22.5569 1555.73 22.8684C1560.93 24.7473 1566.08 26.7432 1571.17 28.853C1572.01 29.2043 1572.99 28.8034 1573.34 27.9575C1573.08 27.8502 1572.83 27.7431 1572.57 27.6364C1572.32 27.5296 1572.06 27.4232 1571.8 27.317C1566.69 25.1974 1561.52 23.1922 1556.29 21.3045C1556.03 21.2103 1555.77 21.1165 1555.51 21.023C1555.25 20.9295 1554.99 20.8362 1554.73 20.7433ZM1585.51 33.3396C1585.12 34.1699 1585.48 35.1582 1586.31 35.5485C1591.31 37.9008 1596.25 40.3655 1601.12 42.9392C1601.93 43.3676 1602.94 43.0584 1603.37 42.249C1603.12 42.1184 1602.88 41.9881 1602.63 41.8581C1602.39 41.7281 1602.14 41.5984 1601.9 41.4689C1597 38.8832 1592.04 36.4071 1587.02 34.0437C1586.77 33.9258 1586.51 33.8081 1586.26 33.6908C1586.01 33.5734 1585.76 33.4564 1585.51 33.3396ZM1614.99 48.7349C1614.52 49.5257 1614.79 50.5428 1615.58 51.0082C1620.34 53.8119 1625.03 56.7224 1629.65 59.7366C1630.41 60.238 1631.44 60.0229 1631.95 59.2566C1631.71 59.104 1631.48 58.9517 1631.25 58.7997C1631.02 58.6476 1630.79 58.4958 1630.55 58.3443C1625.92 55.3162 1621.21 52.3921 1616.42 49.5754C1616.18 49.4347 1615.94 49.2944 1615.71 49.1543C1615.47 49.0142 1615.23 48.8744 1614.99 48.7349ZM1642.92 66.7866C1642.38 67.5314 1642.55 68.5685 1643.3 69.1047C1647.78 72.3337 1652.18 75.6637 1656.5 79.0913C1657.22 79.6612 1658.26 79.5417 1658.83 78.8248C1658.62 78.6516 1658.4 78.4787 1658.18 78.3059C1657.97 78.1332 1657.75 77.9608 1657.53 77.7885C1653.19 74.3451 1648.77 70.9997 1644.27 67.7557C1644.04 67.5937 1643.82 67.4319 1643.59 67.2704C1643.37 67.1089 1643.14 66.9476 1642.92 66.7866ZM1669.07 87.3314C1668.47 88.024 1668.54 89.0722 1669.23 89.6745C1673.39 93.3 1677.47 97.02 1681.46 100.831C1682.13 101.465 1683.18 101.441 1683.81 100.78C1683.61 100.588 1683.41 100.396 1683.21 100.204C1683.01 100.012 1682.81 99.8202 1682.61 99.6288C1678.6 95.8 1674.5 92.0628 1670.32 88.4206C1670.11 88.2386 1669.9 88.0568 1669.7 87.8753C1669.49 87.6938 1669.28 87.5125 1669.07 87.3314ZM1693.22 110.189C1692.56 110.824 1692.54 111.875 1693.17 112.538C1696.98 116.528 1700.7 120.606 1704.33 124.769C1704.93 125.461 1705.98 125.534 1706.67 124.934C1706.49 124.724 1706.31 124.514 1706.12 124.305C1705.94 124.095 1705.76 123.886 1705.58 123.677C1701.94 119.495 1698.2 115.398 1694.37 111.389C1694.18 111.189 1693.99 110.989 1693.8 110.789C1693.6 110.589 1693.41 110.389 1693.22 110.189ZM1715.18 135.167C1714.46 135.738 1714.34 136.782 1714.91 137.5C1718.34 141.822 1721.67 146.224 1724.9 150.704C1725.43 151.448 1726.47 151.618 1727.21 151.083C1727.05 150.858 1726.89 150.632 1726.73 150.407C1726.57 150.182 1726.41 149.957 1726.24 149.732C1723 145.231 1719.65 140.809 1716.21 136.467C1716.04 136.25 1715.87 136.033 1715.69 135.816C1715.52 135.599 1715.35 135.383 1715.18 135.167ZM1734.74 162.055C1733.98 162.558 1733.76 163.586 1734.26 164.354C1737.28 168.971 1740.19 173.661 1742.99 178.422C1743.46 179.212 1744.47 179.476 1745.27 179.013C1745.13 178.773 1744.99 178.534 1744.85 178.295C1744.71 178.056 1744.57 177.817 1744.42 177.578C1741.61 172.795 1738.68 168.083 1735.66 163.445C1735.5 163.213 1735.35 162.981 1735.2 162.75C1735.05 162.518 1734.9 162.286 1734.74 162.055ZM1751.75 190.632C1750.94 191.062 1750.63 192.067 1751.06 192.878C1753.63 197.75 1756.1 202.689 1758.45 207.692C1758.84 208.522 1759.83 208.879 1760.66 208.491C1760.54 208.239 1760.43 207.988 1760.31 207.737C1760.19 207.486 1760.07 207.235 1759.96 206.984C1757.59 201.958 1755.12 196.996 1752.53 192.101C1752.4 191.856 1752.27 191.611 1752.14 191.366C1752.01 191.121 1751.88 190.877 1751.75 190.632ZM1766.04 220.662C1765.2 221.015 1764.8 221.986 1765.15 222.833C1767.26 227.921 1769.25 233.068 1771.13 238.27C1771.44 239.133 1772.39 239.58 1773.26 239.271C1773.16 239.01 1773.07 238.749 1772.98 238.488C1772.88 238.227 1772.79 237.966 1772.7 237.706C1770.81 232.479 1768.8 227.308 1766.68 222.196C1766.58 221.94 1766.47 221.684 1766.36 221.429C1766.26 221.173 1766.15 220.917 1766.04 220.662ZM1777.49 251.891C1776.61 252.164 1776.12 253.094 1776.39 253.97C1778.02 259.228 1779.53 264.537 1780.91 269.896C1781.14 270.783 1782.05 271.317 1782.94 271.089C1782.87 270.821 1782.8 270.552 1782.73 270.284C1782.66 270.015 1782.59 269.747 1782.52 269.479C1781.13 264.096 1779.61 258.761 1777.98 253.479C1777.9 253.214 1777.82 252.949 1777.73 252.685C1777.65 252.42 1777.57 252.156 1777.49 251.891ZM1785.97 284.043C1785.08 284.233 1784.5 285.113 1784.69 286.011C1785.82 291.391 1786.83 296.817 1787.71 302.283C1787.86 303.188 1788.71 303.804 1789.62 303.659C1789.57 303.386 1789.53 303.112 1789.49 302.838C1789.44 302.565 1789.4 302.291 1789.36 302.017C1788.47 296.525 1787.45 291.075 1786.32 285.669C1786.26 285.398 1786.2 285.127 1786.15 284.856C1786.09 284.584 1786.03 284.313 1785.97 284.043ZM1793.26 336.706C1793.24 336.429 1793.22 336.153 1793.2 335.876C1793.19 335.6 1793.17 335.323 1793.15 335.047C1792.77 329.492 1792.26 323.971 1791.63 318.488C1791.6 318.213 1791.57 317.938 1791.54 317.662C1791.5 317.387 1791.47 317.112 1791.44 316.837C1790.53 316.943 1789.88 317.767 1789.98 318.678C1790.61 324.136 1791.11 329.631 1791.49 335.16C1791.55 336.075 1792.34 336.766 1793.26 336.706Z" fill="#6D4ECB" fill-opacity="0.13"/>
<path fill-rule="evenodd" clip-rule="evenodd" d="M1434 474.735C1497.37 474.735 1548.73 423.366 1548.73 360C1548.73 296.634 1497.37 245.266 1434 245.266C1370.63 245.266 1319.27 296.634 1319.27 360C1319.27 423.366 1370.63 474.735 1434 474.735ZM1434 557.876C1543.28 557.876 1631.88 469.284 1631.88 360C1631.88 250.717 1543.28 162.125 1434 162.125C1324.72 162.125 1236.12 250.717 1236.12 360C1236.12 469.284 1324.72 557.876 1434 557.876Z" fill="#2278F7" fill-opacity="0.13"/>
<path fill-rule="evenodd" clip-rule="evenodd" d="M287.908 582.339C287.914 582.117 287.919 581.895 287.924 581.674C287.975 579.455 288 577.231 288 575C288 572.769 287.975 570.545 287.924 568.326C287.919 568.104 287.914 567.883 287.908 567.661C287.903 567.44 287.897 567.218 287.891 566.996C287.158 567.015 286.578 567.623 286.594 568.356C286.645 570.565 286.67 572.779 286.67 575C286.67 577.221 286.645 579.435 286.594 581.644C286.578 582.377 287.158 582.985 287.891 583.004C287.897 582.782 287.903 582.56 287.908 582.339ZM287.407 593.635C286.675 593.587 286.042 594.14 285.992 594.872C285.689 599.295 285.286 603.691 284.784 608.058C284.701 608.786 285.223 609.445 285.951 609.531C285.978 609.31 286.004 609.09 286.029 608.87C286.055 608.65 286.081 608.43 286.106 608.209C286.61 603.823 287.015 599.407 287.319 594.963C287.334 594.742 287.349 594.52 287.364 594.299C287.378 594.078 287.393 593.857 287.407 593.635ZM284.494 620.072C283.77 619.957 283.088 620.449 282.971 621.173C282.263 625.547 281.456 629.887 280.552 634.191C280.401 634.909 280.86 635.614 281.578 635.766C281.624 635.549 281.671 635.332 281.717 635.115C281.763 634.899 281.808 634.682 281.854 634.465C282.762 630.14 283.573 625.78 284.284 621.386C284.319 621.167 284.355 620.948 284.39 620.729C284.425 620.511 284.459 620.292 284.494 620.072ZM279.15 646.128C278.439 645.946 277.715 646.373 277.531 647.083C276.421 651.37 275.214 655.618 273.913 659.824C273.696 660.525 274.088 661.269 274.788 661.487C274.855 661.275 274.921 661.064 274.987 660.852C275.053 660.641 275.119 660.429 275.184 660.217C276.491 655.991 277.704 651.724 278.819 647.417C278.875 647.202 278.93 646.988 278.985 646.773C279.04 646.558 279.095 646.343 279.15 646.128ZM271.405 671.583C270.715 671.336 269.954 671.694 269.705 672.384C268.202 676.546 266.605 680.663 264.918 684.733C264.637 685.411 264.957 686.188 265.634 686.471C265.72 686.266 265.806 686.062 265.891 685.857C265.976 685.652 266.061 685.448 266.146 685.243C267.842 681.154 269.446 677.017 270.956 672.836C271.032 672.627 271.107 672.418 271.182 672.21C271.256 672.001 271.331 671.792 271.405 671.583ZM261.328 696.208C260.664 695.897 259.873 696.183 259.561 696.847C257.679 700.849 255.708 704.8 253.649 708.698C253.306 709.347 253.553 710.15 254.201 710.494C254.305 710.299 254.41 710.103 254.514 709.907C254.618 709.711 254.721 709.515 254.825 709.319C256.893 705.403 258.874 701.433 260.765 697.413C260.859 697.212 260.953 697.011 261.047 696.81C261.141 696.61 261.235 696.409 261.328 696.208ZM249.012 719.79C248.379 719.419 247.566 719.631 247.193 720.263C244.951 724.071 242.622 727.823 240.211 731.517C239.81 732.131 239.982 732.954 240.595 733.356C240.717 733.171 240.839 732.986 240.96 732.8C241.082 732.615 241.203 732.43 241.325 732.244C243.747 728.534 246.086 724.764 248.34 720.938C248.452 720.747 248.564 720.556 248.677 720.364C248.789 720.173 248.901 719.982 249.012 719.79ZM234.571 742.133C233.975 741.706 233.145 741.841 232.716 742.437C230.133 746.021 227.469 749.543 224.727 753C224.271 753.575 224.367 754.41 224.94 754.867C225.079 754.694 225.217 754.52 225.355 754.347C225.493 754.174 225.631 754 225.769 753.826C228.524 750.353 231.2 746.815 233.795 743.214C233.925 743.034 234.054 742.854 234.184 742.674C234.313 742.494 234.442 742.314 234.571 742.133ZM218.135 763.053C217.581 762.573 216.742 762.631 216.26 763.185C213.36 766.515 210.384 769.777 207.335 772.97C206.828 773.5 206.847 774.341 207.376 774.848C207.53 774.689 207.683 774.529 207.837 774.369C207.99 774.209 208.144 774.049 208.297 773.889C211.36 770.682 214.35 767.404 217.264 764.058C217.409 763.891 217.555 763.724 217.7 763.556C217.845 763.389 217.99 763.221 218.135 763.053ZM199.848 782.376C199.341 781.847 198.5 781.828 197.97 782.335C194.777 785.384 191.515 788.36 188.185 791.26C187.631 791.742 187.573 792.581 188.053 793.135C188.221 792.99 188.389 792.845 188.556 792.7C188.724 792.555 188.891 792.409 189.058 792.264C192.404 789.35 195.682 786.36 198.889 783.297C199.049 783.144 199.209 782.99 199.369 782.837C199.529 782.683 199.689 782.53 199.848 782.376ZM179.867 799.94C179.41 799.367 178.575 799.271 178 799.727C174.543 802.469 171.021 805.133 167.437 807.716C166.841 808.145 166.706 808.975 167.133 809.571C167.314 809.442 167.494 809.313 167.674 809.184C167.854 809.054 168.035 808.925 168.214 808.795C171.815 806.2 175.353 803.524 178.826 800.769C179 800.631 179.174 800.493 179.347 800.355C179.52 800.217 179.694 800.079 179.867 799.94ZM158.356 815.595C157.954 814.982 157.131 814.81 156.517 815.211C152.823 817.622 149.071 819.951 145.263 822.193C144.631 822.566 144.419 823.379 144.79 824.012C144.982 823.9 145.173 823.789 145.364 823.677C145.556 823.564 145.747 823.452 145.938 823.34C149.764 821.086 153.534 818.747 157.244 816.325C157.43 816.203 157.615 816.082 157.8 815.96C157.986 815.839 158.171 815.717 158.356 815.595ZM135.494 829.201C135.15 828.553 134.347 828.306 133.698 828.649C129.8 830.708 125.849 832.679 121.847 834.561C121.183 834.873 120.897 835.664 121.208 836.328C121.409 836.235 121.61 836.141 121.81 836.047C122.011 835.953 122.212 835.859 122.413 835.765C126.433 833.874 130.403 831.893 134.319 829.825C134.515 829.721 134.711 829.618 134.907 829.514C135.103 829.41 135.299 829.305 135.494 829.201ZM111.471 840.634C111.188 839.957 110.411 839.637 109.733 839.918C105.663 841.605 101.546 843.202 97.3837 844.705C96.6937 844.954 96.3359 845.715 96.5834 846.405C96.7923 846.331 97.0011 846.256 97.2097 846.182C97.4184 846.107 97.627 846.032 97.8356 845.956C102.017 844.446 106.154 842.842 110.243 841.146C110.448 841.062 110.652 840.976 110.857 840.891C111.062 840.806 111.266 840.72 111.471 840.634ZM86.4869 849.788C86.2686 849.088 85.5248 848.696 84.8239 848.913C80.6177 850.214 76.37 851.421 72.0834 852.531C71.3732 852.715 70.9462 853.439 71.1284 854.15C71.3433 854.095 71.5582 854.04 71.7729 853.985C71.9877 853.93 72.2024 853.875 72.417 853.819C76.7236 852.704 80.9911 851.491 85.217 850.184C85.4288 850.119 85.6406 850.053 85.8522 849.987C86.0638 849.921 86.2754 849.855 86.4869 849.788ZM60.766 856.578C60.6137 855.86 59.9094 855.401 59.1914 855.552C54.8869 856.456 50.5468 857.263 46.1735 857.971C45.4493 858.088 44.9569 858.77 45.0725 859.494C45.2915 859.459 45.5105 859.425 45.7294 859.39C45.9484 859.355 46.1673 859.319 46.3861 859.284C50.7798 858.573 55.1401 857.762 59.4647 856.854C59.6818 856.808 59.8987 856.763 60.1155 856.717C60.3324 856.671 60.5492 856.624 60.766 856.578ZM34.5306 860.951C34.4453 860.223 33.7865 859.701 33.0576 859.784C28.6915 860.286 24.2955 860.689 19.8718 860.992C19.1399 861.042 18.5869 861.675 18.6354 862.407C18.8567 862.393 19.0779 862.378 19.2991 862.364C19.5203 862.349 19.7416 862.334 19.9627 862.319C24.4067 862.015 28.823 861.61 33.2094 861.106C33.4297 861.081 33.6499 861.055 33.8701 861.029C34.0903 861.004 34.3105 860.978 34.5306 860.951ZM8.00368 862.891C7.98537 862.158 7.37708 861.578 6.64361 861.594C4.43518 861.645 2.22056 861.67 7.86781e-06 861.67C-2.2205 861.67 -4.4351 861.645 -6.64349 861.594C-7.37698 861.578 -7.98525 862.158 -8.00356 862.891C-7.78199 862.897 -7.56037 862.903 -7.33868 862.908C-7.11708 862.914 -6.89545 862.919 -6.67373 862.924C-4.45526 862.975 -2.23059 863 7.86781e-06 863C2.23062 863 4.45535 862.975 6.67385 862.924C6.89557 862.919 7.1172 862.914 7.33877 862.908C7.56047 862.903 7.7821 862.897 8.00368 862.891ZM-18.6353 862.407C-18.5868 861.675 -19.1398 861.042 -19.8718 860.992C-24.2954 860.689 -28.6915 860.286 -33.0576 859.784C-33.7864 859.701 -34.4453 860.223 -34.5306 860.951C-34.3105 860.978 -34.0903 861.004 -33.87 861.029C-33.6499 861.055 -33.4296 861.081 -33.2093 861.106C-28.823 861.61 -24.4067 862.015 -19.9626 862.319C-19.7415 862.334 -19.5203 862.349 -19.299 862.364C-19.0778 862.378 -18.8566 862.393 -18.6353 862.407ZM-45.0725 859.494C-44.9569 858.77 -45.4493 858.088 -46.1735 857.971C-50.5468 857.263 -54.8869 856.456 -59.1914 855.552C-59.9094 855.401 -60.6137 855.86 -60.7659 856.578C-60.5492 856.624 -60.3324 856.671 -60.1155 856.717C-59.8986 856.763 -59.6817 856.808 -59.4647 856.854C-55.1401 857.762 -50.7797 858.573 -46.3861 859.284C-46.1673 859.319 -45.9484 859.355 -45.7294 859.39C-45.5105 859.425 -45.2915 859.459 -45.0725 859.494ZM-71.1284 854.15C-70.9462 853.439 -71.3732 852.715 -72.0834 852.531C-76.37 851.421 -80.6176 850.214 -84.8239 848.913C-85.5248 848.696 -86.2686 849.088 -86.4869 849.788C-86.2754 849.855 -86.0639 849.921 -85.8522 849.987C-85.6406 850.053 -85.4288 850.119 -85.217 850.184C-80.9911 851.491 -76.7236 852.704 -72.417 853.819C-72.2024 853.875 -71.9877 853.93 -71.7729 853.985C-71.5582 854.04 -71.3433 854.095 -71.1284 854.15ZM-96.5833 846.405C-96.3359 845.715 -96.6937 844.954 -97.3837 844.705C-101.546 843.202 -105.663 841.605 -109.733 839.918C-110.411 839.637 -111.188 839.957 -111.471 840.634C-111.266 840.72 -111.062 840.806 -110.857 840.891C-110.652 840.976 -110.448 841.062 -110.243 841.146C-106.154 842.842 -102.017 844.446 -97.8356 845.956C-97.6271 846.032 -97.4185 846.107 -97.2097 846.182C-97.001 846.256 -96.7923 846.331 -96.5833 846.405ZM-121.208 836.328C-120.897 835.664 -121.183 834.873 -121.847 834.561C-125.849 832.679 -129.8 830.708 -133.698 828.649C-134.347 828.306 -135.15 828.553 -135.494 829.201C-135.299 829.305 -135.103 829.41 -134.907 829.514C-134.711 829.618 -134.515 829.721 -134.319 829.825C-130.403 831.893 -126.433 833.874 -122.413 835.765C-122.212 835.859 -122.011 835.953 -121.81 836.047C-121.61 836.141 -121.409 836.235 -121.208 836.328ZM-144.79 824.012C-144.419 823.379 -144.63 822.566 -145.263 822.193C-149.071 819.951 -152.823 817.622 -156.517 815.211C-157.131 814.81 -157.954 814.982 -158.356 815.595C-158.171 815.717 -157.986 815.839 -157.8 815.96C-157.615 816.082 -157.43 816.203 -157.244 816.325C-153.534 818.747 -149.764 821.086 -145.938 823.34C-145.747 823.452 -145.556 823.564 -145.364 823.677C-145.173 823.789 -144.981 823.901 -144.79 824.012ZM-167.133 809.571C-166.706 808.975 -166.841 808.145 -167.436 807.716C-171.021 805.133 -174.542 802.469 -178 799.727C-178.575 799.271 -179.41 799.367 -179.867 799.94C-179.694 800.079 -179.52 800.217 -179.347 800.355C-179.174 800.493 -179 800.631 -178.826 800.769C-175.353 803.524 -171.815 806.2 -168.214 808.795C-168.034 808.925 -167.854 809.054 -167.674 809.184C-167.494 809.313 -167.314 809.442 -167.133 809.571ZM-188.053 793.135C-187.573 792.581 -187.631 791.742 -188.185 791.26C-191.515 788.36 -194.777 785.384 -197.97 782.335C-198.5 781.828 -199.341 781.847 -199.848 782.376C-199.689 782.53 -199.529 782.684 -199.369 782.837C-199.209 782.991 -199.049 783.144 -198.889 783.297C-195.682 786.36 -192.404 789.35 -189.058 792.264C-188.891 792.409 -188.724 792.555 -188.556 792.7C-188.389 792.845 -188.221 792.99 -188.053 793.135ZM-207.376 774.848C-206.847 774.341 -206.828 773.5 -207.335 772.97C-210.384 769.777 -213.36 766.515 -216.26 763.185C-216.742 762.631 -217.581 762.573 -218.135 763.053C-217.99 763.221 -217.845 763.389 -217.7 763.556C-217.555 763.724 -217.409 763.891 -217.264 764.058C-214.35 767.404 -211.36 770.682 -208.297 773.889C-208.144 774.049 -207.99 774.209 -207.837 774.369C-207.683 774.529 -207.53 774.689 -207.376 774.848ZM-224.94 754.867C-224.367 754.41 -224.271 753.575 -224.727 753C-227.469 749.543 -230.133 746.021 -232.716 742.437C-233.145 741.841 -233.975 741.706 -234.571 742.133C-234.442 742.314 -234.313 742.494 -234.184 742.674C-234.054 742.854 -233.925 743.035 -233.795 743.214C-231.2 746.815 -228.524 750.353 -225.769 753.826C-225.631 754 -225.493 754.174 -225.355 754.347C-225.217 754.52 -225.079 754.694 -224.94 754.867ZM-240.595 733.356C-239.982 732.954 -239.81 732.131 -240.211 731.517C-242.622 727.823 -244.951 724.071 -247.193 720.263C-247.566 719.631 -248.379 719.419 -249.012 719.79C-248.9 719.982 -248.789 720.173 -248.677 720.364C-248.564 720.556 -248.452 720.747 -248.34 720.938C-246.086 724.764 -243.747 728.534 -241.325 732.244C-241.203 732.43 -241.082 732.615 -240.96 732.8C-240.839 732.986 -240.717 733.171 -240.595 733.356ZM-254.201 710.494C-253.553 710.15 -253.306 709.347 -253.649 708.698C-255.708 704.8 -257.679 700.849 -259.561 696.847C-259.873 696.183 -260.664 695.897 -261.328 696.208C-261.235 696.409 -261.141 696.61 -261.047 696.81C-260.953 697.011 -260.859 697.212 -260.765 697.413C-258.874 701.433 -256.893 705.403 -254.825 709.319C-254.721 709.515 -254.618 709.711 -254.514 709.907C-254.41 710.103 -254.305 710.299 -254.201 710.494ZM-265.634 686.471C-264.957 686.188 -264.637 685.411 -264.918 684.733C-266.605 680.663 -268.202 676.546 -269.705 672.384C-269.954 671.694 -270.715 671.336 -271.405 671.583C-271.331 671.792 -271.256 672.001 -271.182 672.21C-271.107 672.418 -271.032 672.627 -270.956 672.836C-269.446 677.017 -267.842 681.154 -266.146 685.243C-266.061 685.448 -265.976 685.652 -265.891 685.857C-265.805 686.062 -265.72 686.266 -265.634 686.471ZM-274.788 661.487C-274.088 661.269 -273.696 660.525 -273.913 659.824C-275.214 655.618 -276.421 651.37 -277.531 647.083C-277.715 646.373 -278.439 645.946 -279.15 646.128C-279.095 646.343 -279.04 646.558 -278.985 646.773C-278.93 646.988 -278.875 647.202 -278.819 647.417C-277.704 651.724 -276.491 655.991 -275.184 660.217C-275.119 660.429 -275.053 660.641 -274.987 660.852C-274.921 661.064 -274.854 661.275 -274.788 661.487ZM-281.578 635.766C-280.86 635.614 -280.401 634.909 -280.552 634.191C-281.456 629.887 -282.263 625.547 -282.971 621.173C-283.088 620.449 -283.77 619.957 -284.494 620.072C-284.459 620.292 -284.425 620.511 -284.39 620.729C-284.355 620.948 -284.319 621.167 -284.284 621.386C-283.573 625.78 -282.762 630.14 -281.854 634.465C-281.808 634.682 -281.763 634.899 -281.717 635.116C-281.671 635.332 -281.624 635.549 -281.578 635.766ZM-285.951 609.531C-285.223 609.445 -284.701 608.787 -284.784 608.058C-285.286 603.692 -285.689 599.295 -285.992 594.872C-286.042 594.14 -286.675 593.587 -287.407 593.635C-287.393 593.857 -287.378 594.078 -287.364 594.299C-287.349 594.52 -287.334 594.742 -287.319 594.963C-287.015 599.407 -286.61 603.823 -286.106 608.209C-286.081 608.43 -286.055 608.65 -286.029 608.87C-286.004 609.09 -285.978 609.31 -285.951 609.531ZM-287.891 583.004C-287.158 582.985 -286.578 582.377 -286.594 581.644C-286.645 579.435 -286.67 577.221 -286.67 575C-286.67 572.78 -286.645 570.565 -286.594 568.357C-286.578 567.623 -287.158 567.015 -287.891 566.996C-287.897 567.218 -287.903 567.44 -287.908 567.661C-287.914 567.883 -287.919 568.105 -287.924 568.326C-287.975 570.545 -288 572.769 -288 575C-288 577.231 -287.975 579.455 -287.924 581.674C-287.919 581.896 -287.914 582.117 -287.908 582.339C-287.903 582.56 -287.897 582.782 -287.891 583.004ZM-287.407 556.365C-286.675 556.413 -286.042 555.86 -285.992 555.128C-285.689 550.705 -285.286 546.309 -284.784 541.942C-284.701 541.214 -285.223 540.555 -285.951 540.469C-285.978 540.69 -286.004 540.91 -286.029 541.13C-286.055 541.35 -286.081 541.57 -286.106 541.791C-286.61 546.177 -287.015 550.593 -287.319 555.037C-287.334 555.259 -287.349 555.48 -287.364 555.701C-287.378 555.922 -287.393 556.143 -287.407 556.365ZM-284.494 529.928C-283.77 530.043 -283.088 529.551 -282.971 528.827C-282.263 524.453 -281.456 520.113 -280.552 515.809C-280.401 515.091 -280.86 514.386 -281.578 514.234C-281.624 514.451 -281.671 514.668 -281.717 514.885C-281.763 515.101 -281.808 515.318 -281.854 515.535C-282.762 519.86 -283.573 524.22 -284.284 528.614C-284.319 528.833 -284.355 529.052 -284.39 529.271C-284.425 529.49 -284.459 529.708 -284.494 529.928ZM-279.15 503.872C-278.439 504.054 -277.715 503.627 -277.531 502.917C-276.421 498.63 -275.214 494.382 -273.913 490.176C-273.696 489.475 -274.088 488.731 -274.788 488.513C-274.854 488.725 -274.921 488.936 -274.987 489.148C-275.053 489.359 -275.119 489.571 -275.184 489.783C-276.491 494.009 -277.704 498.276 -278.819 502.583C-278.875 502.798 -278.93 503.012 -278.985 503.227C-279.04 503.442 -279.095 503.657 -279.15 503.872ZM-271.405 478.417C-270.715 478.664 -269.954 478.306 -269.705 477.616C-268.202 473.454 -266.605 469.337 -264.918 465.267C-264.637 464.589 -264.957 463.812 -265.634 463.529C-265.72 463.734 -265.805 463.938 -265.891 464.143C-265.976 464.348 -266.061 464.552 -266.146 464.757C-267.842 468.846 -269.446 472.983 -270.956 477.164C-271.032 477.373 -271.107 477.582 -271.182 477.79C-271.256 477.999 -271.331 478.208 -271.405 478.417ZM-261.328 453.792C-260.664 454.103 -259.873 453.817 -259.561 453.153C-257.679 449.151 -255.708 445.2 -253.649 441.302C-253.306 440.653 -253.553 439.85 -254.201 439.506C-254.305 439.701 -254.41 439.897 -254.514 440.093C-254.618 440.289 -254.721 440.485 -254.825 440.681C-256.893 444.597 -258.874 448.567 -260.765 452.587C-260.859 452.788 -260.953 452.989 -261.047 453.19C-261.141 453.39 -261.235 453.591 -261.328 453.792ZM-249.012 430.21C-248.379 430.581 -247.566 430.37 -247.193 429.737C-244.951 425.929 -242.622 422.177 -240.211 418.483C-239.81 417.869 -239.982 417.046 -240.595 416.644C-240.717 416.829 -240.839 417.014 -240.96 417.2C-241.082 417.385 -241.203 417.57 -241.325 417.756C-243.747 421.466 -246.086 425.236 -248.34 429.062C-248.452 429.253 -248.564 429.444 -248.677 429.636C-248.789 429.827 -248.9 430.019 -249.012 430.21ZM-234.571 407.867C-233.975 408.294 -233.145 408.159 -232.716 407.564C-230.133 403.979 -227.469 400.458 -224.727 397C-224.271 396.425 -224.367 395.59 -224.94 395.133C-225.079 395.306 -225.217 395.48 -225.355 395.653C-225.493 395.826 -225.631 396 -225.769 396.174C-228.524 399.647 -231.2 403.185 -233.795 406.786C-233.925 406.966 -234.054 407.146 -234.184 407.326C-234.313 407.506 -234.442 407.686 -234.571 407.867ZM-218.135 386.947C-217.581 387.427 -216.742 387.369 -216.26 386.815C-213.36 383.485 -210.384 380.223 -207.335 377.03C-206.828 376.5 -206.847 375.659 -207.376 375.152C-207.53 375.311 -207.683 375.471 -207.837 375.631C-207.99 375.791 -208.144 375.951 -208.297 376.111C-211.36 379.318 -214.35 382.596 -217.264 385.942C-217.409 386.109 -217.555 386.276 -217.7 386.444C-217.845 386.611 -217.99 386.779 -218.135 386.947ZM-199.848 367.624C-199.341 368.153 -198.5 368.172 -197.97 367.665C-194.777 364.616 -191.515 361.64 -188.185 358.74C-187.631 358.258 -187.573 357.419 -188.053 356.865C-188.221 357.01 -188.389 357.155 -188.556 357.3C-188.724 357.445 -188.891 357.591 -189.058 357.736C-192.404 360.65 -195.682 363.64 -198.889 366.703C-199.049 366.856 -199.209 367.01 -199.369 367.163C-199.529 367.317 -199.689 367.47 -199.848 367.624ZM-179.867 350.06C-179.41 350.633 -178.575 350.729 -178 350.273C-174.543 347.531 -171.021 344.867 -167.436 342.284C-166.841 341.855 -166.706 341.025 -167.133 340.429C-167.314 340.558 -167.494 340.687 -167.674 340.816C-167.854 340.946 -168.034 341.075 -168.214 341.205C-171.815 343.8 -175.353 346.476 -178.826 349.231C-179 349.369 -179.174 349.507 -179.347 349.645C-179.52 349.783 -179.694 349.921 -179.867 350.06ZM-158.356 334.405C-157.954 335.018 -157.131 335.19 -156.517 334.789C-152.823 332.378 -149.071 330.049 -145.263 327.807C-144.631 327.434 -144.419 326.621 -144.79 325.988C-144.981 326.1 -145.173 326.211 -145.364 326.323C-145.556 326.436 -145.747 326.548 -145.938 326.66C-149.764 328.914 -153.534 331.253 -157.244 333.675C-157.43 333.797 -157.615 333.918 -157.8 334.04C-157.986 334.161 -158.171 334.283 -158.356 334.405ZM-135.494 320.799C-135.15 321.447 -134.347 321.694 -133.698 321.351C-129.8 319.292 -125.849 317.321 -121.847 315.439C-121.183 315.127 -120.897 314.336 -121.208 313.672C-121.409 313.765 -121.61 313.859 -121.81 313.953C-122.011 314.047 -122.212 314.141 -122.413 314.235C-126.433 316.126 -130.403 318.107 -134.319 320.175C-134.515 320.279 -134.711 320.382 -134.907 320.486C-135.103 320.59 -135.299 320.695 -135.494 320.799ZM-111.47 309.366C-111.188 310.043 -110.411 310.363 -109.733 310.082C-105.663 308.395 -101.546 306.798 -97.3837 305.295C-96.6937 305.046 -96.3358 304.285 -96.5833 303.595C-96.7922 303.669 -97.001 303.744 -97.2097 303.818C-97.4184 303.893 -97.6271 303.968 -97.8356 304.044C-102.017 305.554 -106.154 307.158 -110.243 308.854C-110.448 308.939 -110.652 309.024 -110.857 309.109C-111.062 309.194 -111.266 309.28 -111.47 309.366ZM-86.4869 300.212C-86.2686 300.912 -85.5248 301.304 -84.8239 301.087C-80.6176 299.786 -76.37 298.579 -72.0834 297.469C-71.3732 297.285 -70.9462 296.561 -71.1284 295.85C-71.3433 295.905 -71.5581 295.96 -71.7729 296.015C-71.9877 296.07 -72.2024 296.125 -72.417 296.181C-76.7236 297.296 -80.9911 298.509 -85.217 299.816C-85.4288 299.881 -85.6406 299.947 -85.8522 300.013C-86.0639 300.079 -86.2754 300.146 -86.4869 300.212ZM-60.766 293.422C-60.6137 294.14 -59.9094 294.599 -59.1914 294.448C-54.8869 293.544 -50.5468 292.737 -46.1735 292.029C-45.4493 291.912 -44.9569 291.23 -45.0725 290.506C-45.2915 290.541 -45.5105 290.575 -45.7294 290.61C-45.9484 290.645 -46.1673 290.681 -46.3861 290.716C-50.7797 291.427 -55.1401 292.238 -59.4647 293.146C-59.6817 293.192 -59.8987 293.237 -60.1155 293.283C-60.3324 293.329 -60.5492 293.376 -60.766 293.422ZM-34.5306 289.049C-34.4453 289.777 -33.7865 290.299 -33.0576 290.216C-28.6915 289.714 -24.2955 289.311 -19.8718 289.008C-19.1399 288.958 -18.5869 288.325 -18.6353 287.593C-18.8567 287.607 -19.0779 287.622 -19.299 287.636C-19.5203 287.651 -19.7415 287.666 -19.9627 287.681C-24.4067 287.985 -28.823 288.39 -33.2094 288.894C-33.4296 288.919 -33.6499 288.945 -33.8701 288.971C-34.0903 288.996 -34.3105 289.022 -34.5306 289.049ZM-8.00366 287.109C-7.98535 287.842 -7.37706 288.422 -6.64359 288.406C-4.43516 288.355 -2.22054 288.33 7.86781e-06 288.33C2.22051 288.33 4.43512 288.355 6.6435 288.406C7.377 288.422 7.98527 287.842 8.00358 287.109C7.782 287.103 7.56039 287.097 7.33869 287.092C7.1171 287.086 6.89546 287.081 6.67375 287.076C4.45527 287.025 2.2306 287 7.86781e-06 287C-2.23061 287 -4.45534 287.025 -6.67383 287.076C-6.89555 287.081 -7.11718 287.086 -7.33876 287.092C-7.56045 287.097 -7.78209 287.103 -8.00366 287.109ZM18.6353 287.593C18.5868 288.325 19.1398 288.958 19.8718 289.008C24.2954 289.311 28.6915 289.714 33.0576 290.216C33.7865 290.299 34.4453 289.777 34.5306 289.049C34.3105 289.022 34.0903 288.996 33.8701 288.971C33.6499 288.945 33.4296 288.919 33.2093 288.894C28.823 288.39 24.4067 287.985 19.9626 287.681C19.7415 287.666 19.5203 287.651 19.299 287.636C19.0778 287.622 18.8566 287.607 18.6353 287.593ZM45.0725 290.506C44.9569 291.23 45.4493 291.912 46.1735 292.029C50.5468 292.737 54.8869 293.544 59.1914 294.448C59.9094 294.599 60.6137 294.14 60.766 293.422C60.5492 293.376 60.3324 293.329 60.1155 293.283C59.8987 293.237 59.6818 293.192 59.4647 293.146C55.1401 292.238 50.7798 291.427 46.3861 290.716C46.1673 290.681 45.9484 290.645 45.7294 290.61C45.5105 290.575 45.2915 290.541 45.0725 290.506ZM71.1284 295.85C70.9462 296.561 71.3732 297.285 72.0834 297.469C76.37 298.579 80.6177 299.786 84.8239 301.087C85.5248 301.304 86.2686 300.912 86.4869 300.212C86.2754 300.146 86.0638 300.079 85.8522 300.013C85.6406 299.947 85.4288 299.881 85.217 299.816C80.9911 298.509 76.7236 297.296 72.417 296.181C72.2024 296.125 71.9877 296.07 71.7729 296.015C71.5582 295.96 71.3433 295.905 71.1284 295.85ZM96.5834 303.595C96.3359 304.285 96.6937 305.046 97.3837 305.295C101.546 306.798 105.663 308.395 109.733 310.082C110.411 310.363 111.188 310.043 111.471 309.366C111.266 309.28 111.062 309.195 110.857 309.109C110.652 309.024 110.448 308.939 110.243 308.854C106.154 307.158 102.017 305.554 97.8356 304.044C97.6271 303.968 97.4185 303.893 97.2097 303.818C97.0011 303.744 96.7923 303.669 96.5834 303.595ZM121.208 313.672C120.897 314.336 121.183 315.127 121.847 315.439C125.849 317.321 129.8 319.292 133.698 321.351C134.347 321.694 135.15 321.447 135.494 320.799C135.299 320.695 135.103 320.59 134.907 320.486C134.711 320.382 134.515 320.279 134.319 320.175C130.403 318.107 126.433 316.126 122.413 314.235C122.212 314.141 122.011 314.047 121.81 313.953C121.61 313.859 121.409 313.765 121.208 313.672ZM144.79 325.988C144.419 326.621 144.631 327.434 145.263 327.807C149.071 330.049 152.823 332.378 156.517 334.789C157.131 335.19 157.954 335.018 158.356 334.405C158.171 334.283 157.986 334.161 157.8 334.04C157.615 333.918 157.43 333.797 157.244 333.675C153.534 331.253 149.764 328.914 145.938 326.66C145.747 326.548 145.556 326.436 145.364 326.323C145.173 326.211 144.982 326.1 144.79 325.988ZM167.133 340.429C166.706 341.025 166.841 341.855 167.437 342.284C171.021 344.867 174.543 347.531 178 350.273C178.575 350.729 179.41 350.633 179.867 350.06C179.694 349.921 179.52 349.783 179.347 349.645C179.174 349.507 179 349.369 178.826 349.231C175.353 346.476 171.815 343.8 168.214 341.205C168.034 341.075 167.854 340.946 167.674 340.816C167.494 340.687 167.314 340.558 167.133 340.429ZM188.053 356.865C187.573 357.419 187.631 358.258 188.185 358.74C191.515 361.64 194.777 364.616 197.97 367.665C198.5 368.172 199.341 368.153 199.848 367.624C199.689 367.47 199.529 367.317 199.369 367.163C199.209 367.01 199.049 366.856 198.889 366.703C195.682 363.64 192.404 360.65 189.058 357.736C188.891 357.591 188.724 357.445 188.556 357.3C188.389 357.155 188.221 357.01 188.053 356.865ZM207.376 375.152C206.847 375.659 206.828 376.5 207.335 377.03C210.384 380.223 213.36 383.485 216.26 386.815C216.742 387.369 217.581 387.427 218.135 386.947C217.99 386.779 217.845 386.611 217.7 386.444C217.555 386.276 217.409 386.109 217.264 385.942C214.35 382.596 211.36 379.318 208.297 376.111C208.144 375.951 207.99 375.791 207.837 375.631C207.683 375.471 207.53 375.311 207.376 375.152ZM224.94 395.133C224.367 395.59 224.271 396.425 224.727 397C227.469 400.457 230.133 403.979 232.716 407.564C233.145 408.159 233.975 408.294 234.571 407.867C234.442 407.686 234.313 407.506 234.184 407.326C234.054 407.146 233.925 406.966 233.795 406.786C231.2 403.185 228.524 399.647 225.769 396.174C225.631 396 225.493 395.826 225.355 395.653C225.217 395.48 225.079 395.306 224.94 395.133ZM240.595 416.644C239.982 417.046 239.81 417.869 240.211 418.483C242.622 422.177 244.951 425.929 247.193 429.737C247.566 430.369 248.379 430.581 249.012 430.21C248.9 430.019 248.789 429.827 248.677 429.636C248.564 429.444 248.452 429.253 248.34 429.062C246.086 425.236 243.747 421.466 241.325 417.756C241.203 417.57 241.082 417.385 240.96 417.2C240.839 417.014 240.717 416.829 240.595 416.644ZM254.201 439.506C253.553 439.85 253.306 440.653 253.649 441.302C255.708 445.2 257.679 449.151 259.561 453.153C259.873 453.817 260.664 454.103 261.328 453.792C261.235 453.591 261.141 453.39 261.047 453.19C260.953 452.989 260.859 452.788 260.765 452.587C258.874 448.567 256.893 444.597 254.825 440.681C254.721 440.485 254.618 440.289 254.514 440.093C254.41 439.897 254.305 439.701 254.201 439.506ZM265.634 463.53C264.957 463.812 264.637 464.589 264.918 465.267C266.605 469.337 268.202 473.454 269.705 477.616C269.954 478.306 270.715 478.664 271.405 478.417C271.331 478.208 271.256 477.999 271.182 477.79C271.107 477.582 271.032 477.373 270.956 477.164C269.446 472.983 267.842 468.846 266.146 464.757C266.062 464.552 265.976 464.348 265.891 464.143C265.806 463.938 265.72 463.734 265.634 463.53ZM274.788 488.513C274.088 488.731 273.696 489.475 273.913 490.176C275.214 494.382 276.421 498.63 277.531 502.917C277.715 503.627 278.439 504.054 279.15 503.872C279.095 503.657 279.04 503.442 278.985 503.227C278.93 503.012 278.875 502.798 278.819 502.583C277.704 498.276 276.491 494.009 275.184 489.783C275.119 489.571 275.053 489.359 274.987 489.148C274.921 488.936 274.855 488.725 274.788 488.513ZM281.578 514.234C280.86 514.386 280.401 515.091 280.552 515.809C281.456 520.113 282.263 524.453 282.971 528.827C283.088 529.551 283.77 530.043 284.494 529.928C284.459 529.708 284.425 529.489 284.39 529.271C284.355 529.052 284.319 528.833 284.284 528.614C283.573 524.22 282.762 519.86 281.854 515.535C281.808 515.318 281.763 515.101 281.717 514.885C281.671 514.668 281.624 514.451 281.578 514.234ZM287.407 556.365C287.393 556.143 287.378 555.922 287.364 555.701C287.349 555.48 287.334 555.258 287.319 555.037C287.015 550.593 286.61 546.177 286.106 541.791C286.081 541.57 286.055 541.35 286.029 541.13C286.004 540.91 285.978 540.69 285.951 540.469C285.223 540.555 284.701 541.214 284.784 541.942C285.286 546.309 285.689 550.705 285.992 555.128C286.042 555.86 286.675 556.413 287.407 556.365Z" fill="white" fill-opacity="0.5"/>
<path fill-rule="evenodd" clip-rule="evenodd" d="M-5.76973e-05 666.788C50.6928 666.788 91.7875 625.693 91.7875 575C91.7875 524.308 50.6928 483.213 -5.76973e-05 483.213C-50.6929 483.213 -91.7876 524.308 -91.7876 575C-91.7876 625.693 -50.6929 666.788 -5.76973e-05 666.788ZM-5.76973e-05 733.301C87.4267 733.301 158.3 662.427 158.3 575C158.3 487.574 87.4267 416.7 -5.76973e-05 416.7C-87.4269 416.7 -158.3 487.574 -158.3 575C-158.3 662.427 -87.4269 733.301 -5.76973e-05 733.301Z" fill="white" fill-opacity="0.5"/>
</svg>
